const int tempo = 526315;
uint8_t midi_data[]  = {
  0x4d, 0x54, 0x68, 0x64, 0x00, 0x00, 0x00, 0x06, 0x00, 0x00, 0x00, 0x01,
  0x00, 0xc0, 0x4d, 0x54, 0x72, 0x6b, 0x00, 0x00, 0xde, 0x44, 0x00, 0xff,
  0x03, 0x25, 0x52, 0x69, 0x63, 0x6b, 0x5f, 0x41, 0x73, 0x74, 0x6c, 0x65,
  0x79, 0x5f, 0x2d, 0x5f, 0x4e, 0x65, 0x76, 0x65, 0x72, 0x5f, 0x47, 0x6f,
  0x6e, 0x6e, 0x61, 0x5f, 0x47, 0x69, 0x76, 0x65, 0x5f, 0x59, 0x6f, 0x75,
  0x5f, 0x55, 0x70, 0x00, 0xff, 0x51, 0x03, 0x08, 0x07, 0xeb, 0x00, 0xff,
  0x58, 0x04, 0x04, 0x02, 0x18, 0x08, 0x00, 0xff, 0x59, 0x02, 0x00, 0x00,
  0x04, 0xb9, 0x40, 0x00, 0x00, 0xb0, 0x40, 0x00, 0x00, 0xb1, 0x40, 0x00,
  0x00, 0xb2, 0x40, 0x00, 0x00, 0xb3, 0x40, 0x00, 0x00, 0xb4, 0x40, 0x00,
  0x00, 0xb5, 0x40, 0x00, 0x00, 0xb6, 0x40, 0x00, 0x00, 0xb9, 0x40, 0x00,
  0x00, 0xb9, 0x40, 0x00, 0x00, 0xb9, 0x40, 0x00, 0x00, 0xb9, 0x40, 0x00,
  0x00, 0xb9, 0x40, 0x00, 0x00, 0xb9, 0x40, 0x00, 0x00, 0xb9, 0x40, 0x00,
  0x00, 0xb9, 0x40, 0x00, 0x00, 0xb9, 0x40, 0x00, 0x00, 0xb9, 0x40, 0x00,
  0x00, 0xb9, 0x40, 0x00, 0x00, 0xb9, 0x40, 0x00, 0x00, 0xb9, 0x40, 0x00,
  0x00, 0xb9, 0x40, 0x00, 0x86, 0x5c, 0xc9, 0x00, 0x00, 0xb9, 0x65, 0x00,
  0x00, 0xb9, 0x64, 0x00, 0x00, 0xb9, 0x06, 0x18, 0x00, 0xb9, 0x07, 0x77,
  0x00, 0xe9, 0x00, 0x40, 0x00, 0xb9, 0x0a, 0x40, 0x00, 0x99, 0x25, 0x53,
  0x18, 0x89, 0x25, 0x53, 0x81, 0x28, 0x99, 0x25, 0x64, 0x18, 0x89, 0x25,
  0x64, 0x81, 0x28, 0x99, 0x25, 0x64, 0x18, 0x89, 0x25, 0x64, 0x81, 0x28,
  0x99, 0x25, 0x74, 0x18, 0x89, 0x25, 0x74, 0x81, 0x28, 0x99, 0x25, 0x74,
  0x18, 0x89, 0x25, 0x74, 0x81, 0x28, 0x99, 0x25, 0x74, 0x18, 0x89, 0x25,
  0x74, 0x48, 0x99, 0x30, 0x7a, 0x18, 0x89, 0x30, 0x7a, 0x18, 0x99, 0x30,
  0x7a, 0x18, 0x89, 0x30, 0x7a, 0x48, 0x99, 0x30, 0x7a, 0x18, 0x89, 0x30,
  0x7a, 0x18, 0x99, 0x30, 0x7a, 0x18, 0x89, 0x30, 0x7a, 0x18, 0x99, 0x30,
  0x7a, 0x18, 0x89, 0x30, 0x7a, 0x18, 0xb1, 0x00, 0x00, 0x00, 0xb1, 0x20,
  0x00, 0x00, 0xc1, 0x21, 0x00, 0xb1, 0x0a, 0x40, 0x00, 0xb1, 0x5b, 0x00,
  0x00, 0xb1, 0x5d, 0x00, 0x00, 0xb1, 0x65, 0x00, 0x00, 0xb1, 0x64, 0x00,
  0x00, 0xb1, 0x06, 0x18, 0x00, 0xb1, 0x07, 0x6d, 0x00, 0xe1, 0x00, 0x40,
  0x00, 0xb1, 0x0a, 0x40, 0x00, 0x91, 0x22, 0x75, 0x00, 0x99, 0x2d, 0x7a,
  0x18, 0x89, 0x2d, 0x7a, 0x18, 0x91, 0x20, 0x75, 0x00, 0x99, 0x2d, 0x7a,
  0x08, 0x81, 0x22, 0x75, 0x10, 0x89, 0x2d, 0x7a, 0x16, 0x81, 0x20, 0x75,
  0x02, 0x91, 0x1e, 0x75, 0x00, 0x99, 0x29, 0x7a, 0x18, 0x89, 0x29, 0x7a,
  0x0e, 0x81, 0x1e, 0x75, 0x0a, 0x91, 0x1d, 0x75, 0x00, 0x99, 0x29, 0x7a,
  0x18, 0x89, 0x29, 0x7a, 0x14, 0x81, 0x1d, 0x75, 0x04, 0xb0, 0x00, 0x00,
  0x00, 0xb0, 0x20, 0x00, 0x00, 0xc0, 0x05, 0x00, 0xb0, 0x0a, 0x40, 0x00,
  0xb0, 0x5b, 0x40, 0x00, 0xb0, 0x5d, 0x40, 0x00, 0xb0, 0x65, 0x00, 0x00,
  0xb0, 0x64, 0x00, 0x00, 0xb0, 0x06, 0x18, 0x00, 0xb0, 0x07, 0x4e, 0x00,
  0xe0, 0x00, 0x40, 0x00, 0xb0, 0x0a, 0x40, 0x00, 0x90, 0x41, 0x63, 0x00,
  0x90, 0x3d, 0x70, 0x00, 0x90, 0x3a, 0x70, 0x00, 0x90, 0x36, 0x5e, 0x00,
  0x91, 0x1b, 0x75, 0x00, 0xb2, 0x00, 0x00, 0x00, 0xb2, 0x20, 0x00, 0x00,
  0xc2, 0x36, 0x00, 0xb2, 0x0a, 0x40, 0x00, 0xb2, 0x5b, 0x40, 0x00, 0xb2,
  0x5d, 0x40, 0x00, 0xb2, 0x65, 0x00, 0x00, 0xb2, 0x64, 0x00, 0x00, 0xb2,
  0x06, 0x18, 0x00, 0xb2, 0x07, 0x63, 0x00, 0xe2, 0x00, 0x40, 0x00, 0xb2,
  0x0a, 0x40, 0x00, 0x92, 0x42, 0x63, 0x00, 0x92, 0x3d, 0x63, 0x00, 0x92,
  0x3a, 0x63, 0x00, 0xb3, 0x00, 0x00, 0x00, 0xb3, 0x20, 0x00, 0x00, 0xc3,
  0x30, 0x00, 0xb3, 0x0a, 0x40, 0x00, 0xb3, 0x5b, 0x40, 0x00, 0xb3, 0x5d,
  0x00, 0x00, 0xb3, 0x65, 0x00, 0x00, 0xb3, 0x64, 0x00, 0x00, 0xb3, 0x06,
  0x18, 0x00, 0xb3, 0x07, 0x58, 0x00, 0xe3, 0x00, 0x40, 0x00, 0xb3, 0x0a,
  0x40, 0x00, 0x93, 0x55, 0x62, 0x00, 0x99, 0x24, 0x7f, 0x00, 0x99, 0x2a,
  0x7a, 0x00, 0x99, 0x3c, 0x53, 0x18, 0x89, 0x24, 0x7f, 0x00, 0x89, 0x2a,
  0x7a, 0x00, 0x89, 0x3c, 0x53, 0x0a, 0x81, 0x1b, 0x75, 0x0e, 0xb5, 0x00,
  0x00, 0x00, 0xb5, 0x20, 0x00, 0x00, 0xc5, 0x1c, 0x00, 0xb5, 0x0a, 0x40,
  0x00, 0xb5, 0x5b, 0x40, 0x00, 0xb5, 0x5d, 0x36, 0x00, 0xb5, 0x65, 0x00,
  0x00, 0xb5, 0x64, 0x00, 0x00, 0xb5, 0x06, 0x18, 0x00, 0xb5, 0x07, 0x4e,
  0x00, 0xe5, 0x00, 0x40, 0x00, 0xb5, 0x0a, 0x40, 0x00, 0x95, 0x38, 0x69,
  0x10, 0x85, 0x38, 0x69, 0x20, 0x91, 0x1b, 0x75, 0x00, 0x99, 0x2a, 0x36,
  0x18, 0x89, 0x2a, 0x36, 0x0a, 0x81, 0x1b, 0x75, 0x0e, 0x91, 0x1b, 0x75,
  0x00, 0x99, 0x2a, 0x64, 0x00, 0x99, 0x3e, 0x53, 0x18, 0x89, 0x2a, 0x64,
  0x00, 0x89, 0x3e, 0x53, 0x0a, 0x81, 0x1b, 0x75, 0x0e, 0x95, 0x38, 0x69,
  0x00, 0x99, 0x24, 0x7f, 0x00, 0x99, 0x26, 0x70, 0x00, 0x99, 0x2a, 0x74,
  0x00, 0x99, 0x3c, 0x53, 0x00, 0x99, 0x27, 0x64, 0x10, 0x85, 0x38, 0x69,
  0x08, 0x89, 0x24, 0x7f, 0x00, 0x89, 0x26, 0x70, 0x00, 0x89, 0x2a, 0x74,
  0x00, 0x89, 0x3c, 0x53, 0x00, 0x89, 0x27, 0x64, 0x18, 0x91, 0x24, 0x75,
  0x20, 0x82, 0x3d, 0x63, 0x02, 0x81, 0x24, 0x75, 0x00, 0x83, 0x55, 0x62,
  0x08, 0x82, 0x3a, 0x63, 0x06, 0x80, 0x41, 0x63, 0x00, 0x80, 0x3d, 0x70,
  0x00, 0x80, 0x3a, 0x70, 0x00, 0x80, 0x36, 0x5e, 0x00, 0x90, 0x3f, 0x7a,
  0x00, 0x90, 0x3c, 0x63, 0x00, 0x90, 0x38, 0x4e, 0x00, 0x91, 0x22, 0x75,
  0x00, 0x92, 0x44, 0x63, 0x00, 0x92, 0x3f, 0x63, 0x00, 0x92, 0x3c, 0x63,
  0x00, 0x93, 0x57, 0x62, 0x00, 0x99, 0x2a, 0x28, 0x00, 0x99, 0x3d, 0x53,
  0x14, 0x82, 0x42, 0x63, 0x04, 0x89, 0x2a, 0x28, 0x00, 0x89, 0x3d, 0x53,
  0x0a, 0x81, 0x22, 0x75, 0x0e, 0x95, 0x35, 0x69, 0x00, 0x99, 0x2a, 0x53,
  0x10, 0x85, 0x35, 0x69, 0x08, 0x89, 0x2a, 0x53, 0x18, 0x91, 0x20, 0x75,
  0x00, 0x95, 0x38, 0x69, 0x00, 0x99, 0x24, 0x7f, 0x00, 0x99, 0x2a, 0x74,
  0x00, 0x99, 0x3c, 0x53, 0x10, 0x85, 0x38, 0x69, 0x08, 0x89, 0x24, 0x7f,
  0x00, 0x89, 0x2a, 0x74, 0x00, 0x89, 0x3c, 0x53, 0x0a, 0x81, 0x20, 0x75,
  0x3e, 0x91, 0x20, 0x75, 0x00, 0x99, 0x2a, 0x30, 0x18, 0x89, 0x2a, 0x30,
  0x0a, 0x81, 0x20, 0x75, 0x0e, 0x95, 0x38, 0x69, 0x00, 0x99, 0x2a, 0x47,
  0x00, 0x99, 0x3e, 0x53, 0x10, 0x85, 0x38, 0x69, 0x08, 0x89, 0x2a, 0x47,
  0x00, 0x89, 0x3e, 0x53, 0x18, 0x99, 0x24, 0x7f, 0x00, 0x99, 0x26, 0x7c,
  0x00, 0x99, 0x2a, 0x74, 0x00, 0x99, 0x3c, 0x53, 0x00, 0x99, 0x27, 0x74,
  0x18, 0x89, 0x24, 0x7f, 0x00, 0x89, 0x26, 0x7c, 0x00, 0x89, 0x2a, 0x74,
  0x00, 0x89, 0x3c, 0x53, 0x00, 0x89, 0x27, 0x74, 0x48, 0x91, 0x1b, 0x75,
  0x00, 0x93, 0x50, 0x62, 0x00, 0x95, 0x35, 0x69, 0x00, 0x99, 0x2a, 0x0d,
  0x00, 0x99, 0x3d, 0x53, 0x04, 0x83, 0x57, 0x62, 0x0c, 0x85, 0x35, 0x69,
  0x08, 0x89, 0x2a, 0x0d, 0x00, 0x89, 0x3d, 0x53, 0x0a, 0x81, 0x1b, 0x75,
  0x0e, 0x91, 0x20, 0x75, 0x00, 0x95, 0x38, 0x69, 0x00, 0x99, 0x2a, 0x47,
  0x10, 0x85, 0x38, 0x69, 0x08, 0x89, 0x2a, 0x47, 0x0a, 0x81, 0x20, 0x75,
  0x0e, 0x80, 0x3f, 0x7a, 0x00, 0x80, 0x3c, 0x63, 0x00, 0x80, 0x38, 0x4e,
  0x00, 0x90, 0x3f, 0x70, 0x00, 0x90, 0x3c, 0x63, 0x00, 0x90, 0x38, 0x5e,
  0x00, 0x91, 0x1d, 0x75, 0x00, 0x93, 0x57, 0x62, 0x00, 0x99, 0x24, 0x7f,
  0x00, 0x99, 0x2a, 0x64, 0x00, 0x99, 0x3c, 0x53, 0x02, 0x83, 0x50, 0x62,
  0x16, 0x89, 0x24, 0x7f, 0x00, 0x89, 0x2a, 0x64, 0x00, 0x89, 0x3c, 0x53,
  0x0a, 0x81, 0x1d, 0x75, 0x0e, 0x95, 0x38, 0x69, 0x10, 0x85, 0x38, 0x69,
  0x20, 0x91, 0x1d, 0x75, 0x00, 0x99, 0x2a, 0x36, 0x18, 0x89, 0x2a, 0x36,
  0x0a, 0x81, 0x1d, 0x75, 0x0e, 0x91, 0x24, 0x75, 0x00, 0x99, 0x2a, 0x53,
  0x00, 0x99, 0x3e, 0x53, 0x18, 0x89, 0x2a, 0x53, 0x00, 0x89, 0x3e, 0x53,
  0x0a, 0x81, 0x24, 0x75, 0x0e, 0x95, 0x38, 0x69, 0x00, 0x99, 0x24, 0x7f,
  0x00, 0x99, 0x26, 0x70, 0x00, 0x99, 0x2a, 0x74, 0x00, 0x99, 0x3c, 0x53,
  0x00, 0x99, 0x27, 0x74, 0x10, 0x85, 0x38, 0x69, 0x08, 0x89, 0x24, 0x7f,
  0x00, 0x89, 0x26, 0x70, 0x00, 0x89, 0x2a, 0x74, 0x00, 0x89, 0x3c, 0x53,
  0x00, 0x89, 0x27, 0x74, 0x18, 0x91, 0x24, 0x75, 0x20, 0x82, 0x3f, 0x63,
  0x02, 0x81, 0x24, 0x75, 0x06, 0x82, 0x3c, 0x63, 0x08, 0x80, 0x3f, 0x70,
  0x00, 0x80, 0x3c, 0x63, 0x00, 0x80, 0x38, 0x5e, 0x00, 0x90, 0x41, 0x63,
  0x00, 0x90, 0x3d, 0x70, 0x00, 0x90, 0x3a, 0x70, 0x00, 0x91, 0x22, 0x75,
  0x00, 0x92, 0x41, 0x63, 0x00, 0x92, 0x3d, 0x63, 0x00, 0x93, 0x59, 0x62,
  0x00, 0x99, 0x2a, 0x36, 0x00, 0x99, 0x3d, 0x53, 0x02, 0x83, 0x57, 0x62,
  0x16, 0x89, 0x2a, 0x36, 0x00, 0x89, 0x3d, 0x53, 0x0a, 0x81, 0x22, 0x75,
  0x0e, 0x95, 0x35, 0x69, 0x00, 0x99, 0x2a, 0x47, 0x10, 0x85, 0x35, 0x69,
  0x08, 0x89, 0x2a, 0x47, 0x18, 0x95, 0x38, 0x69, 0x00, 0x99, 0x24, 0x7f,
  0x00, 0x99, 0x2a, 0x64, 0x00, 0x99, 0x3c, 0x53, 0x10, 0x85, 0x38, 0x69,
  0x08, 0x89, 0x24, 0x7f, 0x00, 0x89, 0x2a, 0x64, 0x00, 0x89, 0x3c, 0x53,
  0x48, 0x91, 0x22, 0x75, 0x00, 0x95, 0x38, 0x69, 0x00, 0x99, 0x2a, 0x47,
  0x10, 0x85, 0x38, 0x69, 0x08, 0x89, 0x2a, 0x47, 0x0a, 0x81, 0x22, 0x75,
  0x0e, 0x91, 0x22, 0x75, 0x00, 0x99, 0x2a, 0x47, 0x00, 0x99, 0x3e, 0x53,
  0x18, 0x89, 0x2a, 0x47, 0x00, 0x89, 0x3e, 0x53, 0x0a, 0x81, 0x22, 0x75,
  0x0a, 0x83, 0x59, 0x62, 0x04, 0x92, 0x3f, 0x63, 0x00, 0x92, 0x3c, 0x63,
  0x00, 0x93, 0x5c, 0x62, 0x00, 0x95, 0x38, 0x69, 0x00, 0x99, 0x24, 0x7f,
  0x00, 0x99, 0x26, 0x70, 0x00, 0x99, 0x2a, 0x74, 0x00, 0x99, 0x3c, 0x53,
  0x00, 0x99, 0x27, 0x64, 0x06, 0x82, 0x3d, 0x63, 0x0a, 0x85, 0x38, 0x69,
  0x08, 0x89, 0x24, 0x7f, 0x00, 0x89, 0x26, 0x70, 0x00, 0x89, 0x2a, 0x74,
  0x00, 0x89, 0x3c, 0x53, 0x00, 0x89, 0x27, 0x64, 0x0a, 0x82, 0x41, 0x63,
  0x0e, 0x91, 0x24, 0x75, 0x00, 0x93, 0x5a, 0x62, 0x00, 0x95, 0x3a, 0x69,
  0x02, 0x83, 0x5c, 0x62, 0x0e, 0x85, 0x3a, 0x69, 0x12, 0x81, 0x24, 0x75,
  0x0e, 0x91, 0x22, 0x75, 0x00, 0x93, 0x59, 0x62, 0x00, 0x99, 0x2e, 0x44,
  0x00, 0x99, 0x3d, 0x53, 0x02, 0x83, 0x5a, 0x62, 0x16, 0x89, 0x2e, 0x44,
  0x00, 0x89, 0x3d, 0x53, 0x0a, 0x81, 0x22, 0x75, 0x0e, 0x93, 0x55, 0x62,
  0x08, 0x83, 0x59, 0x62, 0x16, 0x82, 0x3c, 0x63, 0x12, 0x80, 0x41, 0x63,
  0x00, 0x80, 0x3d, 0x70, 0x00, 0x80, 0x3a, 0x70, 0x00, 0x82, 0x3f, 0x63,
  0x00, 0x90, 0x41, 0x63, 0x00, 0x90, 0x3d, 0x70, 0x00, 0x90, 0x3a, 0x70,
  0x00, 0x90, 0x36, 0x5e, 0x00, 0x91, 0x1b, 0x75, 0x00, 0x92, 0x42, 0x63,
  0x00, 0x92, 0x3d, 0x63, 0x00, 0x92, 0x3a, 0x63, 0x00, 0x99, 0x24, 0x7f,
  0x00, 0x99, 0x2a, 0x74, 0x00, 0x99, 0x3c, 0x53, 0x04, 0x82, 0x44, 0x63,
  0x14, 0x89, 0x24, 0x7f, 0x00, 0x89, 0x2a, 0x74, 0x00, 0x89, 0x3c, 0x53,
  0x0a, 0x81, 0x1b, 0x75, 0x0e, 0x95, 0x38, 0x69, 0x10, 0x85, 0x38, 0x69,
  0x20, 0x91, 0x1b, 0x75, 0x00, 0x99, 0x2a, 0x2c, 0x18, 0x89, 0x2a, 0x2c,
  0x0a, 0x81, 0x1b, 0x75, 0x0e, 0x91, 0x24, 0x75, 0x00, 0x99, 0x2a, 0x64,
  0x00, 0x99, 0x3e, 0x53, 0x18, 0x89, 0x2a, 0x64, 0x00, 0x89, 0x3e, 0x53,
  0x0a, 0x81, 0x24, 0x75, 0x0e, 0x95, 0x38, 0x69, 0x00, 0x99, 0x24, 0x7f,
  0x00, 0x99, 0x26, 0x7c, 0x00, 0x99, 0x2a, 0x74, 0x00, 0x99, 0x3c, 0x53,
  0x00, 0x99, 0x27, 0x64, 0x10, 0x85, 0x38, 0x69, 0x08, 0x89, 0x24, 0x7f,
  0x00, 0x89, 0x26, 0x7c, 0x00, 0x89, 0x2a, 0x74, 0x00, 0x89, 0x3c, 0x53,
  0x00, 0x89, 0x27, 0x64, 0x18, 0x91, 0x24, 0x75, 0x22, 0x81, 0x24, 0x75,
  0x08, 0x82, 0x3d, 0x63, 0x06, 0x80, 0x41, 0x63, 0x00, 0x80, 0x3d, 0x70,
  0x00, 0x80, 0x3a, 0x70, 0x00, 0x80, 0x36, 0x5e, 0x00, 0x90, 0x3f, 0x7a,
  0x00, 0x90, 0x3c, 0x63, 0x00, 0x90, 0x38, 0x4e, 0x00, 0x91, 0x22, 0x75,
  0x00, 0x92, 0x44, 0x63, 0x00, 0x92, 0x3c, 0x63, 0x00, 0x92, 0x3f, 0x63,
  0x00, 0x93, 0x57, 0x62, 0x00, 0x99, 0x2a, 0x21, 0x00, 0x99, 0x3d, 0x53,
  0x0a, 0x83, 0x55, 0x62, 0x02, 0x82, 0x3a, 0x63, 0x0c, 0x89, 0x2a, 0x21,
  0x00, 0x89, 0x3d, 0x53, 0x0a, 0x81, 0x22, 0x75, 0x02, 0x82, 0x42, 0x63,
  0x0c, 0x95, 0x35, 0x69, 0x00, 0x99, 0x2a, 0x53, 0x10, 0x85, 0x35, 0x69,
  0x08, 0x89, 0x2a, 0x53, 0x18, 0x91, 0x20, 0x75, 0x00, 0x95, 0x38, 0x69,
  0x00, 0x99, 0x24, 0x7f, 0x00, 0x99, 0x2a, 0x74, 0x00, 0x99, 0x3c, 0x53,
  0x10, 0x85, 0x38, 0x69, 0x08, 0x89, 0x24, 0x7f, 0x00, 0x89, 0x2a, 0x74,
  0x00, 0x89, 0x3c, 0x53, 0x0a, 0x81, 0x20, 0x75, 0x3e, 0x91, 0x20, 0x75,
  0x00, 0x95, 0x38, 0x69, 0x00, 0x99, 0x2a, 0x47, 0x10, 0x85, 0x38, 0x69,
  0x08, 0x89, 0x2a, 0x47, 0x0a, 0x81, 0x20, 0x75, 0x0e, 0x99, 0x2a, 0x53,
  0x00, 0x99, 0x3e, 0x53, 0x18, 0x89, 0x2a, 0x53, 0x00, 0x89, 0x3e, 0x53,
  0x10, 0x83, 0x57, 0x62, 0x08, 0x93, 0x50, 0x62, 0x00, 0x99, 0x24, 0x7f,
  0x00, 0x99, 0x26, 0x70, 0x00, 0x99, 0x2a, 0x7f, 0x00, 0x99, 0x3c, 0x53,
  0x00, 0x99, 0x27, 0x74, 0x18, 0x89, 0x24, 0x7f, 0x00, 0x89, 0x26, 0x70,
  0x00, 0x89, 0x2a, 0x7f, 0x00, 0x89, 0x3c, 0x53, 0x00, 0x89, 0x27, 0x74,
  0x48, 0x91, 0x1b, 0x75, 0x00, 0x95, 0x33, 0x69, 0x00, 0x99, 0x2a, 0x30,
  0x00, 0x99, 0x3d, 0x53, 0x10, 0x85, 0x33, 0x69, 0x08, 0x89, 0x2a, 0x30,
  0x00, 0x89, 0x3d, 0x53, 0x0a, 0x81, 0x1b, 0x75, 0x0e, 0x91, 0x1b, 0x75,
  0x00, 0x95, 0x35, 0x69, 0x00, 0x99, 0x2a, 0x3d, 0x10, 0x85, 0x35, 0x69,
  0x08, 0x89, 0x2a, 0x3d, 0x0a, 0x81, 0x1b, 0x75, 0x0e, 0x80, 0x3f, 0x7a,
  0x00, 0x80, 0x3c, 0x63, 0x00, 0x80, 0x38, 0x4e, 0x00, 0x90, 0x3f, 0x70,
  0x00, 0x90, 0x3c, 0x63, 0x00, 0x90, 0x38, 0x5e, 0x00, 0x91, 0x1d, 0x75,
  0x00, 0x92, 0x38, 0x63, 0x00, 0x99, 0x24, 0x7f, 0x00, 0x99, 0x2a, 0x74,
  0x00, 0x99, 0x3c, 0x53, 0x18, 0x89, 0x24, 0x7f, 0x00, 0x89, 0x2a, 0x74,
  0x00, 0x89, 0x3c, 0x53, 0x0a, 0x81, 0x1d, 0x75, 0x0e, 0x95, 0x38, 0x69,
  0x10, 0x85, 0x38, 0x69, 0x20, 0x91, 0x1d, 0x75, 0x00, 0x99, 0x2a, 0x47,
  0x18, 0x89, 0x2a, 0x47, 0x0a, 0x81, 0x1d, 0x75, 0x0e, 0x91, 0x1d, 0x75,
  0x00, 0x99, 0x2a, 0x47, 0x00, 0x99, 0x3e, 0x53, 0x18, 0x89, 0x2a, 0x47,
  0x00, 0x89, 0x3e, 0x53, 0x0a, 0x81, 0x1d, 0x75, 0x04, 0x82, 0x3c, 0x63,
  0x02, 0x82, 0x38, 0x63, 0x04, 0x82, 0x3f, 0x63, 0x04, 0x92, 0x41, 0x63,
  0x00, 0x92, 0x3d, 0x63, 0x00, 0x95, 0x38, 0x69, 0x00, 0x99, 0x24, 0x7f,
  0x00, 0x99, 0x26, 0x7c, 0x00, 0x99, 0x2a, 0x74, 0x00, 0x99, 0x3c, 0x53,
  0x00, 0x99, 0x27, 0x64, 0x10, 0x85, 0x38, 0x69, 0x08, 0x89, 0x24, 0x7f,
  0x00, 0x89, 0x26, 0x7c, 0x00, 0x89, 0x2a, 0x74, 0x00, 0x89, 0x3c, 0x53,
  0x00, 0x89, 0x27, 0x64, 0x18, 0x91, 0x24, 0x75, 0x22, 0x81, 0x24, 0x75,
  0x0e, 0x80, 0x3f, 0x70, 0x00, 0x80, 0x3c, 0x63, 0x00, 0x80, 0x38, 0x5e,
  0x00, 0x90, 0x41, 0x63, 0x00, 0x90, 0x3d, 0x70, 0x00, 0x90, 0x3a, 0x70,
  0x00, 0x91, 0x22, 0x75, 0x00, 0x99, 0x2e, 0x44, 0x00, 0x99, 0x3d, 0x53,
  0x18, 0x89, 0x2e, 0x44, 0x00, 0x89, 0x3d, 0x53, 0x0a, 0x81, 0x22, 0x75,
  0x0e, 0x95, 0x35, 0x69, 0x10, 0x85, 0x35, 0x69, 0x20, 0xb4, 0x00, 0x00,
  0x00, 0xb4, 0x20, 0x00, 0x00, 0xc4, 0x3d, 0x00, 0xb4, 0x0a, 0x40, 0x00,
  0xb4, 0x5b, 0x40, 0x00, 0xb4, 0x5d, 0x3a, 0x00, 0xb4, 0x65, 0x00, 0x00,
  0xb4, 0x64, 0x00, 0x00, 0xb4, 0x06, 0x18, 0x00, 0xb4, 0x07, 0x58, 0x00,
  0xe4, 0x00, 0x40, 0x00, 0xb4, 0x0a, 0x40, 0x00, 0x94, 0x55, 0x7e, 0x00,
  0x94, 0x50, 0x7e, 0x00, 0x94, 0x44, 0x7e, 0x00, 0x95, 0x38, 0x69, 0x00,
  0x99, 0x24, 0x7f, 0x00, 0x99, 0x2a, 0x74, 0x00, 0x99, 0x3c, 0x53, 0x10,
  0x85, 0x38, 0x69, 0x02, 0x84, 0x55, 0x7e, 0x02, 0x84, 0x44, 0x7e, 0x04,
  0x89, 0x24, 0x7f, 0x00, 0x89, 0x2a, 0x74, 0x00, 0x89, 0x3c, 0x53, 0x08,
  0x84, 0x50, 0x7e, 0x10, 0x94, 0x55, 0x7e, 0x00, 0x94, 0x50, 0x7e, 0x00,
  0x94, 0x44, 0x7e, 0x16, 0x84, 0x55, 0x7e, 0x04, 0x84, 0x50, 0x7e, 0x04,
  0x84, 0x44, 0x7e, 0x12, 0x91, 0x20, 0x75, 0x00, 0x95, 0x38, 0x69, 0x00,
  0x99, 0x2a, 0x3d, 0x10, 0x85, 0x38, 0x69, 0x08, 0x89, 0x2a, 0x3d, 0x0a,
  0x81, 0x20, 0x75, 0x0e, 0x94, 0x55, 0x7e, 0x00, 0x94, 0x50, 0x7e, 0x00,
  0x94, 0x44, 0x7e, 0x00, 0x99, 0x2a, 0x64, 0x00, 0x99, 0x3e, 0x53, 0x0e,
  0x84, 0x50, 0x7e, 0x06, 0x84, 0x55, 0x7e, 0x02, 0x84, 0x44, 0x7e, 0x02,
  0x89, 0x2a, 0x64, 0x00, 0x89, 0x3e, 0x53, 0x18, 0x91, 0x25, 0x7f, 0x00,
  0x94, 0x55, 0x7e, 0x00, 0x94, 0x50, 0x7e, 0x00, 0x94, 0x44, 0x7e, 0x00,
  0x99, 0x24, 0x7f, 0x00, 0x99, 0x26, 0x7d, 0x00, 0x99, 0x2a, 0x74, 0x00,
  0x99, 0x3c, 0x53, 0x00, 0x99, 0x27, 0x7d, 0x16, 0x84, 0x55, 0x7e, 0x00,
  0x84, 0x50, 0x7e, 0x02, 0x84, 0x44, 0x7e, 0x00, 0x89, 0x24, 0x7f, 0x00,
  0x89, 0x26, 0x7d, 0x00, 0x89, 0x2a, 0x74, 0x00, 0x89, 0x3c, 0x53, 0x00,
  0x89, 0x27, 0x7d, 0x0a, 0x81, 0x25, 0x7f, 0x0e, 0x91, 0x22, 0x7f, 0x00,
  0x94, 0x55, 0x7e, 0x00, 0x94, 0x50, 0x7e, 0x00, 0x94, 0x44, 0x7e, 0x00,
  0x95, 0x38, 0x69, 0x00, 0x99, 0x27, 0x69, 0x10, 0x85, 0x38, 0x69, 0x06,
  0x84, 0x55, 0x7e, 0x00, 0x84, 0x50, 0x7e, 0x02, 0x89, 0x27, 0x69, 0x02,
  0x84, 0x44, 0x7e, 0x08, 0x81, 0x22, 0x7f, 0x0e, 0x94, 0x55, 0x7e, 0x00,
  0x94, 0x50, 0x7e, 0x00, 0x94, 0x44, 0x7e, 0x00, 0x99, 0x2e, 0x5f, 0x00,
  0x99, 0x3d, 0x53, 0x00, 0x99, 0x27, 0x55, 0x16, 0x84, 0x55, 0x7e, 0x02,
  0x84, 0x50, 0x7e, 0x00, 0x84, 0x44, 0x7e, 0x00, 0x89, 0x2e, 0x5f, 0x00,
  0x89, 0x3d, 0x53, 0x00, 0x89, 0x27, 0x55, 0x02, 0x82, 0x41, 0x63, 0x08,
  0x82, 0x44, 0x63, 0x04, 0x82, 0x3d, 0x63, 0x0a, 0x91, 0x25, 0x7f, 0x00,
  0x94, 0x55, 0x7e, 0x00, 0x94, 0x50, 0x7e, 0x00, 0x94, 0x44, 0x7e, 0x00,
  0x95, 0x38, 0x69, 0x00, 0x99, 0x27, 0x41, 0x0a, 0x83, 0x50, 0x62, 0x06,
  0x85, 0x38, 0x69, 0x08, 0x89, 0x27, 0x41, 0x02, 0x84, 0x55, 0x7e, 0x00,
  0x84, 0x44, 0x7e, 0x02, 0x84, 0x50, 0x7e, 0x06, 0x81, 0x25, 0x7f, 0x0e,
  0x80, 0x41, 0x63, 0x00, 0x80, 0x3d, 0x70, 0x00, 0x80, 0x3a, 0x70, 0x00,
  0x90, 0x41, 0x63, 0x00, 0x90, 0x3d, 0x70, 0x00, 0x90, 0x3a, 0x70, 0x00,
  0x90, 0x36, 0x5e, 0x00, 0x91, 0x1b, 0x7f, 0x00, 0x92, 0x42, 0x7f, 0x00,
  0x92, 0x3d, 0x7f, 0x00, 0x92, 0x3a, 0x7f, 0x00, 0x93, 0x55, 0x7f, 0x00,
  0x99, 0x24, 0x7f, 0x00, 0x99, 0x2a, 0x70, 0x00, 0x99, 0x3c, 0x53, 0x18,
  0x89, 0x24, 0x7f, 0x00, 0x89, 0x2a, 0x70, 0x00, 0x89, 0x3c, 0x53, 0x0a,
  0x81, 0x1b, 0x7f, 0x0e, 0x95, 0x38, 0x7f, 0x10, 0x85, 0x38, 0x7f, 0x20,
  0x91, 0x1b, 0x7f, 0x00, 0x99, 0x2a, 0x36, 0x18, 0x89, 0x2a, 0x36, 0x0a,
  0x81, 0x1b, 0x7f, 0x0e, 0x91, 0x1b, 0x7f, 0x00, 0x99, 0x2a, 0x64, 0x00,
  0x99, 0x3e, 0x53, 0x18, 0x89, 0x2a, 0x64, 0x00, 0x89, 0x3e, 0x53, 0x0a,
  0x81, 0x1b, 0x7f, 0x0e, 0x95, 0x38, 0x7f, 0x00, 0x99, 0x24, 0x7f, 0x00,
  0x99, 0x26, 0x70, 0x00, 0x99, 0x2a, 0x74, 0x00, 0x99, 0x3c, 0x53, 0x00,
  0x99, 0x27, 0x64, 0x10, 0x85, 0x38, 0x7f, 0x08, 0x89, 0x24, 0x7f, 0x00,
  0x89, 0x26, 0x70, 0x00, 0x89, 0x2a, 0x74, 0x00, 0x89, 0x3c, 0x53, 0x00,
  0x89, 0x27, 0x64, 0x18, 0x91, 0x24, 0x7f, 0x20, 0x82, 0x3d, 0x7f, 0x02,
  0x81, 0x24, 0x7f, 0x00, 0x83, 0x55, 0x7f, 0x08, 0x82, 0x3a, 0x7f, 0x06,
  0x80, 0x41, 0x63, 0x00, 0x80, 0x3d, 0x70, 0x00, 0x80, 0x3a, 0x70, 0x00,
  0x80, 0x36, 0x5e, 0x00, 0x90, 0x3f, 0x7f, 0x00, 0x90, 0x3c, 0x7f, 0x00,
  0x90, 0x38, 0x7f, 0x00, 0x91, 0x22, 0x7f, 0x00, 0x92, 0x44, 0x7f, 0x00,
  0x92, 0x3f, 0x7f, 0x00, 0x92, 0x3c, 0x7f, 0x00, 0x93, 0x57, 0x7f, 0x00,
  0x99, 0x2a, 0x28, 0x00, 0x99, 0x3d, 0x53, 0x14, 0x82, 0x42, 0x7f, 0x04,
  0x89, 0x2a, 0x28, 0x00, 0x89, 0x3d, 0x53, 0x0a, 0x81, 0x22, 0x7f, 0x0e,
  0x95, 0x35, 0x7f, 0x00, 0x99, 0x2a, 0x53, 0x10, 0x85, 0x35, 0x7f, 0x08,
  0x89, 0x2a, 0x53, 0x18, 0x91, 0x20, 0x7f, 0x00, 0x95, 0x38, 0x7f, 0x00,
  0x99, 0x24, 0x7f, 0x00, 0x99, 0x2a, 0x74, 0x00, 0x99, 0x3c, 0x53, 0x10,
  0x85, 0x38, 0x7f, 0x08, 0x89, 0x24, 0x7f, 0x00, 0x89, 0x2a, 0x74, 0x00,
  0x89, 0x3c, 0x53, 0x0a, 0x81, 0x20, 0x7f, 0x3e, 0x91, 0x20, 0x7f, 0x00,
  0x99, 0x2a, 0x30, 0x18, 0x89, 0x2a, 0x30, 0x0a, 0x81, 0x20, 0x7f, 0x0e,
  0x95, 0x38, 0x7f, 0x00, 0x99, 0x2a, 0x47, 0x00, 0x99, 0x3e, 0x53, 0x10,
  0x85, 0x38, 0x7f, 0x08, 0x89, 0x2a, 0x47, 0x00, 0x89, 0x3e, 0x53, 0x18,
  0x99, 0x24, 0x7f, 0x00, 0x99, 0x26, 0x7c, 0x00, 0x99, 0x2a, 0x74, 0x00,
  0x99, 0x3c, 0x53, 0x00, 0x99, 0x27, 0x74, 0x18, 0x89, 0x24, 0x7f, 0x00,
  0x89, 0x26, 0x7c, 0x00, 0x89, 0x2a, 0x74, 0x00, 0x89, 0x3c, 0x53, 0x00,
  0x89, 0x27, 0x74, 0x48, 0x91, 0x1b, 0x7f, 0x00, 0x93, 0x50, 0x7f, 0x00,
  0x95, 0x35, 0x7f, 0x00, 0x99, 0x2a, 0x0d, 0x00, 0x99, 0x3d, 0x53, 0x04,
  0x83, 0x57, 0x7f, 0x0c, 0x85, 0x35, 0x7f, 0x08, 0x89, 0x2a, 0x0d, 0x00,
  0x89, 0x3d, 0x53, 0x0a, 0x81, 0x1b, 0x7f, 0x0e, 0x91, 0x20, 0x7f, 0x00,
  0x95, 0x38, 0x7f, 0x00, 0x99, 0x2a, 0x47, 0x10, 0x85, 0x38, 0x7f, 0x08,
  0x89, 0x2a, 0x47, 0x0a, 0x81, 0x20, 0x7f, 0x0e, 0x80, 0x3f, 0x7f, 0x00,
  0x80, 0x3c, 0x7f, 0x00, 0x80, 0x38, 0x7f, 0x00, 0x90, 0x3f, 0x7f, 0x00,
  0x90, 0x3c, 0x7f, 0x00, 0x90, 0x38, 0x7f, 0x00, 0x91, 0x1d, 0x7f, 0x00,
  0x93, 0x57, 0x7f, 0x00, 0x99, 0x24, 0x7f, 0x00, 0x99, 0x2a, 0x64, 0x00,
  0x99, 0x3c, 0x53, 0x02, 0x83, 0x50, 0x7f, 0x16, 0x89, 0x24, 0x7f, 0x00,
  0x89, 0x2a, 0x64, 0x00, 0x89, 0x3c, 0x53, 0x0a, 0x81, 0x1d, 0x7f, 0x0e,
  0x95, 0x38, 0x7f, 0x10, 0x85, 0x38, 0x7f, 0x20, 0x91, 0x1d, 0x7f, 0x00,
  0x99, 0x2a, 0x36, 0x18, 0x89, 0x2a, 0x36, 0x0a, 0x81, 0x1d, 0x7f, 0x0e,
  0x91, 0x24, 0x7f, 0x00, 0x99, 0x2a, 0x53, 0x00, 0x99, 0x3e, 0x53, 0x18,
  0x89, 0x2a, 0x53, 0x00, 0x89, 0x3e, 0x53, 0x0a, 0x81, 0x24, 0x7f, 0x0e,
  0x95, 0x38, 0x7f, 0x00, 0x99, 0x24, 0x7f, 0x00, 0x99, 0x26, 0x70, 0x00,
  0x99, 0x2a, 0x74, 0x00, 0x99, 0x3c, 0x53, 0x00, 0x99, 0x27, 0x74, 0x10,
  0x85, 0x38, 0x7f, 0x08, 0x89, 0x24, 0x7f, 0x00, 0x89, 0x26, 0x70, 0x00,
  0x89, 0x2a, 0x74, 0x00, 0x89, 0x3c, 0x53, 0x00, 0x89, 0x27, 0x74, 0x18,
  0x91, 0x24, 0x7f, 0x20, 0x82, 0x3f, 0x7f, 0x02, 0x81, 0x24, 0x7f, 0x06,
  0x82, 0x3c, 0x7f, 0x08, 0x80, 0x3f, 0x7f, 0x00, 0x80, 0x3c, 0x7f, 0x00,
  0x80, 0x38, 0x7f, 0x00, 0x90, 0x41, 0x7f, 0x00, 0x90, 0x3d, 0x7f, 0x00,
  0x90, 0x3a, 0x7f, 0x00, 0x91, 0x22, 0x7f, 0x00, 0x92, 0x41, 0x7f, 0x00,
  0x92, 0x3d, 0x7f, 0x00, 0x93, 0x59, 0x7f, 0x00, 0x99, 0x2a, 0x36, 0x00,
  0x99, 0x3d, 0x53, 0x02, 0x83, 0x57, 0x7f, 0x16, 0x89, 0x2a, 0x36, 0x00,
  0x89, 0x3d, 0x53, 0x0a, 0x81, 0x22, 0x7f, 0x0e, 0x95, 0x35, 0x7f, 0x00,
  0x99, 0x2a, 0x47, 0x10, 0x85, 0x35, 0x7f, 0x08, 0x89, 0x2a, 0x47, 0x18,
  0x95, 0x38, 0x7f, 0x00, 0x99, 0x24, 0x7f, 0x00, 0x99, 0x2a, 0x64, 0x00,
  0x99, 0x3c, 0x53, 0x10, 0x85, 0x38, 0x7f, 0x08, 0x89, 0x24, 0x7f, 0x00,
  0x89, 0x2a, 0x64, 0x00, 0x89, 0x3c, 0x53, 0x48, 0x91, 0x22, 0x7f, 0x00,
  0x95, 0x38, 0x7f, 0x00, 0x99, 0x2a, 0x47, 0x10, 0x85, 0x38, 0x7f, 0x08,
  0x89, 0x2a, 0x47, 0x0a, 0x81, 0x22, 0x7f, 0x0e, 0x91, 0x22, 0x7f, 0x00,
  0x99, 0x2a, 0x47, 0x00, 0x99, 0x3e, 0x53, 0x18, 0x89, 0x2a, 0x47, 0x00,
  0x89, 0x3e, 0x53, 0x0a, 0x81, 0x22, 0x7f, 0x0a, 0x83, 0x59, 0x7f, 0x04,
  0x92, 0x3f, 0x7f, 0x00, 0x92, 0x3c, 0x7f, 0x00, 0x93, 0x5c, 0x7f, 0x00,
  0x95, 0x38, 0x7f, 0x00, 0x99, 0x24, 0x7f, 0x00, 0x99, 0x26, 0x70, 0x00,
  0x99, 0x2a, 0x74, 0x00, 0x99, 0x3c, 0x53, 0x00, 0x99, 0x27, 0x64, 0x06,
  0x82, 0x3d, 0x7f, 0x0a, 0x85, 0x38, 0x7f, 0x08, 0x89, 0x24, 0x7f, 0x00,
  0x89, 0x26, 0x70, 0x00, 0x89, 0x2a, 0x74, 0x00, 0x89, 0x3c, 0x53, 0x00,
  0x89, 0x27, 0x64, 0x0a, 0x82, 0x41, 0x7f, 0x0e, 0x91, 0x24, 0x7f, 0x00,
  0x93, 0x5a, 0x7f, 0x00, 0x95, 0x3a, 0x7f, 0x02, 0x83, 0x5c, 0x7f, 0x0e,
  0x85, 0x3a, 0x7f, 0x12, 0x81, 0x24, 0x7f, 0x0e, 0x91, 0x22, 0x7f, 0x00,
  0x93, 0x59, 0x7f, 0x00, 0x99, 0x2e, 0x44, 0x00, 0x99, 0x3d, 0x53, 0x02,
  0x83, 0x5a, 0x7f, 0x16, 0x89, 0x2e, 0x44, 0x00, 0x89, 0x3d, 0x53, 0x0a,
  0x81, 0x22, 0x7f, 0x0e, 0x93, 0x55, 0x7f, 0x08, 0x83, 0x59, 0x7f, 0x16,
  0x82, 0x3c, 0x7f, 0x12, 0x80, 0x41, 0x7f, 0x00, 0x80, 0x3d, 0x7f, 0x00,
  0x80, 0x3a, 0x7f, 0x00, 0x82, 0x3f, 0x7f, 0x00, 0x90, 0x3d, 0x7f, 0x00,
  0x90, 0x3a, 0x7f, 0x00, 0x90, 0x36, 0x7f, 0x00, 0x91, 0x1b, 0x7f, 0x00,
  0x92, 0x42, 0x7f, 0x00, 0x92, 0x3d, 0x7f, 0x00, 0x92, 0x3a, 0x7f, 0x00,
  0x99, 0x24, 0x7f, 0x00, 0x99, 0x2a, 0x74, 0x00, 0x99, 0x3c, 0x53, 0x04,
  0x82, 0x44, 0x7f, 0x14, 0x89, 0x24, 0x7f, 0x00, 0x89, 0x2a, 0x74, 0x00,
  0x89, 0x3c, 0x53, 0x0a, 0x81, 0x1b, 0x7f, 0x0e, 0x95, 0x38, 0x7f, 0x10,
  0x85, 0x38, 0x7f, 0x20, 0x91, 0x1b, 0x7f, 0x00, 0x99, 0x2a, 0x2c, 0x18,
  0x89, 0x2a, 0x2c, 0x0a, 0x81, 0x1b, 0x7f, 0x0e, 0x91, 0x24, 0x7f, 0x00,
  0x99, 0x2a, 0x64, 0x00, 0x99, 0x3e, 0x53, 0x18, 0x89, 0x2a, 0x64, 0x00,
  0x89, 0x3e, 0x53, 0x0a, 0x81, 0x24, 0x7f, 0x0e, 0x95, 0x38, 0x7f, 0x00,
  0x99, 0x24, 0x7f, 0x00, 0x99, 0x26, 0x7c, 0x00, 0x99, 0x2a, 0x74, 0x00,
  0x99, 0x3c, 0x53, 0x00, 0x99, 0x27, 0x64, 0x10, 0x85, 0x38, 0x7f, 0x08,
  0x89, 0x24, 0x7f, 0x00, 0x89, 0x26, 0x7c, 0x00, 0x89, 0x2a, 0x74, 0x00,
  0x89, 0x3c, 0x53, 0x00, 0x89, 0x27, 0x64, 0x18, 0x91, 0x24, 0x7f, 0x0a,
  0x80, 0x3a, 0x7f, 0x08, 0x80, 0x36, 0x7f, 0x10, 0x81, 0x24, 0x7f, 0x08,
  0x82, 0x3d, 0x7f, 0x06, 0x90, 0x3f, 0x7f, 0x00, 0x90, 0x3c, 0x7f, 0x00,
  0x90, 0x38, 0x7f, 0x00, 0x91, 0x22, 0x7f, 0x00, 0x92, 0x44, 0x7f, 0x00,
  0x92, 0x3f, 0x7f, 0x00, 0x92, 0x3c, 0x7f, 0x00, 0x93, 0x57, 0x7f, 0x00,
  0x99, 0x2a, 0x21, 0x00, 0x99, 0x3d, 0x53, 0x0a, 0x83, 0x55, 0x7f, 0x02,
  0x80, 0x3d, 0x7f, 0x00, 0x82, 0x3a, 0x7f, 0x0c, 0x89, 0x2a, 0x21, 0x00,
  0x89, 0x3d, 0x53, 0x0a, 0x81, 0x22, 0x7f, 0x02, 0x82, 0x42, 0x7f, 0x0c,
  0x95, 0x35, 0x7f, 0x00, 0x99, 0x2a, 0x53, 0x10, 0x85, 0x35, 0x7f, 0x08,
  0x89, 0x2a, 0x53, 0x18, 0x91, 0x20, 0x7f, 0x00, 0x95, 0x38, 0x7f, 0x00,
  0x99, 0x24, 0x7f, 0x00, 0x99, 0x2a, 0x74, 0x00, 0x99, 0x3c, 0x53, 0x10,
  0x85, 0x38, 0x7f, 0x08, 0x89, 0x24, 0x7f, 0x00, 0x89, 0x2a, 0x74, 0x00,
  0x89, 0x3c, 0x53, 0x0a, 0x81, 0x20, 0x7f, 0x3e, 0x91, 0x20, 0x7f, 0x00,
  0x95, 0x38, 0x7f, 0x00, 0x99, 0x2a, 0x47, 0x10, 0x85, 0x38, 0x7f, 0x08,
  0x89, 0x2a, 0x47, 0x0a, 0x81, 0x20, 0x7f, 0x0e, 0x99, 0x2a, 0x53, 0x00,
  0x99, 0x3e, 0x53, 0x18, 0x89, 0x2a, 0x53, 0x00, 0x89, 0x3e, 0x53, 0x10,
  0x83, 0x57, 0x7f, 0x08, 0x93, 0x50, 0x7f, 0x00, 0x99, 0x24, 0x7f, 0x00,
  0x99, 0x26, 0x70, 0x00, 0x99, 0x2a, 0x7f, 0x00, 0x99, 0x3c, 0x53, 0x00,
  0x99, 0x27, 0x74, 0x18, 0x89, 0x24, 0x7f, 0x00, 0x89, 0x26, 0x70, 0x00,
  0x89, 0x2a, 0x7f, 0x00, 0x89, 0x3c, 0x53, 0x00, 0x89, 0x27, 0x74, 0x48,
  0x91, 0x1b, 0x7f, 0x00, 0x95, 0x33, 0x7f, 0x00, 0x99, 0x2a, 0x30, 0x00,
  0x99, 0x3d, 0x53, 0x10, 0x85, 0x33, 0x7f, 0x08, 0x89, 0x2a, 0x30, 0x00,
  0x89, 0x3d, 0x53, 0x0a, 0x81, 0x1b, 0x7f, 0x0e, 0x91, 0x1b, 0x7f, 0x00,
  0x95, 0x35, 0x7f, 0x00, 0x99, 0x2a, 0x3d, 0x10, 0x85, 0x35, 0x7f, 0x08,
  0x89, 0x2a, 0x3d, 0x0a, 0x81, 0x1b, 0x7f, 0x0e, 0x80, 0x3f, 0x7f, 0x00,
  0x80, 0x3c, 0x7f, 0x00, 0x80, 0x38, 0x7f, 0x00, 0x90, 0x3f, 0x7f, 0x00,
  0x90, 0x3c, 0x7f, 0x00, 0x90, 0x38, 0x7f, 0x00, 0x91, 0x1d, 0x7f, 0x00,
  0x92, 0x38, 0x7f, 0x00, 0x99, 0x24, 0x7f, 0x00, 0x99, 0x2a, 0x74, 0x00,
  0x99, 0x3c, 0x53, 0x18, 0x89, 0x24, 0x7f, 0x00, 0x89, 0x2a, 0x74, 0x00,
  0x89, 0x3c, 0x53, 0x0a, 0x81, 0x1d, 0x7f, 0x0e, 0x95, 0x38, 0x7f, 0x10,
  0x85, 0x38, 0x7f, 0x20, 0x91, 0x1d, 0x7f, 0x00, 0x99, 0x2a, 0x47, 0x18,
  0x89, 0x2a, 0x47, 0x0a, 0x81, 0x1d, 0x7f, 0x0e, 0x91, 0x1d, 0x7f, 0x00,
  0x99, 0x2a, 0x47, 0x00, 0x99, 0x3e, 0x53, 0x18, 0x89, 0x2a, 0x47, 0x00,
  0x89, 0x3e, 0x53, 0x0a, 0x81, 0x1d, 0x7f, 0x04, 0x82, 0x3f, 0x7f, 0x00,
  0x82, 0x3c, 0x7f, 0x02, 0x82, 0x38, 0x7f, 0x08, 0x80, 0x3f, 0x7f, 0x00,
  0x80, 0x3c, 0x7f, 0x00, 0x80, 0x38, 0x7f, 0x00, 0x90, 0x41, 0x7f, 0x00,
  0x90, 0x3d, 0x7f, 0x00, 0x90, 0x38, 0x7f, 0x00, 0x92, 0x41, 0x7f, 0x00,
  0x92, 0x3d, 0x7f, 0x00, 0x95, 0x38, 0x7f, 0x00, 0x99, 0x24, 0x7f, 0x00,
  0x99, 0x26, 0x7c, 0x00, 0x99, 0x2a, 0x74, 0x00, 0x99, 0x3c, 0x53, 0x00,
  0x99, 0x27, 0x64, 0x10, 0x85, 0x38, 0x7f, 0x08, 0x89, 0x24, 0x7f, 0x00,
  0x89, 0x26, 0x7c, 0x00, 0x89, 0x2a, 0x74, 0x00, 0x89, 0x3c, 0x53, 0x00,
  0x89, 0x27, 0x64, 0x18, 0x91, 0x24, 0x7f, 0x22, 0x81, 0x24, 0x7f, 0x0e,
  0x91, 0x22, 0x7f, 0x00, 0x99, 0x2e, 0x44, 0x00, 0x99, 0x3d, 0x53, 0x18,
  0x89, 0x2e, 0x44, 0x00, 0x89, 0x3d, 0x53, 0x0a, 0x81, 0x22, 0x7f, 0x0e,
  0x95, 0x35, 0x7f, 0x10, 0x85, 0x35, 0x7f, 0x20, 0x94, 0x55, 0x7f, 0x00,
  0x94, 0x50, 0x7f, 0x00, 0x94, 0x44, 0x7f, 0x00, 0x95, 0x38, 0x7f, 0x00,
  0x99, 0x24, 0x7f, 0x00, 0x99, 0x2a, 0x74, 0x00, 0x99, 0x3c, 0x53, 0x10,
  0x85, 0x38, 0x7f, 0x02, 0x84, 0x55, 0x7f, 0x02, 0x84, 0x44, 0x7f, 0x04,
  0x89, 0x24, 0x7f, 0x00, 0x89, 0x2a, 0x74, 0x00, 0x89, 0x3c, 0x53, 0x08,
  0x84, 0x50, 0x7f, 0x10, 0x94, 0x55, 0x7f, 0x00, 0x94, 0x50, 0x7f, 0x00,
  0x94, 0x44, 0x7f, 0x16, 0x84, 0x55, 0x7f, 0x04, 0x84, 0x50, 0x7f, 0x04,
  0x84, 0x44, 0x7f, 0x12, 0x91, 0x20, 0x7f, 0x00, 0x95, 0x38, 0x7f, 0x00,
  0x99, 0x2a, 0x3d, 0x10, 0x85, 0x38, 0x7f, 0x08, 0x89, 0x2a, 0x3d, 0x0a,
  0x81, 0x20, 0x7f, 0x0e, 0x94, 0x55, 0x7f, 0x00, 0x94, 0x50, 0x7f, 0x00,
  0x94, 0x44, 0x7f, 0x00, 0x99, 0x2a, 0x64, 0x00, 0x99, 0x3e, 0x53, 0x0e,
  0x84, 0x50, 0x7f, 0x06, 0x84, 0x55, 0x7f, 0x02, 0x84, 0x44, 0x7f, 0x02,
  0x89, 0x2a, 0x64, 0x00, 0x89, 0x3e, 0x53, 0x18, 0x91, 0x25, 0x63, 0x00,
  0x94, 0x55, 0x7f, 0x00, 0x94, 0x50, 0x7f, 0x00, 0x94, 0x44, 0x7f, 0x00,
  0x99, 0x24, 0x7f, 0x00, 0x99, 0x26, 0x7d, 0x00, 0x99, 0x2a, 0x74, 0x00,
  0x99, 0x3c, 0x53, 0x00, 0x99, 0x27, 0x7d, 0x16, 0x84, 0x55, 0x7f, 0x00,
  0x84, 0x50, 0x7f, 0x02, 0x84, 0x44, 0x7f, 0x00, 0x89, 0x24, 0x7f, 0x00,
  0x89, 0x26, 0x7d, 0x00, 0x89, 0x2a, 0x74, 0x00, 0x89, 0x3c, 0x53, 0x00,
  0x89, 0x27, 0x7d, 0x0a, 0x81, 0x25, 0x63, 0x0e, 0x91, 0x22, 0x75, 0x00,
  0x94, 0x55, 0x7f, 0x00, 0x94, 0x50, 0x7f, 0x00, 0x94, 0x44, 0x7f, 0x00,
  0x95, 0x38, 0x7f, 0x00, 0x99, 0x27, 0x69, 0x10, 0x85, 0x38, 0x7f, 0x06,
  0x84, 0x55, 0x7f, 0x00, 0x84, 0x50, 0x7f, 0x02, 0x89, 0x27, 0x69, 0x02,
  0x84, 0x44, 0x7f, 0x08, 0x81, 0x22, 0x75, 0x0e, 0x94, 0x55, 0x7f, 0x00,
  0x94, 0x50, 0x7f, 0x00, 0x94, 0x44, 0x7f, 0x00, 0x99, 0x2e, 0x5f, 0x00,
  0x99, 0x3d, 0x53, 0x00, 0x99, 0x27, 0x55, 0x16, 0x84, 0x55, 0x7f, 0x02,
  0x84, 0x50, 0x7f, 0x00, 0x84, 0x44, 0x7f, 0x00, 0x89, 0x2e, 0x5f, 0x00,
  0x89, 0x3d, 0x53, 0x00, 0x89, 0x27, 0x55, 0x02, 0x82, 0x41, 0x7f, 0x08,
  0x82, 0x44, 0x7f, 0x04, 0x82, 0x3d, 0x7f, 0x0a, 0x91, 0x25, 0x63, 0x00,
  0x94, 0x55, 0x7f, 0x00, 0x94, 0x50, 0x7f, 0x00, 0x94, 0x44, 0x7f, 0x00,
  0x95, 0x38, 0x7f, 0x00, 0x99, 0x27, 0x41, 0x10, 0x85, 0x38, 0x7f, 0x02,
  0x83, 0x50, 0x7f, 0x06, 0x89, 0x27, 0x41, 0x02, 0x84, 0x55, 0x7f, 0x00,
  0x84, 0x44, 0x7f, 0x02, 0x84, 0x50, 0x7f, 0x06, 0x81, 0x25, 0x63, 0x0e,
  0x80, 0x41, 0x7f, 0x00, 0x80, 0x3d, 0x7f, 0x00, 0x80, 0x38, 0x7f, 0x00,
  0x90, 0x41, 0x7f, 0x00, 0x90, 0x3d, 0x7f, 0x00, 0x90, 0x3a, 0x7f, 0x00,
  0x90, 0x36, 0x7f, 0x00, 0x91, 0x22, 0x7f, 0x00, 0x99, 0x24, 0x7f, 0x00,
  0x99, 0x2a, 0x70, 0x00, 0x99, 0x3c, 0x53, 0x18, 0x89, 0x24, 0x7f, 0x00,
  0x89, 0x2a, 0x70, 0x00, 0x89, 0x3c, 0x53, 0x02, 0x81, 0x22, 0x7f, 0x16,
  0x95, 0x38, 0x7f, 0x10, 0x85, 0x38, 0x7f, 0x20, 0x91, 0x22, 0x7f, 0x00,
  0x99, 0x2a, 0x36, 0x18, 0x81, 0x22, 0x7f, 0x00, 0x89, 0x2a, 0x36, 0x18,
  0x91, 0x22, 0x7f, 0x00, 0x99, 0x2a, 0x64, 0x00, 0x99, 0x3e, 0x53, 0x18,
  0x89, 0x2a, 0x64, 0x00, 0x89, 0x3e, 0x53, 0x0a, 0x81, 0x22, 0x7f, 0x0e,
  0x95, 0x38, 0x7f, 0x00, 0xb6, 0x00, 0x00, 0x00, 0xb6, 0x20, 0x00, 0x00,
  0xc6, 0x42, 0x00, 0xb6, 0x0a, 0x40, 0x00, 0xb6, 0x5b, 0x50, 0x00, 0xb6,
  0x5d, 0x00, 0x00, 0xb6, 0x65, 0x00, 0x00, 0xb6, 0x64, 0x00, 0x00, 0xb6,
  0x06, 0x18, 0x00, 0xb6, 0x07, 0x58, 0x00, 0xe6, 0x00, 0x40, 0x00, 0xb6,
  0x0a, 0x40, 0x00, 0x96, 0x3a, 0x7c, 0x00, 0x99, 0x24, 0x7f, 0x00, 0x99,
  0x26, 0x70, 0x00, 0x99, 0x2a, 0x74, 0x00, 0x99, 0x3c, 0x53, 0x00, 0x99,
  0x27, 0x64, 0x10, 0x85, 0x38, 0x7f, 0x08, 0x89, 0x24, 0x7f, 0x00, 0x89,
  0x26, 0x70, 0x00, 0x89, 0x2a, 0x74, 0x00, 0x89, 0x3c, 0x53, 0x00, 0x89,
  0x27, 0x64, 0x18, 0x91, 0x25, 0x7f, 0x20, 0x86, 0x3a, 0x7c, 0x0a, 0x81,
  0x25, 0x7f, 0x06, 0x91, 0x24, 0x7f, 0x00, 0x96, 0x3c, 0x78, 0x00, 0x99,
  0x2a, 0x28, 0x00, 0x99, 0x3d, 0x53, 0x16, 0x86, 0x3c, 0x78, 0x02, 0x89,
  0x2a, 0x28, 0x00, 0x89, 0x3d, 0x53, 0x0a, 0x81, 0x24, 0x7f, 0x0e, 0x95,
  0x35, 0x7f, 0x00, 0x99, 0x2a, 0x53, 0x10, 0x85, 0x35, 0x7f, 0x08, 0x89,
  0x2a, 0x53, 0x18, 0x91, 0x20, 0x7f, 0x00, 0x95, 0x38, 0x7f, 0x00, 0x96,
  0x3d, 0x7f, 0x00, 0x99, 0x24, 0x7f, 0x00, 0x99, 0x2a, 0x74, 0x00, 0x99,
  0x3c, 0x53, 0x10, 0x85, 0x38, 0x7f, 0x08, 0x89, 0x24, 0x7f, 0x00, 0x89,
  0x2a, 0x74, 0x00, 0x89, 0x3c, 0x53, 0x1a, 0x81, 0x20, 0x7f, 0x1e, 0x86,
  0x3d, 0x7f, 0x10, 0x91, 0x22, 0x7f, 0x00, 0x96, 0x3d, 0x72, 0x00, 0x99,
  0x2a, 0x30, 0x18, 0x89, 0x2a, 0x30, 0x0a, 0x81, 0x22, 0x7f, 0x0e, 0x95,
  0x38, 0x7f, 0x00, 0x99, 0x2a, 0x47, 0x00, 0x99, 0x3e, 0x53, 0x04, 0x86,
  0x3d, 0x72, 0x0c, 0x85, 0x38, 0x7f, 0x08, 0x89, 0x2a, 0x47, 0x00, 0x89,
  0x3e, 0x53, 0x00, 0xe6, 0x1e, 0x3f, 0x06, 0xe6, 0x76, 0x3c, 0x06, 0xe6,
  0x22, 0x3b, 0x06, 0xe6, 0x4f, 0x3a, 0x06, 0x96, 0x3f, 0x7f, 0x00, 0x99,
  0x24, 0x7f, 0x00, 0x99, 0x26, 0x7c, 0x00, 0x99, 0x2a, 0x74, 0x00, 0x99,
  0x3c, 0x53, 0x00, 0x99, 0x27, 0x74, 0x14, 0xe6, 0x72, 0x3a, 0x02, 0xe6,
  0x16, 0x3c, 0x02, 0x89, 0x24, 0x7f, 0x00, 0x89, 0x26, 0x7c, 0x00, 0x89,
  0x2a, 0x74, 0x00, 0x89, 0x3c, 0x53, 0x00, 0x89, 0x27, 0x74, 0x06, 0xe6,
  0x47, 0x3d, 0x08, 0xe6, 0x7c, 0x3e, 0x02, 0x86, 0x3f, 0x7f, 0x04, 0xe6,
  0x70, 0x3f, 0x06, 0xe6, 0x00, 0x40, 0x2e, 0x91, 0x1d, 0x7f, 0x00, 0x95,
  0x35, 0x7f, 0x00, 0x96, 0x3c, 0x7f, 0x00, 0x99, 0x2a, 0x0d, 0x00, 0x99,
  0x3d, 0x53, 0x10, 0x85, 0x35, 0x7f, 0x08, 0x89, 0x2a, 0x0d, 0x00, 0x89,
  0x3d, 0x53, 0x0a, 0x81, 0x1d, 0x7f, 0x0e, 0x91, 0x22, 0x7f, 0x00, 0x95,
  0x38, 0x7f, 0x00, 0x99, 0x2a, 0x47, 0x10, 0x85, 0x38, 0x7f, 0x08, 0x81,
  0x22, 0x7f, 0x00, 0x89, 0x2a, 0x47, 0x18, 0x80, 0x41, 0x7f, 0x00, 0x80,
  0x3d, 0x7f, 0x00, 0x80, 0x3a, 0x7f, 0x00, 0x80, 0x36, 0x7f, 0x00, 0x90,
  0x3f, 0x7f, 0x00, 0x90, 0x3c, 0x7f, 0x00, 0x90, 0x3a, 0x7f, 0x00, 0x90,
  0x38, 0x7f, 0x00, 0x99, 0x24, 0x7f, 0x00, 0x99, 0x2a, 0x64, 0x00, 0x99,
  0x3c, 0x53, 0x16, 0x86, 0x3c, 0x7f, 0x02, 0x89, 0x24, 0x7f, 0x00, 0x89,
  0x2a, 0x64, 0x00, 0x89, 0x3c, 0x53, 0x18, 0x95, 0x38, 0x7f, 0x00, 0x96,
  0x3a, 0x7f, 0x10, 0x85, 0x38, 0x7f, 0x08, 0x86, 0x3a, 0x7f, 0x18, 0x91,
  0x20, 0x7f, 0x00, 0x96, 0x38, 0x7e, 0x00, 0x99, 0x2a, 0x36, 0x18, 0x81,
  0x20, 0x7f, 0x00, 0x89, 0x2a, 0x36, 0x18, 0x91, 0x22, 0x7f, 0x00, 0x99,
  0x2a, 0x53, 0x00, 0x99, 0x3e, 0x53, 0x18, 0x89, 0x2a, 0x53, 0x00, 0x89,
  0x3e, 0x53, 0x06, 0x81, 0x22, 0x7f, 0x12, 0x95, 0x38, 0x7f, 0x00, 0x99,
  0x24, 0x7f, 0x00, 0x99, 0x26, 0x70, 0x00, 0x99, 0x2a, 0x74, 0x00, 0x99,
  0x3c, 0x53, 0x00, 0x99, 0x27, 0x74, 0x10, 0x85, 0x38, 0x7f, 0x08, 0x89,
  0x24, 0x7f, 0x00, 0x89, 0x26, 0x70, 0x00, 0x89, 0x2a, 0x74, 0x00, 0x89,
  0x3c, 0x53, 0x00, 0x89, 0x27, 0x74, 0x18, 0x91, 0x25, 0x7f, 0x1e, 0x81,
  0x25, 0x7f, 0x12, 0x91, 0x24, 0x7f, 0x00, 0x99, 0x2a, 0x36, 0x00, 0x99,
  0x3d, 0x53, 0x18, 0x89, 0x2a, 0x36, 0x00, 0x89, 0x3d, 0x53, 0x04, 0x81,
  0x24, 0x7f, 0x14, 0x95, 0x35, 0x7f, 0x00, 0x99, 0x2a, 0x47, 0x10, 0x85,
  0x35, 0x7f, 0x08, 0x89, 0x2a, 0x47, 0x0a, 0x86, 0x38, 0x7e, 0x0e, 0x95,
  0x38, 0x7f, 0x00, 0x99, 0x24, 0x7f, 0x00, 0x99, 0x2a, 0x64, 0x00, 0x99,
  0x3c, 0x53, 0x10, 0x85, 0x38, 0x7f, 0x08, 0x89, 0x24, 0x7f, 0x00, 0x89,
  0x2a, 0x64, 0x00, 0x89, 0x3c, 0x53, 0x48, 0x91, 0x22, 0x7f, 0x00, 0x95,
  0x38, 0x7f, 0x00, 0x99, 0x2a, 0x47, 0x10, 0x85, 0x38, 0x7f, 0x08, 0x89,
  0x2a, 0x47, 0x08, 0x81, 0x22, 0x7f, 0x10, 0x99, 0x2a, 0x47, 0x00, 0x99,
  0x3e, 0x53, 0x18, 0x89, 0x2a, 0x47, 0x00, 0x89, 0x3e, 0x53, 0x18, 0x95,
  0x38, 0x7f, 0x00, 0x99, 0x24, 0x7f, 0x00, 0x99, 0x26, 0x70, 0x00, 0x99,
  0x2a, 0x74, 0x00, 0x99, 0x3c, 0x53, 0x00, 0x99, 0x27, 0x64, 0x10, 0x85,
  0x38, 0x7f, 0x08, 0x89, 0x24, 0x7f, 0x00, 0x89, 0x26, 0x70, 0x00, 0x89,
  0x2a, 0x74, 0x00, 0x89, 0x3c, 0x53, 0x00, 0x89, 0x27, 0x64, 0x18, 0x95,
  0x3a, 0x7f, 0x10, 0x85, 0x3a, 0x7f, 0x20, 0x91, 0x20, 0x7f, 0x00, 0x99,
  0x2e, 0x44, 0x00, 0x99, 0x3d, 0x53, 0x14, 0x81, 0x20, 0x7f, 0x04, 0x89,
  0x2e, 0x44, 0x00, 0x89, 0x3d, 0x53, 0x18, 0x91, 0x20, 0x7f, 0x1c, 0x81,
  0x20, 0x7f, 0x14, 0x80, 0x3f, 0x7f, 0x00, 0x80, 0x3c, 0x7f, 0x00, 0x80,
  0x3a, 0x7f, 0x00, 0x80, 0x38, 0x7f, 0x00, 0x90, 0x41, 0x7f, 0x00, 0x90,
  0x3d, 0x7f, 0x00, 0x90, 0x3a, 0x7f, 0x00, 0x90, 0x36, 0x7f, 0x00, 0x91,
  0x22, 0x7f, 0x00, 0x99, 0x24, 0x7f, 0x00, 0x99, 0x2a, 0x74, 0x00, 0x99,
  0x3c, 0x53, 0x18, 0x89, 0x24, 0x7f, 0x00, 0x89, 0x2a, 0x74, 0x00, 0x89,
  0x3c, 0x53, 0x0e, 0x81, 0x22, 0x7f, 0x0a, 0x95, 0x38, 0x7f, 0x10, 0x85,
  0x38, 0x7f, 0x20, 0x91, 0x22, 0x7f, 0x00, 0x96, 0x3a, 0x7e, 0x00, 0x99,
  0x2a, 0x2c, 0x18, 0x89, 0x2a, 0x2c, 0x02, 0x81, 0x22, 0x7f, 0x16, 0x91,
  0x22, 0x7f, 0x00, 0x99, 0x2a, 0x64, 0x00, 0x99, 0x3e, 0x53, 0x18, 0x86,
  0x3a, 0x7e, 0x00, 0x89, 0x2a, 0x64, 0x00, 0x89, 0x3e, 0x53, 0x08, 0x81,
  0x22, 0x7f, 0x10, 0x95, 0x38, 0x7f, 0x00, 0x96, 0x3a, 0x74, 0x00, 0x99,
  0x24, 0x7f, 0x00, 0x99, 0x26, 0x7c, 0x00, 0x99, 0x2a, 0x74, 0x00, 0x99,
  0x3c, 0x53, 0x00, 0x99, 0x27, 0x64, 0x10, 0x85, 0x38, 0x7f, 0x08, 0x89,
  0x24, 0x7f, 0x00, 0x89, 0x26, 0x7c, 0x00, 0x89, 0x2a, 0x74, 0x00, 0x89,
  0x3c, 0x53, 0x00, 0x89, 0x27, 0x64, 0x18, 0x91, 0x25, 0x7f, 0x1e, 0x86,
  0x3a, 0x74, 0x02, 0x81, 0x25, 0x7f, 0x10, 0x91, 0x24, 0x7f, 0x00, 0x96,
  0x3c, 0x7a, 0x00, 0x99, 0x2a, 0x21, 0x00, 0x99, 0x3d, 0x53, 0x18, 0x89,
  0x2a, 0x21, 0x00, 0x89, 0x3d, 0x53, 0x04, 0x81, 0x24, 0x7f, 0x14, 0x95,
  0x35, 0x7f, 0x00, 0x99, 0x2a, 0x53, 0x10, 0x85, 0x35, 0x7f, 0x08, 0x89,
  0x2a, 0x53, 0x02, 0x86, 0x3c, 0x7a, 0x16, 0x91, 0x20, 0x7f, 0x00, 0x95,
  0x38, 0x7f, 0x00, 0x96, 0x3d, 0x7a, 0x00, 0x99, 0x24, 0x7f, 0x00, 0x99,
  0x2a, 0x74, 0x00, 0x99, 0x3c, 0x53, 0x10, 0x85, 0x38, 0x7f, 0x08, 0x89,
  0x24, 0x7f, 0x00, 0x89, 0x2a, 0x74, 0x00, 0x89, 0x3c, 0x53, 0x18, 0x81,
  0x20, 0x7f, 0x1a, 0x86, 0x3d, 0x7a, 0x16, 0x91, 0x22, 0x7f, 0x00, 0x95,
  0x38, 0x7f, 0x00, 0x96, 0x3a, 0x7f, 0x00, 0x99, 0x2a, 0x47, 0x10, 0x85,
  0x38, 0x7f, 0x08, 0x89, 0x2a, 0x47, 0x0a, 0x81, 0x22, 0x7f, 0x00, 0x86,
  0x3a, 0x7f, 0x0e, 0x99, 0x2a, 0x53, 0x00, 0x99, 0x3e, 0x53, 0x18, 0x89,
  0x2a, 0x53, 0x00, 0x89, 0x3e, 0x53, 0x18, 0x99, 0x24, 0x7f, 0x00, 0x99,
  0x26, 0x70, 0x00, 0x99, 0x2a, 0x7f, 0x00, 0x99, 0x3c, 0x53, 0x00, 0x99,
  0x27, 0x74, 0x18, 0x89, 0x24, 0x7f, 0x00, 0x89, 0x26, 0x70, 0x00, 0x89,
  0x2a, 0x7f, 0x00, 0x89, 0x3c, 0x53, 0x00, 0x89, 0x27, 0x74, 0x38, 0xe6,
  0x70, 0x3f, 0x02, 0xe6, 0x6a, 0x3d, 0x08, 0xe6, 0x73, 0x3b, 0x06, 0x91,
  0x20, 0x7f, 0x00, 0x94, 0x44, 0x7f, 0x00, 0x94, 0x38, 0x7f, 0x00, 0x95,
  0x33, 0x7f, 0x00, 0x96, 0x38, 0x7f, 0x00, 0x99, 0x2a, 0x30, 0x00, 0x99,
  0x3d, 0x53, 0x02, 0xe6, 0x7f, 0x3a, 0x0e, 0x85, 0x33, 0x7f, 0x00, 0xe6,
  0x23, 0x3c, 0x04, 0x81, 0x20, 0x7f, 0x02, 0xe6, 0x6a, 0x3d, 0x02, 0x89,
  0x2a, 0x30, 0x00, 0x89, 0x3d, 0x53, 0x04, 0xe6, 0x4e, 0x3f, 0x08, 0xe6,
  0x70, 0x3f, 0x02, 0xe6, 0x00, 0x40, 0x04, 0x86, 0x38, 0x7f, 0x06, 0x91,
  0x20, 0x7f, 0x00, 0x95, 0x35, 0x7f, 0x00, 0x99, 0x2a, 0x3d, 0x10, 0x85,
  0x35, 0x7f, 0x04, 0x81, 0x20, 0x7f, 0x04, 0x89, 0x2a, 0x3d, 0x02, 0x84,
  0x44, 0x7f, 0x00, 0x84, 0x38, 0x7f, 0x16, 0x80, 0x41, 0x7f, 0x00, 0x80,
  0x3d, 0x7f, 0x00, 0x80, 0x3a, 0x7f, 0x00, 0x80, 0x36, 0x7f, 0x00, 0x90,
  0x41, 0x7f, 0x00, 0x90, 0x3d, 0x7f, 0x00, 0x90, 0x3a, 0x7f, 0x00, 0x90,
  0x36, 0x7f, 0x00, 0x91, 0x1b, 0x7f, 0x00, 0x94, 0x50, 0x7f, 0x00, 0x94,
  0x44, 0x7f, 0x00, 0x96, 0x44, 0x7f, 0x00, 0x99, 0x24, 0x7f, 0x00, 0x99,
  0x2a, 0x74, 0x00, 0x99, 0x3c, 0x53, 0x18, 0x89, 0x24, 0x7f, 0x00, 0x89,
  0x2a, 0x74, 0x00, 0x89, 0x3c, 0x53, 0x18, 0x81, 0x1b, 0x7f, 0x00, 0x95,
  0x38, 0x7f, 0x02, 0x84, 0x50, 0x7f, 0x02, 0x84, 0x44, 0x7f, 0x0c, 0x85,
  0x38, 0x7f, 0x1a, 0xe6, 0x0c, 0x3f, 0x04, 0xe6, 0x04, 0x3c, 0x02, 0x91,
  0x1b, 0x63, 0x00, 0x99, 0x2a, 0x47, 0x06, 0xe6, 0x4f, 0x3a, 0x02, 0x86,
  0x44, 0x7f, 0x10, 0x89, 0x2a, 0x47, 0x00, 0xe6, 0x72, 0x3a, 0x02, 0xe6,
  0x76, 0x3c, 0x02, 0x81, 0x1b, 0x63, 0x04, 0xe6, 0x4e, 0x3f, 0x08, 0xe6,
  0x70, 0x3f, 0x02, 0xe6, 0x00, 0x40, 0x06, 0x91, 0x20, 0x73, 0x00, 0x99,
  0x2a, 0x47, 0x00, 0x99, 0x3e, 0x53, 0x18, 0x89, 0x2a, 0x47, 0x00, 0x89,
  0x3e, 0x53, 0x16, 0x81, 0x20, 0x73, 0x02, 0x94, 0x50, 0x7f, 0x00, 0x94,
  0x44, 0x7f, 0x00, 0x95, 0x38, 0x7f, 0x00, 0x96, 0x44, 0x7f, 0x00, 0x99,
  0x24, 0x7f, 0x00, 0x99, 0x26, 0x7c, 0x00, 0x99, 0x2a, 0x74, 0x00, 0x99,
  0x3c, 0x53, 0x00, 0x99, 0x27, 0x64, 0x10, 0x85, 0x38, 0x7f, 0x08, 0x89,
  0x24, 0x7f, 0x00, 0x89, 0x26, 0x7c, 0x00, 0x89, 0x2a, 0x74, 0x00, 0x89,
  0x3c, 0x53, 0x00, 0x89, 0x27, 0x64, 0x18, 0x91, 0x20, 0x47, 0x10, 0x81,
  0x20, 0x47, 0x04, 0x86, 0x44, 0x7f, 0x12, 0x84, 0x44, 0x7f, 0x04, 0x84,
  0x50, 0x7f, 0x06, 0x80, 0x41, 0x7f, 0x00, 0x80, 0x3d, 0x7f, 0x00, 0x80,
  0x3a, 0x7f, 0x00, 0x80, 0x36, 0x7f, 0x00, 0x90, 0x3f, 0x7f, 0x00, 0x90,
  0x3c, 0x7f, 0x00, 0x90, 0x3a, 0x7f, 0x00, 0x90, 0x38, 0x7f, 0x00, 0x91,
  0x20, 0x7f, 0x00, 0x94, 0x4b, 0x7f, 0x00, 0x94, 0x3f, 0x7f, 0x00, 0x96,
  0x3f, 0x7f, 0x00, 0x99, 0x2e, 0x44, 0x00, 0x99, 0x3d, 0x53, 0x18, 0x89,
  0x2e, 0x44, 0x00, 0x89, 0x3d, 0x53, 0x06, 0x81, 0x20, 0x7f, 0x12, 0x95,
  0x35, 0x7f, 0x10, 0x85, 0x35, 0x7f, 0x20, 0x95, 0x38, 0x7f, 0x00, 0x99,
  0x24, 0x7f, 0x00, 0x99, 0x2a, 0x74, 0x00, 0x99, 0x3c, 0x53, 0x10, 0x85,
  0x38, 0x7f, 0x08, 0x89, 0x24, 0x7f, 0x00, 0x89, 0x2a, 0x74, 0x00, 0x89,
  0x3c, 0x53, 0x3c, 0x84, 0x4b, 0x7f, 0x06, 0x84, 0x3f, 0x7f, 0x06, 0x91,
  0x20, 0x7f, 0x00, 0x94, 0x4d, 0x7f, 0x00, 0x94, 0x41, 0x7d, 0x00, 0x95,
  0x38, 0x7f, 0x00, 0x99, 0x2a, 0x3d, 0x10, 0x85, 0x38, 0x7f, 0x04, 0x81,
  0x20, 0x7f, 0x04, 0x89, 0x2a, 0x3d, 0x18, 0x91, 0x20, 0x7f, 0x00, 0x99,
  0x2a, 0x64, 0x00, 0x99, 0x3e, 0x53, 0x18, 0x89, 0x2a, 0x64, 0x00, 0x89,
  0x3e, 0x53, 0x0c, 0x81, 0x20, 0x7f, 0x08, 0x84, 0x41, 0x7d, 0x04, 0x86,
  0x3f, 0x7f, 0x00, 0x94, 0x4b, 0x7c, 0x00, 0x94, 0x3f, 0x7c, 0x00, 0x99,
  0x24, 0x7f, 0x00, 0x99, 0x26, 0x7d, 0x00, 0x99, 0x2a, 0x74, 0x00, 0x99,
  0x3c, 0x53, 0x00, 0x99, 0x27, 0x7d, 0x04, 0x84, 0x4d, 0x7f, 0x14, 0x89,
  0x24, 0x7f, 0x00, 0x89, 0x26, 0x7d, 0x00, 0x89, 0x2a, 0x74, 0x00, 0x89,
  0x3c, 0x53, 0x00, 0x89, 0x27, 0x7d, 0x18, 0x91, 0x20, 0x63, 0x00, 0x95,
  0x38, 0x7f, 0x00, 0x99, 0x27, 0x69, 0x10, 0x85, 0x38, 0x7f, 0x08, 0x81,
  0x20, 0x63, 0x00, 0x89, 0x27, 0x69, 0x12, 0x84, 0x3f, 0x7c, 0x06, 0x91,
  0x22, 0x63, 0x00, 0x94, 0x49, 0x7e, 0x00, 0x94, 0x3d, 0x7e, 0x00, 0x99,
  0x2e, 0x5f, 0x00, 0x99, 0x3d, 0x53, 0x00, 0x99, 0x27, 0x55, 0x04, 0x84,
  0x4b, 0x7c, 0x0c, 0x81, 0x22, 0x63, 0x08, 0x89, 0x2e, 0x5f, 0x00, 0x89,
  0x3d, 0x53, 0x00, 0x89, 0x27, 0x55, 0x0e, 0x84, 0x49, 0x7e, 0x04, 0x84,
  0x3d, 0x7e, 0x06, 0x91, 0x22, 0x7f, 0x00, 0x95, 0x38, 0x7f, 0x00, 0x99,
  0x27, 0x41, 0x10, 0x85, 0x38, 0x7f, 0x06, 0x81, 0x22, 0x7f, 0x02, 0x89,
  0x27, 0x41, 0x18, 0x80, 0x3f, 0x7f, 0x00, 0x80, 0x3c, 0x7f, 0x00, 0x80,
  0x3a, 0x7f, 0x00, 0x80, 0x38, 0x7f, 0x00, 0x90, 0x41, 0x7f, 0x00, 0x90,
  0x3d, 0x7f, 0x00, 0x90, 0x3a, 0x7f, 0x00, 0x90, 0x36, 0x7f, 0x00, 0x91,
  0x22, 0x7f, 0x00, 0x99, 0x24, 0x7f, 0x00, 0x99, 0x2a, 0x70, 0x00, 0x99,
  0x3c, 0x53, 0x18, 0x89, 0x24, 0x7f, 0x00, 0x89, 0x2a, 0x70, 0x00, 0x89,
  0x3c, 0x53, 0x02, 0x81, 0x22, 0x7f, 0x16, 0x95, 0x38, 0x7f, 0x10, 0x85,
  0x38, 0x7f, 0x20, 0x91, 0x22, 0x7f, 0x00, 0x96, 0x3a, 0x7f, 0x00, 0x99,
  0x2a, 0x36, 0x18, 0x81, 0x22, 0x7f, 0x00, 0x89, 0x2a, 0x36, 0x08, 0x86,
  0x3a, 0x7f, 0x10, 0x91, 0x22, 0x7f, 0x00, 0x99, 0x2a, 0x64, 0x00, 0x99,
  0x3e, 0x53, 0x18, 0x89, 0x2a, 0x64, 0x00, 0x89, 0x3e, 0x53, 0x0a, 0x81,
  0x22, 0x7f, 0x0e, 0x95, 0x38, 0x7f, 0x00, 0x96, 0x3a, 0x7f, 0x00, 0x99,
  0x24, 0x7f, 0x00, 0x99, 0x26, 0x70, 0x00, 0x99, 0x2a, 0x74, 0x00, 0x99,
  0x3c, 0x53, 0x00, 0x99, 0x27, 0x64, 0x10, 0x85, 0x38, 0x7f, 0x08, 0x89,
  0x24, 0x7f, 0x00, 0x89, 0x26, 0x70, 0x00, 0x89, 0x2a, 0x74, 0x00, 0x89,
  0x3c, 0x53, 0x00, 0x89, 0x27, 0x64, 0x18, 0x91, 0x25, 0x7f, 0x1a, 0x86,
  0x3a, 0x7f, 0x10, 0x81, 0x25, 0x7f, 0x06, 0x91, 0x24, 0x7f, 0x00, 0x96,
  0x3c, 0x6e, 0x00, 0x99, 0x2a, 0x28, 0x00, 0x99, 0x3d, 0x53, 0x14, 0x86,
  0x3c, 0x6e, 0x04, 0x89, 0x2a, 0x28, 0x00, 0x89, 0x3d, 0x53, 0x0a, 0x81,
  0x24, 0x7f, 0x0e, 0x95, 0x35, 0x7f, 0x00, 0x99, 0x2a, 0x53, 0x10, 0x85,
  0x35, 0x7f, 0x08, 0x89, 0x2a, 0x53, 0x18, 0x91, 0x20, 0x7f, 0x00, 0x95,
  0x38, 0x7f, 0x00, 0x96, 0x3d, 0x7c, 0x00, 0x99, 0x24, 0x7f, 0x00, 0x99,
  0x2a, 0x74, 0x00, 0x99, 0x3c, 0x53, 0x10, 0x85, 0x38, 0x7f, 0x08, 0x89,
  0x24, 0x7f, 0x00, 0x89, 0x2a, 0x74, 0x00, 0x89, 0x3c, 0x53, 0x1a, 0x81,
  0x20, 0x7f, 0x24, 0x86, 0x3d, 0x7c, 0x0a, 0x91, 0x22, 0x7f, 0x00, 0x96,
  0x3a, 0x74, 0x00, 0x99, 0x2a, 0x30, 0x18, 0x89, 0x2a, 0x30, 0x08, 0x86,
  0x3a, 0x74, 0x02, 0x81, 0x22, 0x7f, 0x0e, 0x95, 0x38, 0x7f, 0x00, 0x99,
  0x2a, 0x47, 0x00, 0x99, 0x3e, 0x53, 0x10, 0x85, 0x38, 0x7f, 0x08, 0x89,
  0x2a, 0x47, 0x00, 0x89, 0x3e, 0x53, 0x18, 0x96, 0x3d, 0x7f, 0x00, 0x99,
  0x24, 0x7f, 0x00, 0x99, 0x26, 0x7c, 0x00, 0x99, 0x2a, 0x74, 0x00, 0x99,
  0x3c, 0x53, 0x00, 0x99, 0x27, 0x74, 0x18, 0x89, 0x24, 0x7f, 0x00, 0x89,
  0x26, 0x7c, 0x00, 0x89, 0x2a, 0x74, 0x00, 0x89, 0x3c, 0x53, 0x00, 0x89,
  0x27, 0x74, 0x3a, 0x86, 0x3d, 0x7f, 0x0e, 0x91, 0x1d, 0x7f, 0x00, 0x95,
  0x35, 0x7f, 0x00, 0xb6, 0x01, 0x3f, 0x00, 0x96, 0x3f, 0x7f, 0x00, 0x99,
  0x2a, 0x0d, 0x00, 0x99, 0x3d, 0x53, 0x10, 0x85, 0x35, 0x7f, 0x08, 0x89,
  0x2a, 0x0d, 0x00, 0x89, 0x3d, 0x53, 0x02, 0x86, 0x3f, 0x7f, 0x08, 0x81,
  0x1d, 0x7f, 0x0e, 0x91, 0x22, 0x7f, 0x00, 0x95, 0x38, 0x7f, 0x00, 0x99,
  0x2a, 0x47, 0x10, 0x85, 0x38, 0x7f, 0x04, 0xe6, 0x2f, 0x3f, 0x04, 0x81,
  0x22, 0x7f, 0x00, 0x89, 0x2a, 0x47, 0x02, 0xe6, 0x3a, 0x3d, 0x08, 0xe6,
  0x22, 0x3b, 0x08, 0xe6, 0x60, 0x3a, 0x06, 0x80, 0x41, 0x7f, 0x00, 0x80,
  0x3d, 0x7f, 0x00, 0x80, 0x3a, 0x7f, 0x00, 0x80, 0x36, 0x7f, 0x00, 0x90,
  0x3f, 0x7f, 0x00, 0x90, 0x3c, 0x7f, 0x00, 0x90, 0x3a, 0x7f, 0x00, 0x90,
  0x38, 0x7f, 0x00, 0x99, 0x24, 0x7f, 0x00, 0x99, 0x2a, 0x64, 0x00, 0x99,
  0x3c, 0x53, 0x06, 0xe6, 0x52, 0x3b, 0x08, 0xe6, 0x17, 0x3d, 0x06, 0xe6,
  0x4e, 0x3f, 0x04, 0x89, 0x24, 0x7f, 0x00, 0x89, 0x2a, 0x64, 0x00, 0x89,
  0x3c, 0x53, 0x06, 0xe6, 0x70, 0x3f, 0x02, 0xe6, 0x00, 0x40, 0x10, 0x95,
  0x38, 0x7f, 0x10, 0x85, 0x38, 0x7f, 0x20, 0x91, 0x20, 0x7f, 0x00, 0xb6,
  0x01, 0x00, 0x00, 0x96, 0x3c, 0x7f, 0x00, 0x99, 0x2a, 0x36, 0x18, 0x81,
  0x20, 0x7f, 0x00, 0x89, 0x2a, 0x36, 0x18, 0x91, 0x22, 0x7f, 0x00, 0x99,
  0x2a, 0x53, 0x00, 0x99, 0x3e, 0x53, 0x18, 0x89, 0x2a, 0x53, 0x00, 0x89,
  0x3e, 0x53, 0x06, 0x81, 0x22, 0x7f, 0x04, 0x86, 0x3c, 0x7f, 0x0e, 0x95,
  0x38, 0x7f, 0x00, 0x96, 0x3a, 0x7f, 0x00, 0x99, 0x24, 0x7f, 0x00, 0x99,
  0x26, 0x70, 0x00, 0x99, 0x2a, 0x74, 0x00, 0x99, 0x3c, 0x53, 0x00, 0x99,
  0x27, 0x74, 0x10, 0x85, 0x38, 0x7f, 0x08, 0x89, 0x24, 0x7f, 0x00, 0x89,
  0x26, 0x70, 0x00, 0x89, 0x2a, 0x74, 0x00, 0x89, 0x3c, 0x53, 0x00, 0x89,
  0x27, 0x74, 0x18, 0x91, 0x25, 0x7f, 0x16, 0x86, 0x3a, 0x7f, 0x08, 0x81,
  0x25, 0x7f, 0x12, 0x91, 0x24, 0x7f, 0x00, 0x96, 0x3c, 0x7f, 0x00, 0x99,
  0x2a, 0x36, 0x00, 0x99, 0x3d, 0x53, 0x18, 0x86, 0x3c, 0x7f, 0x00, 0x89,
  0x2a, 0x36, 0x00, 0x89, 0x3d, 0x53, 0x04, 0x81, 0x24, 0x7f, 0x14, 0x95,
  0x35, 0x7f, 0x00, 0xb6, 0x01, 0x26, 0x00, 0x96, 0x3a, 0x6c, 0x00, 0x99,
  0x2a, 0x47, 0x10, 0x85, 0x35, 0x7f, 0x04, 0x86, 0x3a, 0x6c, 0x04, 0x89,
  0x2a, 0x47, 0x18, 0x95, 0x38, 0x7f, 0x00, 0xb6, 0x01, 0x00, 0x00, 0x96,
  0x38, 0x7f, 0x00, 0x99, 0x24, 0x7f, 0x00, 0x99, 0x2a, 0x64, 0x00, 0x99,
  0x3c, 0x53, 0x10, 0x85, 0x38, 0x7f, 0x08, 0x89, 0x24, 0x7f, 0x00, 0x89,
  0x2a, 0x64, 0x00, 0x89, 0x3c, 0x53, 0x48, 0x91, 0x22, 0x7f, 0x00, 0x95,
  0x38, 0x7f, 0x00, 0x99, 0x2a, 0x47, 0x10, 0x85, 0x38, 0x7f, 0x08, 0x89,
  0x2a, 0x47, 0x08, 0x81, 0x22, 0x7f, 0x10, 0x99, 0x2a, 0x47, 0x00, 0x99,
  0x3e, 0x53, 0x18, 0x89, 0x2a, 0x47, 0x00, 0x89, 0x3e, 0x53, 0x18, 0x95,
  0x38, 0x7f, 0x00, 0x99, 0x24, 0x7f, 0x00, 0x99, 0x26, 0x70, 0x00, 0x99,
  0x2a, 0x74, 0x00, 0x99, 0x3c, 0x53, 0x00, 0x99, 0x27, 0x64, 0x04, 0x86,
  0x38, 0x7f, 0x0c, 0x85, 0x38, 0x7f, 0x08, 0x89, 0x24, 0x7f, 0x00, 0x89,
  0x26, 0x70, 0x00, 0x89, 0x2a, 0x74, 0x00, 0x89, 0x3c, 0x53, 0x00, 0x89,
  0x27, 0x64, 0x18, 0x95, 0x3a, 0x7f, 0x10, 0x85, 0x3a, 0x7f, 0x20, 0x91,
  0x20, 0x7f, 0x00, 0x99, 0x2e, 0x44, 0x00, 0x99, 0x3d, 0x53, 0x14, 0x81,
  0x20, 0x7f, 0x04, 0x89, 0x2e, 0x44, 0x00, 0x89, 0x3d, 0x53, 0x18, 0x91,
  0x20, 0x7f, 0x1c, 0x81, 0x20, 0x7f, 0x14, 0x80, 0x3f, 0x7f, 0x00, 0x80,
  0x3c, 0x7f, 0x00, 0x80, 0x3a, 0x7f, 0x00, 0x80, 0x38, 0x7f, 0x00, 0x90,
  0x41, 0x7f, 0x00, 0x90, 0x3d, 0x7f, 0x00, 0x90, 0x3a, 0x7f, 0x00, 0x90,
  0x36, 0x7f, 0x00, 0x91, 0x22, 0x7f, 0x00, 0x94, 0x50, 0x63, 0x00, 0x94,
  0x44, 0x63, 0x00, 0x99, 0x24, 0x7f, 0x00, 0x99, 0x2a, 0x74, 0x00, 0x99,
  0x3c, 0x53, 0x18, 0x89, 0x24, 0x7f, 0x00, 0x89, 0x2a, 0x74, 0x00, 0x89,
  0x3c, 0x53, 0x0e, 0x81, 0x22, 0x7f, 0x0a, 0x95, 0x38, 0x7f, 0x10, 0x85,
  0x38, 0x7f, 0x20, 0x91, 0x22, 0x7f, 0x00, 0x96, 0x3a, 0x7f, 0x00, 0x99,
  0x2a, 0x2c, 0x18, 0x89, 0x2a, 0x2c, 0x02, 0x81, 0x22, 0x7f, 0x16, 0x91,
  0x22, 0x7f, 0x00, 0x99, 0x2a, 0x64, 0x00, 0x99, 0x3e, 0x53, 0x12, 0x86,
  0x3a, 0x7f, 0x06, 0x89, 0x2a, 0x64, 0x00, 0x89, 0x3e, 0x53, 0x08, 0x81,
  0x22, 0x7f, 0x10, 0x95, 0x38, 0x7f, 0x00, 0x96, 0x3a, 0x7f, 0x00, 0x99,
  0x24, 0x7f, 0x00, 0x99, 0x26, 0x7c, 0x00, 0x99, 0x2a, 0x74, 0x00, 0x99,
  0x3c, 0x53, 0x00, 0x99, 0x27, 0x64, 0x10, 0x85, 0x38, 0x7f, 0x08, 0x89,
  0x24, 0x7f, 0x00, 0x89, 0x26, 0x7c, 0x00, 0x89, 0x2a, 0x74, 0x00, 0x89,
  0x3c, 0x53, 0x00, 0x89, 0x27, 0x64, 0x18, 0x91, 0x25, 0x7f, 0x1a, 0x86,
  0x3a, 0x7f, 0x06, 0x81, 0x25, 0x7f, 0x10, 0x91, 0x24, 0x7f, 0x00, 0x96,
  0x3c, 0x7f, 0x00, 0x99, 0x2a, 0x21, 0x00, 0x99, 0x3d, 0x53, 0x18, 0x89,
  0x2a, 0x21, 0x00, 0x89, 0x3d, 0x53, 0x04, 0x81, 0x24, 0x7f, 0x12, 0x86,
  0x3c, 0x7f, 0x02, 0x95, 0x35, 0x7f, 0x00, 0x99, 0x2a, 0x53, 0x10, 0x85,
  0x35, 0x7f, 0x08, 0x89, 0x2a, 0x53, 0x18, 0x91, 0x20, 0x7f, 0x00, 0x95,
  0x38, 0x7f, 0x00, 0x96, 0x3d, 0x7e, 0x00, 0x99, 0x24, 0x7f, 0x00, 0x99,
  0x2a, 0x74, 0x00, 0x99, 0x3c, 0x53, 0x10, 0x85, 0x38, 0x7f, 0x08, 0x89,
  0x24, 0x7f, 0x00, 0x89, 0x2a, 0x74, 0x00, 0x89, 0x3c, 0x53, 0x18, 0x81,
  0x20, 0x7f, 0x1e, 0x86, 0x3d, 0x7e, 0x12, 0x91, 0x22, 0x7f, 0x00, 0x95,
  0x38, 0x7f, 0x00, 0x96, 0x3a, 0x72, 0x00, 0x99, 0x2a, 0x47, 0x10, 0x85,
  0x38, 0x7f, 0x08, 0x89, 0x2a, 0x47, 0x0a, 0x81, 0x22, 0x7f, 0x04, 0x86,
  0x3a, 0x72, 0x0a, 0x99, 0x2a, 0x53, 0x00, 0x99, 0x3e, 0x53, 0x18, 0x89,
  0x2a, 0x53, 0x00, 0x89, 0x3e, 0x53, 0x18, 0x96, 0x38, 0x7f, 0x00, 0x99,
  0x24, 0x7f, 0x00, 0x99, 0x26, 0x70, 0x00, 0x99, 0x2a, 0x7f, 0x00, 0x99,
  0x3c, 0x53, 0x00, 0x99, 0x27, 0x74, 0x18, 0x89, 0x24, 0x7f, 0x00, 0x89,
  0x26, 0x70, 0x00, 0x89, 0x2a, 0x7f, 0x00, 0x89, 0x3c, 0x53, 0x00, 0x89,
  0x27, 0x74, 0x2c, 0xe6, 0x70, 0x3f, 0x02, 0xe6, 0x0b, 0x3e, 0x06, 0xe6,
  0x52, 0x3b, 0x08, 0xe6, 0x4f, 0x3a, 0x0c, 0x91, 0x20, 0x7f, 0x00, 0x95,
  0x33, 0x7f, 0x00, 0x99, 0x2a, 0x30, 0x00, 0x99, 0x3d, 0x53, 0x02, 0xe6,
  0x43, 0x3b, 0x06, 0xe6, 0x4c, 0x3e, 0x08, 0x85, 0x33, 0x7f, 0x02, 0xe6,
  0x5f, 0x3f, 0x02, 0x81, 0x20, 0x7f, 0x02, 0xe6, 0x00, 0x40, 0x02, 0x89,
  0x2a, 0x30, 0x00, 0x89, 0x3d, 0x53, 0x08, 0x86, 0x38, 0x7f, 0x10, 0x91,
  0x20, 0x7f, 0x00, 0x95, 0x35, 0x7f, 0x00, 0x99, 0x2a, 0x3d, 0x10, 0x85,
  0x35, 0x7f, 0x04, 0x81, 0x20, 0x7f, 0x04, 0x89, 0x2a, 0x3d, 0x18, 0x80,
  0x41, 0x7f, 0x00, 0x80, 0x3d, 0x7f, 0x00, 0x80, 0x3a, 0x7f, 0x00, 0x80,
  0x36, 0x7f, 0x00, 0x84, 0x50, 0x63, 0x00, 0x84, 0x44, 0x63, 0x00, 0x90,
  0x41, 0x7f, 0x00, 0x90, 0x3d, 0x7f, 0x00, 0x90, 0x3a, 0x7f, 0x00, 0x90,
  0x36, 0x7f, 0x00, 0x91, 0x1b, 0x7f, 0x00, 0x96, 0x3f, 0x7f, 0x00, 0x99,
  0x24, 0x7f, 0x00, 0x99, 0x2a, 0x74, 0x00, 0x99, 0x3c, 0x53, 0x18, 0x89,
  0x24, 0x7f, 0x00, 0x89, 0x2a, 0x74, 0x00, 0x89, 0x3c, 0x53, 0x18, 0x81,
  0x1b, 0x7f, 0x00, 0x95, 0x38, 0x7f, 0x10, 0x85, 0x38, 0x7f, 0x0c, 0x86,
  0x3f, 0x7f, 0x14, 0x91, 0x1b, 0x63, 0x00, 0x94, 0x4d, 0x62, 0x00, 0x94,
  0x41, 0x62, 0x00, 0x96, 0x3f, 0x7f, 0x00, 0x99, 0x2a, 0x47, 0x18, 0x89,
  0x2a, 0x47, 0x04, 0x81, 0x1b, 0x63, 0x14, 0x91, 0x20, 0x73, 0x00, 0x99,
  0x2a, 0x47, 0x00, 0x99, 0x3e, 0x53, 0x0e, 0x84, 0x4d, 0x62, 0x06, 0x86,
  0x3f, 0x7f, 0x02, 0x84, 0x41, 0x62, 0x02, 0x89, 0x2a, 0x47, 0x00, 0x89,
  0x3e, 0x53, 0x16, 0x81, 0x20, 0x73, 0x02, 0x95, 0x38, 0x7f, 0x00, 0x96,
  0x3f, 0x7f, 0x00, 0x99, 0x24, 0x7f, 0x00, 0x99, 0x26, 0x7c, 0x00, 0x99,
  0x2a, 0x74, 0x00, 0x99, 0x3c, 0x53, 0x00, 0x99, 0x27, 0x64, 0x10, 0x85,
  0x38, 0x7f, 0x08, 0x89, 0x24, 0x7f, 0x00, 0x89, 0x26, 0x7c, 0x00, 0x89,
  0x2a, 0x74, 0x00, 0x89, 0x3c, 0x53, 0x00, 0x89, 0x27, 0x64, 0x18, 0x91,
  0x20, 0x47, 0x10, 0x81, 0x20, 0x47, 0x06, 0x86, 0x3f, 0x7f, 0x1a, 0x80,
  0x41, 0x7f, 0x00, 0x80, 0x3d, 0x7f, 0x00, 0x80, 0x3a, 0x7f, 0x00, 0x80,
  0x36, 0x7f, 0x00, 0x90, 0x3f, 0x7f, 0x00, 0x90, 0x3c, 0x7f, 0x00, 0x90,
  0x3a, 0x7f, 0x00, 0x90, 0x38, 0x7f, 0x00, 0x91, 0x20, 0x7f, 0x00, 0x94,
  0x4b, 0x62, 0x00, 0x94, 0x3f, 0x62, 0x00, 0x96, 0x41, 0x7f, 0x00, 0x99,
  0x2e, 0x44, 0x00, 0x99, 0x3d, 0x53, 0x18, 0x89, 0x2e, 0x44, 0x00, 0x89,
  0x3d, 0x53, 0x06, 0x81, 0x20, 0x7f, 0x12, 0x95, 0x35, 0x7f, 0x0e, 0x84,
  0x4b, 0x62, 0x02, 0x85, 0x35, 0x7f, 0x04, 0x86, 0x41, 0x7f, 0x04, 0x84,
  0x3f, 0x62, 0x18, 0x95, 0x38, 0x7f, 0x00, 0x96, 0x3f, 0x7f, 0x00, 0x99,
  0x24, 0x7f, 0x00, 0x99, 0x2a, 0x74, 0x00, 0x99, 0x3c, 0x53, 0x10, 0x85,
  0x38, 0x7f, 0x08, 0x89, 0x24, 0x7f, 0x00, 0x89, 0x2a, 0x74, 0x00, 0x89,
  0x3c, 0x53, 0x48, 0x91, 0x20, 0x7f, 0x00, 0x94, 0x49, 0x7f, 0x00, 0x94,
  0x3d, 0x63, 0x00, 0x95, 0x38, 0x7f, 0x00, 0x99, 0x2a, 0x3d, 0x10, 0x85,
  0x38, 0x7f, 0x04, 0x81, 0x20, 0x7f, 0x04, 0x89, 0x2a, 0x3d, 0x18, 0x91,
  0x20, 0x7f, 0x00, 0x99, 0x2a, 0x64, 0x00, 0x99, 0x3e, 0x53, 0x10, 0x84,
  0x3d, 0x63, 0x04, 0x84, 0x49, 0x7f, 0x04, 0x89, 0x2a, 0x64, 0x00, 0x89,
  0x3e, 0x53, 0x0c, 0x81, 0x20, 0x7f, 0x0c, 0x99, 0x24, 0x7f, 0x00, 0x99,
  0x26, 0x7d, 0x00, 0x99, 0x2a, 0x74, 0x00, 0x99, 0x3c, 0x53, 0x00, 0x99,
  0x27, 0x7d, 0x0c, 0x86, 0x3f, 0x7f, 0x0c, 0x89, 0x24, 0x7f, 0x00, 0x89,
  0x26, 0x7d, 0x00, 0x89, 0x2a, 0x74, 0x00, 0x89, 0x3c, 0x53, 0x00, 0x89,
  0x27, 0x7d, 0x18, 0x91, 0x20, 0x63, 0x00, 0x95, 0x38, 0x7f, 0x00, 0x99,
  0x27, 0x69, 0x10, 0x85, 0x38, 0x7f, 0x08, 0x81, 0x20, 0x63, 0x00, 0x89,
  0x27, 0x69, 0x18, 0x91, 0x22, 0x63, 0x00, 0x94, 0x46, 0x63, 0x00, 0x94,
  0x3a, 0x63, 0x00, 0x99, 0x2e, 0x5f, 0x00, 0x99, 0x3d, 0x53, 0x00, 0x99,
  0x27, 0x55, 0x10, 0x81, 0x22, 0x63, 0x08, 0x89, 0x2e, 0x5f, 0x00, 0x89,
  0x3d, 0x53, 0x00, 0x89, 0x27, 0x55, 0x18, 0x91, 0x22, 0x7f, 0x00, 0x95,
  0x38, 0x7f, 0x00, 0x99, 0x27, 0x41, 0x10, 0x85, 0x38, 0x7f, 0x06, 0x81,
  0x22, 0x7f, 0x02, 0x89, 0x27, 0x41, 0x18, 0x80, 0x3f, 0x7f, 0x00, 0x80,
  0x3c, 0x7f, 0x00, 0x80, 0x3a, 0x7f, 0x00, 0x80, 0x38, 0x7f, 0x00, 0x90,
  0x3d, 0x7f, 0x00, 0x90, 0x3a, 0x7f, 0x00, 0x90, 0x36, 0x7f, 0x00, 0x91,
  0x22, 0x7f, 0x00, 0x93, 0x49, 0x7f, 0x00, 0x93, 0x46, 0x7f, 0x00, 0x93,
  0x42, 0x7f, 0x00, 0x93, 0x3f, 0x7f, 0x00, 0x93, 0x3d, 0x7f, 0x00, 0x96,
  0x3d, 0x7f, 0x00, 0x99, 0x24, 0x7f, 0x00, 0x99, 0x2e, 0x70, 0x00, 0x99,
  0x3c, 0x53, 0x18, 0x89, 0x24, 0x7f, 0x00, 0x89, 0x2e, 0x70, 0x00, 0x89,
  0x3c, 0x53, 0x02, 0x81, 0x22, 0x7f, 0x16, 0x95, 0x38, 0x7f, 0x10, 0x85,
  0x38, 0x7f, 0x20, 0x91, 0x22, 0x7f, 0x00, 0x99, 0x2a, 0x36, 0x18, 0x81,
  0x22, 0x7f, 0x00, 0x89, 0x2a, 0x36, 0x18, 0x91, 0x25, 0x7f, 0x00, 0x99,
  0x2a, 0x64, 0x00, 0x99, 0x3e, 0x53, 0x18, 0x89, 0x2a, 0x64, 0x00, 0x89,
  0x3e, 0x53, 0x0a, 0x81, 0x25, 0x7f, 0x0e, 0x95, 0x38, 0x7f, 0x00, 0x99,
  0x24, 0x7f, 0x00, 0x99, 0x26, 0x70, 0x00, 0x99, 0x2a, 0x74, 0x00, 0x99,
  0x3c, 0x53, 0x10, 0x85, 0x38, 0x7f, 0x08, 0x89, 0x24, 0x7f, 0x00, 0x89,
  0x26, 0x70, 0x00, 0x89, 0x2a, 0x74, 0x00, 0x89, 0x3c, 0x53, 0x18, 0x91,
  0x25, 0x7f, 0x2a, 0x81, 0x25, 0x7f, 0x06, 0x91, 0x24, 0x7f, 0x00, 0x99,
  0x2a, 0x28, 0x00, 0x99, 0x3d, 0x53, 0x18, 0x89, 0x2a, 0x28, 0x00, 0x89,
  0x3d, 0x53, 0x0a, 0x81, 0x24, 0x7f, 0x0e, 0x95, 0x35, 0x7f, 0x00, 0x99,
  0x2a, 0x53, 0x10, 0x85, 0x35, 0x7f, 0x08, 0x89, 0x2a, 0x53, 0x18, 0x91,
  0x20, 0x7f, 0x00, 0x95, 0x38, 0x7f, 0x00, 0x99, 0x24, 0x7f, 0x00, 0x99,
  0x2a, 0x74, 0x00, 0x99, 0x3c, 0x53, 0x10, 0x85, 0x38, 0x7f, 0x08, 0x89,
  0x24, 0x7f, 0x00, 0x89, 0x2a, 0x74, 0x00, 0x89, 0x3c, 0x53, 0x02, 0x86,
  0x3d, 0x7f, 0x18, 0x81, 0x20, 0x7f, 0x18, 0xe6, 0x4e, 0x3f, 0x04, 0xe6,
  0x06, 0x3d, 0x06, 0xe6, 0x60, 0x3a, 0x06, 0xe6, 0x4f, 0x3a, 0x06, 0x91,
  0x22, 0x7f, 0x00, 0x96, 0x3f, 0x7f, 0x00, 0x99, 0x2a, 0x30, 0x0e, 0xe6,
  0x72, 0x3a, 0x02, 0xe6, 0x47, 0x3d, 0x08, 0x89, 0x2a, 0x30, 0x00, 0xe6,
  0x4e, 0x3f, 0x06, 0xe6, 0x70, 0x3f, 0x02, 0xe6, 0x00, 0x40, 0x02, 0x81,
  0x22, 0x7f, 0x02, 0x86, 0x3f, 0x7f, 0x0c, 0x95, 0x38, 0x7f, 0x00, 0x99,
  0x2a, 0x47, 0x00, 0x99, 0x3e, 0x53, 0x10, 0x85, 0x38, 0x7f, 0x08, 0x89,
  0x2a, 0x47, 0x00, 0x89, 0x3e, 0x53, 0x18, 0x96, 0x41, 0x7f, 0x00, 0x99,
  0x24, 0x7f, 0x00, 0x99, 0x26, 0x7c, 0x00, 0x99, 0x2a, 0x74, 0x00, 0x99,
  0x3c, 0x53, 0x04, 0x84, 0x46, 0x63, 0x00, 0x84, 0x3a, 0x63, 0x0c, 0x83,
  0x49, 0x7f, 0x00, 0x83, 0x46, 0x7f, 0x00, 0x83, 0x3f, 0x7f, 0x06, 0x83,
  0x42, 0x7f, 0x00, 0x83, 0x3d, 0x7f, 0x02, 0x89, 0x24, 0x7f, 0x00, 0x89,
  0x26, 0x7c, 0x00, 0x89, 0x2a, 0x74, 0x00, 0x89, 0x3c, 0x53, 0x34, 0x86,
  0x41, 0x7f, 0x14, 0x90, 0x3f, 0x7f, 0x00, 0x90, 0x3c, 0x7f, 0x00, 0x90,
  0x38, 0x7f, 0x00, 0x90, 0x35, 0x7f, 0x00, 0x93, 0x4b, 0x7f, 0x00, 0x93,
  0x48, 0x7f, 0x00, 0x93, 0x44, 0x7f, 0x00, 0x93, 0x41, 0x7f, 0x00, 0x93,
  0x3f, 0x7f, 0x00, 0x95, 0x35, 0x7f, 0x00, 0x96, 0x3f, 0x7f, 0x00, 0x99,
  0x2a, 0x0d, 0x00, 0x99, 0x3d, 0x53, 0x04, 0x80, 0x3d, 0x7f, 0x00, 0x80,
  0x3a, 0x7f, 0x00, 0x80, 0x36, 0x7f, 0x0c, 0x85, 0x35, 0x7f, 0x08, 0x89,
  0x2a, 0x0d, 0x00, 0x89, 0x3d, 0x53, 0x18, 0x91, 0x20, 0x7f, 0x00, 0x95,
  0x38, 0x7f, 0x00, 0x99, 0x2a, 0x47, 0x10, 0x85, 0x38, 0x7f, 0x08, 0x81,
  0x20, 0x7f, 0x00, 0x89, 0x2a, 0x47, 0x18, 0x91, 0x22, 0x7f, 0x00, 0x99,
  0x24, 0x7f, 0x00, 0x99, 0x2a, 0x64, 0x00, 0x99, 0x3c, 0x53, 0x18, 0x89,
  0x24, 0x7f, 0x00, 0x89, 0x2a, 0x64, 0x00, 0x89, 0x3c, 0x53, 0x04, 0x81,
  0x22, 0x7f, 0x14, 0x95, 0x38, 0x7f, 0x0e, 0x86, 0x3f, 0x7f, 0x02, 0x85,
  0x38, 0x7f, 0x20, 0x91, 0x22, 0x7f, 0x00, 0x96, 0x3f, 0x7f, 0x00, 0x99,
  0x2a, 0x36, 0x18, 0x81, 0x22, 0x7f, 0x00, 0x89, 0x2a, 0x36, 0x08, 0x86,
  0x3f, 0x7f, 0x10, 0x91, 0x25, 0x7f, 0x00, 0x99, 0x2a, 0x53, 0x00, 0x99,
  0x3e, 0x53, 0x18, 0x89, 0x2a, 0x53, 0x00, 0x89, 0x3e, 0x53, 0x06, 0x81,
  0x25, 0x7f, 0x04, 0xe6, 0x4e, 0x3f, 0x06, 0xe6, 0x28, 0x3d, 0x06, 0xe6,
  0x10, 0x3b, 0x02, 0x95, 0x38, 0x7f, 0x00, 0x96, 0x3f, 0x7f, 0x00, 0x99,
  0x24, 0x7f, 0x00, 0x99, 0x26, 0x70, 0x00, 0x99, 0x2a, 0x74, 0x00, 0x99,
  0x3c, 0x53, 0x04, 0xe6, 0x4f, 0x3a, 0x08, 0xe6, 0x43, 0x3b, 0x04, 0x85,
  0x38, 0x7f, 0x02, 0xe6, 0x3a, 0x3d, 0x06, 0x89, 0x24, 0x7f, 0x00, 0x89,
  0x26, 0x70, 0x00, 0x89, 0x2a, 0x74, 0x00, 0x89, 0x3c, 0x53, 0x02, 0xe6,
  0x00, 0x40, 0x16, 0x91, 0x25, 0x7f, 0x1a, 0x86, 0x3f, 0x7f, 0x04, 0x81,
  0x25, 0x7f, 0x12, 0x91, 0x24, 0x7f, 0x00, 0x96, 0x41, 0x7f, 0x00, 0x99,
  0x2a, 0x36, 0x00, 0x99, 0x3d, 0x53, 0x18, 0x89, 0x2a, 0x36, 0x00, 0x89,
  0x3d, 0x53, 0x04, 0x81, 0x24, 0x7f, 0x14, 0x95, 0x35, 0x7f, 0x00, 0x99,
  0x2a, 0x47, 0x10, 0x85, 0x35, 0x7f, 0x04, 0x86, 0x41, 0x7f, 0x04, 0x89,
  0x2a, 0x47, 0x18, 0x91, 0x20, 0x7f, 0x00, 0x95, 0x38, 0x7f, 0x00, 0x96,
  0x3f, 0x7f, 0x00, 0x99, 0x24, 0x7f, 0x00, 0x99, 0x2a, 0x64, 0x00, 0x99,
  0x3c, 0x53, 0x10, 0x85, 0x38, 0x7f, 0x08, 0x89, 0x24, 0x7f, 0x00, 0x89,
  0x2a, 0x64, 0x00, 0x89, 0x3c, 0x53, 0x0a, 0x81, 0x20, 0x7f, 0x2c, 0x86,
  0x3f, 0x7f, 0x12, 0x91, 0x22, 0x7f, 0x00, 0x95, 0x38, 0x7f, 0x00, 0x96,
  0x38, 0x72, 0x00, 0x99, 0x2a, 0x47, 0x10, 0x85, 0x38, 0x7f, 0x08, 0x89,
  0x2a, 0x47, 0x08, 0x81, 0x22, 0x7f, 0x10, 0x99, 0x2a, 0x47, 0x00, 0x99,
  0x3e, 0x53, 0x10, 0x86, 0x38, 0x72, 0x08, 0x89, 0x2a, 0x47, 0x00, 0x89,
  0x3e, 0x53, 0x18, 0x95, 0x38, 0x7f, 0x00, 0x96, 0x38, 0x7f, 0x00, 0x99,
  0x24, 0x7f, 0x00, 0x99, 0x26, 0x70, 0x00, 0x99, 0x2a, 0x74, 0x00, 0x99,
  0x3c, 0x53, 0x10, 0x85, 0x38, 0x7f, 0x08, 0x89, 0x24, 0x7f, 0x00, 0x89,
  0x26, 0x70, 0x00, 0x89, 0x2a, 0x74, 0x00, 0x89, 0x3c, 0x53, 0x04, 0x83,
  0x41, 0x7f, 0x00, 0x83, 0x3f, 0x7f, 0x10, 0x83, 0x4b, 0x7f, 0x00, 0x83,
  0x48, 0x7f, 0x00, 0x83, 0x44, 0x7f, 0x04, 0x95, 0x3a, 0x7f, 0x10, 0x85,
  0x3a, 0x7f, 0x20, 0x91, 0x20, 0x7f, 0x00, 0x93, 0x4d, 0x7f, 0x00, 0x93,
  0x49, 0x7f, 0x00, 0x93, 0x46, 0x7f, 0x00, 0x93, 0x44, 0x7f, 0x00, 0x93,
  0x42, 0x7f, 0x00, 0x99, 0x2e, 0x44, 0x00, 0x99, 0x3d, 0x53, 0x14, 0x81,
  0x20, 0x7f, 0x04, 0x89, 0x2e, 0x44, 0x00, 0x89, 0x3d, 0x53, 0x18, 0x91,
  0x20, 0x7f, 0x08, 0x86, 0x38, 0x7f, 0x14, 0x81, 0x20, 0x7f, 0x14, 0x80,
  0x3f, 0x7f, 0x00, 0x80, 0x3c, 0x7f, 0x00, 0x80, 0x38, 0x7f, 0x00, 0x80,
  0x35, 0x7f, 0x00, 0x90, 0x3d, 0x7f, 0x00, 0x90, 0x3a, 0x7f, 0x00, 0x90,
  0x36, 0x7f, 0x00, 0x91, 0x22, 0x7f, 0x00, 0x99, 0x24, 0x7f, 0x00, 0x99,
  0x2a, 0x74, 0x00, 0x99, 0x3c, 0x53, 0x18, 0x89, 0x24, 0x7f, 0x00, 0x89,
  0x2a, 0x74, 0x00, 0x89, 0x3c, 0x53, 0x0e, 0x81, 0x22, 0x7f, 0x0a, 0x95,
  0x38, 0x7f, 0x10, 0x85, 0x38, 0x7f, 0x20, 0x91, 0x22, 0x7f, 0x00, 0x99,
  0x2a, 0x2c, 0x18, 0x89, 0x2a, 0x2c, 0x02, 0x81, 0x22, 0x7f, 0x16, 0x91,
  0x25, 0x7f, 0x00, 0x99, 0x2a, 0x64, 0x00, 0x99, 0x3e, 0x53, 0x18, 0x89,
  0x2a, 0x64, 0x00, 0x89, 0x3e, 0x53, 0x08, 0x81, 0x25, 0x7f, 0x10, 0x95,
  0x38, 0x7f, 0x00, 0x99, 0x24, 0x7f, 0x00, 0x99, 0x26, 0x7c, 0x00, 0x99,
  0x2a, 0x74, 0x00, 0x99, 0x3c, 0x53, 0x10, 0x85, 0x38, 0x7f, 0x08, 0x89,
  0x24, 0x7f, 0x00, 0x89, 0x26, 0x7c, 0x00, 0x89, 0x2a, 0x74, 0x00, 0x89,
  0x3c, 0x53, 0x18, 0x91, 0x25, 0x7f, 0x1c, 0xe6, 0x7a, 0x3d, 0x04, 0x81,
  0x25, 0x7f, 0x06, 0xe6, 0x62, 0x3b, 0x06, 0xe6, 0x60, 0x3a, 0x04, 0x91,
  0x24, 0x7f, 0x00, 0x96, 0x38, 0x7f, 0x00, 0x99, 0x2a, 0x21, 0x00, 0x99,
  0x3d, 0x53, 0x02, 0xe6, 0x4f, 0x3a, 0x0a, 0xe6, 0x7f, 0x3a, 0x04, 0xe6,
  0x34, 0x3c, 0x06, 0xe6, 0x5e, 0x3e, 0x02, 0x89, 0x2a, 0x21, 0x00, 0x89,
  0x3d, 0x53, 0x04, 0x81, 0x24, 0x7f, 0x02, 0xe6, 0x70, 0x3f, 0x06, 0xe6,
  0x00, 0x40, 0x04, 0x86, 0x38, 0x7f, 0x08, 0x95, 0x35, 0x7f, 0x00, 0x99,
  0x2a, 0x53, 0x10, 0x85, 0x35, 0x7f, 0x08, 0x89, 0x2a, 0x53, 0x18, 0x91,
  0x20, 0x7f, 0x00, 0x95, 0x38, 0x7f, 0x00, 0x96, 0x3a, 0x7f, 0x00, 0x99,
  0x24, 0x7f, 0x00, 0x99, 0x2a, 0x74, 0x00, 0x99, 0x3c, 0x53, 0x10, 0x85,
  0x38, 0x7f, 0x08, 0x89, 0x24, 0x7f, 0x00, 0x89, 0x2a, 0x74, 0x00, 0x89,
  0x3c, 0x53, 0x18, 0x81, 0x20, 0x7f, 0x1a, 0x86, 0x3a, 0x7f, 0x16, 0x91,
  0x22, 0x7f, 0x00, 0x95, 0x38, 0x7f, 0x00, 0x96, 0x3c, 0x7f, 0x00, 0x99,
  0x2a, 0x47, 0x10, 0x85, 0x38, 0x7f, 0x08, 0x89, 0x2a, 0x47, 0x0a, 0x81,
  0x22, 0x7f, 0x0a, 0x86, 0x3c, 0x7f, 0x04, 0x99, 0x2a, 0x53, 0x00, 0x99,
  0x3e, 0x53, 0x18, 0x89, 0x2a, 0x53, 0x00, 0x89, 0x3e, 0x53, 0x18, 0x96,
  0x3d, 0x7f, 0x00, 0x99, 0x24, 0x7f, 0x00, 0x99, 0x26, 0x70, 0x00, 0x99,
  0x2a, 0x7f, 0x00, 0x99, 0x3c, 0x53, 0x18, 0x89, 0x24, 0x7f, 0x00, 0x89,
  0x26, 0x70, 0x00, 0x89, 0x2a, 0x7f, 0x00, 0x89, 0x3c, 0x53, 0x38, 0x86,
  0x3d, 0x7f, 0x0a, 0x83, 0x44, 0x7f, 0x06, 0x95, 0x33, 0x7f, 0x00, 0x96,
  0x3a, 0x6f, 0x00, 0x99, 0x2a, 0x30, 0x00, 0x99, 0x3d, 0x53, 0x08, 0x83,
  0x4d, 0x7f, 0x00, 0x83, 0x46, 0x7f, 0x08, 0x83, 0x49, 0x7f, 0x00, 0x85,
  0x33, 0x7f, 0x08, 0x89, 0x2a, 0x30, 0x00, 0x89, 0x3d, 0x53, 0x08, 0x83,
  0x42, 0x7f, 0x08, 0x86, 0x3a, 0x6f, 0x08, 0x91, 0x20, 0x7f, 0x00, 0x95,
  0x35, 0x7f, 0x00, 0x99, 0x2a, 0x3d, 0x10, 0x85, 0x35, 0x7f, 0x04, 0x81,
  0x20, 0x7f, 0x04, 0x89, 0x2a, 0x3d, 0x18, 0x80, 0x3d, 0x7f, 0x00, 0x80,
  0x3a, 0x7f, 0x00, 0x80, 0x36, 0x7f, 0x00, 0x90, 0x41, 0x7f, 0x00, 0x90,
  0x3d, 0x7f, 0x00, 0x90, 0x3a, 0x7f, 0x00, 0x90, 0x36, 0x7f, 0x00, 0x91,
  0x22, 0x7f, 0x00, 0x93, 0x49, 0x7f, 0x00, 0x93, 0x46, 0x7f, 0x00, 0x93,
  0x42, 0x7f, 0x00, 0x93, 0x3f, 0x7f, 0x00, 0x99, 0x24, 0x7f, 0x00, 0x99,
  0x2a, 0x74, 0x00, 0x99, 0x3c, 0x53, 0x16, 0x83, 0x42, 0x7f, 0x02, 0x89,
  0x24, 0x7f, 0x00, 0x89, 0x2a, 0x74, 0x00, 0x89, 0x3c, 0x53, 0x04, 0x83,
  0x46, 0x7f, 0x00, 0x83, 0x3f, 0x7f, 0x04, 0x83, 0x49, 0x7f, 0x04, 0x81,
  0x22, 0x7f, 0x0c, 0x95, 0x38, 0x7f, 0x10, 0x85, 0x38, 0x7f, 0x20, 0x91,
  0x22, 0x7f, 0x00, 0x96, 0x3f, 0x7f, 0x00, 0x99, 0x26, 0x70, 0x00, 0x99,
  0x2a, 0x47, 0x18, 0x89, 0x26, 0x70, 0x00, 0x89, 0x2a, 0x47, 0x04, 0x81,
  0x22, 0x7f, 0x14, 0x91, 0x25, 0x7f, 0x00, 0x93, 0x49, 0x7f, 0x00, 0x93,
  0x46, 0x7f, 0x00, 0x93, 0x42, 0x7f, 0x00, 0x93, 0x3f, 0x7f, 0x00, 0x99,
  0x2a, 0x47, 0x00, 0x99, 0x3e, 0x53, 0x18, 0x83, 0x46, 0x7f, 0x00, 0x89,
  0x2a, 0x47, 0x00, 0x89, 0x3e, 0x53, 0x04, 0x83, 0x3f, 0x7f, 0x00, 0x86,
  0x3f, 0x7f, 0x02, 0x83, 0x42, 0x7f, 0x04, 0x81, 0x25, 0x7f, 0x00, 0x83,
  0x49, 0x7f, 0x0e, 0x95, 0x38, 0x7f, 0x00, 0x96, 0x41, 0x7f, 0x00, 0x99,
  0x24, 0x7f, 0x00, 0x99, 0x2a, 0x74, 0x00, 0x99, 0x3c, 0x53, 0x10, 0x85,
  0x38, 0x7f, 0x08, 0x89, 0x24, 0x7f, 0x00, 0x89, 0x2a, 0x74, 0x00, 0x89,
  0x3c, 0x53, 0x18, 0x91, 0x25, 0x7f, 0x00, 0x99, 0x26, 0x7c, 0x0e, 0x86,
  0x41, 0x7f, 0x0a, 0x89, 0x26, 0x7c, 0x0e, 0x81, 0x25, 0x7f, 0x0a, 0x80,
  0x41, 0x7f, 0x00, 0x80, 0x3d, 0x7f, 0x00, 0x80, 0x3a, 0x7f, 0x00, 0x80,
  0x36, 0x7f, 0x00, 0x90, 0x3f, 0x7f, 0x00, 0x90, 0x3c, 0x7f, 0x00, 0x90,
  0x38, 0x7f, 0x00, 0x90, 0x35, 0x7f, 0x00, 0x91, 0x24, 0x7f, 0x00, 0x93,
  0x4b, 0x7f, 0x00, 0x93, 0x48, 0x7f, 0x00, 0x93, 0x44, 0x7f, 0x00, 0x93,
  0x41, 0x7f, 0x00, 0x94, 0x44, 0x7e, 0x00, 0x94, 0x38, 0x7e, 0x00, 0x96,
  0x3f, 0x7f, 0x00, 0x99, 0x2e, 0x44, 0x00, 0x99, 0x3d, 0x53, 0x18, 0x89,
  0x2e, 0x44, 0x00, 0x89, 0x3d, 0x53, 0x08, 0x81, 0x24, 0x7f, 0x10, 0x95,
  0x35, 0x7f, 0x10, 0x85, 0x35, 0x7f, 0x20, 0x91, 0x20, 0x7f, 0x00, 0x95,
  0x38, 0x7f, 0x00, 0x99, 0x24, 0x7f, 0x00, 0x99, 0x26, 0x70, 0x00, 0x99,
  0x2a, 0x74, 0x00, 0x99, 0x3c, 0x53, 0x10, 0x85, 0x38, 0x7f, 0x08, 0x89,
  0x24, 0x7f, 0x00, 0x89, 0x26, 0x70, 0x00, 0x89, 0x2a, 0x74, 0x00, 0x89,
  0x3c, 0x53, 0x10, 0x81, 0x20, 0x7f, 0x38, 0x84, 0x44, 0x7e, 0x00, 0x84,
  0x38, 0x7e, 0x00, 0x86, 0x3f, 0x7f, 0x00, 0x91, 0x22, 0x7f, 0x00, 0x94,
  0x50, 0x7f, 0x00, 0x94, 0x44, 0x7f, 0x00, 0x95, 0x38, 0x7f, 0x00, 0x99,
  0x26, 0x44, 0x00, 0x99, 0x2a, 0x3d, 0x10, 0x85, 0x38, 0x7f, 0x04, 0x84,
  0x50, 0x7f, 0x00, 0x84, 0x44, 0x7f, 0x04, 0x89, 0x26, 0x44, 0x00, 0x89,
  0x2a, 0x3d, 0x0e, 0x81, 0x22, 0x7f, 0x0a, 0x94, 0x50, 0x7f, 0x00, 0x94,
  0x44, 0x7f, 0x00, 0x99, 0x26, 0x3b, 0x00, 0x99, 0x2a, 0x64, 0x00, 0x99,
  0x3e, 0x53, 0x04, 0x83, 0x4b, 0x7f, 0x00, 0x83, 0x48, 0x7f, 0x00, 0x83,
  0x41, 0x7f, 0x04, 0x83, 0x44, 0x7f, 0x0c, 0x84, 0x50, 0x7f, 0x00, 0x84,
  0x44, 0x7f, 0x04, 0x89, 0x26, 0x3b, 0x00, 0x89, 0x2a, 0x64, 0x00, 0x89,
  0x3e, 0x53, 0x18, 0x91, 0x1d, 0x7f, 0x00, 0x93, 0x44, 0x7f, 0x00, 0x94,
  0x50, 0x7f, 0x00, 0x94, 0x44, 0x7f, 0x00, 0x96, 0x38, 0x7e, 0x00, 0x99,
  0x24, 0x7f, 0x00, 0x99, 0x26, 0x50, 0x00, 0x99, 0x2a, 0x74, 0x00, 0x99,
  0x3c, 0x53, 0x14, 0x83, 0x44, 0x7f, 0x00, 0x84, 0x50, 0x7f, 0x00, 0x84,
  0x44, 0x7f, 0x04, 0x89, 0x24, 0x7f, 0x00, 0x89, 0x26, 0x50, 0x00, 0x89,
  0x2a, 0x74, 0x00, 0x89, 0x3c, 0x53, 0x04, 0x86, 0x38, 0x7e, 0x14, 0x93,
  0x46, 0x7f, 0x00, 0x94, 0x52, 0x7f, 0x00, 0x94, 0x46, 0x7f, 0x00, 0x95,
  0x38, 0x7f, 0x00, 0x96, 0x3a, 0x78, 0x00, 0x99, 0x26, 0x50, 0x04, 0x81,
  0x1d, 0x7f, 0x0c, 0x85, 0x38, 0x7f, 0x04, 0x84, 0x46, 0x7f, 0x00, 0x86,
  0x3a, 0x78, 0x04, 0x89, 0x26, 0x50, 0x04, 0x84, 0x52, 0x7f, 0x04, 0x83,
  0x46, 0x7f, 0x08, 0xe6, 0x6b, 0x3e, 0x06, 0xe6, 0x33, 0x3b, 0x02, 0x91,
  0x20, 0x7f, 0x00, 0x93, 0x49, 0x7f, 0x00, 0x94, 0x55, 0x7f, 0x00, 0x94,
  0x49, 0x7f, 0x00, 0x96, 0x3d, 0x7c, 0x00, 0x99, 0x26, 0x5f, 0x00, 0x99,
  0x2e, 0x5f, 0x00, 0x99, 0x3d, 0x53, 0x06, 0xe6, 0x4f, 0x3a, 0x12, 0x84,
  0x55, 0x7f, 0x00, 0x84, 0x49, 0x7f, 0x00, 0x89, 0x26, 0x5f, 0x00, 0x89,
  0x2e, 0x5f, 0x00, 0x89, 0x3d, 0x53, 0x04, 0x86, 0x3d, 0x7c, 0x04, 0x81,
  0x20, 0x7f, 0x00, 0xe6, 0x04, 0x3c, 0x08, 0x83, 0x49, 0x7f, 0x00, 0xe6,
  0x0c, 0x3f, 0x08, 0x91, 0x1d, 0x7f, 0x00, 0x93, 0x46, 0x7f, 0x00, 0x94,
  0x52, 0x7f, 0x00, 0x94, 0x46, 0x7f, 0x00, 0x95, 0x38, 0x7f, 0x00, 0xe6,
  0x70, 0x3f, 0x00, 0x96, 0x3a, 0x72, 0x00, 0x99, 0x26, 0x70, 0x04, 0xe6,
  0x00, 0x40, 0x0c, 0x85, 0x38, 0x7f, 0x04, 0x86, 0x3a, 0x72, 0x04, 0x84,
  0x52, 0x7f, 0x00, 0x89, 0x26, 0x70, 0x02, 0x81, 0x1d, 0x7f, 0x06, 0x83,
  0x46, 0x7f, 0x00, 0x84, 0x46, 0x7f, 0x10, 0x80, 0x3f, 0x7f, 0x00, 0x80,
  0x3c, 0x7f, 0x00, 0x80, 0x38, 0x7f, 0x00, 0x80, 0x35, 0x7f, 0x00, 0x90,
  0x41, 0x7f, 0x00, 0x90, 0x3d, 0x7f, 0x00, 0x90, 0x3a, 0x7f, 0x00, 0x90,
  0x36, 0x7f, 0x00, 0x91, 0x1b, 0x7f, 0x00, 0x92, 0x42, 0x7f, 0x00, 0x92,
  0x3d, 0x7f, 0x00, 0x92, 0x3a, 0x7f, 0x00, 0x93, 0x55, 0x7f, 0x00, 0x96,
  0x41, 0x7f, 0x00, 0x99, 0x24, 0x7f, 0x00, 0x99, 0x2a, 0x70, 0x00, 0x99,
  0x3c, 0x53, 0x18, 0x89, 0x24, 0x7f, 0x00, 0x89, 0x2a, 0x70, 0x00, 0x89,
  0x3c, 0x53, 0x0a, 0x81, 0x1b, 0x7f, 0x0e, 0x95, 0x38, 0x7f, 0x10, 0x85,
  0x38, 0x7f, 0x20, 0x91, 0x1b, 0x7f, 0x00, 0x99, 0x2a, 0x36, 0x08, 0x86,
  0x41, 0x7f, 0x10, 0x89, 0x2a, 0x36, 0x0a, 0x81, 0x1b, 0x7f, 0x0e, 0x91,
  0x1b, 0x7f, 0x00, 0x96, 0x41, 0x7f, 0x00, 0x99, 0x2a, 0x64, 0x00, 0x99,
  0x3e, 0x53, 0x18, 0x89, 0x2a, 0x64, 0x00, 0x89, 0x3e, 0x53, 0x0a, 0x81,
  0x1b, 0x7f, 0x0e, 0x95, 0x38, 0x7f, 0x00, 0x99, 0x24, 0x7f, 0x00, 0x99,
  0x26, 0x70, 0x00, 0x99, 0x2a, 0x74, 0x00, 0x99, 0x3c, 0x53, 0x00, 0x99,
  0x27, 0x64, 0x10, 0x85, 0x38, 0x7f, 0x08, 0x89, 0x24, 0x7f, 0x00, 0x89,
  0x26, 0x70, 0x00, 0x89, 0x2a, 0x74, 0x00, 0x89, 0x3c, 0x53, 0x00, 0x89,
  0x27, 0x64, 0x18, 0x91, 0x24, 0x7f, 0x04, 0x86, 0x41, 0x7f, 0x1c, 0x82,
  0x3d, 0x7f, 0x02, 0x81, 0x24, 0x7f, 0x00, 0x83, 0x55, 0x7f, 0x08, 0x82,
  0x3a, 0x7f, 0x06, 0x80, 0x41, 0x7f, 0x00, 0x80, 0x3d, 0x7f, 0x00, 0x80,
  0x3a, 0x7f, 0x00, 0x80, 0x36, 0x7f, 0x00, 0x90, 0x3f, 0x7f, 0x00, 0x90,
  0x3c, 0x7f, 0x00, 0x90, 0x38, 0x7f, 0x00, 0x91, 0x22, 0x7f, 0x00, 0x92,
  0x44, 0x7f, 0x00, 0x92, 0x3f, 0x7f, 0x00, 0x92, 0x3c, 0x7f, 0x00, 0x93,
  0x57, 0x7f, 0x00, 0x96, 0x3f, 0x7f, 0x00, 0x99, 0x2a, 0x28, 0x00, 0x99,
  0x3d, 0x53, 0x14, 0x82, 0x42, 0x7f, 0x04, 0x89, 0x2a, 0x28, 0x00, 0x89,
  0x3d, 0x53, 0x0a, 0x81, 0x22, 0x7f, 0x0e, 0x95, 0x35, 0x7f, 0x00, 0x99,
  0x2a, 0x53, 0x10, 0x85, 0x35, 0x7f, 0x08, 0x89, 0x2a, 0x53, 0x18, 0x91,
  0x20, 0x7f, 0x00, 0x95, 0x38, 0x7f, 0x00, 0x99, 0x24, 0x7f, 0x00, 0x99,
  0x2a, 0x74, 0x00, 0x99, 0x3c, 0x53, 0x10, 0x85, 0x38, 0x7f, 0x08, 0x89,
  0x24, 0x7f, 0x00, 0x89, 0x2a, 0x74, 0x00, 0x89, 0x3c, 0x53, 0x0a, 0x81,
  0x20, 0x7f, 0x20, 0x86, 0x3f, 0x7f, 0x1e, 0x91, 0x20, 0x7f, 0x00, 0x99,
  0x2a, 0x30, 0x18, 0x89, 0x2a, 0x30, 0x0a, 0x81, 0x20, 0x7f, 0x0e, 0x95,
  0x38, 0x7f, 0x00, 0x99, 0x2a, 0x47, 0x00, 0x99, 0x3e, 0x53, 0x10, 0x85,
  0x38, 0x7f, 0x08, 0x89, 0x2a, 0x47, 0x00, 0x89, 0x3e, 0x53, 0x18, 0x96,
  0x38, 0x7f, 0x00, 0x99, 0x24, 0x7f, 0x00, 0x99, 0x26, 0x7c, 0x00, 0x99,
  0x2a, 0x74, 0x00, 0x99, 0x3c, 0x53, 0x00, 0x99, 0x27, 0x74, 0x18, 0x89,
  0x24, 0x7f, 0x00, 0x89, 0x26, 0x7c, 0x00, 0x89, 0x2a, 0x74, 0x00, 0x89,
  0x3c, 0x53, 0x00, 0x89, 0x27, 0x74, 0x02, 0x86, 0x38, 0x7f, 0x16, 0x96,
  0x3a, 0x7f, 0x14, 0x86, 0x3a, 0x7f, 0x14, 0xe6, 0x47, 0x3d, 0x08, 0x91,
  0x1b, 0x7f, 0x00, 0x93, 0x50, 0x7f, 0x00, 0x95, 0x35, 0x7f, 0x00, 0xe6,
  0x10, 0x3b, 0x00, 0x96, 0x3d, 0x7f, 0x00, 0x99, 0x2a, 0x0d, 0x00, 0x99,
  0x3d, 0x53, 0x04, 0x83, 0x57, 0x7f, 0x02, 0xe6, 0x4f, 0x3a, 0x0a, 0x85,
  0x35, 0x7f, 0x08, 0x89, 0x2a, 0x0d, 0x00, 0x89, 0x3d, 0x53, 0x02, 0xe6,
  0x72, 0x3a, 0x02, 0xe6, 0x46, 0x3c, 0x02, 0x86, 0x3d, 0x7f, 0x04, 0x81,
  0x1b, 0x7f, 0x00, 0xe6, 0x2f, 0x3f, 0x08, 0xe6, 0x70, 0x3f, 0x04, 0xe6,
  0x00, 0x40, 0x02, 0x91, 0x20, 0x7f, 0x00, 0x95, 0x38, 0x7f, 0x00, 0x96,
  0x3a, 0x7f, 0x00, 0x99, 0x2a, 0x47, 0x10, 0x85, 0x38, 0x7f, 0x04, 0x86,
  0x3a, 0x7f, 0x04, 0x89, 0x2a, 0x47, 0x0a, 0x81, 0x20, 0x7f, 0x0e, 0x80,
  0x3f, 0x7f, 0x00, 0x80, 0x3c, 0x7f, 0x00, 0x80, 0x38, 0x7f, 0x00, 0x90,
  0x3f, 0x7f, 0x00, 0x90, 0x3c, 0x7f, 0x00, 0x90, 0x38, 0x7f, 0x00, 0x91,
  0x1d, 0x7f, 0x00, 0x93, 0x57, 0x7f, 0x00, 0x96, 0x3f, 0x7f, 0x00, 0x99,
  0x24, 0x7f, 0x00, 0x99, 0x2a, 0x64, 0x00, 0x99, 0x3c, 0x53, 0x02, 0x83,
  0x50, 0x7f, 0x16, 0x89, 0x24, 0x7f, 0x00, 0x89, 0x2a, 0x64, 0x00, 0x89,
  0x3c, 0x53, 0x0a, 0x81, 0x1d, 0x7f, 0x0e, 0x95, 0x38, 0x7f, 0x10, 0x85,
  0x38, 0x7f, 0x20, 0x91, 0x1d, 0x7f, 0x00, 0x99, 0x2a, 0x36, 0x12, 0x86,
  0x3f, 0x7f, 0x06, 0x89, 0x2a, 0x36, 0x0a, 0x81, 0x1d, 0x7f, 0x0e, 0x91,
  0x24, 0x7f, 0x00, 0x96, 0x3f, 0x7f, 0x00, 0x99, 0x2a, 0x53, 0x00, 0x99,
  0x3e, 0x53, 0x18, 0x89, 0x2a, 0x53, 0x00, 0x89, 0x3e, 0x53, 0x0a, 0x81,
  0x24, 0x7f, 0x08, 0xe6, 0x5e, 0x3e, 0x06, 0x95, 0x38, 0x7f, 0x00, 0x99,
  0x24, 0x7f, 0x00, 0x99, 0x26, 0x70, 0x00, 0x99, 0x2a, 0x74, 0x00, 0x99,
  0x3c, 0x53, 0x00, 0x99, 0x27, 0x74, 0x00, 0xe6, 0x22, 0x3b, 0x06, 0xe6,
  0x4f, 0x3a, 0x0a, 0x85, 0x38, 0x7f, 0x04, 0xe6, 0x16, 0x3c, 0x04, 0x89,
  0x24, 0x7f, 0x00, 0x89, 0x26, 0x70, 0x00, 0x89, 0x2a, 0x74, 0x00, 0x89,
  0x3c, 0x53, 0x00, 0x89, 0x27, 0x74, 0x04, 0xe6, 0x2a, 0x3e, 0x06, 0xe6,
  0x70, 0x3f, 0x08, 0xe6, 0x00, 0x40, 0x06, 0x91, 0x24, 0x7f, 0x06, 0x86,
  0x3f, 0x7f, 0x1a, 0x82, 0x3f, 0x7f, 0x02, 0x81, 0x24, 0x7f, 0x06, 0x82,
  0x3c, 0x7f, 0x08, 0x80, 0x3f, 0x7f, 0x00, 0x80, 0x3c, 0x7f, 0x00, 0x80,
  0x38, 0x7f, 0x00, 0x90, 0x41, 0x7f, 0x00, 0x90, 0x3d, 0x7f, 0x00, 0x90,
  0x3a, 0x7f, 0x00, 0x91, 0x22, 0x7f, 0x00, 0x92, 0x41, 0x7f, 0x00, 0x92,
  0x3d, 0x7f, 0x00, 0x93, 0x59, 0x7f, 0x00, 0x96, 0x3d, 0x7f, 0x00, 0x99,
  0x2a, 0x36, 0x00, 0x99, 0x3d, 0x53, 0x02, 0x83, 0x57, 0x7f, 0x16, 0x89,
  0x2a, 0x36, 0x00, 0x89, 0x3d, 0x53, 0x0a, 0x81, 0x22, 0x7f, 0x0e, 0x95,
  0x35, 0x7f, 0x00, 0x99, 0x2a, 0x47, 0x10, 0x85, 0x35, 0x7f, 0x08, 0x89,
  0x2a, 0x47, 0x18, 0x95, 0x38, 0x7f, 0x00, 0x99, 0x24, 0x7f, 0x00, 0x99,
  0x2a, 0x64, 0x00, 0x99, 0x3c, 0x53, 0x0e, 0x86, 0x3d, 0x7f, 0x02, 0x85,
  0x38, 0x7f, 0x08, 0x89, 0x24, 0x7f, 0x00, 0x89, 0x2a, 0x64, 0x00, 0x89,
  0x3c, 0x53, 0x18, 0x96, 0x3c, 0x68, 0x1c, 0x86, 0x3c, 0x68, 0x14, 0x91,
  0x22, 0x7f, 0x00, 0x95, 0x38, 0x7f, 0x00, 0x96, 0x3a, 0x78, 0x00, 0x99,
  0x2a, 0x47, 0x10, 0x85, 0x38, 0x7f, 0x08, 0x89, 0x2a, 0x47, 0x0a, 0x81,
  0x22, 0x7f, 0x0e, 0x91, 0x22, 0x7f, 0x00, 0x99, 0x2a, 0x47, 0x00, 0x99,
  0x3e, 0x53, 0x18, 0x89, 0x2a, 0x47, 0x00, 0x89, 0x3e, 0x53, 0x06, 0x86,
  0x3a, 0x78, 0x04, 0x81, 0x22, 0x7f, 0x0a, 0x83, 0x59, 0x7f, 0x04, 0x92,
  0x3f, 0x7f, 0x00, 0x92, 0x3c, 0x7f, 0x00, 0x93, 0x5c, 0x7f, 0x00, 0x95,
  0x38, 0x7f, 0x00, 0xb6, 0x01, 0x1c, 0x00, 0x96, 0x38, 0x76, 0x00, 0x99,
  0x24, 0x7f, 0x00, 0x99, 0x26, 0x70, 0x00, 0x99, 0x2a, 0x74, 0x00, 0x99,
  0x3c, 0x53, 0x00, 0x99, 0x27, 0x64, 0x06, 0x82, 0x3d, 0x7f, 0x0a, 0x85,
  0x38, 0x7f, 0x08, 0x86, 0x38, 0x76, 0x00, 0x89, 0x24, 0x7f, 0x00, 0x89,
  0x26, 0x70, 0x00, 0x89, 0x2a, 0x74, 0x00, 0x89, 0x3c, 0x53, 0x00, 0x89,
  0x27, 0x64, 0x0a, 0x82, 0x41, 0x7f, 0x0e, 0x91, 0x24, 0x7f, 0x00, 0x93,
  0x5a, 0x7f, 0x00, 0x95, 0x3a, 0x7f, 0x00, 0xb6, 0x01, 0x00, 0x00, 0x96,
  0x3a, 0x7e, 0x02, 0x83, 0x5c, 0x7f, 0x0e, 0x85, 0x3a, 0x7f, 0x04, 0x86,
  0x3a, 0x7e, 0x0e, 0x81, 0x24, 0x7f, 0x0e, 0x91, 0x22, 0x7f, 0x00, 0x93,
  0x59, 0x7f, 0x00, 0x96, 0x3d, 0x7e, 0x00, 0x99, 0x2e, 0x44, 0x00, 0x99,
  0x3d, 0x53, 0x02, 0x83, 0x5a, 0x7f, 0x16, 0x89, 0x2e, 0x44, 0x00, 0x89,
  0x3d, 0x53, 0x04, 0x86, 0x3d, 0x7e, 0x06, 0x81, 0x22, 0x7f, 0x0e, 0x93,
  0x55, 0x7f, 0x00, 0x96, 0x3a, 0x78, 0x08, 0x83, 0x59, 0x7f, 0x0a, 0x86,
  0x3a, 0x78, 0x0c, 0x82, 0x3c, 0x7f, 0x12, 0x80, 0x41, 0x7f, 0x00, 0x80,
  0x3d, 0x7f, 0x00, 0x80, 0x3a, 0x7f, 0x00, 0x82, 0x3f, 0x7f, 0x00, 0x90,
  0x41, 0x7f, 0x00, 0x90, 0x3d, 0x7f, 0x00, 0x90, 0x3a, 0x7f, 0x00, 0x90,
  0x36, 0x7f, 0x00, 0x91, 0x1b, 0x7f, 0x00, 0x92, 0x42, 0x7f, 0x00, 0x92,
  0x3d, 0x7f, 0x00, 0x92, 0x3a, 0x7f, 0x00, 0x96, 0x3d, 0x7e, 0x00, 0x99,
  0x24, 0x7f, 0x00, 0x99, 0x2a, 0x74, 0x00, 0x99, 0x3c, 0x53, 0x04, 0x82,
  0x44, 0x7f, 0x14, 0x89, 0x24, 0x7f, 0x00, 0x89, 0x2a, 0x74, 0x00, 0x89,
  0x3c, 0x53, 0x0a, 0x81, 0x1b, 0x7f, 0x0e, 0x95, 0x38, 0x7f, 0x10, 0x85,
  0x38, 0x7f, 0x20, 0x91, 0x1b, 0x7f, 0x00, 0x99, 0x2a, 0x2c, 0x18, 0x89,
  0x2a, 0x2c, 0x0a, 0x81, 0x1b, 0x7f, 0x0e, 0x91, 0x24, 0x7f, 0x00, 0x99,
  0x2a, 0x64, 0x00, 0x99, 0x3e, 0x53, 0x0a, 0x86, 0x3d, 0x7e, 0x0a, 0xe6,
  0x4c, 0x3e, 0x04, 0x89, 0x2a, 0x64, 0x00, 0x89, 0x3e, 0x53, 0x06, 0xe6,
  0x46, 0x3c, 0x04, 0x81, 0x24, 0x7f, 0x02, 0xe6, 0x7f, 0x3a, 0x06, 0xe6,
  0x60, 0x3a, 0x06, 0x95, 0x38, 0x7f, 0x00, 0xb6, 0x01, 0x21, 0x00, 0x96,
  0x3f, 0x76, 0x00, 0x99, 0x24, 0x7f, 0x00, 0x99, 0x26, 0x7c, 0x00, 0x99,
  0x2a, 0x74, 0x00, 0x99, 0x3c, 0x53, 0x00, 0x99, 0x27, 0x64, 0x04, 0xe6,
  0x22, 0x3b, 0x04, 0xe6, 0x46, 0x3c, 0x06, 0xe6, 0x3c, 0x3f, 0x02, 0x85,
  0x38, 0x7f, 0x06, 0xe6, 0x70, 0x3f, 0x02, 0x89, 0x24, 0x7f, 0x00, 0x89,
  0x26, 0x7c, 0x00, 0x89, 0x2a, 0x74, 0x00, 0x89, 0x3c, 0x53, 0x00, 0x89,
  0x27, 0x64, 0x02, 0xe6, 0x00, 0x40, 0x10, 0x86, 0x3f, 0x76, 0x06, 0x91,
  0x24, 0x7f, 0x22, 0x81, 0x24, 0x7f, 0x08, 0x82, 0x3d, 0x7f, 0x06, 0x80,
  0x41, 0x7f, 0x00, 0x80, 0x3d, 0x7f, 0x00, 0x80, 0x3a, 0x7f, 0x00, 0x80,
  0x36, 0x7f, 0x00, 0x90, 0x3f, 0x7f, 0x00, 0x90, 0x3c, 0x7f, 0x00, 0x90,
  0x38, 0x7f, 0x00, 0x91, 0x22, 0x7f, 0x00, 0x92, 0x44, 0x7f, 0x00, 0x92,
  0x3f, 0x7f, 0x00, 0x92, 0x3c, 0x7f, 0x00, 0x93, 0x57, 0x7f, 0x00, 0xb6,
  0x01, 0x00, 0x00, 0x96, 0x3c, 0x7e, 0x00, 0x99, 0x2a, 0x21, 0x00, 0x99,
  0x3d, 0x53, 0x0a, 0x83, 0x55, 0x7f, 0x02, 0x82, 0x3a, 0x7f, 0x0c, 0x89,
  0x2a, 0x21, 0x00, 0x89, 0x3d, 0x53, 0x0a, 0x81, 0x22, 0x7f, 0x02, 0x82,
  0x42, 0x7f, 0x0c, 0x95, 0x35, 0x7f, 0x00, 0x99, 0x2a, 0x53, 0x10, 0x85,
  0x35, 0x7f, 0x08, 0x89, 0x2a, 0x53, 0x18, 0x91, 0x20, 0x7f, 0x00, 0x95,
  0x38, 0x7f, 0x00, 0x99, 0x24, 0x7f, 0x00, 0x99, 0x2a, 0x74, 0x00, 0x99,
  0x3c, 0x53, 0x10, 0x85, 0x38, 0x7f, 0x08, 0x89, 0x24, 0x7f, 0x00, 0x89,
  0x2a, 0x74, 0x00, 0x89, 0x3c, 0x53, 0x02, 0x86, 0x3c, 0x7e, 0x08, 0x81,
  0x20, 0x7f, 0x0e, 0x96, 0x3a, 0x66, 0x16, 0x86, 0x3a, 0x66, 0x1a, 0x91,
  0x20, 0x7f, 0x00, 0x95, 0x38, 0x7f, 0x00, 0x96, 0x38, 0x7f, 0x00, 0x99,
  0x2a, 0x47, 0x10, 0x85, 0x38, 0x7f, 0x08, 0x89, 0x2a, 0x47, 0x0a, 0x81,
  0x20, 0x7f, 0x0e, 0x99, 0x2a, 0x53, 0x00, 0x99, 0x3e, 0x53, 0x18, 0x89,
  0x2a, 0x53, 0x00, 0x89, 0x3e, 0x53, 0x10, 0x83, 0x57, 0x7f, 0x08, 0x93,
  0x50, 0x7f, 0x00, 0x99, 0x24, 0x7f, 0x00, 0x99, 0x26, 0x70, 0x00, 0x99,
  0x2a, 0x7f, 0x00, 0x99, 0x3c, 0x53, 0x00, 0x99, 0x27, 0x74, 0x18, 0x89,
  0x24, 0x7f, 0x00, 0x89, 0x26, 0x70, 0x00, 0x89, 0x2a, 0x7f, 0x00, 0x89,
  0x3c, 0x53, 0x00, 0x89, 0x27, 0x74, 0x20, 0x86, 0x38, 0x7f, 0x12, 0xe6,
  0x3c, 0x3f, 0x04, 0xe6, 0x04, 0x3c, 0x08, 0xe6, 0x4f, 0x3a, 0x0a, 0x91,
  0x1b, 0x7f, 0x00, 0x95, 0x33, 0x7f, 0x00, 0xb6, 0x01, 0x3d, 0x00, 0x96,
  0x38, 0x7f, 0x00, 0x99, 0x2a, 0x30, 0x00, 0x99, 0x3d, 0x53, 0x0c, 0xe6,
  0x46, 0x3c, 0x04, 0x85, 0x33, 0x7f, 0x02, 0xe6, 0x1e, 0x3f, 0x06, 0x89,
  0x2a, 0x30, 0x00, 0x89, 0x3d, 0x53, 0x00, 0xe6, 0x5f, 0x3f, 0x02, 0xe6,
  0x00, 0x40, 0x08, 0x81, 0x1b, 0x7f, 0x0a, 0x86, 0x38, 0x7f, 0x04, 0x91,
  0x1b, 0x7f, 0x00, 0x95, 0x35, 0x7f, 0x00, 0x99, 0x2a, 0x3d, 0x10, 0x85,
  0x35, 0x7f, 0x08, 0x89, 0x2a, 0x3d, 0x0a, 0x81, 0x1b, 0x7f, 0x0e, 0x80,
  0x3f, 0x7f, 0x00, 0x80, 0x3c, 0x7f, 0x00, 0x80, 0x38, 0x7f, 0x00, 0x90,
  0x3f, 0x7f, 0x00, 0x90, 0x3c, 0x7f, 0x00, 0x90, 0x38, 0x7f, 0x00, 0x91,
  0x1d, 0x7f, 0x00, 0x92, 0x38, 0x7f, 0x00, 0xb6, 0x01, 0x00, 0x00, 0x96,
  0x3f, 0x7f, 0x00, 0x99, 0x24, 0x7f, 0x00, 0x99, 0x2a, 0x74, 0x00, 0x99,
  0x3c, 0x53, 0x18, 0x89, 0x24, 0x7f, 0x00, 0x89, 0x2a, 0x74, 0x00, 0x89,
  0x3c, 0x53, 0x0a, 0x81, 0x1d, 0x7f, 0x0e, 0x95, 0x38, 0x7f, 0x10, 0x85,
  0x38, 0x7f, 0x16, 0x86, 0x3f, 0x7f, 0x0a, 0x91, 0x1d, 0x7f, 0x00, 0x96,
  0x3d, 0x70, 0x00, 0x99, 0x2a, 0x47, 0x18, 0x89, 0x2a, 0x47, 0x0a, 0x81,
  0x1d, 0x7f, 0x0e, 0x91, 0x1d, 0x7f, 0x00, 0x99, 0x2a, 0x47, 0x00, 0x99,
  0x3e, 0x53, 0x16, 0x86, 0x3d, 0x70, 0x02, 0x89, 0x2a, 0x47, 0x00, 0x89,
  0x3e, 0x53, 0x0a, 0x81, 0x1d, 0x7f, 0x04, 0x82, 0x3f, 0x7f, 0x00, 0x82,
  0x3c, 0x7f, 0x02, 0x82, 0x38, 0x7f, 0x08, 0x92, 0x41, 0x7f, 0x00, 0x92,
  0x3d, 0x7f, 0x00, 0x95, 0x38, 0x7f, 0x00, 0x96, 0x3d, 0x7f, 0x00, 0x99,
  0x24, 0x7f, 0x00, 0x99, 0x26, 0x7c, 0x00, 0x99, 0x2a, 0x74, 0x00, 0x99,
  0x3c, 0x53, 0x00, 0x99, 0x27, 0x64, 0x10, 0x85, 0x38, 0x7f, 0x08, 0x89,
  0x24, 0x7f, 0x00, 0x89, 0x26, 0x7c, 0x00, 0x89, 0x2a, 0x74, 0x00, 0x89,
  0x3c, 0x53, 0x00, 0x89, 0x27, 0x64, 0x18, 0x91, 0x24, 0x7f, 0x22, 0x81,
  0x24, 0x7f, 0x0e, 0x80, 0x3f, 0x7f, 0x00, 0x80, 0x3c, 0x7f, 0x00, 0x80,
  0x38, 0x7f, 0x00, 0x90, 0x41, 0x7f, 0x00, 0x90, 0x3d, 0x7f, 0x00, 0x90,
  0x3a, 0x7f, 0x00, 0x91, 0x22, 0x7f, 0x00, 0x99, 0x2e, 0x44, 0x00, 0x99,
  0x3d, 0x53, 0x18, 0x89, 0x2e, 0x44, 0x00, 0x89, 0x3d, 0x53, 0x0a, 0x81,
  0x22, 0x7f, 0x0e, 0x95, 0x35, 0x7f, 0x10, 0x85, 0x35, 0x7f, 0x10, 0x86,
  0x3d, 0x7f, 0x10, 0x94, 0x50, 0x7f, 0x00, 0x94, 0x44, 0x7f, 0x00, 0x95,
  0x38, 0x7f, 0x00, 0x99, 0x24, 0x7f, 0x00, 0x99, 0x2a, 0x74, 0x00, 0x99,
  0x3c, 0x53, 0x10, 0x85, 0x38, 0x7f, 0x04, 0x84, 0x44, 0x7f, 0x04, 0x89,
  0x24, 0x7f, 0x00, 0x89, 0x2a, 0x74, 0x00, 0x89, 0x3c, 0x53, 0x08, 0x84,
  0x50, 0x7f, 0x10, 0x94, 0x50, 0x7f, 0x00, 0x94, 0x44, 0x7f, 0x1a, 0x84,
  0x50, 0x7f, 0x04, 0x84, 0x44, 0x7f, 0x12, 0x91, 0x20, 0x7f, 0x00, 0x95,
  0x38, 0x7f, 0x00, 0x99, 0x2a, 0x3d, 0x10, 0x85, 0x38, 0x7f, 0x08, 0x89,
  0x2a, 0x3d, 0x0a, 0x81, 0x20, 0x7f, 0x0e, 0x94, 0x50, 0x7f, 0x00, 0x94,
  0x44, 0x7f, 0x00, 0x99, 0x2a, 0x64, 0x00, 0x99, 0x3e, 0x53, 0x0e, 0x84,
  0x50, 0x7f, 0x08, 0x84, 0x44, 0x7f, 0x02, 0x89, 0x2a, 0x64, 0x00, 0x89,
  0x3e, 0x53, 0x18, 0x91, 0x25, 0x7f, 0x00, 0x94, 0x50, 0x7f, 0x00, 0x94,
  0x44, 0x7f, 0x00, 0x96, 0x38, 0x7f, 0x00, 0x99, 0x24, 0x7f, 0x00, 0x99,
  0x26, 0x7d, 0x00, 0x99, 0x2a, 0x74, 0x00, 0x99, 0x3c, 0x53, 0x00, 0x99,
  0x27, 0x7d, 0x16, 0x84, 0x50, 0x7f, 0x02, 0x84, 0x44, 0x7f, 0x00, 0x86,
  0x38, 0x7f, 0x00, 0x89, 0x24, 0x7f, 0x00, 0x89, 0x26, 0x7d, 0x00, 0x89,
  0x2a, 0x74, 0x00, 0x89, 0x3c, 0x53, 0x00, 0x89, 0x27, 0x7d, 0x0a, 0x81,
  0x25, 0x7f, 0x0e, 0x91, 0x22, 0x7f, 0x00, 0x94, 0x52, 0x7f, 0x00, 0x94,
  0x46, 0x7f, 0x00, 0x95, 0x38, 0x7f, 0x00, 0x96, 0x3a, 0x7f, 0x00, 0x99,
  0x27, 0x69, 0x10, 0x85, 0x38, 0x7f, 0x04, 0x86, 0x3a, 0x7f, 0x02, 0x84,
  0x52, 0x7f, 0x02, 0x89, 0x27, 0x69, 0x02, 0x84, 0x46, 0x7f, 0x08, 0x81,
  0x22, 0x7f, 0x04, 0xe6, 0x4e, 0x3f, 0x02, 0xe6, 0x67, 0x3c, 0x06, 0xe6,
  0x4f, 0x3a, 0x02, 0x94, 0x55, 0x7f, 0x00, 0x94, 0x49, 0x7f, 0x00, 0x96,
  0x3d, 0x7f, 0x00, 0x99, 0x2e, 0x5f, 0x00, 0x99, 0x3d, 0x53, 0x00, 0x99,
  0x27, 0x55, 0x14, 0xe6, 0x76, 0x3c, 0x02, 0x84, 0x55, 0x7f, 0x02, 0x84,
  0x49, 0x7f, 0x00, 0x89, 0x2e, 0x5f, 0x00, 0x89, 0x3d, 0x53, 0x00, 0x89,
  0x27, 0x55, 0x02, 0x82, 0x41, 0x7f, 0x02, 0xe6, 0x2f, 0x3f, 0x02, 0x86,
  0x3d, 0x7f, 0x04, 0x82, 0x44, 0x7f, 0x00, 0xe6, 0x5f, 0x3f, 0x02, 0xe6,
  0x00, 0x40, 0x02, 0x82, 0x3d, 0x7f, 0x0a, 0x91, 0x25, 0x7f, 0x00, 0x94,
  0x55, 0x7f, 0x00, 0x94, 0x49, 0x7f, 0x00, 0x95, 0x38, 0x7f, 0x00, 0x96,
  0x3a, 0x7f, 0x00, 0x99, 0x27, 0x41, 0x0a, 0x83, 0x50, 0x7f, 0x06, 0x85,
  0x38, 0x7f, 0x04, 0x86, 0x3a, 0x7f, 0x04, 0x89, 0x27, 0x41, 0x02, 0x84,
  0x55, 0x7f, 0x00, 0x84, 0x49, 0x7f, 0x08, 0x81, 0x25, 0x7f, 0x0e, 0x80,
  0x41, 0x7f, 0x00, 0x80, 0x3d, 0x7f, 0x00, 0x80, 0x3a, 0x7f, 0x00, 0x90,
  0x41, 0x7f, 0x00, 0x90, 0x3d, 0x7f, 0x00, 0x90, 0x3a, 0x7f, 0x00, 0x90,
  0x36, 0x7f, 0x00, 0x91, 0x1b, 0x7f, 0x00, 0x92, 0x42, 0x7f, 0x00, 0x92,
  0x3d, 0x7f, 0x00, 0x92, 0x3a, 0x7f, 0x00, 0x93, 0x55, 0x7f, 0x00, 0x96,
  0x41, 0x7f, 0x00, 0x99, 0x24, 0x7f, 0x00, 0x99, 0x2a, 0x70, 0x00, 0x99,
  0x3c, 0x53, 0x18, 0x89, 0x24, 0x7f, 0x00, 0x89, 0x2a, 0x70, 0x00, 0x89,
  0x3c, 0x53, 0x0a, 0x81, 0x1b, 0x7f, 0x0e, 0x95, 0x38, 0x7f, 0x10, 0x85,
  0x38, 0x7f, 0x20, 0x91, 0x1b, 0x7f, 0x00, 0x99, 0x2a, 0x36, 0x18, 0x89,
  0x2a, 0x36, 0x0a, 0x81, 0x1b, 0x7f, 0x0e, 0x91, 0x1b, 0x7f, 0x00, 0x99,
  0x2a, 0x64, 0x00, 0x99, 0x3e, 0x53, 0x10, 0x86, 0x41, 0x7f, 0x08, 0x89,
  0x2a, 0x64, 0x00, 0x89, 0x3e, 0x53, 0x0a, 0x81, 0x1b, 0x7f, 0x0e, 0x95,
  0x38, 0x7f, 0x00, 0x96, 0x41, 0x7f, 0x00, 0x99, 0x24, 0x7f, 0x00, 0x99,
  0x26, 0x70, 0x00, 0x99, 0x2a, 0x74, 0x00, 0x99, 0x3c, 0x53, 0x00, 0x99,
  0x27, 0x64, 0x10, 0x85, 0x38, 0x7f, 0x08, 0x89, 0x24, 0x7f, 0x00, 0x89,
  0x26, 0x70, 0x00, 0x89, 0x2a, 0x74, 0x00, 0x89, 0x3c, 0x53, 0x00, 0x89,
  0x27, 0x64, 0x18, 0x91, 0x24, 0x7f, 0x12, 0x86, 0x41, 0x7f, 0x0e, 0x82,
  0x3d, 0x7f, 0x02, 0x81, 0x24, 0x7f, 0x00, 0x83, 0x55, 0x7f, 0x08, 0x82,
  0x3a, 0x7f, 0x06, 0x80, 0x41, 0x7f, 0x00, 0x80, 0x3d, 0x7f, 0x00, 0x80,
  0x3a, 0x7f, 0x00, 0x80, 0x36, 0x7f, 0x00, 0x90, 0x3f, 0x7f, 0x00, 0x90,
  0x3c, 0x7f, 0x00, 0x90, 0x38, 0x7f, 0x00, 0x91, 0x22, 0x7f, 0x00, 0x92,
  0x44, 0x7f, 0x00, 0x92, 0x3f, 0x7f, 0x00, 0x92, 0x3c, 0x7f, 0x00, 0x93,
  0x57, 0x7f, 0x00, 0x96, 0x3f, 0x7f, 0x00, 0x99, 0x2a, 0x28, 0x00, 0x99,
  0x3d, 0x53, 0x14, 0x82, 0x42, 0x7f, 0x04, 0x89, 0x2a, 0x28, 0x00, 0x89,
  0x3d, 0x53, 0x0a, 0x81, 0x22, 0x7f, 0x0e, 0x95, 0x35, 0x7f, 0x00, 0x99,
  0x2a, 0x53, 0x10, 0x85, 0x35, 0x7f, 0x08, 0x89, 0x2a, 0x53, 0x18, 0x91,
  0x20, 0x7f, 0x00, 0x95, 0x38, 0x7f, 0x00, 0x99, 0x24, 0x7f, 0x00, 0x99,
  0x2a, 0x74, 0x00, 0x99, 0x3c, 0x53, 0x10, 0x85, 0x38, 0x7f, 0x08, 0x89,
  0x24, 0x7f, 0x00, 0x89, 0x2a, 0x74, 0x00, 0x89, 0x3c, 0x53, 0x0a, 0x81,
  0x20, 0x7f, 0x30, 0x86, 0x3f, 0x7f, 0x0e, 0x91, 0x20, 0x7f, 0x00, 0x99,
  0x2a, 0x30, 0x18, 0x89, 0x2a, 0x30, 0x0a, 0x81, 0x20, 0x7f, 0x0e, 0x95,
  0x38, 0x7f, 0x00, 0x99, 0x2a, 0x47, 0x00, 0x99, 0x3e, 0x53, 0x10, 0x85,
  0x38, 0x7f, 0x08, 0x89, 0x2a, 0x47, 0x00, 0x89, 0x3e, 0x53, 0x18, 0x96,
  0x38, 0x7f, 0x00, 0x99, 0x24, 0x7f, 0x00, 0x99, 0x26, 0x7c, 0x00, 0x99,
  0x2a, 0x74, 0x00, 0x99, 0x3c, 0x53, 0x00, 0x99, 0x27, 0x74, 0x18, 0x86,
  0x38, 0x7f, 0x00, 0x89, 0x24, 0x7f, 0x00, 0x89, 0x26, 0x7c, 0x00, 0x89,
  0x2a, 0x74, 0x00, 0x89, 0x3c, 0x53, 0x00, 0x89, 0x27, 0x74, 0x18, 0x96,
  0x3a, 0x78, 0x12, 0x86, 0x3a, 0x78, 0x14, 0xe6, 0x3c, 0x3f, 0x04, 0xe6,
  0x23, 0x3c, 0x06, 0x91, 0x1b, 0x7f, 0x00, 0x93, 0x50, 0x7f, 0x00, 0x95,
  0x35, 0x7f, 0x00, 0xb6, 0x01, 0x2b, 0x00, 0x96, 0x3d, 0x76, 0x00, 0x99,
  0x2a, 0x0d, 0x00, 0x99, 0x3d, 0x53, 0x02, 0xe6, 0x60, 0x3a, 0x02, 0x83,
  0x57, 0x7f, 0x04, 0xe6, 0x4f, 0x3a, 0x08, 0x85, 0x35, 0x7f, 0x00, 0xe6,
  0x10, 0x3b, 0x06, 0xe6, 0x46, 0x3c, 0x02, 0x89, 0x2a, 0x0d, 0x00, 0x89,
  0x3d, 0x53, 0x06, 0xe6, 0x3b, 0x3e, 0x02, 0x86, 0x3d, 0x76, 0x02, 0x81,
  0x1b, 0x7f, 0x02, 0xe6, 0x70, 0x3f, 0x06, 0xe6, 0x00, 0x40, 0x06, 0x91,
  0x20, 0x7f, 0x00, 0x95, 0x38, 0x7f, 0x00, 0xb6, 0x01, 0x00, 0x00, 0x96,
  0x3a, 0x63, 0x00, 0x99, 0x2a, 0x47, 0x08, 0x86, 0x3a, 0x63, 0x08, 0x85,
  0x38, 0x7f, 0x08, 0x89, 0x2a, 0x47, 0x0a, 0x81, 0x20, 0x7f, 0x0e, 0x80,
  0x3f, 0x7f, 0x00, 0x80, 0x3c, 0x7f, 0x00, 0x80, 0x38, 0x7f, 0x00, 0x90,
  0x3f, 0x7f, 0x00, 0x90, 0x3c, 0x7f, 0x00, 0x90, 0x38, 0x7f, 0x00, 0x91,
  0x1d, 0x7f, 0x00, 0x93, 0x57, 0x7f, 0x00, 0x96, 0x44, 0x7f, 0x00, 0x99,
  0x24, 0x7f, 0x00, 0x99, 0x2a, 0x64, 0x00, 0x99, 0x3c, 0x53, 0x02, 0x83,
  0x50, 0x7f, 0x16, 0x89, 0x24, 0x7f, 0x00, 0x89, 0x2a, 0x64, 0x00, 0x89,
  0x3c, 0x53, 0x0a, 0x81, 0x1d, 0x7f, 0x0e, 0x95, 0x38, 0x7f, 0x10, 0x85,
  0x38, 0x7f, 0x20, 0x91, 0x1d, 0x7f, 0x00, 0x99, 0x2a, 0x36, 0x18, 0x89,
  0x2a, 0x36, 0x0a, 0x81, 0x1d, 0x7f, 0x0e, 0x91, 0x24, 0x7f, 0x00, 0x99,
  0x2a, 0x53, 0x00, 0x99, 0x3e, 0x53, 0x14, 0x86, 0x44, 0x7f, 0x04, 0x89,
  0x2a, 0x53, 0x00, 0x89, 0x3e, 0x53, 0x0a, 0x81, 0x24, 0x7f, 0x0e, 0x95,
  0x38, 0x7f, 0x00, 0x96, 0x3d, 0x7f, 0x00, 0x99, 0x24, 0x7f, 0x00, 0x99,
  0x26, 0x70, 0x00, 0x99, 0x2a, 0x74, 0x00, 0x99, 0x3c, 0x53, 0x00, 0x99,
  0x27, 0x74, 0x10, 0x85, 0x38, 0x7f, 0x08, 0x89, 0x24, 0x7f, 0x00, 0x89,
  0x26, 0x70, 0x00, 0x89, 0x2a, 0x74, 0x00, 0x89, 0x3c, 0x53, 0x00, 0x89,
  0x27, 0x74, 0x08, 0x86, 0x3d, 0x7f, 0x10, 0x91, 0x24, 0x7f, 0x20, 0x82,
  0x3f, 0x7f, 0x02, 0x81, 0x24, 0x7f, 0x06, 0x82, 0x3c, 0x7f, 0x08, 0x80,
  0x3f, 0x7f, 0x00, 0x80, 0x3c, 0x7f, 0x00, 0x80, 0x38, 0x7f, 0x00, 0x90,
  0x41, 0x7f, 0x00, 0x90, 0x3d, 0x7f, 0x00, 0x90, 0x3a, 0x7f, 0x00, 0x91,
  0x22, 0x7f, 0x00, 0x92, 0x41, 0x7f, 0x00, 0x92, 0x3d, 0x7f, 0x00, 0x93,
  0x59, 0x7f, 0x00, 0x96, 0x3d, 0x7f, 0x00, 0x99, 0x2a, 0x36, 0x00, 0x99,
  0x3d, 0x53, 0x02, 0x83, 0x57, 0x7f, 0x16, 0x89, 0x2a, 0x36, 0x00, 0x89,
  0x3d, 0x53, 0x0a, 0x81, 0x22, 0x7f, 0x0e, 0x95, 0x35, 0x7f, 0x00, 0x99,
  0x2a, 0x47, 0x10, 0x85, 0x35, 0x7f, 0x08, 0x89, 0x2a, 0x47, 0x18, 0x95,
  0x38, 0x7f, 0x00, 0x99, 0x24, 0x7f, 0x00, 0x99, 0x2a, 0x64, 0x00, 0x99,
  0x3c, 0x53, 0x10, 0x85, 0x38, 0x7f, 0x08, 0x89, 0x24, 0x7f, 0x00, 0x89,
  0x2a, 0x64, 0x00, 0x89, 0x3c, 0x53, 0x10, 0x86, 0x3d, 0x7f, 0x08, 0x96,
  0x3c, 0x68, 0x18, 0x86, 0x3c, 0x68, 0x18, 0x91, 0x22, 0x7f, 0x00, 0x95,
  0x38, 0x7f, 0x00, 0x96, 0x3a, 0x7c, 0x00, 0x99, 0x2a, 0x47, 0x10, 0x85,
  0x38, 0x7f, 0x08, 0x89, 0x2a, 0x47, 0x0a, 0x81, 0x22, 0x7f, 0x0e, 0x91,
  0x22, 0x7f, 0x00, 0x99, 0x2a, 0x47, 0x00, 0x99, 0x3e, 0x53, 0x18, 0x89,
  0x2a, 0x47, 0x00, 0x89, 0x3e, 0x53, 0x06, 0x86, 0x3a, 0x7c, 0x04, 0x81,
  0x22, 0x7f, 0x0a, 0x83, 0x59, 0x7f, 0x04, 0x92, 0x3f, 0x7f, 0x00, 0x92,
  0x3c, 0x7f, 0x00, 0x93, 0x5c, 0x7f, 0x00, 0x95, 0x38, 0x7f, 0x00, 0x96,
  0x38, 0x7f, 0x00, 0x99, 0x24, 0x7f, 0x00, 0x99, 0x26, 0x70, 0x00, 0x99,
  0x2a, 0x74, 0x00, 0x99, 0x3c, 0x53, 0x00, 0x99, 0x27, 0x64, 0x06, 0x82,
  0x3d, 0x7f, 0x0a, 0x85, 0x38, 0x7f, 0x08, 0x86, 0x38, 0x7f, 0x00, 0x89,
  0x24, 0x7f, 0x00, 0x89, 0x26, 0x70, 0x00, 0x89, 0x2a, 0x74, 0x00, 0x89,
  0x3c, 0x53, 0x00, 0x89, 0x27, 0x64, 0x0a, 0x82, 0x41, 0x7f, 0x0e, 0x91,
  0x24, 0x7f, 0x00, 0x93, 0x5a, 0x7f, 0x00, 0x95, 0x3a, 0x7f, 0x00, 0xb6,
  0x01, 0x05, 0x00, 0x96, 0x3a, 0x7f, 0x02, 0x83, 0x5c, 0x7f, 0x0c, 0x86,
  0x3a, 0x7f, 0x02, 0x85, 0x3a, 0x7f, 0x12, 0x81, 0x24, 0x7f, 0x0e, 0x91,
  0x22, 0x7f, 0x00, 0x93, 0x59, 0x7f, 0x00, 0xb6, 0x01, 0x00, 0x00, 0x96,
  0x3d, 0x7f, 0x00, 0x99, 0x2e, 0x44, 0x00, 0x99, 0x3d, 0x53, 0x02, 0x83,
  0x5a, 0x7f, 0x16, 0x89, 0x2e, 0x44, 0x00, 0x89, 0x3d, 0x53, 0x0a, 0x81,
  0x22, 0x7f, 0x00, 0x86, 0x3d, 0x7f, 0x0e, 0x93, 0x55, 0x7f, 0x00, 0x96,
  0x3a, 0x68, 0x08, 0x83, 0x59, 0x7f, 0x06, 0x86, 0x3a, 0x68, 0x10, 0x82,
  0x3c, 0x7f, 0x12, 0x80, 0x41, 0x7f, 0x00, 0x80, 0x3d, 0x7f, 0x00, 0x80,
  0x3a, 0x7f, 0x00, 0x82, 0x3f, 0x7f, 0x00, 0x90, 0x3d, 0x7f, 0x00, 0x90,
  0x3a, 0x7f, 0x00, 0x90, 0x36, 0x7f, 0x00, 0x91, 0x1b, 0x7f, 0x00, 0x92,
  0x42, 0x7f, 0x00, 0x92, 0x3d, 0x7f, 0x00, 0x92, 0x3a, 0x7f, 0x00, 0x96,
  0x3d, 0x7f, 0x00, 0x99, 0x24, 0x7f, 0x00, 0x99, 0x2a, 0x74, 0x00, 0x99,
  0x3c, 0x53, 0x04, 0x82, 0x44, 0x7f, 0x14, 0x89, 0x24, 0x7f, 0x00, 0x89,
  0x2a, 0x74, 0x00, 0x89, 0x3c, 0x53, 0x0a, 0x81, 0x1b, 0x7f, 0x0e, 0x95,
  0x38, 0x7f, 0x10, 0x85, 0x38, 0x7f, 0x20, 0x91, 0x1b, 0x7f, 0x00, 0x99,
  0x2a, 0x2c, 0x18, 0x89, 0x2a, 0x2c, 0x0a, 0x81, 0x1b, 0x7f, 0x0e, 0x91,
  0x24, 0x7f, 0x00, 0x99, 0x2a, 0x64, 0x00, 0x99, 0x3e, 0x53, 0x14, 0x86,
  0x3d, 0x7f, 0x04, 0x89, 0x2a, 0x64, 0x00, 0x89, 0x3e, 0x53, 0x00, 0xe6,
  0x1e, 0x3f, 0x06, 0xe6, 0x56, 0x3c, 0x04, 0x81, 0x24, 0x7f, 0x02, 0xe6,
  0x7f, 0x3a, 0x06, 0xe6, 0x4f, 0x3a, 0x06, 0x95, 0x38, 0x7f, 0x00, 0xb6,
  0x01, 0x30, 0x00, 0x96, 0x3f, 0x7f, 0x00, 0x99, 0x24, 0x7f, 0x00, 0x99,
  0x26, 0x7c, 0x00, 0x99, 0x2a, 0x74, 0x00, 0x99, 0x3c, 0x53, 0x00, 0x99,
  0x27, 0x64, 0x06, 0xe6, 0x10, 0x3b, 0x02, 0xe6, 0x67, 0x3c, 0x08, 0x85,
  0x38, 0x7f, 0x00, 0xe6, 0x3c, 0x3f, 0x08, 0x89, 0x24, 0x7f, 0x00, 0x89,
  0x26, 0x7c, 0x00, 0x89, 0x2a, 0x74, 0x00, 0x89, 0x3c, 0x53, 0x00, 0x89,
  0x27, 0x64, 0x00, 0xe6, 0x70, 0x3f, 0x02, 0xe6, 0x00, 0x40, 0x08, 0x86,
  0x3f, 0x7f, 0x0e, 0x91, 0x24, 0x7f, 0x0a, 0x80, 0x3a, 0x7f, 0x08, 0x80,
  0x36, 0x7f, 0x10, 0x81, 0x24, 0x7f, 0x08, 0x82, 0x3d, 0x7f, 0x06, 0x90,
  0x3f, 0x7f, 0x00, 0x90, 0x3c, 0x7f, 0x00, 0x90, 0x38, 0x7f, 0x00, 0x91,
  0x22, 0x7f, 0x00, 0x92, 0x44, 0x7f, 0x00, 0x92, 0x3f, 0x7f, 0x00, 0x92,
  0x3c, 0x7f, 0x00, 0x93, 0x57, 0x7f, 0x00, 0xb6, 0x01, 0x00, 0x00, 0x96,
  0x3c, 0x7f, 0x00, 0x96, 0x3a, 0x7f, 0x00, 0x99, 0x2a, 0x21, 0x00, 0x99,
  0x3d, 0x53, 0x0a, 0x83, 0x55, 0x7f, 0x02, 0x80, 0x3d, 0x7f, 0x00, 0x82,
  0x3a, 0x7f, 0x0c, 0x89, 0x2a, 0x21, 0x00, 0x89, 0x3d, 0x53, 0x0a, 0x81,
  0x22, 0x7f, 0x02, 0x82, 0x42, 0x7f, 0x04, 0x86, 0x3a, 0x7f, 0x08, 0x95,
  0x35, 0x7f, 0x00, 0x99, 0x2a, 0x53, 0x10, 0x85, 0x35, 0x7f, 0x08, 0x89,
  0x2a, 0x53, 0x18, 0x91, 0x20, 0x7f, 0x00, 0x95, 0x38, 0x7f, 0x00, 0x99,
  0x24, 0x7f, 0x00, 0x99, 0x2a, 0x74, 0x00, 0x99, 0x3c, 0x53, 0x10, 0x85,
  0x38, 0x7f, 0x08, 0x89, 0x24, 0x7f, 0x00, 0x89, 0x2a, 0x74, 0x00, 0x89,
  0x3c, 0x53, 0x0a, 0x81, 0x20, 0x7f, 0x00, 0x86, 0x3c, 0x7f, 0x0e, 0x96,
  0x3a, 0x6c, 0x14, 0x86, 0x3a, 0x6c, 0x1c, 0x91, 0x20, 0x7f, 0x00, 0x95,
  0x38, 0x7f, 0x00, 0x96, 0x38, 0x7f, 0x00, 0x99, 0x2a, 0x47, 0x10, 0x85,
  0x38, 0x7f, 0x08, 0x89, 0x2a, 0x47, 0x0a, 0x81, 0x20, 0x7f, 0x0e, 0x99,
  0x2a, 0x53, 0x00, 0x99, 0x3e, 0x53, 0x18, 0x89, 0x2a, 0x53, 0x00, 0x89,
  0x3e, 0x53, 0x10, 0x83, 0x57, 0x7f, 0x08, 0x93, 0x50, 0x7f, 0x00, 0x99,
  0x24, 0x7f, 0x00, 0x99, 0x26, 0x70, 0x00, 0x99, 0x2a, 0x7f, 0x00, 0x99,
  0x3c, 0x53, 0x00, 0x99, 0x27, 0x74, 0x18, 0x89, 0x24, 0x7f, 0x00, 0x89,
  0x26, 0x70, 0x00, 0x89, 0x2a, 0x7f, 0x00, 0x89, 0x3c, 0x53, 0x00, 0x89,
  0x27, 0x74, 0x24, 0x86, 0x38, 0x7f, 0x12, 0xe6, 0x70, 0x3f, 0x02, 0xe6,
  0x7a, 0x3d, 0x06, 0xe6, 0x62, 0x3b, 0x08, 0xe6, 0x22, 0x3b, 0x02, 0x91,
  0x1b, 0x7f, 0x00, 0x95, 0x33, 0x7f, 0x00, 0xb6, 0x01, 0x3f, 0x00, 0x96,
  0x38, 0x7f, 0x00, 0x99, 0x2a, 0x30, 0x00, 0x99, 0x3d, 0x53, 0x06, 0xe6,
  0x62, 0x3b, 0x06, 0xe6, 0x76, 0x3c, 0x04, 0x85, 0x33, 0x7f, 0x02, 0xe6,
  0x3b, 0x3e, 0x06, 0x89, 0x2a, 0x30, 0x00, 0x89, 0x3d, 0x53, 0x02, 0xe6,
  0x5f, 0x3f, 0x08, 0x81, 0x1b, 0x7f, 0x00, 0xe6, 0x70, 0x3f, 0x02, 0xe6,
  0x00, 0x40, 0x04, 0x86, 0x38, 0x7f, 0x08, 0x91, 0x1b, 0x7f, 0x00, 0x95,
  0x35, 0x7f, 0x00, 0x99, 0x2a, 0x3d, 0x10, 0x85, 0x35, 0x7f, 0x08, 0x89,
  0x2a, 0x3d, 0x0a, 0x81, 0x1b, 0x7f, 0x0e, 0x80, 0x3f, 0x7f, 0x00, 0x80,
  0x3c, 0x7f, 0x00, 0x80, 0x38, 0x7f, 0x00, 0x90, 0x3f, 0x7f, 0x00, 0x90,
  0x3c, 0x7f, 0x00, 0x90, 0x38, 0x7f, 0x00, 0x91, 0x1d, 0x7f, 0x00, 0x92,
  0x38, 0x7f, 0x00, 0xb6, 0x01, 0x00, 0x00, 0x96, 0x3f, 0x7f, 0x00, 0x99,
  0x24, 0x7f, 0x00, 0x99, 0x2a, 0x74, 0x00, 0x99, 0x3c, 0x53, 0x18, 0x89,
  0x24, 0x7f, 0x00, 0x89, 0x2a, 0x74, 0x00, 0x89, 0x3c, 0x53, 0x0a, 0x81,
  0x1d, 0x7f, 0x0e, 0x95, 0x38, 0x7f, 0x10, 0x85, 0x38, 0x7f, 0x20, 0x91,
  0x1d, 0x7f, 0x00, 0x99, 0x2a, 0x47, 0x18, 0x89, 0x2a, 0x47, 0x0a, 0x81,
  0x1d, 0x7f, 0x0e, 0x91, 0x1d, 0x7f, 0x00, 0x99, 0x2a, 0x47, 0x00, 0x99,
  0x3e, 0x53, 0x14, 0x86, 0x3f, 0x7f, 0x04, 0x89, 0x2a, 0x47, 0x00, 0x89,
  0x3e, 0x53, 0x0a, 0x81, 0x1d, 0x7f, 0x04, 0x82, 0x3f, 0x7f, 0x00, 0x82,
  0x3c, 0x7f, 0x02, 0x82, 0x38, 0x7f, 0x08, 0x80, 0x3f, 0x7f, 0x00, 0x80,
  0x3c, 0x7f, 0x00, 0x80, 0x38, 0x7f, 0x00, 0x90, 0x41, 0x7f, 0x00, 0x90,
  0x3d, 0x7f, 0x00, 0x90, 0x38, 0x7f, 0x00, 0x92, 0x41, 0x7f, 0x00, 0x92,
  0x3d, 0x7f, 0x00, 0x95, 0x38, 0x7f, 0x00, 0x96, 0x3d, 0x7f, 0x00, 0x99,
  0x24, 0x7f, 0x00, 0x99, 0x26, 0x7c, 0x00, 0x99, 0x2a, 0x74, 0x00, 0x99,
  0x3c, 0x53, 0x00, 0x99, 0x27, 0x64, 0x10, 0x85, 0x38, 0x7f, 0x08, 0x89,
  0x24, 0x7f, 0x00, 0x89, 0x26, 0x7c, 0x00, 0x89, 0x2a, 0x74, 0x00, 0x89,
  0x3c, 0x53, 0x00, 0x89, 0x27, 0x64, 0x18, 0x91, 0x24, 0x7f, 0x22, 0x81,
  0x24, 0x7f, 0x0e, 0x91, 0x22, 0x7f, 0x00, 0x99, 0x2e, 0x44, 0x00, 0x99,
  0x3d, 0x53, 0x18, 0x89, 0x2e, 0x44, 0x00, 0x89, 0x3d, 0x53, 0x0a, 0x81,
  0x22, 0x7f, 0x0e, 0x95, 0x35, 0x7f, 0x10, 0x85, 0x35, 0x7f, 0x20, 0x94,
  0x55, 0x7f, 0x00, 0x94, 0x50, 0x7f, 0x00, 0x94, 0x44, 0x7f, 0x00, 0x95,
  0x38, 0x7f, 0x00, 0x99, 0x24, 0x7f, 0x00, 0x99, 0x2a, 0x74, 0x00, 0x99,
  0x3c, 0x53, 0x10, 0x85, 0x38, 0x7f, 0x02, 0x84, 0x55, 0x7f, 0x00, 0x86,
  0x3d, 0x7f, 0x02, 0x84, 0x44, 0x7f, 0x04, 0x89, 0x24, 0x7f, 0x00, 0x89,
  0x2a, 0x74, 0x00, 0x89, 0x3c, 0x53, 0x08, 0x84, 0x50, 0x7f, 0x10, 0x94,
  0x55, 0x7f, 0x00, 0x94, 0x50, 0x7f, 0x00, 0x94, 0x44, 0x7f, 0x16, 0x84,
  0x55, 0x7f, 0x04, 0x84, 0x50, 0x7f, 0x04, 0x84, 0x44, 0x7f, 0x12, 0x91,
  0x20, 0x7f, 0x00, 0x95, 0x38, 0x7f, 0x00, 0x99, 0x2a, 0x3d, 0x10, 0x85,
  0x38, 0x7f, 0x08, 0x89, 0x2a, 0x3d, 0x0a, 0x81, 0x20, 0x7f, 0x0e, 0x94,
  0x55, 0x7f, 0x00, 0x94, 0x50, 0x7f, 0x00, 0x94, 0x44, 0x7f, 0x00, 0x99,
  0x2a, 0x64, 0x00, 0x99, 0x3e, 0x53, 0x0e, 0x84, 0x50, 0x7f, 0x06, 0x84,
  0x55, 0x7f, 0x02, 0x84, 0x44, 0x7f, 0x02, 0x89, 0x2a, 0x64, 0x00, 0x89,
  0x3e, 0x53, 0x18, 0x91, 0x25, 0x63, 0x00, 0x94, 0x55, 0x7f, 0x00, 0x94,
  0x50, 0x7f, 0x00, 0x94, 0x44, 0x7f, 0x00, 0x99, 0x24, 0x7f, 0x00, 0x99,
  0x26, 0x7d, 0x00, 0x99, 0x2a, 0x74, 0x00, 0x99, 0x3c, 0x53, 0x00, 0x99,
  0x27, 0x7d, 0x16, 0x84, 0x55, 0x7f, 0x00, 0x84, 0x50, 0x7f, 0x02, 0x84,
  0x44, 0x7f, 0x00, 0x89, 0x24, 0x7f, 0x00, 0x89, 0x26, 0x7d, 0x00, 0x89,
  0x2a, 0x74, 0x00, 0x89, 0x3c, 0x53, 0x00, 0x89, 0x27, 0x7d, 0x0a, 0x81,
  0x25, 0x63, 0x0e, 0x91, 0x22, 0x75, 0x00, 0x94, 0x55, 0x7f, 0x00, 0x94,
  0x50, 0x7f, 0x00, 0x94, 0x44, 0x7f, 0x00, 0x95, 0x38, 0x7f, 0x00, 0x99,
  0x27, 0x69, 0x10, 0x85, 0x38, 0x7f, 0x06, 0x84, 0x55, 0x7f, 0x00, 0x84,
  0x50, 0x7f, 0x02, 0x89, 0x27, 0x69, 0x02, 0x84, 0x44, 0x7f, 0x08, 0x81,
  0x22, 0x75, 0x0e, 0x94, 0x55, 0x7f, 0x00, 0x94, 0x50, 0x7f, 0x00, 0x94,
  0x44, 0x7f, 0x00, 0x99, 0x2e, 0x5f, 0x00, 0x99, 0x3d, 0x53, 0x00, 0x99,
  0x27, 0x55, 0x16, 0x84, 0x55, 0x7f, 0x02, 0x84, 0x50, 0x7f, 0x00, 0x84,
  0x44, 0x7f, 0x00, 0x89, 0x2e, 0x5f, 0x00, 0x89, 0x3d, 0x53, 0x00, 0x89,
  0x27, 0x55, 0x02, 0x82, 0x41, 0x7f, 0x08, 0x82, 0x44, 0x7f, 0x04, 0x82,
  0x3d, 0x7f, 0x0a, 0x91, 0x25, 0x63, 0x00, 0x94, 0x55, 0x7f, 0x00, 0x94,
  0x50, 0x7f, 0x00, 0x94, 0x44, 0x7f, 0x00, 0x95, 0x38, 0x7f, 0x00, 0x99,
  0x27, 0x41, 0x10, 0x85, 0x38, 0x7f, 0x02, 0x83, 0x50, 0x7f, 0x06, 0x89,
  0x27, 0x41, 0x02, 0x84, 0x55, 0x7f, 0x00, 0x84, 0x44, 0x7f, 0x02, 0x84,
  0x50, 0x7f, 0x06, 0x81, 0x25, 0x63, 0x0e, 0x80, 0x41, 0x7f, 0x00, 0x80,
  0x3d, 0x7f, 0x00, 0x80, 0x38, 0x7f, 0x00, 0x90, 0x41, 0x7f, 0x00, 0x90,
  0x3d, 0x7f, 0x00, 0x90, 0x3a, 0x7f, 0x00, 0x90, 0x36, 0x7f, 0x00, 0x91,
  0x22, 0x7f, 0x00, 0x99, 0x24, 0x7f, 0x00, 0x99, 0x2a, 0x70, 0x00, 0x99,
  0x3c, 0x53, 0x18, 0x89, 0x24, 0x7f, 0x00, 0x89, 0x2a, 0x70, 0x00, 0x89,
  0x3c, 0x53, 0x02, 0x81, 0x22, 0x7f, 0x16, 0x95, 0x38, 0x7f, 0x10, 0x85,
  0x38, 0x7f, 0x20, 0x91, 0x22, 0x7f, 0x00, 0x96, 0x3d, 0x7f, 0x00, 0x99,
  0x2a, 0x36, 0x18, 0x81, 0x22, 0x7f, 0x00, 0x89, 0x2a, 0x36, 0x04, 0x86,
  0x3d, 0x7f, 0x14, 0x91, 0x22, 0x7f, 0x00, 0x99, 0x2a, 0x64, 0x00, 0x99,
  0x3e, 0x53, 0x18, 0x89, 0x2a, 0x64, 0x00, 0x89, 0x3e, 0x53, 0x0a, 0x81,
  0x22, 0x7f, 0x0e, 0x95, 0x38, 0x7f, 0x00, 0x96, 0x3d, 0x7f, 0x00, 0x99,
  0x24, 0x7f, 0x00, 0x99, 0x26, 0x70, 0x00, 0x99, 0x2a, 0x74, 0x00, 0x99,
  0x3c, 0x53, 0x00, 0x99, 0x27, 0x64, 0x10, 0x85, 0x38, 0x7f, 0x08, 0x89,
  0x24, 0x7f, 0x00, 0x89, 0x26, 0x70, 0x00, 0x89, 0x2a, 0x74, 0x00, 0x89,
  0x3c, 0x53, 0x00, 0x89, 0x27, 0x64, 0x18, 0x91, 0x25, 0x7f, 0x2a, 0x81,
  0x25, 0x7f, 0x04, 0x86, 0x3d, 0x7f, 0x02, 0x91, 0x24, 0x7f, 0x00, 0x96,
  0x3a, 0x6c, 0x00, 0x99, 0x2a, 0x28, 0x00, 0x99, 0x3d, 0x53, 0x18, 0x89,
  0x2a, 0x28, 0x00, 0x89, 0x3d, 0x53, 0x0a, 0x81, 0x24, 0x7f, 0x0e, 0x95,
  0x35, 0x7f, 0x00, 0x99, 0x2a, 0x53, 0x10, 0x85, 0x35, 0x7f, 0x08, 0x89,
  0x2a, 0x53, 0x14, 0x86, 0x3a, 0x6c, 0x04, 0x91, 0x20, 0x7f, 0x00, 0x95,
  0x38, 0x7f, 0x00, 0x96, 0x3d, 0x78, 0x00, 0x99, 0x24, 0x7f, 0x00, 0x99,
  0x2a, 0x74, 0x00, 0x99, 0x3c, 0x53, 0x10, 0x85, 0x38, 0x7f, 0x08, 0x89,
  0x24, 0x7f, 0x00, 0x89, 0x2a, 0x74, 0x00, 0x89, 0x3c, 0x53, 0x1a, 0x81,
  0x20, 0x7f, 0x2c, 0x86, 0x3d, 0x78, 0x02, 0x91, 0x22, 0x7f, 0x00, 0x96,
  0x3f, 0x7a, 0x00, 0x99, 0x2a, 0x30, 0x18, 0x89, 0x2a, 0x30, 0x0a, 0x81,
  0x22, 0x7f, 0x0e, 0x95, 0x38, 0x7f, 0x00, 0x99, 0x2a, 0x47, 0x00, 0x99,
  0x3e, 0x53, 0x10, 0x85, 0x38, 0x7f, 0x08, 0x89, 0x2a, 0x47, 0x00, 0x89,
  0x3e, 0x53, 0x18, 0x99, 0x24, 0x7f, 0x00, 0x99, 0x26, 0x7c, 0x00, 0x99,
  0x2a, 0x74, 0x00, 0x99, 0x3c, 0x53, 0x00, 0x99, 0x27, 0x74, 0x18, 0x89,
  0x24, 0x7f, 0x00, 0x89, 0x26, 0x7c, 0x00, 0x89, 0x2a, 0x74, 0x00, 0x89,
  0x3c, 0x53, 0x00, 0x89, 0x27, 0x74, 0x48, 0x91, 0x1d, 0x7f, 0x00, 0x95,
  0x35, 0x7f, 0x00, 0x99, 0x2a, 0x0d, 0x00, 0x99, 0x3d, 0x53, 0x10, 0x85,
  0x35, 0x7f, 0x08, 0x89, 0x2a, 0x0d, 0x00, 0x89, 0x3d, 0x53, 0x0a, 0x81,
  0x1d, 0x7f, 0x0c, 0x86, 0x3f, 0x7a, 0x02, 0x91, 0x22, 0x7f, 0x00, 0x95,
  0x38, 0x7f, 0x00, 0x99, 0x2a, 0x47, 0x10, 0x85, 0x38, 0x7f, 0x08, 0x81,
  0x22, 0x7f, 0x00, 0x89, 0x2a, 0x47, 0x18, 0x80, 0x41, 0x7f, 0x00, 0x80,
  0x3d, 0x7f, 0x00, 0x80, 0x3a, 0x7f, 0x00, 0x80, 0x36, 0x7f, 0x00, 0x90,
  0x3f, 0x7f, 0x00, 0x90, 0x3c, 0x7f, 0x00, 0x90, 0x3a, 0x7f, 0x00, 0x90,
  0x38, 0x7f, 0x00, 0x99, 0x24, 0x7f, 0x00, 0x99, 0x2a, 0x64, 0x00, 0x99,
  0x3c, 0x53, 0x18, 0x89, 0x24, 0x7f, 0x00, 0x89, 0x2a, 0x64, 0x00, 0x89,
  0x3c, 0x53, 0x18, 0x95, 0x38, 0x7f, 0x10, 0x85, 0x38, 0x7f, 0x20, 0x91,
  0x20, 0x7f, 0x00, 0x99, 0x2a, 0x36, 0x02, 0x96, 0x3c, 0x69, 0x16, 0x81,
  0x20, 0x7f, 0x00, 0x89, 0x2a, 0x36, 0x18, 0x91, 0x22, 0x7f, 0x00, 0x99,
  0x2a, 0x53, 0x00, 0x99, 0x3e, 0x53, 0x18, 0x89, 0x2a, 0x53, 0x00, 0x89,
  0x3e, 0x53, 0x06, 0x81, 0x22, 0x7f, 0x12, 0x95, 0x38, 0x7f, 0x00, 0x99,
  0x24, 0x7f, 0x00, 0x99, 0x26, 0x70, 0x00, 0x99, 0x2a, 0x74, 0x00, 0x99,
  0x3c, 0x53, 0x00, 0x99, 0x27, 0x74, 0x06, 0x96, 0x3a, 0x7f, 0x0a, 0x85,
  0x38, 0x7f, 0x02, 0x86, 0x3c, 0x69, 0x06, 0x89, 0x24, 0x7f, 0x00, 0x89,
  0x26, 0x70, 0x00, 0x89, 0x2a, 0x74, 0x00, 0x89, 0x3c, 0x53, 0x00, 0x89,
  0x27, 0x74, 0x18, 0x91, 0x25, 0x7f, 0x1e, 0x81, 0x25, 0x7f, 0x12, 0x91,
  0x24, 0x7f, 0x00, 0x99, 0x2a, 0x36, 0x00, 0x99, 0x3d, 0x53, 0x02, 0x96,
  0x38, 0x7f, 0x04, 0x86, 0x3a, 0x7f, 0x12, 0x89, 0x2a, 0x36, 0x00, 0x89,
  0x3d, 0x53, 0x04, 0x81, 0x24, 0x7f, 0x14, 0x95, 0x35, 0x7f, 0x00, 0x99,
  0x2a, 0x47, 0x10, 0x85, 0x35, 0x7f, 0x08, 0x89, 0x2a, 0x47, 0x18, 0x95,
  0x38, 0x7f, 0x00, 0x99, 0x24, 0x7f, 0x00, 0x99, 0x2a, 0x64, 0x00, 0x99,
  0x3c, 0x53, 0x10, 0x85, 0x38, 0x7f, 0x08, 0x89, 0x24, 0x7f, 0x00, 0x89,
  0x2a, 0x64, 0x00, 0x89, 0x3c, 0x53, 0x48, 0x91, 0x22, 0x7f, 0x00, 0x95,
  0x38, 0x7f, 0x00, 0x99, 0x2a, 0x47, 0x10, 0x85, 0x38, 0x7f, 0x08, 0x89,
  0x2a, 0x47, 0x08, 0x81, 0x22, 0x7f, 0x10, 0x99, 0x2a, 0x47, 0x00, 0x99,
  0x3e, 0x53, 0x18, 0x89, 0x2a, 0x47, 0x00, 0x89, 0x3e, 0x53, 0x18, 0x95,
  0x38, 0x7f, 0x00, 0x99, 0x24, 0x7f, 0x00, 0x99, 0x26, 0x70, 0x00, 0x99,
  0x2a, 0x74, 0x00, 0x99, 0x3c, 0x53, 0x00, 0x99, 0x27, 0x64, 0x10, 0x85,
  0x38, 0x7f, 0x08, 0x89, 0x24, 0x7f, 0x00, 0x89, 0x26, 0x70, 0x00, 0x89,
  0x2a, 0x74, 0x00, 0x89, 0x3c, 0x53, 0x00, 0x89, 0x27, 0x64, 0x18, 0x95,
  0x3a, 0x7f, 0x10, 0x85, 0x3a, 0x7f, 0x20, 0x91, 0x20, 0x7f, 0x00, 0x99,
  0x2e, 0x44, 0x00, 0x99, 0x3d, 0x53, 0x0a, 0x86, 0x38, 0x7f, 0x0a, 0x81,
  0x20, 0x7f, 0x04, 0x89, 0x2e, 0x44, 0x00, 0x89, 0x3d, 0x53, 0x18, 0x91,
  0x20, 0x7f, 0x1c, 0x81, 0x20, 0x7f, 0x14, 0x80, 0x3f, 0x7f, 0x00, 0x80,
  0x3c, 0x7f, 0x00, 0x80, 0x3a, 0x7f, 0x00, 0x80, 0x38, 0x7f, 0x00, 0x90,
  0x41, 0x7f, 0x00, 0x90, 0x3d, 0x7f, 0x00, 0x90, 0x3a, 0x7f, 0x00, 0x90,
  0x36, 0x7f, 0x00, 0x91, 0x22, 0x7f, 0x00, 0x99, 0x24, 0x7f, 0x00, 0x99,
  0x2a, 0x74, 0x00, 0x99, 0x3c, 0x53, 0x18, 0x89, 0x24, 0x7f, 0x00, 0x89,
  0x2a, 0x74, 0x00, 0x89, 0x3c, 0x53, 0x0e, 0x81, 0x22, 0x7f, 0x0a, 0x95,
  0x38, 0x7f, 0x10, 0x85, 0x38, 0x7f, 0x20, 0x91, 0x22, 0x7f, 0x00, 0x96,
  0x3a, 0x7f, 0x00, 0x99, 0x2a, 0x2c, 0x18, 0x89, 0x2a, 0x2c, 0x02, 0x81,
  0x22, 0x7f, 0x04, 0x86, 0x3a, 0x7f, 0x12, 0x91, 0x22, 0x7f, 0x00, 0x99,
  0x2a, 0x64, 0x00, 0x99, 0x3e, 0x53, 0x18, 0x89, 0x2a, 0x64, 0x00, 0x89,
  0x3e, 0x53, 0x08, 0x81, 0x22, 0x7f, 0x10, 0x95, 0x38, 0x7f, 0x00, 0x96,
  0x3a, 0x7f, 0x00, 0x99, 0x24, 0x7f, 0x00, 0x99, 0x26, 0x7c, 0x00, 0x99,
  0x2a, 0x74, 0x00, 0x99, 0x3c, 0x53, 0x00, 0x99, 0x27, 0x64, 0x10, 0x85,
  0x38, 0x7f, 0x08, 0x89, 0x24, 0x7f, 0x00, 0x89, 0x26, 0x7c, 0x00, 0x89,
  0x2a, 0x74, 0x00, 0x89, 0x3c, 0x53, 0x00, 0x89, 0x27, 0x64, 0x18, 0x91,
  0x25, 0x7f, 0x20, 0x81, 0x25, 0x7f, 0x10, 0x91, 0x24, 0x7f, 0x00, 0x96,
  0x3c, 0x7f, 0x00, 0x99, 0x2a, 0x21, 0x00, 0x99, 0x3d, 0x53, 0x04, 0x86,
  0x3a, 0x7f, 0x14, 0x89, 0x2a, 0x21, 0x00, 0x89, 0x3d, 0x53, 0x04, 0x81,
  0x24, 0x7f, 0x14, 0x95, 0x35, 0x7f, 0x00, 0x99, 0x2a, 0x53, 0x10, 0x85,
  0x35, 0x7f, 0x08, 0x89, 0x2a, 0x53, 0x10, 0x86, 0x3c, 0x7f, 0x08, 0x91,
  0x20, 0x7f, 0x00, 0x95, 0x38, 0x7f, 0x00, 0x96, 0x3d, 0x7f, 0x00, 0x99,
  0x24, 0x7f, 0x00, 0x99, 0x2a, 0x74, 0x00, 0x99, 0x3c, 0x53, 0x10, 0x85,
  0x38, 0x7f, 0x08, 0x89, 0x24, 0x7f, 0x00, 0x89, 0x2a, 0x74, 0x00, 0x89,
  0x3c, 0x53, 0x18, 0x81, 0x20, 0x7f, 0x28, 0x86, 0x3d, 0x7f, 0x08, 0x91,
  0x22, 0x7f, 0x00, 0x95, 0x38, 0x7f, 0x00, 0x96, 0x3a, 0x7f, 0x00, 0x99,
  0x2a, 0x47, 0x10, 0x85, 0x38, 0x7f, 0x08, 0x89, 0x2a, 0x47, 0x0a, 0x81,
  0x22, 0x7f, 0x0e, 0x99, 0x2a, 0x53, 0x00, 0x99, 0x3e, 0x53, 0x18, 0x89,
  0x2a, 0x53, 0x00, 0x89, 0x3e, 0x53, 0x18, 0x96, 0x38, 0x7f, 0x00, 0x99,
  0x24, 0x7f, 0x00, 0x99, 0x26, 0x70, 0x00, 0x99, 0x2a, 0x7f, 0x00, 0x99,
  0x3c, 0x53, 0x00, 0x99, 0x27, 0x74, 0x06, 0x86, 0x3a, 0x7f, 0x12, 0x89,
  0x24, 0x7f, 0x00, 0x89, 0x26, 0x70, 0x00, 0x89, 0x2a, 0x7f, 0x00, 0x89,
  0x3c, 0x53, 0x00, 0x89, 0x27, 0x74, 0x48, 0x91, 0x20, 0x7f, 0x00, 0x94,
  0x44, 0x7f, 0x00, 0x94, 0x38, 0x7f, 0x00, 0x95, 0x33, 0x7f, 0x00, 0x99,
  0x2a, 0x30, 0x00, 0x99, 0x3d, 0x53, 0x10, 0x85, 0x33, 0x7f, 0x02, 0x86,
  0x38, 0x7f, 0x02, 0x81, 0x20, 0x7f, 0x04, 0x89, 0x2a, 0x30, 0x00, 0x89,
  0x3d, 0x53, 0x18, 0x91, 0x20, 0x7f, 0x00, 0x95, 0x35, 0x7f, 0x00, 0x99,
  0x2a, 0x3d, 0x10, 0x85, 0x35, 0x7f, 0x04, 0x81, 0x20, 0x7f, 0x04, 0x89,
  0x2a, 0x3d, 0x02, 0x84, 0x44, 0x7f, 0x00, 0x84, 0x38, 0x7f, 0x16, 0x80,
  0x41, 0x7f, 0x00, 0x80, 0x3d, 0x7f, 0x00, 0x80, 0x3a, 0x7f, 0x00, 0x80,
  0x36, 0x7f, 0x00, 0x90, 0x41, 0x7f, 0x00, 0x90, 0x3d, 0x7f, 0x00, 0x90,
  0x3a, 0x7f, 0x00, 0x90, 0x36, 0x7f, 0x00, 0x91, 0x1b, 0x7f, 0x00, 0x94,
  0x50, 0x7f, 0x00, 0x94, 0x44, 0x7f, 0x00, 0x99, 0x24, 0x7f, 0x00, 0x99,
  0x2a, 0x74, 0x00, 0x99, 0x3c, 0x53, 0x18, 0x89, 0x24, 0x7f, 0x00, 0x89,
  0x2a, 0x74, 0x00, 0x89, 0x3c, 0x53, 0x18, 0x81, 0x1b, 0x7f, 0x00, 0x95,
  0x38, 0x7f, 0x02, 0x84, 0x50, 0x7f, 0x02, 0x84, 0x44, 0x7f, 0x0c, 0x85,
  0x38, 0x7f, 0x20, 0x91, 0x1b, 0x63, 0x00, 0x96, 0x44, 0x7f, 0x00, 0x99,
  0x2a, 0x47, 0x18, 0x89, 0x2a, 0x47, 0x04, 0x81, 0x1b, 0x63, 0x06, 0x86,
  0x44, 0x7f, 0x0e, 0x91, 0x20, 0x73, 0x00, 0x99, 0x2a, 0x47, 0x00, 0x99,
  0x3e, 0x53, 0x18, 0x89, 0x2a, 0x47, 0x00, 0x89, 0x3e, 0x53, 0x16, 0x81,
  0x20, 0x73, 0x02, 0x94, 0x50, 0x7f, 0x00, 0x94, 0x44, 0x7f, 0x00, 0x95,
  0x38, 0x7f, 0x00, 0x96, 0x44, 0x7f, 0x00, 0x99, 0x24, 0x7f, 0x00, 0x99,
  0x26, 0x7c, 0x00, 0x99, 0x2a, 0x74, 0x00, 0x99, 0x3c, 0x53, 0x00, 0x99,
  0x27, 0x64, 0x10, 0x85, 0x38, 0x7f, 0x08, 0x89, 0x24, 0x7f, 0x00, 0x89,
  0x26, 0x7c, 0x00, 0x89, 0x2a, 0x74, 0x00, 0x89, 0x3c, 0x53, 0x00, 0x89,
  0x27, 0x64, 0x18, 0x91, 0x20, 0x47, 0x10, 0x81, 0x20, 0x47, 0x12, 0x86,
  0x44, 0x7f, 0x04, 0x84, 0x44, 0x7f, 0x04, 0x84, 0x50, 0x7f, 0x06, 0x80,
  0x41, 0x7f, 0x00, 0x80, 0x3d, 0x7f, 0x00, 0x80, 0x3a, 0x7f, 0x00, 0x80,
  0x36, 0x7f, 0x00, 0x90, 0x3f, 0x7f, 0x00, 0x90, 0x3c, 0x7f, 0x00, 0x90,
  0x3a, 0x7f, 0x00, 0x90, 0x38, 0x7f, 0x00, 0x91, 0x20, 0x7f, 0x00, 0x94,
  0x4b, 0x7f, 0x00, 0x94, 0x3f, 0x7f, 0x00, 0x96, 0x3f, 0x7f, 0x00, 0x99,
  0x2e, 0x44, 0x00, 0x99, 0x3d, 0x53, 0x18, 0x89, 0x2e, 0x44, 0x00, 0x89,
  0x3d, 0x53, 0x06, 0x81, 0x20, 0x7f, 0x12, 0x95, 0x35, 0x7f, 0x10, 0x85,
  0x35, 0x7f, 0x20, 0x95, 0x38, 0x7f, 0x00, 0x99, 0x24, 0x7f, 0x00, 0x99,
  0x2a, 0x74, 0x00, 0x99, 0x3c, 0x53, 0x10, 0x85, 0x38, 0x7f, 0x08, 0x89,
  0x24, 0x7f, 0x00, 0x89, 0x2a, 0x74, 0x00, 0x89, 0x3c, 0x53, 0x2c, 0x86,
  0x3f, 0x7f, 0x10, 0x84, 0x4b, 0x7f, 0x06, 0x84, 0x3f, 0x7f, 0x06, 0x91,
  0x20, 0x7f, 0x00, 0x94, 0x4d, 0x7f, 0x00, 0x94, 0x41, 0x7f, 0x00, 0x95,
  0x38, 0x7f, 0x00, 0x96, 0x41, 0x6e, 0x00, 0x99, 0x2a, 0x3d, 0x10, 0x85,
  0x38, 0x7f, 0x04, 0x81, 0x20, 0x7f, 0x04, 0x89, 0x2a, 0x3d, 0x18, 0x91,
  0x20, 0x7f, 0x00, 0x99, 0x2a, 0x64, 0x00, 0x99, 0x3e, 0x53, 0x04, 0x86,
  0x41, 0x6e, 0x14, 0x89, 0x2a, 0x64, 0x00, 0x89, 0x3e, 0x53, 0x0c, 0x81,
  0x20, 0x7f, 0x08, 0x84, 0x41, 0x7f, 0x04, 0x94, 0x4b, 0x7f, 0x00, 0x94,
  0x3f, 0x7f, 0x00, 0x96, 0x3f, 0x7f, 0x00, 0x99, 0x24, 0x7f, 0x00, 0x99,
  0x26, 0x7d, 0x00, 0x99, 0x2a, 0x74, 0x00, 0x99, 0x3c, 0x53, 0x00, 0x99,
  0x27, 0x7d, 0x04, 0x84, 0x4d, 0x7f, 0x14, 0x89, 0x24, 0x7f, 0x00, 0x89,
  0x26, 0x7d, 0x00, 0x89, 0x2a, 0x74, 0x00, 0x89, 0x3c, 0x53, 0x00, 0x89,
  0x27, 0x7d, 0x18, 0x91, 0x20, 0x63, 0x00, 0x95, 0x38, 0x7f, 0x00, 0x99,
  0x27, 0x69, 0x10, 0x85, 0x38, 0x7f, 0x08, 0x81, 0x20, 0x63, 0x00, 0x89,
  0x27, 0x69, 0x10, 0x86, 0x3f, 0x7f, 0x02, 0x84, 0x3f, 0x7f, 0x06, 0x91,
  0x22, 0x63, 0x00, 0x94, 0x49, 0x7f, 0x00, 0x94, 0x3d, 0x7f, 0x00, 0x96,
  0x3d, 0x7f, 0x00, 0x99, 0x2e, 0x5f, 0x00, 0x99, 0x3d, 0x53, 0x00, 0x99,
  0x27, 0x55, 0x04, 0x84, 0x4b, 0x7f, 0x0c, 0x81, 0x22, 0x63, 0x08, 0x89,
  0x2e, 0x5f, 0x00, 0x89, 0x3d, 0x53, 0x00, 0x89, 0x27, 0x55, 0x0e, 0x84,
  0x49, 0x7f, 0x04, 0x84, 0x3d, 0x7f, 0x06, 0x91, 0x22, 0x7f, 0x00, 0x95,
  0x38, 0x7f, 0x00, 0x99, 0x27, 0x41, 0x10, 0x85, 0x38, 0x7f, 0x06, 0x81,
  0x22, 0x7f, 0x02, 0x89, 0x27, 0x41, 0x0e, 0x86, 0x3d, 0x7f, 0x0a, 0x80,
  0x3f, 0x7f, 0x00, 0x80, 0x3c, 0x7f, 0x00, 0x80, 0x3a, 0x7f, 0x00, 0x80,
  0x38, 0x7f, 0x00, 0x90, 0x41, 0x7f, 0x00, 0x90, 0x3d, 0x7f, 0x00, 0x90,
  0x3a, 0x7f, 0x00, 0x90, 0x36, 0x7f, 0x00, 0x91, 0x22, 0x7f, 0x00, 0x99,
  0x24, 0x7f, 0x00, 0x99, 0x2a, 0x70, 0x00, 0x99, 0x3c, 0x53, 0x18, 0x89,
  0x24, 0x7f, 0x00, 0x89, 0x2a, 0x70, 0x00, 0x89, 0x3c, 0x53, 0x02, 0x81,
  0x22, 0x7f, 0x16, 0x95, 0x38, 0x7f, 0x10, 0x85, 0x38, 0x7f, 0x20, 0x91,
  0x22, 0x7f, 0x00, 0x96, 0x3a, 0x7f, 0x00, 0x99, 0x2a, 0x36, 0x18, 0x81,
  0x22, 0x7f, 0x00, 0x89, 0x2a, 0x36, 0x08, 0x86, 0x3a, 0x7f, 0x10, 0x91,
  0x22, 0x7f, 0x00, 0x99, 0x2a, 0x64, 0x00, 0x99, 0x3e, 0x53, 0x18, 0x89,
  0x2a, 0x64, 0x00, 0x89, 0x3e, 0x53, 0x0a, 0x81, 0x22, 0x7f, 0x0e, 0x95,
  0x38, 0x7f, 0x00, 0x96, 0x3a, 0x7f, 0x00, 0x99, 0x24, 0x7f, 0x00, 0x99,
  0x26, 0x70, 0x00, 0x99, 0x2a, 0x74, 0x00, 0x99, 0x3c, 0x53, 0x00, 0x99,
  0x27, 0x64, 0x10, 0x85, 0x38, 0x7f, 0x08, 0x89, 0x24, 0x7f, 0x00, 0x89,
  0x26, 0x70, 0x00, 0x89, 0x2a, 0x74, 0x00, 0x89, 0x3c, 0x53, 0x00, 0x89,
  0x27, 0x64, 0x18, 0x91, 0x25, 0x7f, 0x1a, 0x86, 0x3a, 0x7f, 0x10, 0x81,
  0x25, 0x7f, 0x06, 0x91, 0x24, 0x7f, 0x00, 0xb6, 0x01, 0x33, 0x00, 0x96,
  0x3c, 0x6e, 0x00, 0x99, 0x2a, 0x28, 0x00, 0x99, 0x3d, 0x53, 0x14, 0x86,
  0x3c, 0x6e, 0x04, 0x89, 0x2a, 0x28, 0x00, 0x89, 0x3d, 0x53, 0x0a, 0x81,
  0x24, 0x7f, 0x0e, 0x95, 0x35, 0x7f, 0x00, 0x99, 0x2a, 0x53, 0x10, 0x85,
  0x35, 0x7f, 0x08, 0x89, 0x2a, 0x53, 0x18, 0x91, 0x20, 0x7f, 0x00, 0x95,
  0x38, 0x7f, 0x00, 0xb6, 0x01, 0x00, 0x00, 0x96, 0x3d, 0x7d, 0x00, 0x99,
  0x24, 0x7f, 0x00, 0x99, 0x2a, 0x74, 0x00, 0x99, 0x3c, 0x53, 0x10, 0x85,
  0x38, 0x7f, 0x08, 0x89, 0x24, 0x7f, 0x00, 0x89, 0x2a, 0x74, 0x00, 0x89,
  0x3c, 0x53, 0x1a, 0x81, 0x20, 0x7f, 0x24, 0x86, 0x3d, 0x7d, 0x0a, 0x91,
  0x22, 0x7f, 0x00, 0x96, 0x3a, 0x7f, 0x00, 0x99, 0x2a, 0x30, 0x18, 0x89,
  0x2a, 0x30, 0x08, 0x86, 0x3a, 0x7f, 0x02, 0x81, 0x22, 0x7f, 0x0e, 0x95,
  0x38, 0x7f, 0x00, 0x99, 0x2a, 0x47, 0x00, 0x99, 0x3e, 0x53, 0x10, 0x85,
  0x38, 0x7f, 0x08, 0x89, 0x2a, 0x47, 0x00, 0x89, 0x3e, 0x53, 0x18, 0x96,
  0x3d, 0x7e, 0x00, 0x99, 0x24, 0x7f, 0x00, 0x99, 0x26, 0x7c, 0x00, 0x99,
  0x2a, 0x74, 0x00, 0x99, 0x3c, 0x53, 0x00, 0x99, 0x27, 0x74, 0x18, 0x89,
  0x24, 0x7f, 0x00, 0x89, 0x26, 0x7c, 0x00, 0x89, 0x2a, 0x74, 0x00, 0x89,
  0x3c, 0x53, 0x00, 0x89, 0x27, 0x74, 0x3a, 0x86, 0x3d, 0x7e, 0x0e, 0x91,
  0x1d, 0x7f, 0x00, 0x95, 0x35, 0x7f, 0x00, 0xb6, 0x01, 0x3f, 0x00, 0x96,
  0x3f, 0x76, 0x00, 0x99, 0x2a, 0x0d, 0x00, 0x99, 0x3d, 0x53, 0x10, 0x85,
  0x35, 0x7f, 0x08, 0x89, 0x2a, 0x0d, 0x00, 0x89, 0x3d, 0x53, 0x02, 0x86,
  0x3f, 0x76, 0x08, 0x81, 0x1d, 0x7f, 0x0e, 0x91, 0x22, 0x7f, 0x00, 0x95,
  0x38, 0x7f, 0x00, 0x99, 0x2a, 0x47, 0x10, 0x85, 0x38, 0x7f, 0x04, 0xe6,
  0x2f, 0x3f, 0x04, 0x81, 0x22, 0x7f, 0x00, 0x89, 0x2a, 0x47, 0x02, 0xe6,
  0x3a, 0x3d, 0x08, 0xe6, 0x22, 0x3b, 0x08, 0xe6, 0x60, 0x3a, 0x06, 0x80,
  0x41, 0x7f, 0x00, 0x80, 0x3d, 0x7f, 0x00, 0x80, 0x3a, 0x7f, 0x00, 0x80,
  0x36, 0x7f, 0x00, 0x90, 0x3f, 0x7f, 0x00, 0x90, 0x3c, 0x7f, 0x00, 0x90,
  0x3a, 0x7f, 0x00, 0x90, 0x38, 0x7f, 0x00, 0x99, 0x24, 0x7f, 0x00, 0x99,
  0x2a, 0x64, 0x00, 0x99, 0x3c, 0x53, 0x06, 0xe6, 0x52, 0x3b, 0x08, 0xe6,
  0x17, 0x3d, 0x06, 0xe6, 0x4e, 0x3f, 0x04, 0x89, 0x24, 0x7f, 0x00, 0x89,
  0x2a, 0x64, 0x00, 0x89, 0x3c, 0x53, 0x06, 0xe6, 0x70, 0x3f, 0x02, 0xe6,
  0x00, 0x40, 0x10, 0x95, 0x38, 0x7f, 0x10, 0x85, 0x38, 0x7f, 0x20, 0x91,
  0x20, 0x7f, 0x00, 0xb6, 0x01, 0x00, 0x00, 0x96, 0x3c, 0x7a, 0x00, 0x99,
  0x2a, 0x36, 0x18, 0x81, 0x20, 0x7f, 0x00, 0x89, 0x2a, 0x36, 0x18, 0x91,
  0x22, 0x7f, 0x00, 0x99, 0x2a, 0x53, 0x00, 0x99, 0x3e, 0x53, 0x18, 0x89,
  0x2a, 0x53, 0x00, 0x89, 0x3e, 0x53, 0x06, 0x81, 0x22, 0x7f, 0x04, 0x86,
  0x3c, 0x7a, 0x0e, 0x95, 0x38, 0x7f, 0x00, 0x96, 0x3a, 0x76, 0x00, 0x99,
  0x24, 0x7f, 0x00, 0x99, 0x26, 0x70, 0x00, 0x99, 0x2a, 0x74, 0x00, 0x99,
  0x3c, 0x53, 0x00, 0x99, 0x27, 0x74, 0x10, 0x85, 0x38, 0x7f, 0x08, 0x89,
  0x24, 0x7f, 0x00, 0x89, 0x26, 0x70, 0x00, 0x89, 0x2a, 0x74, 0x00, 0x89,
  0x3c, 0x53, 0x00, 0x89, 0x27, 0x74, 0x18, 0x91, 0x25, 0x7f, 0x16, 0x86,
  0x3a, 0x76, 0x08, 0x81, 0x25, 0x7f, 0x12, 0x91, 0x24, 0x7f, 0x00, 0x96,
  0x3c, 0x74, 0x00, 0x99, 0x2a, 0x36, 0x00, 0x99, 0x3d, 0x53, 0x18, 0x86,
  0x3c, 0x74, 0x00, 0x89, 0x2a, 0x36, 0x00, 0x89, 0x3d, 0x53, 0x04, 0x81,
  0x24, 0x7f, 0x14, 0x95, 0x35, 0x7f, 0x00, 0xb6, 0x01, 0x24, 0x00, 0x96,
  0x3a, 0x6c, 0x00, 0x99, 0x2a, 0x47, 0x10, 0x85, 0x35, 0x7f, 0x04, 0x86,
  0x3a, 0x6c, 0x04, 0x89, 0x2a, 0x47, 0x18, 0x95, 0x38, 0x7f, 0x00, 0xb6,
  0x01, 0x00, 0x00, 0x96, 0x38, 0x7f, 0x00, 0x99, 0x24, 0x7f, 0x00, 0x99,
  0x2a, 0x64, 0x00, 0x99, 0x3c, 0x53, 0x10, 0x85, 0x38, 0x7f, 0x08, 0x89,
  0x24, 0x7f, 0x00, 0x89, 0x2a, 0x64, 0x00, 0x89, 0x3c, 0x53, 0x48, 0x91,
  0x22, 0x7f, 0x00, 0x95, 0x38, 0x7f, 0x00, 0x99, 0x2a, 0x47, 0x10, 0x85,
  0x38, 0x7f, 0x08, 0x89, 0x2a, 0x47, 0x08, 0x81, 0x22, 0x7f, 0x10, 0x99,
  0x2a, 0x47, 0x00, 0x99, 0x3e, 0x53, 0x18, 0x89, 0x2a, 0x47, 0x00, 0x89,
  0x3e, 0x53, 0x18, 0x95, 0x38, 0x7f, 0x00, 0x99, 0x24, 0x7f, 0x00, 0x99,
  0x26, 0x70, 0x00, 0x99, 0x2a, 0x74, 0x00, 0x99, 0x3c, 0x53, 0x00, 0x99,
  0x27, 0x64, 0x04, 0x86, 0x38, 0x7f, 0x0c, 0x85, 0x38, 0x7f, 0x08, 0x89,
  0x24, 0x7f, 0x00, 0x89, 0x26, 0x70, 0x00, 0x89, 0x2a, 0x74, 0x00, 0x89,
  0x3c, 0x53, 0x00, 0x89, 0x27, 0x64, 0x18, 0x95, 0x3a, 0x7f, 0x10, 0x85,
  0x3a, 0x7f, 0x20, 0x91, 0x20, 0x7f, 0x00, 0x99, 0x2e, 0x44, 0x00, 0x99,
  0x3d, 0x53, 0x14, 0x81, 0x20, 0x7f, 0x04, 0x89, 0x2e, 0x44, 0x00, 0x89,
  0x3d, 0x53, 0x18, 0x91, 0x20, 0x7f, 0x1c, 0x81, 0x20, 0x7f, 0x14, 0x80,
  0x3f, 0x7f, 0x00, 0x80, 0x3c, 0x7f, 0x00, 0x80, 0x3a, 0x7f, 0x00, 0x80,
  0x38, 0x7f, 0x00, 0x90, 0x41, 0x7f, 0x00, 0x90, 0x3d, 0x7f, 0x00, 0x90,
  0x3a, 0x7f, 0x00, 0x90, 0x36, 0x7f, 0x00, 0x91, 0x22, 0x7f, 0x00, 0x99,
  0x24, 0x7f, 0x00, 0x99, 0x2a, 0x74, 0x00, 0x99, 0x3c, 0x53, 0x18, 0x89,
  0x24, 0x7f, 0x00, 0x89, 0x2a, 0x74, 0x00, 0x89, 0x3c, 0x53, 0x0e, 0x81,
  0x22, 0x7f, 0x0a, 0x95, 0x38, 0x7f, 0x10, 0x85, 0x38, 0x7f, 0x20, 0x91,
  0x22, 0x7f, 0x00, 0x96, 0x3a, 0x7f, 0x00, 0x99, 0x2a, 0x2c, 0x18, 0x89,
  0x2a, 0x2c, 0x02, 0x81, 0x22, 0x7f, 0x16, 0x91, 0x22, 0x7f, 0x00, 0x99,
  0x2a, 0x64, 0x00, 0x99, 0x3e, 0x53, 0x12, 0x86, 0x3a, 0x7f, 0x06, 0x89,
  0x2a, 0x64, 0x00, 0x89, 0x3e, 0x53, 0x08, 0x81, 0x22, 0x7f, 0x10, 0x95,
  0x38, 0x7f, 0x00, 0x96, 0x3a, 0x7f, 0x00, 0x99, 0x24, 0x7f, 0x00, 0x99,
  0x26, 0x7c, 0x00, 0x99, 0x2a, 0x74, 0x00, 0x99, 0x3c, 0x53, 0x00, 0x99,
  0x27, 0x64, 0x10, 0x85, 0x38, 0x7f, 0x08, 0x89, 0x24, 0x7f, 0x00, 0x89,
  0x26, 0x7c, 0x00, 0x89, 0x2a, 0x74, 0x00, 0x89, 0x3c, 0x53, 0x00, 0x89,
  0x27, 0x64, 0x18, 0x91, 0x25, 0x7f, 0x1a, 0x86, 0x3a, 0x7f, 0x06, 0x81,
  0x25, 0x7f, 0x10, 0x91, 0x24, 0x7f, 0x00, 0x96, 0x3c, 0x7f, 0x00, 0x99,
  0x2a, 0x21, 0x00, 0x99, 0x3d, 0x53, 0x18, 0x89, 0x2a, 0x21, 0x00, 0x89,
  0x3d, 0x53, 0x04, 0x81, 0x24, 0x7f, 0x12, 0x86, 0x3c, 0x7f, 0x02, 0x95,
  0x35, 0x7f, 0x00, 0x99, 0x2a, 0x53, 0x10, 0x85, 0x35, 0x7f, 0x08, 0x89,
  0x2a, 0x53, 0x18, 0x91, 0x20, 0x7f, 0x00, 0x95, 0x38, 0x7f, 0x00, 0x96,
  0x3d, 0x7e, 0x00, 0x99, 0x24, 0x7f, 0x00, 0x99, 0x2a, 0x74, 0x00, 0x99,
  0x3c, 0x53, 0x10, 0x85, 0x38, 0x7f, 0x08, 0x89, 0x24, 0x7f, 0x00, 0x89,
  0x2a, 0x74, 0x00, 0x89, 0x3c, 0x53, 0x18, 0x81, 0x20, 0x7f, 0x1e, 0x86,
  0x3d, 0x7e, 0x12, 0x91, 0x22, 0x7f, 0x00, 0x95, 0x38, 0x7f, 0x00, 0x96,
  0x3a, 0x72, 0x00, 0x99, 0x2a, 0x47, 0x10, 0x85, 0x38, 0x7f, 0x08, 0x89,
  0x2a, 0x47, 0x0a, 0x81, 0x22, 0x7f, 0x04, 0x86, 0x3a, 0x72, 0x0a, 0x99,
  0x2a, 0x53, 0x00, 0x99, 0x3e, 0x53, 0x18, 0x89, 0x2a, 0x53, 0x00, 0x89,
  0x3e, 0x53, 0x18, 0x96, 0x38, 0x7f, 0x00, 0x99, 0x24, 0x7f, 0x00, 0x99,
  0x26, 0x70, 0x00, 0x99, 0x2a, 0x7f, 0x00, 0x99, 0x3c, 0x53, 0x00, 0x99,
  0x27, 0x74, 0x18, 0x89, 0x24, 0x7f, 0x00, 0x89, 0x26, 0x70, 0x00, 0x89,
  0x2a, 0x7f, 0x00, 0x89, 0x3c, 0x53, 0x00, 0x89, 0x27, 0x74, 0x2c, 0xe6,
  0x0b, 0x3e, 0x08, 0xe6, 0x52, 0x3b, 0x02, 0xe6, 0x2e, 0x40, 0x02, 0xe6,
  0x52, 0x41, 0x02, 0xe6, 0x65, 0x42, 0x02, 0xe6, 0x78, 0x43, 0x02, 0xe6,
  0x0e, 0x45, 0x02, 0xe6, 0x1c, 0x45, 0x08, 0x91, 0x20, 0x7f, 0x00, 0x95,
  0x33, 0x7f, 0x00, 0x99, 0x2a, 0x30, 0x00, 0x99, 0x3d, 0x53, 0x06, 0xe6,
  0x2c, 0x44, 0x02, 0xe6, 0x02, 0x42, 0x02, 0xe6, 0x00, 0x40, 0x02, 0xe6,
  0x5f, 0x3f, 0x02, 0xe6, 0x7a, 0x3d, 0x02, 0x85, 0x33, 0x7f, 0x02, 0xe6,
  0x18, 0x3e, 0x02, 0x81, 0x20, 0x7f, 0x00, 0xe6, 0x5f, 0x3f, 0x02, 0xe6,
  0x00, 0x40, 0x02, 0x89, 0x2a, 0x30, 0x00, 0x89, 0x3d, 0x53, 0x02, 0xe6,
  0x0d, 0x40, 0x04, 0xe6, 0x00, 0x40, 0x02, 0x86, 0x38, 0x7f, 0x10, 0x91,
  0x20, 0x7f, 0x00, 0x95, 0x35, 0x7f, 0x00, 0x99, 0x2a, 0x3d, 0x10, 0x85,
  0x35, 0x7f, 0x04, 0x81, 0x20, 0x7f, 0x04, 0x89, 0x2a, 0x3d, 0x18, 0x80,
  0x41, 0x7f, 0x00, 0x80, 0x3d, 0x7f, 0x00, 0x80, 0x3a, 0x7f, 0x00, 0x80,
  0x36, 0x7f, 0x00, 0x90, 0x41, 0x7f, 0x00, 0x90, 0x3d, 0x7f, 0x00, 0x90,
  0x3a, 0x7f, 0x00, 0x90, 0x36, 0x7f, 0x00, 0x91, 0x1b, 0x7f, 0x00, 0x99,
  0x24, 0x7f, 0x00, 0x99, 0x2a, 0x74, 0x00, 0x99, 0x3c, 0x53, 0x18, 0x89,
  0x24, 0x7f, 0x00, 0x89, 0x2a, 0x74, 0x00, 0x89, 0x3c, 0x53, 0x18, 0x81,
  0x1b, 0x7f, 0x00, 0x95, 0x38, 0x7f, 0x10, 0x85, 0x38, 0x7f, 0x20, 0x91,
  0x1b, 0x63, 0x00, 0x94, 0x4b, 0x7f, 0x00, 0x94, 0x3f, 0x7f, 0x00, 0x96,
  0x3f, 0x7f, 0x00, 0x99, 0x2a, 0x47, 0x18, 0x89, 0x2a, 0x47, 0x04, 0x81,
  0x1b, 0x63, 0x14, 0x91, 0x20, 0x73, 0x00, 0x99, 0x2a, 0x47, 0x00, 0x99,
  0x3e, 0x53, 0x18, 0x89, 0x2a, 0x47, 0x00, 0x89, 0x3e, 0x53, 0x02, 0x84,
  0x4b, 0x7f, 0x04, 0x84, 0x3f, 0x7f, 0x10, 0x81, 0x20, 0x73, 0x02, 0x94,
  0x4d, 0x7f, 0x00, 0x94, 0x41, 0x61, 0x00, 0x95, 0x38, 0x7f, 0x00, 0x96,
  0x41, 0x7f, 0x00, 0x99, 0x24, 0x7f, 0x00, 0x99, 0x26, 0x7c, 0x00, 0x99,
  0x2a, 0x74, 0x00, 0x99, 0x3c, 0x53, 0x00, 0x99, 0x27, 0x64, 0x06, 0x86,
  0x3f, 0x7f, 0x0a, 0x85, 0x38, 0x7f, 0x08, 0x89, 0x24, 0x7f, 0x00, 0x89,
  0x26, 0x7c, 0x00, 0x89, 0x2a, 0x74, 0x00, 0x89, 0x3c, 0x53, 0x00, 0x89,
  0x27, 0x64, 0x10, 0x84, 0x4d, 0x7f, 0x00, 0x86, 0x41, 0x7f, 0x06, 0x84,
  0x41, 0x61, 0x02, 0x91, 0x20, 0x47, 0x10, 0x81, 0x20, 0x47, 0x20, 0x80,
  0x41, 0x7f, 0x00, 0x80, 0x3d, 0x7f, 0x00, 0x80, 0x3a, 0x7f, 0x00, 0x80,
  0x36, 0x7f, 0x00, 0x90, 0x3f, 0x7f, 0x00, 0x90, 0x3c, 0x7f, 0x00, 0x90,
  0x3a, 0x7f, 0x00, 0x90, 0x38, 0x7f, 0x00, 0x91, 0x20, 0x7f, 0x00, 0x94,
  0x4d, 0x6e, 0x00, 0x94, 0x41, 0x70, 0x00, 0x96, 0x41, 0x7f, 0x00, 0x99,
  0x2e, 0x44, 0x00, 0x99, 0x3d, 0x53, 0x18, 0x89, 0x2e, 0x44, 0x00, 0x89,
  0x3d, 0x53, 0x06, 0x81, 0x20, 0x7f, 0x12, 0x95, 0x35, 0x7f, 0x10, 0x85,
  0x35, 0x7f, 0x20, 0x95, 0x38, 0x7f, 0x00, 0x99, 0x24, 0x7f, 0x00, 0x99,
  0x2a, 0x74, 0x00, 0x99, 0x3c, 0x53, 0x10, 0x85, 0x38, 0x7f, 0x08, 0x89,
  0x24, 0x7f, 0x00, 0x89, 0x2a, 0x74, 0x00, 0x89, 0x3c, 0x53, 0x2a, 0x84,
  0x41, 0x70, 0x02, 0x84, 0x4d, 0x6e, 0x1a, 0x86, 0x41, 0x7f, 0x02, 0x91,
  0x20, 0x7f, 0x00, 0x94, 0x4b, 0x70, 0x00, 0x94, 0x3f, 0x68, 0x00, 0x95,
  0x38, 0x7f, 0x00, 0x96, 0x3f, 0x7f, 0x00, 0x99, 0x2a, 0x3d, 0x10, 0x85,
  0x38, 0x7f, 0x04, 0x81, 0x20, 0x7f, 0x04, 0x89, 0x2a, 0x3d, 0x18, 0x91,
  0x20, 0x7f, 0x00, 0x99, 0x2a, 0x64, 0x00, 0x99, 0x3e, 0x53, 0x18, 0x89,
  0x2a, 0x64, 0x00, 0x89, 0x3e, 0x53, 0x0c, 0x81, 0x20, 0x7f, 0x0c, 0x99,
  0x24, 0x7f, 0x00, 0x99, 0x26, 0x7d, 0x00, 0x99, 0x2a, 0x74, 0x00, 0x99,
  0x3c, 0x53, 0x00, 0x99, 0x27, 0x7d, 0x18, 0x89, 0x24, 0x7f, 0x00, 0x89,
  0x26, 0x7d, 0x00, 0x89, 0x2a, 0x74, 0x00, 0x89, 0x3c, 0x53, 0x00, 0x89,
  0x27, 0x7d, 0x18, 0x91, 0x20, 0x63, 0x00, 0x95, 0x38, 0x7f, 0x00, 0x99,
  0x27, 0x69, 0x10, 0x85, 0x38, 0x7f, 0x08, 0x81, 0x20, 0x63, 0x00, 0x89,
  0x27, 0x69, 0x18, 0x91, 0x22, 0x63, 0x00, 0x99, 0x2e, 0x5f, 0x00, 0x99,
  0x3d, 0x53, 0x00, 0x99, 0x27, 0x55, 0x10, 0x81, 0x22, 0x63, 0x08, 0x89,
  0x2e, 0x5f, 0x00, 0x89, 0x3d, 0x53, 0x00, 0x89, 0x27, 0x55, 0x0e, 0x84,
  0x4b, 0x70, 0x06, 0x84, 0x3f, 0x68, 0x04, 0x91, 0x22, 0x7f, 0x00, 0x95,
  0x38, 0x7f, 0x00, 0x99, 0x27, 0x41, 0x0e, 0x86, 0x3f, 0x7f, 0x02, 0x85,
  0x38, 0x7f, 0x06, 0x81, 0x22, 0x7f, 0x02, 0x89, 0x27, 0x41, 0x18, 0x80,
  0x3f, 0x7f, 0x00, 0x80, 0x3c, 0x7f, 0x00, 0x80, 0x3a, 0x7f, 0x00, 0x80,
  0x38, 0x7f, 0x00, 0x90, 0x3d, 0x7f, 0x00, 0x90, 0x3a, 0x7f, 0x00, 0x90,
  0x36, 0x7f, 0x00, 0x91, 0x22, 0x7f, 0x00, 0x93, 0x49, 0x7f, 0x00, 0x93,
  0x46, 0x7f, 0x00, 0x93, 0x42, 0x7f, 0x00, 0x93, 0x3f, 0x7f, 0x00, 0x93,
  0x3d, 0x7f, 0x00, 0x96, 0x3d, 0x7f, 0x00, 0x99, 0x24, 0x7f, 0x00, 0x99,
  0x2e, 0x70, 0x00, 0x99, 0x3c, 0x53, 0x18, 0x89, 0x24, 0x7f, 0x00, 0x89,
  0x2e, 0x70, 0x00, 0x89, 0x3c, 0x53, 0x02, 0x81, 0x22, 0x7f, 0x16, 0x95,
  0x38, 0x7f, 0x10, 0x85, 0x38, 0x7f, 0x20, 0x91, 0x22, 0x7f, 0x00, 0x99,
  0x2a, 0x36, 0x18, 0x81, 0x22, 0x7f, 0x00, 0x89, 0x2a, 0x36, 0x18, 0x91,
  0x25, 0x7f, 0x00, 0x99, 0x2a, 0x64, 0x00, 0x99, 0x3e, 0x53, 0x18, 0x89,
  0x2a, 0x64, 0x00, 0x89, 0x3e, 0x53, 0x0a, 0x81, 0x25, 0x7f, 0x0e, 0x95,
  0x38, 0x7f, 0x00, 0x99, 0x24, 0x7f, 0x00, 0x99, 0x26, 0x70, 0x00, 0x99,
  0x2a, 0x74, 0x00, 0x99, 0x3c, 0x53, 0x10, 0x85, 0x38, 0x7f, 0x08, 0x89,
  0x24, 0x7f, 0x00, 0x89, 0x26, 0x70, 0x00, 0x89, 0x2a, 0x74, 0x00, 0x89,
  0x3c, 0x53, 0x18, 0x91, 0x25, 0x7f, 0x2a, 0x81, 0x25, 0x7f, 0x06, 0x91,
  0x24, 0x7f, 0x00, 0x99, 0x2a, 0x28, 0x00, 0x99, 0x3d, 0x53, 0x18, 0x89,
  0x2a, 0x28, 0x00, 0x89, 0x3d, 0x53, 0x0a, 0x81, 0x24, 0x7f, 0x0e, 0x95,
  0x35, 0x7f, 0x00, 0x99, 0x2a, 0x53, 0x10, 0x85, 0x35, 0x7f, 0x08, 0x89,
  0x2a, 0x53, 0x18, 0x91, 0x20, 0x7f, 0x00, 0x95, 0x38, 0x7f, 0x00, 0x99,
  0x24, 0x7f, 0x00, 0x99, 0x2a, 0x74, 0x00, 0x99, 0x3c, 0x53, 0x10, 0x85,
  0x38, 0x7f, 0x08, 0x89, 0x24, 0x7f, 0x00, 0x89, 0x2a, 0x74, 0x00, 0x89,
  0x3c, 0x53, 0x02, 0x86, 0x3d, 0x7f, 0x18, 0x81, 0x20, 0x7f, 0x18, 0xe6,
  0x4e, 0x3f, 0x04, 0xe6, 0x06, 0x3d, 0x06, 0xe6, 0x60, 0x3a, 0x06, 0xe6,
  0x4f, 0x3a, 0x06, 0x91, 0x22, 0x7f, 0x00, 0x96, 0x3f, 0x7f, 0x00, 0x99,
  0x2a, 0x30, 0x0e, 0xe6, 0x47, 0x3d, 0x0a, 0x89, 0x2a, 0x30, 0x00, 0xe6,
  0x4e, 0x3f, 0x06, 0xe6, 0x70, 0x3f, 0x02, 0xe6, 0x00, 0x40, 0x02, 0x81,
  0x22, 0x7f, 0x02, 0x86, 0x3f, 0x7f, 0x0c, 0x95, 0x38, 0x7f, 0x00, 0x99,
  0x2a, 0x47, 0x00, 0x99, 0x3e, 0x53, 0x10, 0x85, 0x38, 0x7f, 0x08, 0x89,
  0x2a, 0x47, 0x00, 0x89, 0x3e, 0x53, 0x18, 0x96, 0x41, 0x7f, 0x00, 0x99,
  0x24, 0x7f, 0x00, 0x99, 0x26, 0x7c, 0x00, 0x99, 0x2a, 0x74, 0x00, 0x99,
  0x3c, 0x53, 0x10, 0x83, 0x49, 0x7f, 0x00, 0x83, 0x46, 0x7f, 0x00, 0x83,
  0x3f, 0x7f, 0x06, 0x83, 0x42, 0x7f, 0x00, 0x83, 0x3d, 0x7f, 0x02, 0x89,
  0x24, 0x7f, 0x00, 0x89, 0x26, 0x7c, 0x00, 0x89, 0x2a, 0x74, 0x00, 0x89,
  0x3c, 0x53, 0x34, 0x86, 0x41, 0x7f, 0x14, 0x90, 0x3f, 0x7f, 0x00, 0x90,
  0x3c, 0x7f, 0x00, 0x90, 0x38, 0x7f, 0x00, 0x90, 0x35, 0x7f, 0x00, 0x93,
  0x4b, 0x7f, 0x00, 0x93, 0x48, 0x7f, 0x00, 0x93, 0x44, 0x7f, 0x00, 0x93,
  0x41, 0x7f, 0x00, 0x93, 0x3f, 0x7f, 0x00, 0x95, 0x35, 0x7f, 0x00, 0x96,
  0x3f, 0x7f, 0x00, 0x99, 0x2a, 0x0d, 0x00, 0x99, 0x3d, 0x53, 0x04, 0x80,
  0x3d, 0x7f, 0x00, 0x80, 0x3a, 0x7f, 0x00, 0x80, 0x36, 0x7f, 0x0c, 0x85,
  0x35, 0x7f, 0x08, 0x89, 0x2a, 0x0d, 0x00, 0x89, 0x3d, 0x53, 0x18, 0x91,
  0x20, 0x7f, 0x00, 0x95, 0x38, 0x7f, 0x00, 0x99, 0x2a, 0x47, 0x10, 0x85,
  0x38, 0x7f, 0x08, 0x81, 0x20, 0x7f, 0x00, 0x89, 0x2a, 0x47, 0x18, 0x91,
  0x22, 0x7f, 0x00, 0x99, 0x24, 0x7f, 0x00, 0x99, 0x2a, 0x64, 0x00, 0x99,
  0x3c, 0x53, 0x18, 0x89, 0x24, 0x7f, 0x00, 0x89, 0x2a, 0x64, 0x00, 0x89,
  0x3c, 0x53, 0x04, 0x81, 0x22, 0x7f, 0x14, 0x95, 0x38, 0x7f, 0x0e, 0x86,
  0x3f, 0x7f, 0x02, 0x85, 0x38, 0x7f, 0x20, 0x91, 0x22, 0x7f, 0x00, 0x96,
  0x3f, 0x7f, 0x00, 0x99, 0x2a, 0x36, 0x18, 0x81, 0x22, 0x7f, 0x00, 0x89,
  0x2a, 0x36, 0x08, 0x86, 0x3f, 0x7f, 0x10, 0x91, 0x25, 0x7f, 0x00, 0x99,
  0x2a, 0x53, 0x00, 0x99, 0x3e, 0x53, 0x18, 0x89, 0x2a, 0x53, 0x00, 0x89,
  0x3e, 0x53, 0x06, 0x81, 0x25, 0x7f, 0x04, 0xe6, 0x4e, 0x3f, 0x06, 0xe6,
  0x28, 0x3d, 0x06, 0xe6, 0x10, 0x3b, 0x02, 0x95, 0x38, 0x7f, 0x00, 0x96,
  0x3f, 0x7f, 0x00, 0x99, 0x24, 0x7f, 0x00, 0x99, 0x26, 0x70, 0x00, 0x99,
  0x2a, 0x74, 0x00, 0x99, 0x3c, 0x53, 0x04, 0xe6, 0x4f, 0x3a, 0x08, 0xe6,
  0x43, 0x3b, 0x04, 0x85, 0x38, 0x7f, 0x02, 0xe6, 0x3a, 0x3d, 0x06, 0x89,
  0x24, 0x7f, 0x00, 0x89, 0x26, 0x70, 0x00, 0x89, 0x2a, 0x74, 0x00, 0x89,
  0x3c, 0x53, 0x02, 0xe6, 0x00, 0x40, 0x16, 0x91, 0x25, 0x7f, 0x1a, 0x86,
  0x3f, 0x7f, 0x04, 0x81, 0x25, 0x7f, 0x12, 0x91, 0x24, 0x7f, 0x00, 0x96,
  0x41, 0x7f, 0x00, 0x99, 0x2a, 0x36, 0x00, 0x99, 0x3d, 0x53, 0x18, 0x89,
  0x2a, 0x36, 0x00, 0x89, 0x3d, 0x53, 0x04, 0x81, 0x24, 0x7f, 0x14, 0x95,
  0x35, 0x7f, 0x00, 0x99, 0x2a, 0x47, 0x10, 0x85, 0x35, 0x7f, 0x04, 0x86,
  0x41, 0x7f, 0x04, 0x89, 0x2a, 0x47, 0x18, 0x91, 0x20, 0x7f, 0x00, 0x95,
  0x38, 0x7f, 0x00, 0x96, 0x3f, 0x7f, 0x00, 0x99, 0x24, 0x7f, 0x00, 0x99,
  0x2a, 0x64, 0x00, 0x99, 0x3c, 0x53, 0x10, 0x85, 0x38, 0x7f, 0x08, 0x89,
  0x24, 0x7f, 0x00, 0x89, 0x2a, 0x64, 0x00, 0x89, 0x3c, 0x53, 0x0a, 0x81,
  0x20, 0x7f, 0x2c, 0x86, 0x3f, 0x7f, 0x12, 0x91, 0x22, 0x7f, 0x00, 0x95,
  0x38, 0x7f, 0x00, 0x96, 0x38, 0x72, 0x00, 0x99, 0x2a, 0x47, 0x10, 0x85,
  0x38, 0x7f, 0x08, 0x89, 0x2a, 0x47, 0x08, 0x81, 0x22, 0x7f, 0x10, 0x99,
  0x2a, 0x47, 0x00, 0x99, 0x3e, 0x53, 0x10, 0x86, 0x38, 0x72, 0x08, 0x89,
  0x2a, 0x47, 0x00, 0x89, 0x3e, 0x53, 0x18, 0x95, 0x38, 0x7f, 0x00, 0x96,
  0x38, 0x7f, 0x00, 0x99, 0x24, 0x7f, 0x00, 0x99, 0x26, 0x70, 0x00, 0x99,
  0x2a, 0x74, 0x00, 0x99, 0x3c, 0x53, 0x10, 0x85, 0x38, 0x7f, 0x08, 0x89,
  0x24, 0x7f, 0x00, 0x89, 0x26, 0x70, 0x00, 0x89, 0x2a, 0x74, 0x00, 0x89,
  0x3c, 0x53, 0x04, 0x83, 0x41, 0x7f, 0x00, 0x83, 0x3f, 0x7f, 0x10, 0x83,
  0x4b, 0x7f, 0x00, 0x83, 0x48, 0x7f, 0x00, 0x83, 0x44, 0x7f, 0x04, 0x95,
  0x3a, 0x7f, 0x10, 0x85, 0x3a, 0x7f, 0x20, 0x91, 0x20, 0x7f, 0x00, 0x93,
  0x4d, 0x7f, 0x00, 0x93, 0x49, 0x7f, 0x00, 0x93, 0x46, 0x7f, 0x00, 0x93,
  0x44, 0x7f, 0x00, 0x93, 0x42, 0x7f, 0x00, 0x99, 0x2e, 0x44, 0x00, 0x99,
  0x3d, 0x53, 0x14, 0x81, 0x20, 0x7f, 0x04, 0x89, 0x2e, 0x44, 0x00, 0x89,
  0x3d, 0x53, 0x18, 0x91, 0x20, 0x7f, 0x08, 0x86, 0x38, 0x7f, 0x14, 0x81,
  0x20, 0x7f, 0x14, 0x80, 0x3f, 0x7f, 0x00, 0x80, 0x3c, 0x7f, 0x00, 0x80,
  0x38, 0x7f, 0x00, 0x80, 0x35, 0x7f, 0x00, 0x90, 0x3d, 0x7f, 0x00, 0x90,
  0x3a, 0x7f, 0x00, 0x90, 0x36, 0x7f, 0x00, 0x91, 0x22, 0x7f, 0x00, 0x99,
  0x24, 0x7f, 0x00, 0x99, 0x2a, 0x74, 0x00, 0x99, 0x3c, 0x53, 0x18, 0x89,
  0x24, 0x7f, 0x00, 0x89, 0x2a, 0x74, 0x00, 0x89, 0x3c, 0x53, 0x0e, 0x81,
  0x22, 0x7f, 0x0a, 0x95, 0x38, 0x7f, 0x10, 0x85, 0x38, 0x7f, 0x20, 0x91,
  0x22, 0x7f, 0x00, 0x99, 0x2a, 0x2c, 0x18, 0x89, 0x2a, 0x2c, 0x02, 0x81,
  0x22, 0x7f, 0x16, 0x91, 0x25, 0x7f, 0x00, 0x99, 0x2a, 0x64, 0x00, 0x99,
  0x3e, 0x53, 0x18, 0x89, 0x2a, 0x64, 0x00, 0x89, 0x3e, 0x53, 0x08, 0x81,
  0x25, 0x7f, 0x10, 0x95, 0x38, 0x7f, 0x00, 0x99, 0x24, 0x7f, 0x00, 0x99,
  0x26, 0x7c, 0x00, 0x99, 0x2a, 0x74, 0x00, 0x99, 0x3c, 0x53, 0x10, 0x85,
  0x38, 0x7f, 0x08, 0x89, 0x24, 0x7f, 0x00, 0x89, 0x26, 0x7c, 0x00, 0x89,
  0x2a, 0x74, 0x00, 0x89, 0x3c, 0x53, 0x18, 0x91, 0x25, 0x7f, 0x1c, 0xe6,
  0x7a, 0x3d, 0x04, 0x81, 0x25, 0x7f, 0x06, 0xe6, 0x62, 0x3b, 0x06, 0xe6,
  0x60, 0x3a, 0x04, 0x91, 0x24, 0x7f, 0x00, 0x96, 0x38, 0x7f, 0x00, 0x99,
  0x2a, 0x21, 0x00, 0x99, 0x3d, 0x53, 0x02, 0xe6, 0x4f, 0x3a, 0x0a, 0xe6,
  0x7f, 0x3a, 0x04, 0xe6, 0x34, 0x3c, 0x06, 0xe6, 0x5e, 0x3e, 0x02, 0x89,
  0x2a, 0x21, 0x00, 0x89, 0x3d, 0x53, 0x04, 0x81, 0x24, 0x7f, 0x02, 0xe6,
  0x70, 0x3f, 0x06, 0xe6, 0x00, 0x40, 0x04, 0x86, 0x38, 0x7f, 0x08, 0x95,
  0x35, 0x7f, 0x00, 0x99, 0x2a, 0x53, 0x10, 0x85, 0x35, 0x7f, 0x08, 0x89,
  0x2a, 0x53, 0x18, 0x91, 0x20, 0x7f, 0x00, 0x95, 0x38, 0x7f, 0x00, 0x96,
  0x3a, 0x7f, 0x00, 0x99, 0x24, 0x7f, 0x00, 0x99, 0x2a, 0x74, 0x00, 0x99,
  0x3c, 0x53, 0x10, 0x85, 0x38, 0x7f, 0x08, 0x89, 0x24, 0x7f, 0x00, 0x89,
  0x2a, 0x74, 0x00, 0x89, 0x3c, 0x53, 0x18, 0x81, 0x20, 0x7f, 0x1a, 0x86,
  0x3a, 0x7f, 0x16, 0x91, 0x22, 0x7f, 0x00, 0x95, 0x38, 0x7f, 0x00, 0x96,
  0x3c, 0x7f, 0x00, 0x99, 0x2a, 0x47, 0x10, 0x85, 0x38, 0x7f, 0x08, 0x89,
  0x2a, 0x47, 0x0a, 0x81, 0x22, 0x7f, 0x0a, 0x86, 0x3c, 0x7f, 0x04, 0x99,
  0x2a, 0x53, 0x00, 0x99, 0x3e, 0x53, 0x18, 0x89, 0x2a, 0x53, 0x00, 0x89,
  0x3e, 0x53, 0x18, 0x96, 0x3d, 0x7f, 0x00, 0x99, 0x24, 0x7f, 0x00, 0x99,
  0x26, 0x70, 0x00, 0x99, 0x2a, 0x7f, 0x00, 0x99, 0x3c, 0x53, 0x18, 0x89,
  0x24, 0x7f, 0x00, 0x89, 0x26, 0x70, 0x00, 0x89, 0x2a, 0x7f, 0x00, 0x89,
  0x3c, 0x53, 0x38, 0x86, 0x3d, 0x7f, 0x0a, 0x83, 0x44, 0x7f, 0x06, 0x95,
  0x33, 0x7f, 0x00, 0x96, 0x3a, 0x6f, 0x00, 0x99, 0x2a, 0x30, 0x00, 0x99,
  0x3d, 0x53, 0x08, 0x83, 0x4d, 0x7f, 0x00, 0x83, 0x46, 0x7f, 0x08, 0x83,
  0x49, 0x7f, 0x00, 0x85, 0x33, 0x7f, 0x08, 0x89, 0x2a, 0x30, 0x00, 0x89,
  0x3d, 0x53, 0x08, 0x83, 0x42, 0x7f, 0x08, 0x86, 0x3a, 0x6f, 0x08, 0x91,
  0x20, 0x7f, 0x00, 0x95, 0x35, 0x7f, 0x00, 0x99, 0x2a, 0x3d, 0x10, 0x85,
  0x35, 0x7f, 0x04, 0x81, 0x20, 0x7f, 0x04, 0x89, 0x2a, 0x3d, 0x18, 0x80,
  0x3d, 0x7f, 0x00, 0x80, 0x3a, 0x7f, 0x00, 0x80, 0x36, 0x7f, 0x00, 0x90,
  0x41, 0x7f, 0x00, 0x90, 0x3d, 0x7f, 0x00, 0x90, 0x3a, 0x7f, 0x00, 0x90,
  0x36, 0x7f, 0x00, 0x91, 0x22, 0x7f, 0x00, 0x93, 0x49, 0x7f, 0x00, 0x93,
  0x46, 0x7f, 0x00, 0x93, 0x42, 0x7f, 0x00, 0x93, 0x3f, 0x7f, 0x00, 0x99,
  0x24, 0x7f, 0x00, 0x99, 0x2a, 0x74, 0x00, 0x99, 0x3c, 0x53, 0x16, 0x83,
  0x42, 0x7f, 0x02, 0x89, 0x24, 0x7f, 0x00, 0x89, 0x2a, 0x74, 0x00, 0x89,
  0x3c, 0x53, 0x04, 0x83, 0x46, 0x7f, 0x00, 0x83, 0x3f, 0x7f, 0x04, 0x83,
  0x49, 0x7f, 0x04, 0x81, 0x22, 0x7f, 0x0c, 0x95, 0x38, 0x7f, 0x10, 0x85,
  0x38, 0x7f, 0x20, 0x91, 0x22, 0x7f, 0x00, 0x96, 0x3f, 0x7f, 0x00, 0x99,
  0x26, 0x70, 0x00, 0x99, 0x2a, 0x47, 0x18, 0x89, 0x26, 0x70, 0x00, 0x89,
  0x2a, 0x47, 0x04, 0x81, 0x22, 0x7f, 0x14, 0x91, 0x25, 0x7f, 0x00, 0x93,
  0x49, 0x7f, 0x00, 0x93, 0x46, 0x7f, 0x00, 0x93, 0x42, 0x7f, 0x00, 0x93,
  0x3f, 0x7f, 0x00, 0x99, 0x2a, 0x47, 0x00, 0x99, 0x3e, 0x53, 0x18, 0x83,
  0x46, 0x7f, 0x00, 0x89, 0x2a, 0x47, 0x00, 0x89, 0x3e, 0x53, 0x04, 0x83,
  0x3f, 0x7f, 0x00, 0x86, 0x3f, 0x7f, 0x02, 0x83, 0x42, 0x7f, 0x04, 0x81,
  0x25, 0x7f, 0x00, 0x83, 0x49, 0x7f, 0x0e, 0x95, 0x38, 0x7f, 0x00, 0x96,
  0x41, 0x7f, 0x00, 0x99, 0x24, 0x7f, 0x00, 0x99, 0x2a, 0x74, 0x00, 0x99,
  0x3c, 0x53, 0x10, 0x85, 0x38, 0x7f, 0x08, 0x89, 0x24, 0x7f, 0x00, 0x89,
  0x2a, 0x74, 0x00, 0x89, 0x3c, 0x53, 0x18, 0x91, 0x25, 0x7f, 0x00, 0x99,
  0x26, 0x7c, 0x0e, 0x86, 0x41, 0x7f, 0x0a, 0x89, 0x26, 0x7c, 0x0e, 0x81,
  0x25, 0x7f, 0x0a, 0x80, 0x41, 0x7f, 0x00, 0x80, 0x3d, 0x7f, 0x00, 0x80,
  0x3a, 0x7f, 0x00, 0x80, 0x36, 0x7f, 0x00, 0x90, 0x3f, 0x7f, 0x00, 0x90,
  0x3c, 0x7f, 0x00, 0x90, 0x38, 0x7f, 0x00, 0x90, 0x35, 0x7f, 0x00, 0x91,
  0x24, 0x7f, 0x00, 0x93, 0x4b, 0x7f, 0x00, 0x93, 0x48, 0x7f, 0x00, 0x93,
  0x44, 0x7f, 0x00, 0x93, 0x41, 0x7f, 0x00, 0x94, 0x44, 0x7e, 0x00, 0x94,
  0x38, 0x7f, 0x00, 0x96, 0x3f, 0x7f, 0x00, 0x99, 0x2e, 0x44, 0x00, 0x99,
  0x3d, 0x53, 0x18, 0x89, 0x2e, 0x44, 0x00, 0x89, 0x3d, 0x53, 0x08, 0x81,
  0x24, 0x7f, 0x10, 0x95, 0x35, 0x7f, 0x10, 0x85, 0x35, 0x7f, 0x20, 0x91,
  0x20, 0x7f, 0x00, 0x95, 0x38, 0x7f, 0x00, 0x99, 0x24, 0x7f, 0x00, 0x99,
  0x26, 0x70, 0x00, 0x99, 0x2a, 0x74, 0x00, 0x99, 0x3c, 0x53, 0x10, 0x85,
  0x38, 0x7f, 0x08, 0x89, 0x24, 0x7f, 0x00, 0x89, 0x26, 0x70, 0x00, 0x89,
  0x2a, 0x74, 0x00, 0x89, 0x3c, 0x53, 0x10, 0x81, 0x20, 0x7f, 0x38, 0x86,
  0x3f, 0x7f, 0x00, 0x91, 0x22, 0x7f, 0x00, 0x95, 0x38, 0x7f, 0x00, 0x99,
  0x26, 0x44, 0x00, 0x99, 0x2a, 0x3d, 0x10, 0x85, 0x38, 0x7f, 0x08, 0x89,
  0x26, 0x44, 0x00, 0x89, 0x2a, 0x3d, 0x0e, 0x81, 0x22, 0x7f, 0x0a, 0x99,
  0x26, 0x3b, 0x00, 0x99, 0x2a, 0x64, 0x00, 0x99, 0x3e, 0x53, 0x02, 0x84,
  0x44, 0x7e, 0x02, 0x83, 0x4b, 0x7f, 0x00, 0x83, 0x48, 0x7f, 0x00, 0x83,
  0x41, 0x7f, 0x00, 0x84, 0x38, 0x7f, 0x04, 0x83, 0x44, 0x7f, 0x10, 0x89,
  0x26, 0x3b, 0x00, 0x89, 0x2a, 0x64, 0x00, 0x89, 0x3e, 0x53, 0x18, 0x91,
  0x1d, 0x7f, 0x00, 0x93, 0x44, 0x7f, 0x00, 0x94, 0x44, 0x7f, 0x00, 0x94,
  0x38, 0x7f, 0x00, 0x96, 0x38, 0x7e, 0x00, 0x99, 0x24, 0x7f, 0x00, 0x99,
  0x26, 0x50, 0x00, 0x99, 0x2a, 0x74, 0x00, 0x99, 0x3c, 0x53, 0x14, 0x83,
  0x44, 0x7f, 0x00, 0x84, 0x44, 0x7f, 0x00, 0x84, 0x38, 0x7f, 0x04, 0x89,
  0x24, 0x7f, 0x00, 0x89, 0x26, 0x50, 0x00, 0x89, 0x2a, 0x74, 0x00, 0x89,
  0x3c, 0x53, 0x04, 0x86, 0x38, 0x7e, 0x14, 0x93, 0x46, 0x7f, 0x00, 0x94,
  0x46, 0x7f, 0x00, 0x94, 0x3a, 0x7f, 0x00, 0x95, 0x38, 0x7f, 0x00, 0x96,
  0x3a, 0x78, 0x00, 0x99, 0x26, 0x50, 0x04, 0x81, 0x1d, 0x7f, 0x0c, 0x85,
  0x38, 0x7f, 0x04, 0x84, 0x3a, 0x7f, 0x00, 0x86, 0x3a, 0x78, 0x04, 0x89,
  0x26, 0x50, 0x04, 0x84, 0x46, 0x7f, 0x04, 0x83, 0x46, 0x7f, 0x08, 0xe6,
  0x6b, 0x3e, 0x06, 0xe6, 0x33, 0x3b, 0x02, 0x91, 0x20, 0x7f, 0x00, 0x93,
  0x49, 0x7f, 0x00, 0x94, 0x49, 0x7f, 0x00, 0x94, 0x3d, 0x7f, 0x00, 0x96,
  0x3d, 0x7c, 0x00, 0x99, 0x26, 0x5f, 0x00, 0x99, 0x2e, 0x5f, 0x00, 0x99,
  0x3d, 0x53, 0x06, 0xe6, 0x4f, 0x3a, 0x12, 0x84, 0x49, 0x7f, 0x00, 0x84,
  0x3d, 0x7f, 0x00, 0x89, 0x26, 0x5f, 0x00, 0x89, 0x2e, 0x5f, 0x00, 0x89,
  0x3d, 0x53, 0x04, 0x86, 0x3d, 0x7c, 0x04, 0x81, 0x20, 0x7f, 0x00, 0xe6,
  0x04, 0x3c, 0x08, 0x83, 0x49, 0x7f, 0x00, 0xe6, 0x0c, 0x3f, 0x08, 0x91,
  0x1d, 0x7f, 0x00, 0x93, 0x46, 0x7f, 0x00, 0x94, 0x46, 0x7f, 0x00, 0x94,
  0x3a, 0x7f, 0x00, 0x95, 0x38, 0x7f, 0x00, 0xe6, 0x70, 0x3f, 0x00, 0x96,
  0x3a, 0x72, 0x00, 0x99, 0x26, 0x70, 0x04, 0xe6, 0x00, 0x40, 0x0c, 0x85,
  0x38, 0x7f, 0x04, 0x86, 0x3a, 0x72, 0x04, 0x84, 0x46, 0x7f, 0x00, 0x89,
  0x26, 0x70, 0x02, 0x81, 0x1d, 0x7f, 0x06, 0x83, 0x46, 0x7f, 0x00, 0x84,
  0x3a, 0x7f, 0x10, 0x80, 0x3f, 0x7f, 0x00, 0x80, 0x3c, 0x7f, 0x00, 0x80,
  0x38, 0x7f, 0x00, 0x80, 0x35, 0x7f, 0x00, 0x90, 0x41, 0x7f, 0x00, 0x90,
  0x3d, 0x7f, 0x00, 0x90, 0x3a, 0x7f, 0x00, 0x90, 0x36, 0x7f, 0x00, 0x91,
  0x1b, 0x7f, 0x00, 0x92, 0x42, 0x7f, 0x00, 0x92, 0x3d, 0x7f, 0x00, 0x92,
  0x3a, 0x7f, 0x00, 0x93, 0x55, 0x7f, 0x00, 0x96, 0x41, 0x7f, 0x00, 0x99,
  0x24, 0x7f, 0x00, 0x99, 0x2a, 0x70, 0x00, 0x99, 0x3c, 0x53, 0x18, 0x89,
  0x24, 0x7f, 0x00, 0x89, 0x2a, 0x70, 0x00, 0x89, 0x3c, 0x53, 0x0a, 0x81,
  0x1b, 0x7f, 0x0e, 0x95, 0x38, 0x7f, 0x10, 0x85, 0x38, 0x7f, 0x20, 0x91,
  0x1b, 0x7f, 0x00, 0x99, 0x2a, 0x36, 0x08, 0x86, 0x41, 0x7f, 0x10, 0x89,
  0x2a, 0x36, 0x0a, 0x81, 0x1b, 0x7f, 0x0e, 0x91, 0x1b, 0x7f, 0x00, 0x96,
  0x41, 0x7f, 0x00, 0x99, 0x2a, 0x64, 0x00, 0x99, 0x3e, 0x53, 0x18, 0x89,
  0x2a, 0x64, 0x00, 0x89, 0x3e, 0x53, 0x0a, 0x81, 0x1b, 0x7f, 0x0e, 0x95,
  0x38, 0x7f, 0x00, 0x99, 0x24, 0x7f, 0x00, 0x99, 0x26, 0x70, 0x00, 0x99,
  0x2a, 0x74, 0x00, 0x99, 0x3c, 0x53, 0x00, 0x99, 0x27, 0x64, 0x10, 0x85,
  0x38, 0x7f, 0x08, 0x89, 0x24, 0x7f, 0x00, 0x89, 0x26, 0x70, 0x00, 0x89,
  0x2a, 0x74, 0x00, 0x89, 0x3c, 0x53, 0x00, 0x89, 0x27, 0x64, 0x18, 0x91,
  0x24, 0x7f, 0x04, 0x86, 0x41, 0x7f, 0x1c, 0x82, 0x3d, 0x7f, 0x02, 0x81,
  0x24, 0x7f, 0x00, 0x83, 0x55, 0x7f, 0x08, 0x82, 0x3a, 0x7f, 0x06, 0x80,
  0x41, 0x7f, 0x00, 0x80, 0x3d, 0x7f, 0x00, 0x80, 0x3a, 0x7f, 0x00, 0x80,
  0x36, 0x7f, 0x00, 0x90, 0x3f, 0x7f, 0x00, 0x90, 0x3c, 0x7f, 0x00, 0x90,
  0x38, 0x7f, 0x00, 0x91, 0x22, 0x7f, 0x00, 0x92, 0x44, 0x7f, 0x00, 0x92,
  0x3f, 0x7f, 0x00, 0x92, 0x3c, 0x7f, 0x00, 0x93, 0x57, 0x7f, 0x00, 0x96,
  0x3f, 0x7f, 0x00, 0x99, 0x2a, 0x28, 0x00, 0x99, 0x3d, 0x53, 0x14, 0x82,
  0x42, 0x7f, 0x04, 0x89, 0x2a, 0x28, 0x00, 0x89, 0x3d, 0x53, 0x0a, 0x81,
  0x22, 0x7f, 0x0e, 0x95, 0x35, 0x7f, 0x00, 0x99, 0x2a, 0x53, 0x10, 0x85,
  0x35, 0x7f, 0x08, 0x89, 0x2a, 0x53, 0x18, 0x91, 0x20, 0x7f, 0x00, 0x95,
  0x38, 0x7f, 0x00, 0x99, 0x24, 0x7f, 0x00, 0x99, 0x2a, 0x74, 0x00, 0x99,
  0x3c, 0x53, 0x10, 0x85, 0x38, 0x7f, 0x08, 0x89, 0x24, 0x7f, 0x00, 0x89,
  0x2a, 0x74, 0x00, 0x89, 0x3c, 0x53, 0x0a, 0x81, 0x20, 0x7f, 0x20, 0x86,
  0x3f, 0x7f, 0x1e, 0x91, 0x20, 0x7f, 0x00, 0x99, 0x2a, 0x30, 0x18, 0x89,
  0x2a, 0x30, 0x0a, 0x81, 0x20, 0x7f, 0x0e, 0x95, 0x38, 0x7f, 0x00, 0x99,
  0x2a, 0x47, 0x00, 0x99, 0x3e, 0x53, 0x10, 0x85, 0x38, 0x7f, 0x08, 0x89,
  0x2a, 0x47, 0x00, 0x89, 0x3e, 0x53, 0x18, 0x96, 0x38, 0x7f, 0x00, 0x99,
  0x24, 0x7f, 0x00, 0x99, 0x26, 0x7c, 0x00, 0x99, 0x2a, 0x74, 0x00, 0x99,
  0x3c, 0x53, 0x00, 0x99, 0x27, 0x74, 0x18, 0x89, 0x24, 0x7f, 0x00, 0x89,
  0x26, 0x7c, 0x00, 0x89, 0x2a, 0x74, 0x00, 0x89, 0x3c, 0x53, 0x00, 0x89,
  0x27, 0x74, 0x02, 0x86, 0x38, 0x7f, 0x16, 0x96, 0x3a, 0x7f, 0x14, 0x86,
  0x3a, 0x7f, 0x14, 0xe6, 0x47, 0x3d, 0x08, 0x91, 0x1b, 0x7f, 0x00, 0x93,
  0x50, 0x7f, 0x00, 0x95, 0x35, 0x7f, 0x00, 0xe6, 0x10, 0x3b, 0x00, 0x96,
  0x3d, 0x7f, 0x00, 0x99, 0x2a, 0x0d, 0x00, 0x99, 0x3d, 0x53, 0x04, 0x83,
  0x57, 0x7f, 0x02, 0xe6, 0x4f, 0x3a, 0x0a, 0x85, 0x35, 0x7f, 0x08, 0x89,
  0x2a, 0x0d, 0x00, 0x89, 0x3d, 0x53, 0x02, 0xe6, 0x46, 0x3c, 0x04, 0x86,
  0x3d, 0x7f, 0x04, 0x81, 0x1b, 0x7f, 0x00, 0xe6, 0x2f, 0x3f, 0x08, 0xe6,
  0x70, 0x3f, 0x04, 0xe6, 0x00, 0x40, 0x02, 0x91, 0x20, 0x7f, 0x00, 0x95,
  0x38, 0x7f, 0x00, 0x96, 0x3a, 0x7f, 0x00, 0x99, 0x2a, 0x47, 0x10, 0x85,
  0x38, 0x7f, 0x04, 0x86, 0x3a, 0x7f, 0x04, 0x89, 0x2a, 0x47, 0x0a, 0x81,
  0x20, 0x7f, 0x0e, 0x80, 0x3f, 0x7f, 0x00, 0x80, 0x3c, 0x7f, 0x00, 0x80,
  0x38, 0x7f, 0x00, 0x90, 0x3f, 0x7f, 0x00, 0x90, 0x3c, 0x7f, 0x00, 0x90,
  0x38, 0x7f, 0x00, 0x91, 0x1d, 0x7f, 0x00, 0x93, 0x57, 0x7f, 0x00, 0x96,
  0x3f, 0x7f, 0x00, 0x99, 0x24, 0x7f, 0x00, 0x99, 0x2a, 0x64, 0x00, 0x99,
  0x3c, 0x53, 0x02, 0x83, 0x50, 0x7f, 0x16, 0x89, 0x24, 0x7f, 0x00, 0x89,
  0x2a, 0x64, 0x00, 0x89, 0x3c, 0x53, 0x0a, 0x81, 0x1d, 0x7f, 0x0e, 0x95,
  0x38, 0x7f, 0x10, 0x85, 0x38, 0x7f, 0x20, 0x91, 0x1d, 0x7f, 0x00, 0x99,
  0x2a, 0x36, 0x12, 0x86, 0x3f, 0x7f, 0x06, 0x89, 0x2a, 0x36, 0x0a, 0x81,
  0x1d, 0x7f, 0x0e, 0x91, 0x24, 0x7f, 0x00, 0x96, 0x3f, 0x7f, 0x00, 0x99,
  0x2a, 0x53, 0x00, 0x99, 0x3e, 0x53, 0x18, 0x89, 0x2a, 0x53, 0x00, 0x89,
  0x3e, 0x53, 0x0a, 0x81, 0x24, 0x7f, 0x08, 0xe6, 0x5e, 0x3e, 0x06, 0x95,
  0x38, 0x7f, 0x00, 0x99, 0x24, 0x7f, 0x00, 0x99, 0x26, 0x70, 0x00, 0x99,
  0x2a, 0x74, 0x00, 0x99, 0x3c, 0x53, 0x00, 0x99, 0x27, 0x74, 0x00, 0xe6,
  0x22, 0x3b, 0x06, 0xe6, 0x4f, 0x3a, 0x0a, 0x85, 0x38, 0x7f, 0x04, 0xe6,
  0x16, 0x3c, 0x04, 0x89, 0x24, 0x7f, 0x00, 0x89, 0x26, 0x70, 0x00, 0x89,
  0x2a, 0x74, 0x00, 0x89, 0x3c, 0x53, 0x00, 0x89, 0x27, 0x74, 0x04, 0xe6,
  0x2a, 0x3e, 0x06, 0xe6, 0x70, 0x3f, 0x08, 0xe6, 0x00, 0x40, 0x06, 0x91,
  0x24, 0x7f, 0x06, 0x86, 0x3f, 0x7f, 0x1a, 0x82, 0x3f, 0x7f, 0x02, 0x81,
  0x24, 0x7f, 0x06, 0x82, 0x3c, 0x7f, 0x08, 0x80, 0x3f, 0x7f, 0x00, 0x80,
  0x3c, 0x7f, 0x00, 0x80, 0x38, 0x7f, 0x00, 0x90, 0x41, 0x7f, 0x00, 0x90,
  0x3d, 0x7f, 0x00, 0x90, 0x3a, 0x7f, 0x00, 0x91, 0x22, 0x7f, 0x00, 0x92,
  0x41, 0x7f, 0x00, 0x92, 0x3d, 0x7f, 0x00, 0x93, 0x59, 0x7f, 0x00, 0x96,
  0x3d, 0x7f, 0x00, 0x99, 0x2a, 0x36, 0x00, 0x99, 0x3d, 0x53, 0x02, 0x83,
  0x57, 0x7f, 0x16, 0x89, 0x2a, 0x36, 0x00, 0x89, 0x3d, 0x53, 0x0a, 0x81,
  0x22, 0x7f, 0x0e, 0x95, 0x35, 0x7f, 0x00, 0x99, 0x2a, 0x47, 0x10, 0x85,
  0x35, 0x7f, 0x08, 0x89, 0x2a, 0x47, 0x18, 0x95, 0x38, 0x7f, 0x00, 0x99,
  0x24, 0x7f, 0x00, 0x99, 0x2a, 0x64, 0x00, 0x99, 0x3c, 0x53, 0x0e, 0x86,
  0x3d, 0x7f, 0x02, 0x85, 0x38, 0x7f, 0x08, 0x89, 0x24, 0x7f, 0x00, 0x89,
  0x2a, 0x64, 0x00, 0x89, 0x3c, 0x53, 0x18, 0x96, 0x3c, 0x68, 0x1c, 0x86,
  0x3c, 0x68, 0x14, 0x91, 0x22, 0x7f, 0x00, 0x95, 0x38, 0x7f, 0x00, 0x96,
  0x3a, 0x78, 0x00, 0x99, 0x2a, 0x47, 0x10, 0x85, 0x38, 0x7f, 0x08, 0x89,
  0x2a, 0x47, 0x0a, 0x81, 0x22, 0x7f, 0x0e, 0x91, 0x22, 0x7f, 0x00, 0x99,
  0x2a, 0x47, 0x00, 0x99, 0x3e, 0x53, 0x18, 0x89, 0x2a, 0x47, 0x00, 0x89,
  0x3e, 0x53, 0x06, 0x86, 0x3a, 0x78, 0x04, 0x81, 0x22, 0x7f, 0x0a, 0x83,
  0x59, 0x7f, 0x04, 0x92, 0x3f, 0x7f, 0x00, 0x92, 0x3c, 0x7f, 0x00, 0x93,
  0x5c, 0x7f, 0x00, 0x95, 0x38, 0x7f, 0x00, 0xb6, 0x01, 0x1c, 0x00, 0x96,
  0x38, 0x76, 0x00, 0x99, 0x24, 0x7f, 0x00, 0x99, 0x26, 0x70, 0x00, 0x99,
  0x2a, 0x74, 0x00, 0x99, 0x3c, 0x53, 0x00, 0x99, 0x27, 0x64, 0x06, 0x82,
  0x3d, 0x7f, 0x0a, 0x85, 0x38, 0x7f, 0x08, 0x86, 0x38, 0x76, 0x00, 0x89,
  0x24, 0x7f, 0x00, 0x89, 0x26, 0x70, 0x00, 0x89, 0x2a, 0x74, 0x00, 0x89,
  0x3c, 0x53, 0x00, 0x89, 0x27, 0x64, 0x0a, 0x82, 0x41, 0x7f, 0x0e, 0x91,
  0x24, 0x7f, 0x00, 0x93, 0x5a, 0x7f, 0x00, 0x95, 0x3a, 0x7f, 0x00, 0xb6,
  0x01, 0x00, 0x00, 0x96, 0x3a, 0x7e, 0x02, 0x83, 0x5c, 0x7f, 0x0e, 0x85,
  0x3a, 0x7f, 0x04, 0x86, 0x3a, 0x7e, 0x0e, 0x81, 0x24, 0x7f, 0x0e, 0x91,
  0x22, 0x7f, 0x00, 0x93, 0x59, 0x7f, 0x00, 0x96, 0x3d, 0x7e, 0x00, 0x99,
  0x2e, 0x44, 0x00, 0x99, 0x3d, 0x53, 0x02, 0x83, 0x5a, 0x7f, 0x16, 0x89,
  0x2e, 0x44, 0x00, 0x89, 0x3d, 0x53, 0x04, 0x86, 0x3d, 0x7e, 0x06, 0x81,
  0x22, 0x7f, 0x0e, 0x93, 0x55, 0x7f, 0x00, 0x96, 0x3a, 0x78, 0x08, 0x83,
  0x59, 0x7f, 0x0a, 0x86, 0x3a, 0x78, 0x0c, 0x82, 0x3c, 0x7f, 0x12, 0x80,
  0x41, 0x7f, 0x00, 0x80, 0x3d, 0x7f, 0x00, 0x80, 0x3a, 0x7f, 0x00, 0x82,
  0x3f, 0x7f, 0x00, 0x90, 0x41, 0x7f, 0x00, 0x90, 0x3d, 0x7f, 0x00, 0x90,
  0x3a, 0x7f, 0x00, 0x90, 0x36, 0x7f, 0x00, 0x91, 0x1b, 0x7f, 0x00, 0x92,
  0x42, 0x7f, 0x00, 0x92, 0x3d, 0x7f, 0x00, 0x92, 0x3a, 0x7f, 0x00, 0x96,
  0x3d, 0x7e, 0x00, 0x99, 0x24, 0x7f, 0x00, 0x99, 0x2a, 0x74, 0x00, 0x99,
  0x3c, 0x53, 0x04, 0x82, 0x44, 0x7f, 0x14, 0x89, 0x24, 0x7f, 0x00, 0x89,
  0x2a, 0x74, 0x00, 0x89, 0x3c, 0x53, 0x0a, 0x81, 0x1b, 0x7f, 0x0e, 0x95,
  0x38, 0x7f, 0x10, 0x85, 0x38, 0x7f, 0x20, 0x91, 0x1b, 0x7f, 0x00, 0x99,
  0x2a, 0x2c, 0x18, 0x89, 0x2a, 0x2c, 0x0a, 0x81, 0x1b, 0x7f, 0x0e, 0x91,
  0x24, 0x7f, 0x00, 0x99, 0x2a, 0x64, 0x00, 0x99, 0x3e, 0x53, 0x0a, 0x86,
  0x3d, 0x7e, 0x0a, 0xe6, 0x4c, 0x3e, 0x04, 0x89, 0x2a, 0x64, 0x00, 0x89,
  0x3e, 0x53, 0x06, 0xe6, 0x46, 0x3c, 0x04, 0x81, 0x24, 0x7f, 0x02, 0xe6,
  0x7f, 0x3a, 0x06, 0xe6, 0x60, 0x3a, 0x06, 0x95, 0x38, 0x7f, 0x00, 0xb6,
  0x01, 0x21, 0x00, 0x96, 0x3f, 0x76, 0x00, 0x99, 0x24, 0x7f, 0x00, 0x99,
  0x26, 0x7c, 0x00, 0x99, 0x2a, 0x74, 0x00, 0x99, 0x3c, 0x53, 0x00, 0x99,
  0x27, 0x64, 0x04, 0xe6, 0x22, 0x3b, 0x04, 0xe6, 0x46, 0x3c, 0x06, 0xe6,
  0x3c, 0x3f, 0x02, 0x85, 0x38, 0x7f, 0x06, 0xe6, 0x70, 0x3f, 0x02, 0x89,
  0x24, 0x7f, 0x00, 0x89, 0x26, 0x7c, 0x00, 0x89, 0x2a, 0x74, 0x00, 0x89,
  0x3c, 0x53, 0x00, 0x89, 0x27, 0x64, 0x02, 0xe6, 0x00, 0x40, 0x10, 0x86,
  0x3f, 0x76, 0x06, 0x91, 0x24, 0x7f, 0x22, 0x81, 0x24, 0x7f, 0x08, 0x82,
  0x3d, 0x7f, 0x06, 0x80, 0x41, 0x7f, 0x00, 0x80, 0x3d, 0x7f, 0x00, 0x80,
  0x3a, 0x7f, 0x00, 0x80, 0x36, 0x7f, 0x00, 0x90, 0x3f, 0x7f, 0x00, 0x90,
  0x3c, 0x7f, 0x00, 0x90, 0x38, 0x7f, 0x00, 0x91, 0x22, 0x7f, 0x00, 0x92,
  0x44, 0x7f, 0x00, 0x92, 0x3f, 0x7f, 0x00, 0x92, 0x3c, 0x7f, 0x00, 0x93,
  0x57, 0x7f, 0x00, 0xb6, 0x01, 0x00, 0x00, 0x96, 0x3c, 0x7e, 0x00, 0x99,
  0x2a, 0x21, 0x00, 0x99, 0x3d, 0x53, 0x0a, 0x83, 0x55, 0x7f, 0x02, 0x82,
  0x3a, 0x7f, 0x0c, 0x89, 0x2a, 0x21, 0x00, 0x89, 0x3d, 0x53, 0x0a, 0x81,
  0x22, 0x7f, 0x02, 0x82, 0x42, 0x7f, 0x0c, 0x95, 0x35, 0x7f, 0x00, 0x99,
  0x2a, 0x53, 0x10, 0x85, 0x35, 0x7f, 0x08, 0x89, 0x2a, 0x53, 0x18, 0x91,
  0x20, 0x7f, 0x00, 0x95, 0x38, 0x7f, 0x00, 0x99, 0x24, 0x7f, 0x00, 0x99,
  0x2a, 0x74, 0x00, 0x99, 0x3c, 0x53, 0x10, 0x85, 0x38, 0x7f, 0x08, 0x89,
  0x24, 0x7f, 0x00, 0x89, 0x2a, 0x74, 0x00, 0x89, 0x3c, 0x53, 0x02, 0x86,
  0x3c, 0x7e, 0x08, 0x81, 0x20, 0x7f, 0x0e, 0x96, 0x3a, 0x66, 0x16, 0x86,
  0x3a, 0x66, 0x1a, 0x91, 0x20, 0x7f, 0x00, 0x95, 0x38, 0x7f, 0x00, 0x96,
  0x38, 0x7f, 0x00, 0x99, 0x2a, 0x47, 0x10, 0x85, 0x38, 0x7f, 0x08, 0x89,
  0x2a, 0x47, 0x0a, 0x81, 0x20, 0x7f, 0x0e, 0x99, 0x2a, 0x53, 0x00, 0x99,
  0x3e, 0x53, 0x18, 0x89, 0x2a, 0x53, 0x00, 0x89, 0x3e, 0x53, 0x10, 0x83,
  0x57, 0x7f, 0x08, 0x93, 0x50, 0x7f, 0x00, 0x99, 0x24, 0x7f, 0x00, 0x99,
  0x26, 0x70, 0x00, 0x99, 0x2a, 0x7f, 0x00, 0x99, 0x3c, 0x53, 0x00, 0x99,
  0x27, 0x74, 0x18, 0x89, 0x24, 0x7f, 0x00, 0x89, 0x26, 0x70, 0x00, 0x89,
  0x2a, 0x7f, 0x00, 0x89, 0x3c, 0x53, 0x00, 0x89, 0x27, 0x74, 0x20, 0x86,
  0x38, 0x7f, 0x12, 0xe6, 0x3c, 0x3f, 0x04, 0xe6, 0x04, 0x3c, 0x08, 0xe6,
  0x4f, 0x3a, 0x0a, 0x91, 0x1b, 0x7f, 0x00, 0x95, 0x33, 0x7f, 0x00, 0xb6,
  0x01, 0x3d, 0x00, 0x96, 0x38, 0x7f, 0x00, 0x99, 0x2a, 0x30, 0x00, 0x99,
  0x3d, 0x53, 0x0a, 0xe6, 0x46, 0x3c, 0x06, 0x85, 0x33, 0x7f, 0x02, 0xe6,
  0x1e, 0x3f, 0x06, 0x89, 0x2a, 0x30, 0x00, 0x89, 0x3d, 0x53, 0x00, 0xe6,
  0x5f, 0x3f, 0x02, 0xe6, 0x00, 0x40, 0x08, 0x81, 0x1b, 0x7f, 0x0a, 0x86,
  0x38, 0x7f, 0x04, 0x91, 0x1b, 0x7f, 0x00, 0x95, 0x35, 0x7f, 0x00, 0x99,
  0x2a, 0x3d, 0x10, 0x85, 0x35, 0x7f, 0x08, 0x89, 0x2a, 0x3d, 0x0a, 0x81,
  0x1b, 0x7f, 0x0e, 0x80, 0x3f, 0x7f, 0x00, 0x80, 0x3c, 0x7f, 0x00, 0x80,
  0x38, 0x7f, 0x00, 0x90, 0x3f, 0x7f, 0x00, 0x90, 0x3c, 0x7f, 0x00, 0x90,
  0x38, 0x7f, 0x00, 0x91, 0x1d, 0x7f, 0x00, 0x92, 0x38, 0x7f, 0x00, 0xb6,
  0x01, 0x00, 0x00, 0x96, 0x3f, 0x7f, 0x00, 0x99, 0x24, 0x7f, 0x00, 0x99,
  0x2a, 0x74, 0x00, 0x99, 0x3c, 0x53, 0x18, 0x89, 0x24, 0x7f, 0x00, 0x89,
  0x2a, 0x74, 0x00, 0x89, 0x3c, 0x53, 0x0a, 0x81, 0x1d, 0x7f, 0x0e, 0x95,
  0x38, 0x7f, 0x10, 0x85, 0x38, 0x7f, 0x16, 0x86, 0x3f, 0x7f, 0x0a, 0x91,
  0x1d, 0x7f, 0x00, 0x96, 0x3d, 0x70, 0x00, 0x99, 0x2a, 0x47, 0x18, 0x89,
  0x2a, 0x47, 0x0a, 0x81, 0x1d, 0x7f, 0x0e, 0x91, 0x1d, 0x7f, 0x00, 0x99,
  0x2a, 0x47, 0x00, 0x99, 0x3e, 0x53, 0x16, 0x86, 0x3d, 0x70, 0x02, 0x89,
  0x2a, 0x47, 0x00, 0x89, 0x3e, 0x53, 0x0a, 0x81, 0x1d, 0x7f, 0x04, 0x82,
  0x3f, 0x7f, 0x00, 0x82, 0x3c, 0x7f, 0x02, 0x82, 0x38, 0x7f, 0x08, 0x92,
  0x41, 0x7f, 0x00, 0x92, 0x3d, 0x7f, 0x00, 0x95, 0x38, 0x7f, 0x00, 0x96,
  0x3d, 0x7f, 0x00, 0x99, 0x24, 0x7f, 0x00, 0x99, 0x26, 0x7c, 0x00, 0x99,
  0x2a, 0x74, 0x00, 0x99, 0x3c, 0x53, 0x00, 0x99, 0x27, 0x64, 0x10, 0x85,
  0x38, 0x7f, 0x08, 0x89, 0x24, 0x7f, 0x00, 0x89, 0x26, 0x7c, 0x00, 0x89,
  0x2a, 0x74, 0x00, 0x89, 0x3c, 0x53, 0x00, 0x89, 0x27, 0x64, 0x18, 0x91,
  0x24, 0x7f, 0x22, 0x81, 0x24, 0x7f, 0x0e, 0x80, 0x3f, 0x7f, 0x00, 0x80,
  0x3c, 0x7f, 0x00, 0x80, 0x38, 0x7f, 0x00, 0x90, 0x41, 0x7f, 0x00, 0x90,
  0x3d, 0x7f, 0x00, 0x90, 0x3a, 0x7f, 0x00, 0x91, 0x22, 0x7f, 0x00, 0x99,
  0x2e, 0x44, 0x00, 0x99, 0x3d, 0x53, 0x18, 0x89, 0x2e, 0x44, 0x00, 0x89,
  0x3d, 0x53, 0x0a, 0x81, 0x22, 0x7f, 0x0e, 0x95, 0x35, 0x7f, 0x10, 0x85,
  0x35, 0x7f, 0x10, 0x86, 0x3d, 0x7f, 0x10, 0x94, 0x50, 0x7f, 0x00, 0x94,
  0x44, 0x7f, 0x00, 0x95, 0x38, 0x7f, 0x00, 0x99, 0x24, 0x7f, 0x00, 0x99,
  0x2a, 0x74, 0x00, 0x99, 0x3c, 0x53, 0x10, 0x85, 0x38, 0x7f, 0x04, 0x84,
  0x44, 0x7f, 0x04, 0x89, 0x24, 0x7f, 0x00, 0x89, 0x2a, 0x74, 0x00, 0x89,
  0x3c, 0x53, 0x08, 0x84, 0x50, 0x7f, 0x10, 0x94, 0x50, 0x7f, 0x00, 0x94,
  0x44, 0x7f, 0x1a, 0x84, 0x50, 0x7f, 0x04, 0x84, 0x44, 0x7f, 0x12, 0x91,
  0x20, 0x7f, 0x00, 0x95, 0x38, 0x7f, 0x00, 0x99, 0x2a, 0x3d, 0x10, 0x85,
  0x38, 0x7f, 0x08, 0x89, 0x2a, 0x3d, 0x0a, 0x81, 0x20, 0x7f, 0x0e, 0x94,
  0x50, 0x7f, 0x00, 0x94, 0x44, 0x7f, 0x00, 0x99, 0x2a, 0x64, 0x00, 0x99,
  0x3e, 0x53, 0x0e, 0x84, 0x50, 0x7f, 0x08, 0x84, 0x44, 0x7f, 0x02, 0x89,
  0x2a, 0x64, 0x00, 0x89, 0x3e, 0x53, 0x18, 0x91, 0x25, 0x7f, 0x00, 0x94,
  0x50, 0x7f, 0x00, 0x94, 0x44, 0x7f, 0x00, 0x96, 0x38, 0x7f, 0x00, 0x99,
  0x24, 0x7f, 0x00, 0x99, 0x26, 0x7d, 0x00, 0x99, 0x2a, 0x74, 0x00, 0x99,
  0x3c, 0x53, 0x00, 0x99, 0x27, 0x7d, 0x16, 0x84, 0x50, 0x7f, 0x02, 0x84,
  0x44, 0x7f, 0x00, 0x86, 0x38, 0x7f, 0x00, 0x89, 0x24, 0x7f, 0x00, 0x89,
  0x26, 0x7d, 0x00, 0x89, 0x2a, 0x74, 0x00, 0x89, 0x3c, 0x53, 0x00, 0x89,
  0x27, 0x7d, 0x0a, 0x81, 0x25, 0x7f, 0x0e, 0x91, 0x22, 0x7f, 0x00, 0x94,
  0x52, 0x7f, 0x00, 0x94, 0x46, 0x7f, 0x00, 0x95, 0x38, 0x7f, 0x00, 0x96,
  0x3a, 0x7f, 0x00, 0x99, 0x27, 0x69, 0x10, 0x85, 0x38, 0x7f, 0x04, 0x86,
  0x3a, 0x7f, 0x02, 0x84, 0x52, 0x7f, 0x02, 0x89, 0x27, 0x69, 0x02, 0x84,
  0x46, 0x7f, 0x08, 0x81, 0x22, 0x7f, 0x04, 0xe6, 0x67, 0x3c, 0x08, 0xe6,
  0x4f, 0x3a, 0x02, 0x94, 0x55, 0x7f, 0x00, 0x94, 0x49, 0x7f, 0x00, 0x96,
  0x3d, 0x7f, 0x00, 0x99, 0x2e, 0x5f, 0x00, 0x99, 0x3d, 0x53, 0x00, 0x99,
  0x27, 0x55, 0x14, 0xe6, 0x76, 0x3c, 0x02, 0x84, 0x55, 0x7f, 0x02, 0x84,
  0x49, 0x7f, 0x00, 0x89, 0x2e, 0x5f, 0x00, 0x89, 0x3d, 0x53, 0x00, 0x89,
  0x27, 0x55, 0x02, 0x82, 0x41, 0x7f, 0x02, 0xe6, 0x2f, 0x3f, 0x02, 0x86,
  0x3d, 0x7f, 0x04, 0x82, 0x44, 0x7f, 0x00, 0xe6, 0x5f, 0x3f, 0x02, 0xe6,
  0x00, 0x40, 0x02, 0x82, 0x3d, 0x7f, 0x0a, 0x91, 0x25, 0x7f, 0x00, 0x94,
  0x55, 0x7f, 0x00, 0x94, 0x49, 0x7f, 0x00, 0x95, 0x38, 0x7f, 0x00, 0x96,
  0x3a, 0x7f, 0x00, 0x99, 0x27, 0x41, 0x0a, 0x83, 0x50, 0x7f, 0x06, 0x85,
  0x38, 0x7f, 0x04, 0x86, 0x3a, 0x7f, 0x04, 0x89, 0x27, 0x41, 0x02, 0x84,
  0x55, 0x7f, 0x00, 0x84, 0x49, 0x7f, 0x08, 0x81, 0x25, 0x7f, 0x0e, 0x80,
  0x41, 0x7f, 0x00, 0x80, 0x3d, 0x7f, 0x00, 0x80, 0x3a, 0x7f, 0x00, 0x90,
  0x41, 0x7f, 0x00, 0x90, 0x3d, 0x7f, 0x00, 0x90, 0x3a, 0x7f, 0x00, 0x90,
  0x36, 0x7f, 0x00, 0x91, 0x1b, 0x7f, 0x00, 0x92, 0x42, 0x7f, 0x00, 0x92,
  0x3d, 0x7f, 0x00, 0x92, 0x3a, 0x7f, 0x00, 0x93, 0x55, 0x7f, 0x00, 0x96,
  0x41, 0x7f, 0x00, 0x99, 0x24, 0x7f, 0x00, 0x99, 0x2a, 0x70, 0x00, 0x99,
  0x3c, 0x53, 0x18, 0x89, 0x24, 0x7f, 0x00, 0x89, 0x2a, 0x70, 0x00, 0x89,
  0x3c, 0x53, 0x0a, 0x81, 0x1b, 0x7f, 0x0e, 0x95, 0x38, 0x7f, 0x10, 0x85,
  0x38, 0x7f, 0x20, 0x91, 0x1b, 0x7f, 0x00, 0x99, 0x2a, 0x36, 0x18, 0x89,
  0x2a, 0x36, 0x0a, 0x81, 0x1b, 0x7f, 0x0e, 0x91, 0x1b, 0x7f, 0x00, 0x99,
  0x2a, 0x64, 0x00, 0x99, 0x3e, 0x53, 0x10, 0x86, 0x41, 0x7f, 0x08, 0x89,
  0x2a, 0x64, 0x00, 0x89, 0x3e, 0x53, 0x0a, 0x81, 0x1b, 0x7f, 0x0e, 0x95,
  0x38, 0x7f, 0x00, 0x96, 0x41, 0x7f, 0x00, 0x99, 0x24, 0x7f, 0x00, 0x99,
  0x26, 0x70, 0x00, 0x99, 0x2a, 0x74, 0x00, 0x99, 0x3c, 0x53, 0x00, 0x99,
  0x27, 0x64, 0x10, 0x85, 0x38, 0x7f, 0x08, 0x89, 0x24, 0x7f, 0x00, 0x89,
  0x26, 0x70, 0x00, 0x89, 0x2a, 0x74, 0x00, 0x89, 0x3c, 0x53, 0x00, 0x89,
  0x27, 0x64, 0x18, 0x91, 0x24, 0x7f, 0x12, 0x86, 0x41, 0x7f, 0x0e, 0x82,
  0x3d, 0x7f, 0x02, 0x81, 0x24, 0x7f, 0x00, 0x83, 0x55, 0x7f, 0x08, 0x82,
  0x3a, 0x7f, 0x06, 0x80, 0x41, 0x7f, 0x00, 0x80, 0x3d, 0x7f, 0x00, 0x80,
  0x3a, 0x7f, 0x00, 0x80, 0x36, 0x7f, 0x00, 0x90, 0x3f, 0x7f, 0x00, 0x90,
  0x3c, 0x7f, 0x00, 0x90, 0x38, 0x7f, 0x00, 0x91, 0x22, 0x7f, 0x00, 0x92,
  0x44, 0x7f, 0x00, 0x92, 0x3f, 0x7f, 0x00, 0x92, 0x3c, 0x7f, 0x00, 0x93,
  0x57, 0x7f, 0x00, 0x96, 0x3f, 0x7f, 0x00, 0x99, 0x2a, 0x28, 0x00, 0x99,
  0x3d, 0x53, 0x14, 0x82, 0x42, 0x7f, 0x04, 0x89, 0x2a, 0x28, 0x00, 0x89,
  0x3d, 0x53, 0x0a, 0x81, 0x22, 0x7f, 0x0e, 0x95, 0x35, 0x7f, 0x00, 0x99,
  0x2a, 0x53, 0x10, 0x85, 0x35, 0x7f, 0x08, 0x89, 0x2a, 0x53, 0x18, 0x91,
  0x20, 0x7f, 0x00, 0x95, 0x38, 0x7f, 0x00, 0x99, 0x24, 0x7f, 0x00, 0x99,
  0x2a, 0x74, 0x00, 0x99, 0x3c, 0x53, 0x10, 0x85, 0x38, 0x7f, 0x08, 0x89,
  0x24, 0x7f, 0x00, 0x89, 0x2a, 0x74, 0x00, 0x89, 0x3c, 0x53, 0x0a, 0x81,
  0x20, 0x7f, 0x30, 0x86, 0x3f, 0x7f, 0x0e, 0x91, 0x20, 0x7f, 0x00, 0x99,
  0x2a, 0x30, 0x18, 0x89, 0x2a, 0x30, 0x0a, 0x81, 0x20, 0x7f, 0x0e, 0x95,
  0x38, 0x7f, 0x00, 0x99, 0x2a, 0x47, 0x00, 0x99, 0x3e, 0x53, 0x10, 0x85,
  0x38, 0x7f, 0x08, 0x89, 0x2a, 0x47, 0x00, 0x89, 0x3e, 0x53, 0x18, 0x96,
  0x38, 0x7f, 0x00, 0x99, 0x24, 0x7f, 0x00, 0x99, 0x26, 0x7c, 0x00, 0x99,
  0x2a, 0x74, 0x00, 0x99, 0x3c, 0x53, 0x00, 0x99, 0x27, 0x74, 0x18, 0x86,
  0x38, 0x7f, 0x00, 0x89, 0x24, 0x7f, 0x00, 0x89, 0x26, 0x7c, 0x00, 0x89,
  0x2a, 0x74, 0x00, 0x89, 0x3c, 0x53, 0x00, 0x89, 0x27, 0x74, 0x18, 0x96,
  0x3a, 0x78, 0x12, 0x86, 0x3a, 0x78, 0x14, 0xe6, 0x3c, 0x3f, 0x04, 0xe6,
  0x23, 0x3c, 0x06, 0x91, 0x1b, 0x7f, 0x00, 0x93, 0x50, 0x7f, 0x00, 0x95,
  0x35, 0x7f, 0x00, 0xb6, 0x01, 0x2b, 0x00, 0x96, 0x3d, 0x76, 0x00, 0x99,
  0x2a, 0x0d, 0x00, 0x99, 0x3d, 0x53, 0x02, 0xe6, 0x60, 0x3a, 0x02, 0x83,
  0x57, 0x7f, 0x04, 0xe6, 0x4f, 0x3a, 0x08, 0x85, 0x35, 0x7f, 0x00, 0xe6,
  0x10, 0x3b, 0x06, 0xe6, 0x46, 0x3c, 0x02, 0x89, 0x2a, 0x0d, 0x00, 0x89,
  0x3d, 0x53, 0x06, 0xe6, 0x3b, 0x3e, 0x02, 0x86, 0x3d, 0x76, 0x02, 0x81,
  0x1b, 0x7f, 0x02, 0xe6, 0x70, 0x3f, 0x06, 0xe6, 0x00, 0x40, 0x06, 0x91,
  0x20, 0x7f, 0x00, 0x95, 0x38, 0x7f, 0x00, 0xb6, 0x01, 0x00, 0x00, 0x96,
  0x3a, 0x63, 0x00, 0x99, 0x2a, 0x47, 0x08, 0x86, 0x3a, 0x63, 0x08, 0x85,
  0x38, 0x7f, 0x08, 0x89, 0x2a, 0x47, 0x0a, 0x81, 0x20, 0x7f, 0x0e, 0x80,
  0x3f, 0x7f, 0x00, 0x80, 0x3c, 0x7f, 0x00, 0x80, 0x38, 0x7f, 0x00, 0x90,
  0x3f, 0x7f, 0x00, 0x90, 0x3c, 0x7f, 0x00, 0x90, 0x38, 0x7f, 0x00, 0x91,
  0x1d, 0x7f, 0x00, 0x93, 0x57, 0x7f, 0x00, 0x96, 0x44, 0x7f, 0x00, 0x99,
  0x24, 0x7f, 0x00, 0x99, 0x2a, 0x64, 0x00, 0x99, 0x3c, 0x53, 0x02, 0x83,
  0x50, 0x7f, 0x16, 0x89, 0x24, 0x7f, 0x00, 0x89, 0x2a, 0x64, 0x00, 0x89,
  0x3c, 0x53, 0x0a, 0x81, 0x1d, 0x7f, 0x0e, 0x95, 0x38, 0x7f, 0x10, 0x85,
  0x38, 0x7f, 0x20, 0x91, 0x1d, 0x7f, 0x00, 0x99, 0x2a, 0x36, 0x18, 0x89,
  0x2a, 0x36, 0x0a, 0x81, 0x1d, 0x7f, 0x0e, 0x91, 0x24, 0x7f, 0x00, 0x99,
  0x2a, 0x53, 0x00, 0x99, 0x3e, 0x53, 0x14, 0x86, 0x44, 0x7f, 0x04, 0x89,
  0x2a, 0x53, 0x00, 0x89, 0x3e, 0x53, 0x0a, 0x81, 0x24, 0x7f, 0x0e, 0x95,
  0x38, 0x7f, 0x00, 0x96, 0x3d, 0x7f, 0x00, 0x99, 0x24, 0x7f, 0x00, 0x99,
  0x26, 0x70, 0x00, 0x99, 0x2a, 0x74, 0x00, 0x99, 0x3c, 0x53, 0x00, 0x99,
  0x27, 0x74, 0x10, 0x85, 0x38, 0x7f, 0x08, 0x89, 0x24, 0x7f, 0x00, 0x89,
  0x26, 0x70, 0x00, 0x89, 0x2a, 0x74, 0x00, 0x89, 0x3c, 0x53, 0x00, 0x89,
  0x27, 0x74, 0x08, 0x86, 0x3d, 0x7f, 0x10, 0x91, 0x24, 0x7f, 0x20, 0x82,
  0x3f, 0x7f, 0x02, 0x81, 0x24, 0x7f, 0x06, 0x82, 0x3c, 0x7f, 0x08, 0x80,
  0x3f, 0x7f, 0x00, 0x80, 0x3c, 0x7f, 0x00, 0x80, 0x38, 0x7f, 0x00, 0x90,
  0x41, 0x7f, 0x00, 0x90, 0x3d, 0x7f, 0x00, 0x90, 0x3a, 0x7f, 0x00, 0x91,
  0x22, 0x7f, 0x00, 0x92, 0x41, 0x7f, 0x00, 0x92, 0x3d, 0x7f, 0x00, 0x93,
  0x59, 0x7f, 0x00, 0x96, 0x3d, 0x7f, 0x00, 0x99, 0x2a, 0x36, 0x00, 0x99,
  0x3d, 0x53, 0x02, 0x83, 0x57, 0x7f, 0x16, 0x89, 0x2a, 0x36, 0x00, 0x89,
  0x3d, 0x53, 0x0a, 0x81, 0x22, 0x7f, 0x0e, 0x95, 0x35, 0x7f, 0x00, 0x99,
  0x2a, 0x47, 0x10, 0x85, 0x35, 0x7f, 0x08, 0x89, 0x2a, 0x47, 0x18, 0x95,
  0x38, 0x7f, 0x00, 0x99, 0x24, 0x7f, 0x00, 0x99, 0x2a, 0x64, 0x00, 0x99,
  0x3c, 0x53, 0x10, 0x85, 0x38, 0x7f, 0x08, 0x89, 0x24, 0x7f, 0x00, 0x89,
  0x2a, 0x64, 0x00, 0x89, 0x3c, 0x53, 0x10, 0x86, 0x3d, 0x7f, 0x08, 0x96,
  0x3c, 0x68, 0x18, 0x86, 0x3c, 0x68, 0x18, 0x91, 0x22, 0x7f, 0x00, 0x95,
  0x38, 0x7f, 0x00, 0x96, 0x3a, 0x7c, 0x00, 0x99, 0x2a, 0x47, 0x10, 0x85,
  0x38, 0x7f, 0x08, 0x89, 0x2a, 0x47, 0x0a, 0x81, 0x22, 0x7f, 0x0e, 0x91,
  0x22, 0x7f, 0x00, 0x99, 0x2a, 0x47, 0x00, 0x99, 0x3e, 0x53, 0x18, 0x89,
  0x2a, 0x47, 0x00, 0x89, 0x3e, 0x53, 0x06, 0x86, 0x3a, 0x7c, 0x04, 0x81,
  0x22, 0x7f, 0x0a, 0x83, 0x59, 0x7f, 0x04, 0x92, 0x3f, 0x7f, 0x00, 0x92,
  0x3c, 0x7f, 0x00, 0x93, 0x5c, 0x7f, 0x00, 0x95, 0x38, 0x7f, 0x00, 0x96,
  0x38, 0x7f, 0x00, 0x99, 0x24, 0x7f, 0x00, 0x99, 0x26, 0x70, 0x00, 0x99,
  0x2a, 0x74, 0x00, 0x99, 0x3c, 0x53, 0x00, 0x99, 0x27, 0x64, 0x06, 0x82,
  0x3d, 0x7f, 0x0a, 0x85, 0x38, 0x7f, 0x08, 0x86, 0x38, 0x7f, 0x00, 0x89,
  0x24, 0x7f, 0x00, 0x89, 0x26, 0x70, 0x00, 0x89, 0x2a, 0x74, 0x00, 0x89,
  0x3c, 0x53, 0x00, 0x89, 0x27, 0x64, 0x0a, 0x82, 0x41, 0x7f, 0x0e, 0x91,
  0x24, 0x7f, 0x00, 0x93, 0x5a, 0x7f, 0x00, 0x95, 0x3a, 0x7f, 0x00, 0xb6,
  0x01, 0x05, 0x00, 0x96, 0x3a, 0x7f, 0x02, 0x83, 0x5c, 0x7f, 0x0c, 0x86,
  0x3a, 0x7f, 0x02, 0x85, 0x3a, 0x7f, 0x12, 0x81, 0x24, 0x7f, 0x0e, 0x91,
  0x22, 0x7f, 0x00, 0x93, 0x59, 0x7f, 0x00, 0xb6, 0x01, 0x00, 0x00, 0x96,
  0x3d, 0x7f, 0x00, 0x99, 0x2e, 0x44, 0x00, 0x99, 0x3d, 0x53, 0x02, 0x83,
  0x5a, 0x7f, 0x16, 0x89, 0x2e, 0x44, 0x00, 0x89, 0x3d, 0x53, 0x0a, 0x81,
  0x22, 0x7f, 0x00, 0x86, 0x3d, 0x7f, 0x0e, 0x93, 0x55, 0x7f, 0x00, 0x96,
  0x3a, 0x68, 0x08, 0x83, 0x59, 0x7f, 0x06, 0x86, 0x3a, 0x68, 0x10, 0x82,
  0x3c, 0x7f, 0x12, 0x80, 0x41, 0x7f, 0x00, 0x80, 0x3d, 0x7f, 0x00, 0x80,
  0x3a, 0x7f, 0x00, 0x82, 0x3f, 0x7f, 0x00, 0x90, 0x3d, 0x7f, 0x00, 0x90,
  0x3a, 0x7f, 0x00, 0x90, 0x36, 0x7f, 0x00, 0x91, 0x1b, 0x7f, 0x00, 0x92,
  0x42, 0x7f, 0x00, 0x92, 0x3d, 0x7f, 0x00, 0x92, 0x3a, 0x7f, 0x00, 0x96,
  0x3d, 0x7f, 0x00, 0x99, 0x24, 0x7f, 0x00, 0x99, 0x2a, 0x74, 0x00, 0x99,
  0x3c, 0x53, 0x04, 0x82, 0x44, 0x7f, 0x14, 0x89, 0x24, 0x7f, 0x00, 0x89,
  0x2a, 0x74, 0x00, 0x89, 0x3c, 0x53, 0x0a, 0x81, 0x1b, 0x7f, 0x0e, 0x95,
  0x38, 0x7f, 0x10, 0x85, 0x38, 0x7f, 0x20, 0x91, 0x1b, 0x7f, 0x00, 0x99,
  0x2a, 0x2c, 0x18, 0x89, 0x2a, 0x2c, 0x0a, 0x81, 0x1b, 0x7f, 0x0e, 0x91,
  0x24, 0x7f, 0x00, 0x99, 0x2a, 0x64, 0x00, 0x99, 0x3e, 0x53, 0x14, 0x86,
  0x3d, 0x7f, 0x04, 0x89, 0x2a, 0x64, 0x00, 0x89, 0x3e, 0x53, 0x00, 0xe6,
  0x1e, 0x3f, 0x06, 0xe6, 0x56, 0x3c, 0x04, 0x81, 0x24, 0x7f, 0x02, 0xe6,
  0x7f, 0x3a, 0x06, 0xe6, 0x4f, 0x3a, 0x06, 0x95, 0x38, 0x7f, 0x00, 0xb6,
  0x01, 0x30, 0x00, 0x96, 0x3f, 0x7f, 0x00, 0x99, 0x24, 0x7f, 0x00, 0x99,
  0x26, 0x7c, 0x00, 0x99, 0x2a, 0x74, 0x00, 0x99, 0x3c, 0x53, 0x00, 0x99,
  0x27, 0x64, 0x06, 0xe6, 0x10, 0x3b, 0x02, 0xe6, 0x67, 0x3c, 0x08, 0x85,
  0x38, 0x7f, 0x00, 0xe6, 0x3c, 0x3f, 0x08, 0x89, 0x24, 0x7f, 0x00, 0x89,
  0x26, 0x7c, 0x00, 0x89, 0x2a, 0x74, 0x00, 0x89, 0x3c, 0x53, 0x00, 0x89,
  0x27, 0x64, 0x00, 0xe6, 0x70, 0x3f, 0x02, 0xe6, 0x00, 0x40, 0x08, 0x86,
  0x3f, 0x7f, 0x0e, 0x91, 0x24, 0x7f, 0x0a, 0x80, 0x3a, 0x7f, 0x08, 0x80,
  0x36, 0x7f, 0x10, 0x81, 0x24, 0x7f, 0x08, 0x82, 0x3d, 0x7f, 0x06, 0x90,
  0x3f, 0x7f, 0x00, 0x90, 0x3c, 0x7f, 0x00, 0x90, 0x38, 0x7f, 0x00, 0x91,
  0x22, 0x7f, 0x00, 0x92, 0x44, 0x7f, 0x00, 0x92, 0x3f, 0x7f, 0x00, 0x92,
  0x3c, 0x7f, 0x00, 0x93, 0x57, 0x7f, 0x00, 0xb6, 0x01, 0x00, 0x00, 0x96,
  0x3c, 0x7f, 0x00, 0x96, 0x3a, 0x7f, 0x00, 0x99, 0x2a, 0x21, 0x00, 0x99,
  0x3d, 0x53, 0x0a, 0x83, 0x55, 0x7f, 0x02, 0x80, 0x3d, 0x7f, 0x00, 0x82,
  0x3a, 0x7f, 0x0c, 0x89, 0x2a, 0x21, 0x00, 0x89, 0x3d, 0x53, 0x0a, 0x81,
  0x22, 0x7f, 0x02, 0x82, 0x42, 0x7f, 0x04, 0x86, 0x3a, 0x7f, 0x08, 0x95,
  0x35, 0x7f, 0x00, 0x99, 0x2a, 0x53, 0x10, 0x85, 0x35, 0x7f, 0x08, 0x89,
  0x2a, 0x53, 0x18, 0x91, 0x20, 0x7f, 0x00, 0x95, 0x38, 0x7f, 0x00, 0x99,
  0x24, 0x7f, 0x00, 0x99, 0x2a, 0x74, 0x00, 0x99, 0x3c, 0x53, 0x10, 0x85,
  0x38, 0x7f, 0x08, 0x89, 0x24, 0x7f, 0x00, 0x89, 0x2a, 0x74, 0x00, 0x89,
  0x3c, 0x53, 0x0a, 0x81, 0x20, 0x7f, 0x00, 0x86, 0x3c, 0x7f, 0x0e, 0x96,
  0x3a, 0x6c, 0x14, 0x86, 0x3a, 0x6c, 0x1c, 0x91, 0x20, 0x7f, 0x00, 0x95,
  0x38, 0x7f, 0x00, 0x96, 0x38, 0x7f, 0x00, 0x99, 0x2a, 0x47, 0x10, 0x85,
  0x38, 0x7f, 0x08, 0x89, 0x2a, 0x47, 0x0a, 0x81, 0x20, 0x7f, 0x0e, 0x99,
  0x2a, 0x53, 0x00, 0x99, 0x3e, 0x53, 0x18, 0x89, 0x2a, 0x53, 0x00, 0x89,
  0x3e, 0x53, 0x10, 0x83, 0x57, 0x7f, 0x08, 0x93, 0x50, 0x7f, 0x00, 0x99,
  0x24, 0x7f, 0x00, 0x99, 0x26, 0x70, 0x00, 0x99, 0x2a, 0x7f, 0x00, 0x99,
  0x3c, 0x53, 0x00, 0x99, 0x27, 0x74, 0x18, 0x89, 0x24, 0x7f, 0x00, 0x89,
  0x26, 0x70, 0x00, 0x89, 0x2a, 0x7f, 0x00, 0x89, 0x3c, 0x53, 0x00, 0x89,
  0x27, 0x74, 0x24, 0x86, 0x38, 0x7f, 0x12, 0xe6, 0x7a, 0x3d, 0x08, 0xe6,
  0x62, 0x3b, 0x08, 0xe6, 0x22, 0x3b, 0x02, 0x91, 0x1b, 0x7f, 0x00, 0x95,
  0x33, 0x7f, 0x00, 0xb6, 0x01, 0x3f, 0x00, 0x96, 0x38, 0x7f, 0x00, 0x99,
  0x2a, 0x30, 0x00, 0x99, 0x3d, 0x53, 0x06, 0xe6, 0x62, 0x3b, 0x06, 0xe6,
  0x76, 0x3c, 0x04, 0x85, 0x33, 0x7f, 0x02, 0xe6, 0x3b, 0x3e, 0x06, 0x89,
  0x2a, 0x30, 0x00, 0x89, 0x3d, 0x53, 0x02, 0xe6, 0x5f, 0x3f, 0x08, 0x81,
  0x1b, 0x7f, 0x00, 0xe6, 0x70, 0x3f, 0x02, 0xe6, 0x00, 0x40, 0x04, 0x86,
  0x38, 0x7f, 0x08, 0x91, 0x1b, 0x7f, 0x00, 0x95, 0x35, 0x7f, 0x00, 0x99,
  0x2a, 0x3d, 0x10, 0x85, 0x35, 0x7f, 0x08, 0x89, 0x2a, 0x3d, 0x0a, 0x81,
  0x1b, 0x7f, 0x0e, 0x80, 0x3f, 0x7f, 0x00, 0x80, 0x3c, 0x7f, 0x00, 0x80,
  0x38, 0x7f, 0x00, 0x90, 0x3f, 0x7f, 0x00, 0x90, 0x3c, 0x7f, 0x00, 0x90,
  0x38, 0x7f, 0x00, 0x91, 0x1d, 0x7f, 0x00, 0x92, 0x38, 0x7f, 0x00, 0xb6,
  0x01, 0x00, 0x00, 0x96, 0x3f, 0x7f, 0x00, 0x99, 0x24, 0x7f, 0x00, 0x99,
  0x2a, 0x74, 0x00, 0x99, 0x3c, 0x53, 0x18, 0x89, 0x24, 0x7f, 0x00, 0x89,
  0x2a, 0x74, 0x00, 0x89, 0x3c, 0x53, 0x0a, 0x81, 0x1d, 0x7f, 0x0e, 0x95,
  0x38, 0x7f, 0x10, 0x85, 0x38, 0x7f, 0x1e, 0x99, 0x30, 0x44, 0x02, 0x91,
  0x1d, 0x7f, 0x00, 0x99, 0x2a, 0x47, 0x16, 0x89, 0x30, 0x44, 0x02, 0x89,
  0x2a, 0x47, 0x0a, 0x81, 0x1d, 0x7f, 0x0e, 0x91, 0x1d, 0x7f, 0x00, 0x99,
  0x2a, 0x47, 0x00, 0x99, 0x3e, 0x53, 0x00, 0x99, 0x30, 0x5f, 0x14, 0x86,
  0x3f, 0x7f, 0x04, 0x89, 0x2a, 0x47, 0x00, 0x89, 0x3e, 0x53, 0x00, 0x89,
  0x30, 0x5f, 0x0a, 0x81, 0x1d, 0x7f, 0x04, 0x82, 0x3f, 0x7f, 0x00, 0x82,
  0x3c, 0x7f, 0x02, 0x82, 0x38, 0x7f, 0x08, 0x80, 0x3f, 0x7f, 0x00, 0x80,
  0x3c, 0x7f, 0x00, 0x80, 0x38, 0x7f, 0x00, 0x90, 0x41, 0x7f, 0x00, 0x90,
  0x3d, 0x7f, 0x00, 0x90, 0x38, 0x7f, 0x00, 0x92, 0x41, 0x7f, 0x00, 0x92,
  0x3d, 0x7f, 0x00, 0x95, 0x38, 0x7f, 0x00, 0x96, 0x3d, 0x7f, 0x00, 0x99,
  0x24, 0x7f, 0x00, 0x99, 0x26, 0x7c, 0x00, 0x99, 0x2a, 0x74, 0x00, 0x99,
  0x3c, 0x53, 0x00, 0x99, 0x27, 0x64, 0x10, 0x85, 0x38, 0x7f, 0x08, 0x89,
  0x24, 0x7f, 0x00, 0x89, 0x26, 0x7c, 0x00, 0x89, 0x2a, 0x74, 0x00, 0x89,
  0x3c, 0x53, 0x00, 0x89, 0x27, 0x64, 0x18, 0x91, 0x24, 0x7f, 0x00, 0x99,
  0x30, 0x5f, 0x18, 0x89, 0x30, 0x5f, 0x0a, 0x81, 0x24, 0x7f, 0x0e, 0x91,
  0x22, 0x7f, 0x00, 0x99, 0x2e, 0x44, 0x00, 0x99, 0x3d, 0x53, 0x02, 0x99,
  0x2d, 0x50, 0x16, 0x89, 0x2e, 0x44, 0x00, 0x89, 0x3d, 0x53, 0x02, 0x89,
  0x2d, 0x50, 0x08, 0x81, 0x22, 0x7f, 0x0e, 0x95, 0x35, 0x7f, 0x10, 0x85,
  0x35, 0x7f, 0x20, 0x94, 0x55, 0x7f, 0x00, 0x94, 0x50, 0x7f, 0x00, 0x94,
  0x44, 0x7f, 0x00, 0x95, 0x38, 0x7f, 0x00, 0x99, 0x24, 0x7f, 0x00, 0x99,
  0x2a, 0x74, 0x00, 0x99, 0x3c, 0x53, 0x02, 0x99, 0x2d, 0x5f, 0x0e, 0x85,
  0x38, 0x7f, 0x02, 0x84, 0x55, 0x7f, 0x02, 0x84, 0x44, 0x7f, 0x00, 0x86,
  0x3d, 0x7f, 0x04, 0x89, 0x24, 0x7f, 0x00, 0x89, 0x2a, 0x74, 0x00, 0x89,
  0x3c, 0x53, 0x02, 0x89, 0x2d, 0x5f, 0x06, 0x84, 0x50, 0x7f, 0x10, 0x94,
  0x55, 0x7f, 0x00, 0x94, 0x50, 0x7f, 0x00, 0x94, 0x44, 0x7f, 0x02, 0x99,
  0x2d, 0x70, 0x14, 0x84, 0x55, 0x7f, 0x04, 0x84, 0x50, 0x7f, 0x00, 0x89,
  0x2d, 0x70, 0x04, 0x84, 0x44, 0x7f, 0x12, 0x91, 0x20, 0x7f, 0x00, 0x95,
  0x38, 0x7f, 0x00, 0x99, 0x2a, 0x3d, 0x00, 0x99, 0x2d, 0x5f, 0x10, 0x85,
  0x38, 0x7f, 0x08, 0x89, 0x2a, 0x3d, 0x00, 0x89, 0x2d, 0x5f, 0x0a, 0x81,
  0x20, 0x7f, 0x0e, 0x94, 0x55, 0x7f, 0x00, 0x94, 0x50, 0x7f, 0x00, 0x94,
  0x44, 0x7f, 0x00, 0x99, 0x2a, 0x64, 0x00, 0x99, 0x3e, 0x53, 0x04, 0x99,
  0x2d, 0x70, 0x0a, 0x84, 0x50, 0x7f, 0x06, 0x84, 0x55, 0x7f, 0x02, 0x84,
  0x44, 0x7f, 0x02, 0x89, 0x2a, 0x64, 0x00, 0x89, 0x3e, 0x53, 0x04, 0x89,
  0x2d, 0x70, 0x14, 0x91, 0x25, 0x63, 0x00, 0x94, 0x55, 0x7f, 0x00, 0x94,
  0x50, 0x7f, 0x00, 0x94, 0x44, 0x7f, 0x00, 0x96, 0x38, 0x7f, 0x00, 0x99,
  0x24, 0x7f, 0x00, 0x99, 0x26, 0x7d, 0x00, 0x99, 0x2a, 0x74, 0x00, 0x99,
  0x3c, 0x53, 0x00, 0x99, 0x27, 0x7d, 0x04, 0x99, 0x29, 0x70, 0x12, 0x84,
  0x55, 0x7f, 0x00, 0x84, 0x50, 0x7f, 0x00, 0x86, 0x38, 0x7f, 0x02, 0x84,
  0x44, 0x7f, 0x00, 0x89, 0x24, 0x7f, 0x00, 0x89, 0x26, 0x7d, 0x00, 0x89,
  0x2a, 0x74, 0x00, 0x89, 0x3c, 0x53, 0x00, 0x89, 0x27, 0x7d, 0x04, 0x89,
  0x29, 0x70, 0x06, 0x81, 0x25, 0x63, 0x0e, 0x91, 0x22, 0x75, 0x00, 0x94,
  0x55, 0x7f, 0x00, 0x94, 0x50, 0x7f, 0x00, 0x94, 0x44, 0x7f, 0x00, 0x95,
  0x38, 0x7f, 0x00, 0x96, 0x3a, 0x7f, 0x00, 0x99, 0x27, 0x69, 0x06, 0x99,
  0x29, 0x70, 0x0a, 0x85, 0x38, 0x7f, 0x06, 0x84, 0x55, 0x7f, 0x00, 0x84,
  0x50, 0x7f, 0x00, 0x86, 0x3a, 0x7f, 0x02, 0x89, 0x27, 0x69, 0x02, 0x84,
  0x44, 0x7f, 0x04, 0x89, 0x29, 0x70, 0x04, 0x81, 0x22, 0x75, 0x0a, 0x99,
  0x29, 0x5f, 0x04, 0x94, 0x55, 0x7f, 0x00, 0x94, 0x50, 0x7f, 0x00, 0x94,
  0x44, 0x7f, 0x00, 0x96, 0x3d, 0x7f, 0x00, 0x99, 0x2e, 0x5f, 0x00, 0x99,
  0x3d, 0x53, 0x00, 0x99, 0x27, 0x55, 0x06, 0xe6, 0x4f, 0x3a, 0x0e, 0x89,
  0x29, 0x5f, 0x02, 0x84, 0x55, 0x7f, 0x02, 0x84, 0x50, 0x7f, 0x00, 0x84,
  0x44, 0x7f, 0x00, 0x89, 0x2e, 0x5f, 0x00, 0x89, 0x3d, 0x53, 0x00, 0x89,
  0x27, 0x55, 0x02, 0x82, 0x41, 0x7f, 0x00, 0x86, 0x3d, 0x7f, 0x06, 0xe6,
  0x04, 0x3c, 0x02, 0x82, 0x44, 0x7f, 0x04, 0x82, 0x3d, 0x7f, 0x02, 0xe6,
  0x0c, 0x3f, 0x08, 0x91, 0x25, 0x63, 0x00, 0x94, 0x55, 0x7f, 0x00, 0x94,
  0x50, 0x7f, 0x00, 0x94, 0x44, 0x7f, 0x00, 0x95, 0x38, 0x7f, 0x00, 0xe6,
  0x70, 0x3f, 0x00, 0x96, 0x3a, 0x7f, 0x00, 0x99, 0x27, 0x41, 0x02, 0x99,
  0x29, 0x5f, 0x02, 0xe6, 0x00, 0x40, 0x06, 0x83, 0x50, 0x7f, 0x06, 0x85,
  0x38, 0x7f, 0x08, 0x89, 0x27, 0x41, 0x02, 0x84, 0x55, 0x7f, 0x00, 0x84,
  0x44, 0x7f, 0x00, 0x86, 0x3a, 0x7f, 0x00, 0x89, 0x29, 0x5f, 0x02, 0x84,
  0x50, 0x7f, 0x06, 0x81, 0x25, 0x63, 0x0e, 0x80, 0x41, 0x7f, 0x00, 0x80,
  0x3d, 0x7f, 0x00, 0x80, 0x38, 0x7f, 0x00, 0x90, 0x41, 0x7f, 0x00, 0x90,
  0x3d, 0x7f, 0x00, 0x90, 0x3a, 0x7f, 0x00, 0x90, 0x36, 0x7f, 0x00, 0x91,
  0x1b, 0x7f, 0x00, 0x92, 0x42, 0x7f, 0x00, 0x92, 0x3d, 0x7f, 0x00, 0x92,
  0x3a, 0x7f, 0x00, 0x93, 0x55, 0x7f, 0x00, 0x96, 0x41, 0x7f, 0x00, 0x99,
  0x24, 0x7f, 0x00, 0x99, 0x2a, 0x70, 0x00, 0x99, 0x3c, 0x53, 0x18, 0x89,
  0x24, 0x7f, 0x00, 0x89, 0x2a, 0x70, 0x00, 0x89, 0x3c, 0x53, 0x0a, 0x81,
  0x1b, 0x7f, 0x0e, 0x95, 0x38, 0x7f, 0x10, 0x85, 0x38, 0x7f, 0x20, 0x91,
  0x1b, 0x7f, 0x00, 0x99, 0x2a, 0x36, 0x08, 0x86, 0x41, 0x7f, 0x10, 0x89,
  0x2a, 0x36, 0x0a, 0x81, 0x1b, 0x7f, 0x0e, 0x91, 0x1b, 0x7f, 0x00, 0x96,
  0x41, 0x7f, 0x00, 0x99, 0x2a, 0x64, 0x00, 0x99, 0x3e, 0x53, 0x18, 0x89,
  0x2a, 0x64, 0x00, 0x89, 0x3e, 0x53, 0x0a, 0x81, 0x1b, 0x7f, 0x0e, 0x95,
  0x38, 0x7f, 0x00, 0x99, 0x24, 0x7f, 0x00, 0x99, 0x26, 0x70, 0x00, 0x99,
  0x2a, 0x74, 0x00, 0x99, 0x3c, 0x53, 0x00, 0x99, 0x27, 0x64, 0x10, 0x85,
  0x38, 0x7f, 0x08, 0x89, 0x24, 0x7f, 0x00, 0x89, 0x26, 0x70, 0x00, 0x89,
  0x2a, 0x74, 0x00, 0x89, 0x3c, 0x53, 0x00, 0x89, 0x27, 0x64, 0x18, 0x91,
  0x24, 0x7f, 0x04, 0x86, 0x41, 0x7f, 0x1c, 0x82, 0x3d, 0x7f, 0x02, 0x81,
  0x24, 0x7f, 0x00, 0x83, 0x55, 0x7f, 0x08, 0x82, 0x3a, 0x7f, 0x06, 0x80,
  0x41, 0x7f, 0x00, 0x80, 0x3d, 0x7f, 0x00, 0x80, 0x3a, 0x7f, 0x00, 0x80,
  0x36, 0x7f, 0x00, 0x90, 0x3f, 0x7f, 0x00, 0x90, 0x3c, 0x7f, 0x00, 0x90,
  0x38, 0x7f, 0x00, 0x91, 0x22, 0x7f, 0x00, 0x92, 0x44, 0x7f, 0x00, 0x92,
  0x3f, 0x7f, 0x00, 0x92, 0x3c, 0x7f, 0x00, 0x93, 0x57, 0x7f, 0x00, 0x96,
  0x3f, 0x7f, 0x00, 0x99, 0x2a, 0x28, 0x00, 0x99, 0x3d, 0x53, 0x14, 0x82,
  0x42, 0x7f, 0x04, 0x89, 0x2a, 0x28, 0x00, 0x89, 0x3d, 0x53, 0x0a, 0x81,
  0x22, 0x7f, 0x0e, 0x95, 0x35, 0x7f, 0x00, 0x99, 0x2a, 0x53, 0x10, 0x85,
  0x35, 0x7f, 0x08, 0x89, 0x2a, 0x53, 0x18, 0x91, 0x20, 0x7f, 0x00, 0x95,
  0x38, 0x7f, 0x00, 0x99, 0x24, 0x7f, 0x00, 0x99, 0x2a, 0x74, 0x00, 0x99,
  0x3c, 0x53, 0x10, 0x85, 0x38, 0x7f, 0x08, 0x89, 0x24, 0x7f, 0x00, 0x89,
  0x2a, 0x74, 0x00, 0x89, 0x3c, 0x53, 0x0a, 0x81, 0x20, 0x7f, 0x20, 0x86,
  0x3f, 0x7f, 0x1e, 0x91, 0x20, 0x7f, 0x00, 0x99, 0x2a, 0x30, 0x18, 0x89,
  0x2a, 0x30, 0x0a, 0x81, 0x20, 0x7f, 0x0e, 0x95, 0x38, 0x7f, 0x00, 0x99,
  0x2a, 0x47, 0x00, 0x99, 0x3e, 0x53, 0x10, 0x85, 0x38, 0x7f, 0x08, 0x89,
  0x2a, 0x47, 0x00, 0x89, 0x3e, 0x53, 0x18, 0x96, 0x38, 0x7f, 0x00, 0x99,
  0x24, 0x7f, 0x00, 0x99, 0x26, 0x7c, 0x00, 0x99, 0x2a, 0x74, 0x00, 0x99,
  0x3c, 0x53, 0x00, 0x99, 0x27, 0x74, 0x18, 0x89, 0x24, 0x7f, 0x00, 0x89,
  0x26, 0x7c, 0x00, 0x89, 0x2a, 0x74, 0x00, 0x89, 0x3c, 0x53, 0x00, 0x89,
  0x27, 0x74, 0x02, 0x86, 0x38, 0x7f, 0x16, 0x96, 0x3a, 0x7f, 0x14, 0x86,
  0x3a, 0x7f, 0x14, 0xe6, 0x47, 0x3d, 0x08, 0x91, 0x1b, 0x7f, 0x00, 0x93,
  0x50, 0x7f, 0x00, 0x95, 0x35, 0x7f, 0x00, 0xe6, 0x10, 0x3b, 0x00, 0x96,
  0x3d, 0x7f, 0x00, 0x99, 0x2a, 0x0d, 0x00, 0x99, 0x3d, 0x53, 0x04, 0x83,
  0x57, 0x7f, 0x02, 0xe6, 0x4f, 0x3a, 0x0a, 0x85, 0x35, 0x7f, 0x08, 0x89,
  0x2a, 0x0d, 0x00, 0x89, 0x3d, 0x53, 0x02, 0xe6, 0x72, 0x3a, 0x02, 0xe6,
  0x46, 0x3c, 0x02, 0x86, 0x3d, 0x7f, 0x04, 0x81, 0x1b, 0x7f, 0x00, 0xe6,
  0x2f, 0x3f, 0x08, 0xe6, 0x70, 0x3f, 0x04, 0xe6, 0x00, 0x40, 0x02, 0x91,
  0x20, 0x7f, 0x00, 0x95, 0x38, 0x7f, 0x00, 0x96, 0x3a, 0x7f, 0x00, 0x99,
  0x2a, 0x47, 0x10, 0x85, 0x38, 0x7f, 0x04, 0x86, 0x3a, 0x7f, 0x04, 0x89,
  0x2a, 0x47, 0x0a, 0x81, 0x20, 0x7f, 0x0e, 0x80, 0x3f, 0x7f, 0x00, 0x80,
  0x3c, 0x7f, 0x00, 0x80, 0x38, 0x7f, 0x00, 0x90, 0x3f, 0x7f, 0x00, 0x90,
  0x3c, 0x7f, 0x00, 0x90, 0x38, 0x7f, 0x00, 0x91, 0x1d, 0x7f, 0x00, 0x93,
  0x57, 0x7f, 0x00, 0x96, 0x3f, 0x7f, 0x00, 0x99, 0x24, 0x7f, 0x00, 0x99,
  0x2a, 0x64, 0x00, 0x99, 0x3c, 0x53, 0x02, 0x83, 0x50, 0x7f, 0x16, 0x89,
  0x24, 0x7f, 0x00, 0x89, 0x2a, 0x64, 0x00, 0x89, 0x3c, 0x53, 0x0a, 0x81,
  0x1d, 0x7f, 0x0e, 0x95, 0x38, 0x7f, 0x10, 0x85, 0x38, 0x7f, 0x20, 0x91,
  0x1d, 0x7f, 0x00, 0x99, 0x2a, 0x36, 0x12, 0x86, 0x3f, 0x7f, 0x06, 0x89,
  0x2a, 0x36, 0x0a, 0x81, 0x1d, 0x7f, 0x0e, 0x91, 0x24, 0x7f, 0x00, 0x96,
  0x3f, 0x7f, 0x00, 0x99, 0x2a, 0x53, 0x00, 0x99, 0x3e, 0x53, 0x18, 0x89,
  0x2a, 0x53, 0x00, 0x89, 0x3e, 0x53, 0x0a, 0x81, 0x24, 0x7f, 0x08, 0xe6,
  0x5e, 0x3e, 0x06, 0x95, 0x38, 0x7f, 0x00, 0x99, 0x24, 0x7f, 0x00, 0x99,
  0x26, 0x70, 0x00, 0x99, 0x2a, 0x74, 0x00, 0x99, 0x3c, 0x53, 0x00, 0x99,
  0x27, 0x74, 0x00, 0xe6, 0x22, 0x3b, 0x06, 0xe6, 0x4f, 0x3a, 0x0a, 0x85,
  0x38, 0x7f, 0x04, 0xe6, 0x16, 0x3c, 0x04, 0x89, 0x24, 0x7f, 0x00, 0x89,
  0x26, 0x70, 0x00, 0x89, 0x2a, 0x74, 0x00, 0x89, 0x3c, 0x53, 0x00, 0x89,
  0x27, 0x74, 0x04, 0xe6, 0x2a, 0x3e, 0x06, 0xe6, 0x70, 0x3f, 0x08, 0xe6,
  0x00, 0x40, 0x06, 0x91, 0x24, 0x7f, 0x06, 0x86, 0x3f, 0x7f, 0x1a, 0x82,
  0x3f, 0x7f, 0x02, 0x81, 0x24, 0x7f, 0x06, 0x82, 0x3c, 0x7f, 0x08, 0x80,
  0x3f, 0x7f, 0x00, 0x80, 0x3c, 0x7f, 0x00, 0x80, 0x38, 0x7f, 0x00, 0x90,
  0x41, 0x7f, 0x00, 0x90, 0x3d, 0x7f, 0x00, 0x90, 0x3a, 0x7f, 0x00, 0x91,
  0x22, 0x7f, 0x00, 0x92, 0x41, 0x7f, 0x00, 0x92, 0x3d, 0x7f, 0x00, 0x93,
  0x59, 0x7f, 0x00, 0x96, 0x3d, 0x7f, 0x00, 0x99, 0x2a, 0x36, 0x00, 0x99,
  0x3d, 0x53, 0x02, 0x83, 0x57, 0x7f, 0x16, 0x89, 0x2a, 0x36, 0x00, 0x89,
  0x3d, 0x53, 0x0a, 0x81, 0x22, 0x7f, 0x0e, 0x95, 0x35, 0x7f, 0x00, 0x99,
  0x2a, 0x47, 0x10, 0x85, 0x35, 0x7f, 0x08, 0x89, 0x2a, 0x47, 0x18, 0x95,
  0x38, 0x7f, 0x00, 0x99, 0x24, 0x7f, 0x00, 0x99, 0x2a, 0x64, 0x00, 0x99,
  0x3c, 0x53, 0x0e, 0x86, 0x3d, 0x7f, 0x02, 0x85, 0x38, 0x7f, 0x08, 0x89,
  0x24, 0x7f, 0x00, 0x89, 0x2a, 0x64, 0x00, 0x89, 0x3c, 0x53, 0x18, 0x96,
  0x3c, 0x68, 0x1c, 0x86, 0x3c, 0x68, 0x14, 0x91, 0x22, 0x7f, 0x00, 0x95,
  0x38, 0x7f, 0x00, 0x96, 0x3a, 0x78, 0x00, 0x99, 0x2a, 0x47, 0x10, 0x85,
  0x38, 0x7f, 0x08, 0x89, 0x2a, 0x47, 0x0a, 0x81, 0x22, 0x7f, 0x0e, 0x91,
  0x22, 0x7f, 0x00, 0x99, 0x2a, 0x47, 0x00, 0x99, 0x3e, 0x53, 0x18, 0x89,
  0x2a, 0x47, 0x00, 0x89, 0x3e, 0x53, 0x06, 0x86, 0x3a, 0x78, 0x04, 0x81,
  0x22, 0x7f, 0x0a, 0x83, 0x59, 0x7f, 0x04, 0x92, 0x3f, 0x7f, 0x00, 0x92,
  0x3c, 0x7f, 0x00, 0x93, 0x5c, 0x7f, 0x00, 0x95, 0x38, 0x7f, 0x00, 0xb6,
  0x01, 0x1c, 0x00, 0x96, 0x38, 0x76, 0x00, 0x99, 0x24, 0x7f, 0x00, 0x99,
  0x26, 0x70, 0x00, 0x99, 0x2a, 0x74, 0x00, 0x99, 0x3c, 0x53, 0x00, 0x99,
  0x27, 0x64, 0x06, 0x82, 0x3d, 0x7f, 0x0a, 0x85, 0x38, 0x7f, 0x08, 0x86,
  0x38, 0x76, 0x00, 0x89, 0x24, 0x7f, 0x00, 0x89, 0x26, 0x70, 0x00, 0x89,
  0x2a, 0x74, 0x00, 0x89, 0x3c, 0x53, 0x00, 0x89, 0x27, 0x64, 0x0a, 0x82,
  0x41, 0x7f, 0x0e, 0x91, 0x24, 0x7f, 0x00, 0x93, 0x5a, 0x7f, 0x00, 0x95,
  0x3a, 0x7f, 0x00, 0xb6, 0x01, 0x00, 0x00, 0x96, 0x3a, 0x7e, 0x02, 0x83,
  0x5c, 0x7f, 0x0e, 0x85, 0x3a, 0x7f, 0x04, 0x86, 0x3a, 0x7e, 0x0e, 0x81,
  0x24, 0x7f, 0x0e, 0x91, 0x22, 0x7f, 0x00, 0x93, 0x59, 0x7f, 0x00, 0x96,
  0x3d, 0x7e, 0x00, 0x99, 0x2e, 0x44, 0x00, 0x99, 0x3d, 0x53, 0x02, 0x83,
  0x5a, 0x7f, 0x16, 0x89, 0x2e, 0x44, 0x00, 0x89, 0x3d, 0x53, 0x04, 0x86,
  0x3d, 0x7e, 0x06, 0x81, 0x22, 0x7f, 0x0e, 0x93, 0x55, 0x7f, 0x00, 0x96,
  0x3a, 0x78, 0x08, 0x83, 0x59, 0x7f, 0x0a, 0x86, 0x3a, 0x78, 0x0c, 0x82,
  0x3c, 0x7f, 0x12, 0x80, 0x41, 0x7f, 0x00, 0x80, 0x3d, 0x7f, 0x00, 0x80,
  0x3a, 0x7f, 0x00, 0x82, 0x3f, 0x7f, 0x00, 0x90, 0x41, 0x7f, 0x00, 0x90,
  0x3d, 0x7f, 0x00, 0x90, 0x3a, 0x7f, 0x00, 0x90, 0x36, 0x7f, 0x00, 0x91,
  0x1b, 0x7f, 0x00, 0x92, 0x42, 0x7f, 0x00, 0x92, 0x3d, 0x7f, 0x00, 0x92,
  0x3a, 0x7f, 0x00, 0x96, 0x3d, 0x7e, 0x00, 0x99, 0x24, 0x7f, 0x00, 0x99,
  0x2a, 0x74, 0x00, 0x99, 0x3c, 0x53, 0x04, 0x82, 0x44, 0x7f, 0x14, 0x89,
  0x24, 0x7f, 0x00, 0x89, 0x2a, 0x74, 0x00, 0x89, 0x3c, 0x53, 0x0a, 0x81,
  0x1b, 0x7f, 0x0e, 0x95, 0x38, 0x7f, 0x10, 0x85, 0x38, 0x7f, 0x20, 0x91,
  0x1b, 0x7f, 0x00, 0x99, 0x2a, 0x2c, 0x18, 0x89, 0x2a, 0x2c, 0x0a, 0x81,
  0x1b, 0x7f, 0x0e, 0x91, 0x24, 0x7f, 0x00, 0x99, 0x2a, 0x64, 0x00, 0x99,
  0x3e, 0x53, 0x0a, 0x86, 0x3d, 0x7e, 0x0a, 0xe6, 0x4c, 0x3e, 0x04, 0x89,
  0x2a, 0x64, 0x00, 0x89, 0x3e, 0x53, 0x06, 0xe6, 0x46, 0x3c, 0x04, 0x81,
  0x24, 0x7f, 0x02, 0xe6, 0x7f, 0x3a, 0x06, 0xe6, 0x60, 0x3a, 0x06, 0x95,
  0x38, 0x7f, 0x00, 0xb6, 0x01, 0x21, 0x00, 0x96, 0x3f, 0x76, 0x00, 0x99,
  0x24, 0x7f, 0x00, 0x99, 0x26, 0x7c, 0x00, 0x99, 0x2a, 0x74, 0x00, 0x99,
  0x3c, 0x53, 0x00, 0x99, 0x27, 0x64, 0x04, 0xe6, 0x22, 0x3b, 0x04, 0xe6,
  0x46, 0x3c, 0x06, 0xe6, 0x3c, 0x3f, 0x02, 0x85, 0x38, 0x7f, 0x06, 0xe6,
  0x70, 0x3f, 0x02, 0x89, 0x24, 0x7f, 0x00, 0x89, 0x26, 0x7c, 0x00, 0x89,
  0x2a, 0x74, 0x00, 0x89, 0x3c, 0x53, 0x00, 0x89, 0x27, 0x64, 0x02, 0xe6,
  0x00, 0x40, 0x10, 0x86, 0x3f, 0x76, 0x06, 0x91, 0x24, 0x7f, 0x22, 0x81,
  0x24, 0x7f, 0x08, 0x82, 0x3d, 0x7f, 0x06, 0x80, 0x41, 0x7f, 0x00, 0x80,
  0x3d, 0x7f, 0x00, 0x80, 0x3a, 0x7f, 0x00, 0x80, 0x36, 0x7f, 0x00, 0x90,
  0x3f, 0x7f, 0x00, 0x90, 0x3c, 0x7f, 0x00, 0x90, 0x38, 0x7f, 0x00, 0x91,
  0x22, 0x7f, 0x00, 0x92, 0x44, 0x7f, 0x00, 0x92, 0x3f, 0x7f, 0x00, 0x92,
  0x3c, 0x7f, 0x00, 0x93, 0x57, 0x7f, 0x00, 0xb6, 0x01, 0x00, 0x00, 0x96,
  0x3c, 0x7e, 0x00, 0x99, 0x2a, 0x21, 0x00, 0x99, 0x3d, 0x53, 0x0a, 0x83,
  0x55, 0x7f, 0x02, 0x82, 0x3a, 0x7f, 0x0c, 0x89, 0x2a, 0x21, 0x00, 0x89,
  0x3d, 0x53, 0x0a, 0x81, 0x22, 0x7f, 0x02, 0x82, 0x42, 0x7f, 0x0c, 0x95,
  0x35, 0x7f, 0x00, 0x99, 0x2a, 0x53, 0x10, 0x85, 0x35, 0x7f, 0x08, 0x89,
  0x2a, 0x53, 0x18, 0x91, 0x20, 0x7f, 0x00, 0x95, 0x38, 0x7f, 0x00, 0x99,
  0x24, 0x7f, 0x00, 0x99, 0x2a, 0x74, 0x00, 0x99, 0x3c, 0x53, 0x10, 0x85,
  0x38, 0x7f, 0x08, 0x89, 0x24, 0x7f, 0x00, 0x89, 0x2a, 0x74, 0x00, 0x89,
  0x3c, 0x53, 0x02, 0x86, 0x3c, 0x7e, 0x08, 0x81, 0x20, 0x7f, 0x0e, 0x96,
  0x3a, 0x66, 0x16, 0x86, 0x3a, 0x66, 0x1a, 0x91, 0x20, 0x7f, 0x00, 0x95,
  0x38, 0x7f, 0x00, 0x96, 0x38, 0x7f, 0x00, 0x99, 0x2a, 0x47, 0x10, 0x85,
  0x38, 0x7f, 0x08, 0x89, 0x2a, 0x47, 0x0a, 0x81, 0x20, 0x7f, 0x0e, 0x99,
  0x2a, 0x53, 0x00, 0x99, 0x3e, 0x53, 0x18, 0x89, 0x2a, 0x53, 0x00, 0x89,
  0x3e, 0x53, 0x10, 0x83, 0x57, 0x7f, 0x08, 0x93, 0x50, 0x7f, 0x00, 0x99,
  0x24, 0x7f, 0x00, 0x99, 0x26, 0x70, 0x00, 0x99, 0x2a, 0x7f, 0x00, 0x99,
  0x3c, 0x53, 0x00, 0x99, 0x27, 0x74, 0x18, 0x89, 0x24, 0x7f, 0x00, 0x89,
  0x26, 0x70, 0x00, 0x89, 0x2a, 0x7f, 0x00, 0x89, 0x3c, 0x53, 0x00, 0x89,
  0x27, 0x74, 0x20, 0x86, 0x38, 0x7f, 0x12, 0xe6, 0x3c, 0x3f, 0x04, 0xe6,
  0x04, 0x3c, 0x08, 0xe6, 0x4f, 0x3a, 0x0a, 0x91, 0x1b, 0x7f, 0x00, 0x95,
  0x33, 0x7f, 0x00, 0xb6, 0x01, 0x3d, 0x00, 0x96, 0x38, 0x7f, 0x00, 0x99,
  0x2a, 0x30, 0x00, 0x99, 0x3d, 0x53, 0x0c, 0xe6, 0x46, 0x3c, 0x04, 0x85,
  0x33, 0x7f, 0x02, 0xe6, 0x1e, 0x3f, 0x06, 0x89, 0x2a, 0x30, 0x00, 0x89,
  0x3d, 0x53, 0x00, 0xe6, 0x5f, 0x3f, 0x02, 0xe6, 0x00, 0x40, 0x08, 0x81,
  0x1b, 0x7f, 0x0a, 0x86, 0x38, 0x7f, 0x04, 0x91, 0x1b, 0x7f, 0x00, 0x95,
  0x35, 0x7f, 0x00, 0x99, 0x2a, 0x3d, 0x10, 0x85, 0x35, 0x7f, 0x08, 0x89,
  0x2a, 0x3d, 0x0a, 0x81, 0x1b, 0x7f, 0x0e, 0x80, 0x3f, 0x7f, 0x00, 0x80,
  0x3c, 0x7f, 0x00, 0x80, 0x38, 0x7f, 0x00, 0x90, 0x3f, 0x7f, 0x00, 0x90,
  0x3c, 0x7f, 0x00, 0x90, 0x38, 0x7f, 0x00, 0x91, 0x1d, 0x7f, 0x00, 0x92,
  0x38, 0x7f, 0x00, 0xb6, 0x01, 0x00, 0x00, 0x96, 0x3f, 0x7f, 0x00, 0x99,
  0x24, 0x7f, 0x00, 0x99, 0x2a, 0x74, 0x00, 0x99, 0x3c, 0x53, 0x18, 0x89,
  0x24, 0x7f, 0x00, 0x89, 0x2a, 0x74, 0x00, 0x89, 0x3c, 0x53, 0x0a, 0x81,
  0x1d, 0x7f, 0x0e, 0x95, 0x38, 0x7f, 0x10, 0x85, 0x38, 0x7f, 0x16, 0x86,
  0x3f, 0x7f, 0x0a, 0x91, 0x1d, 0x7f, 0x00, 0x96, 0x3d, 0x70, 0x00, 0x99,
  0x2a, 0x47, 0x18, 0x89, 0x2a, 0x47, 0x0a, 0x81, 0x1d, 0x7f, 0x0e, 0x91,
  0x1d, 0x7f, 0x00, 0x99, 0x2a, 0x47, 0x00, 0x99, 0x3e, 0x53, 0x16, 0x86,
  0x3d, 0x70, 0x02, 0x89, 0x2a, 0x47, 0x00, 0x89, 0x3e, 0x53, 0x0a, 0x81,
  0x1d, 0x7f, 0x04, 0x82, 0x3f, 0x7f, 0x00, 0x82, 0x3c, 0x7f, 0x02, 0x82,
  0x38, 0x7f, 0x08, 0x92, 0x41, 0x7f, 0x00, 0x92, 0x3d, 0x7f, 0x00, 0x95,
  0x38, 0x7f, 0x00, 0x96, 0x3d, 0x7f, 0x00, 0x99, 0x24, 0x7f, 0x00, 0x99,
  0x26, 0x7c, 0x00, 0x99, 0x2a, 0x74, 0x00, 0x99, 0x3c, 0x53, 0x00, 0x99,
  0x27, 0x64, 0x10, 0x85, 0x38, 0x7f, 0x08, 0x89, 0x24, 0x7f, 0x00, 0x89,
  0x26, 0x7c, 0x00, 0x89, 0x2a, 0x74, 0x00, 0x89, 0x3c, 0x53, 0x00, 0x89,
  0x27, 0x64, 0x18, 0x91, 0x24, 0x7f, 0x22, 0x81, 0x24, 0x7f, 0x0e, 0x80,
  0x3f, 0x7f, 0x00, 0x80, 0x3c, 0x7f, 0x00, 0x80, 0x38, 0x7f, 0x00, 0x90,
  0x41, 0x7f, 0x00, 0x90, 0x3d, 0x7f, 0x00, 0x90, 0x3a, 0x7f, 0x00, 0x91,
  0x22, 0x7f, 0x00, 0x99, 0x2e, 0x44, 0x00, 0x99, 0x3d, 0x53, 0x18, 0x89,
  0x2e, 0x44, 0x00, 0x89, 0x3d, 0x53, 0x0a, 0x81, 0x22, 0x7f, 0x0e, 0x95,
  0x35, 0x7f, 0x10, 0x85, 0x35, 0x7f, 0x10, 0x86, 0x3d, 0x7f, 0x10, 0x94,
  0x50, 0x7f, 0x00, 0x94, 0x44, 0x7f, 0x00, 0x95, 0x38, 0x7f, 0x00, 0x99,
  0x24, 0x7f, 0x00, 0x99, 0x2a, 0x74, 0x00, 0x99, 0x3c, 0x53, 0x10, 0x85,
  0x38, 0x7f, 0x04, 0x84, 0x44, 0x7f, 0x04, 0x89, 0x24, 0x7f, 0x00, 0x89,
  0x2a, 0x74, 0x00, 0x89, 0x3c, 0x53, 0x08, 0x84, 0x50, 0x7f, 0x10, 0x94,
  0x50, 0x7f, 0x00, 0x94, 0x44, 0x7f, 0x1a, 0x84, 0x50, 0x7f, 0x04, 0x84,
  0x44, 0x7f, 0x12, 0x91, 0x20, 0x7f, 0x00, 0x95, 0x38, 0x7f, 0x00, 0x99,
  0x2a, 0x3d, 0x10, 0x85, 0x38, 0x7f, 0x08, 0x89, 0x2a, 0x3d, 0x0a, 0x81,
  0x20, 0x7f, 0x0e, 0x94, 0x50, 0x7f, 0x00, 0x94, 0x44, 0x7f, 0x00, 0x99,
  0x2a, 0x64, 0x00, 0x99, 0x3e, 0x53, 0x0e, 0x84, 0x50, 0x7f, 0x08, 0x84,
  0x44, 0x7f, 0x02, 0x89, 0x2a, 0x64, 0x00, 0x89, 0x3e, 0x53, 0x18, 0x91,
  0x25, 0x7f, 0x00, 0x94, 0x50, 0x7f, 0x00, 0x94, 0x44, 0x7f, 0x00, 0x96,
  0x38, 0x7f, 0x00, 0x99, 0x24, 0x7f, 0x00, 0x99, 0x26, 0x7d, 0x00, 0x99,
  0x2a, 0x74, 0x00, 0x99, 0x3c, 0x53, 0x00, 0x99, 0x27, 0x7d, 0x16, 0x84,
  0x50, 0x7f, 0x02, 0x84, 0x44, 0x7f, 0x00, 0x86, 0x38, 0x7f, 0x00, 0x89,
  0x24, 0x7f, 0x00, 0x89, 0x26, 0x7d, 0x00, 0x89, 0x2a, 0x74, 0x00, 0x89,
  0x3c, 0x53, 0x00, 0x89, 0x27, 0x7d, 0x0a, 0x81, 0x25, 0x7f, 0x0e, 0x91,
  0x22, 0x7f, 0x00, 0x94, 0x52, 0x7f, 0x00, 0x94, 0x46, 0x7f, 0x00, 0x95,
  0x38, 0x7f, 0x00, 0x96, 0x3a, 0x7f, 0x00, 0x99, 0x27, 0x69, 0x10, 0x85,
  0x38, 0x7f, 0x04, 0x86, 0x3a, 0x7f, 0x02, 0x84, 0x52, 0x7f, 0x02, 0x89,
  0x27, 0x69, 0x02, 0x84, 0x46, 0x7f, 0x08, 0x81, 0x22, 0x7f, 0x04, 0xe6,
  0x4e, 0x3f, 0x02, 0xe6, 0x67, 0x3c, 0x06, 0xe6, 0x4f, 0x3a, 0x02, 0x94,
  0x55, 0x7f, 0x00, 0x94, 0x49, 0x7f, 0x00, 0x96, 0x3d, 0x7f, 0x00, 0x99,
  0x2e, 0x5f, 0x00, 0x99, 0x3d, 0x53, 0x00, 0x99, 0x27, 0x55, 0x14, 0xe6,
  0x76, 0x3c, 0x02, 0x84, 0x55, 0x7f, 0x02, 0x84, 0x49, 0x7f, 0x00, 0x89,
  0x2e, 0x5f, 0x00, 0x89, 0x3d, 0x53, 0x00, 0x89, 0x27, 0x55, 0x02, 0x82,
  0x41, 0x7f, 0x02, 0xe6, 0x2f, 0x3f, 0x02, 0x86, 0x3d, 0x7f, 0x04, 0x82,
  0x44, 0x7f, 0x00, 0xe6, 0x5f, 0x3f, 0x02, 0xe6, 0x00, 0x40, 0x02, 0x82,
  0x3d, 0x7f, 0x0a, 0x91, 0x25, 0x7f, 0x00, 0x94, 0x55, 0x7f, 0x00, 0x94,
  0x49, 0x7f, 0x00, 0x95, 0x38, 0x7f, 0x00, 0x96, 0x3a, 0x7f, 0x00, 0x99,
  0x27, 0x41, 0x0a, 0x83, 0x50, 0x7f, 0x06, 0x85, 0x38, 0x7f, 0x04, 0x86,
  0x3a, 0x7f, 0x04, 0x89, 0x27, 0x41, 0x02, 0x84, 0x55, 0x7f, 0x00, 0x84,
  0x49, 0x7f, 0x08, 0x81, 0x25, 0x7f, 0x0e, 0x80, 0x41, 0x7f, 0x00, 0x80,
  0x3d, 0x7f, 0x00, 0x80, 0x3a, 0x7f, 0x00, 0x90, 0x41, 0x7f, 0x00, 0x90,
  0x3d, 0x7f, 0x00, 0x90, 0x3a, 0x7f, 0x00, 0x90, 0x36, 0x7f, 0x00, 0x91,
  0x1b, 0x7f, 0x00, 0x92, 0x42, 0x7f, 0x00, 0x92, 0x3d, 0x7f, 0x00, 0x92,
  0x3a, 0x7f, 0x00, 0x93, 0x55, 0x7f, 0x00, 0x96, 0x41, 0x7f, 0x00, 0x99,
  0x24, 0x7f, 0x00, 0x99, 0x2a, 0x70, 0x00, 0x99, 0x3c, 0x53, 0x18, 0x89,
  0x24, 0x7f, 0x00, 0x89, 0x2a, 0x70, 0x00, 0x89, 0x3c, 0x53, 0x0a, 0x81,
  0x1b, 0x7f, 0x0e, 0x95, 0x38, 0x7f, 0x10, 0x85, 0x38, 0x7f, 0x20, 0x91,
  0x1b, 0x7f, 0x00, 0x99, 0x2a, 0x36, 0x18, 0x89, 0x2a, 0x36, 0x0a, 0x81,
  0x1b, 0x7f, 0x0e, 0x91, 0x1b, 0x7f, 0x00, 0x99, 0x2a, 0x64, 0x00, 0x99,
  0x3e, 0x53, 0x10, 0x86, 0x41, 0x7f, 0x08, 0x89, 0x2a, 0x64, 0x00, 0x89,
  0x3e, 0x53, 0x0a, 0x81, 0x1b, 0x7f, 0x0e, 0x95, 0x38, 0x7f, 0x00, 0x96,
  0x41, 0x7f, 0x00, 0x99, 0x24, 0x7f, 0x00, 0x99, 0x26, 0x70, 0x00, 0x99,
  0x2a, 0x74, 0x00, 0x99, 0x3c, 0x53, 0x00, 0x99, 0x27, 0x64, 0x10, 0x85,
  0x38, 0x7f, 0x08, 0x89, 0x24, 0x7f, 0x00, 0x89, 0x26, 0x70, 0x00, 0x89,
  0x2a, 0x74, 0x00, 0x89, 0x3c, 0x53, 0x00, 0x89, 0x27, 0x64, 0x18, 0x91,
  0x24, 0x7f, 0x12, 0x86, 0x41, 0x7f, 0x0e, 0x82, 0x3d, 0x7f, 0x02, 0x81,
  0x24, 0x7f, 0x00, 0x83, 0x55, 0x7f, 0x08, 0x82, 0x3a, 0x7f, 0x06, 0x80,
  0x41, 0x7f, 0x00, 0x80, 0x3d, 0x7f, 0x00, 0x80, 0x3a, 0x7f, 0x00, 0x80,
  0x36, 0x7f, 0x00, 0x90, 0x3f, 0x7f, 0x00, 0x90, 0x3c, 0x7f, 0x00, 0x90,
  0x38, 0x7f, 0x00, 0x91, 0x22, 0x7f, 0x00, 0x92, 0x44, 0x7f, 0x00, 0x92,
  0x3f, 0x7f, 0x00, 0x92, 0x3c, 0x7f, 0x00, 0x93, 0x57, 0x7f, 0x00, 0x96,
  0x3f, 0x7f, 0x00, 0x99, 0x2a, 0x28, 0x00, 0x99, 0x3d, 0x53, 0x14, 0x82,
  0x42, 0x7f, 0x04, 0x89, 0x2a, 0x28, 0x00, 0x89, 0x3d, 0x53, 0x0a, 0x81,
  0x22, 0x7f, 0x0e, 0x95, 0x35, 0x7f, 0x00, 0x99, 0x2a, 0x53, 0x10, 0x85,
  0x35, 0x7f, 0x08, 0x89, 0x2a, 0x53, 0x18, 0x91, 0x20, 0x7f, 0x00, 0x95,
  0x38, 0x7f, 0x00, 0x99, 0x24, 0x7f, 0x00, 0x99, 0x2a, 0x74, 0x00, 0x99,
  0x3c, 0x53, 0x10, 0x85, 0x38, 0x7f, 0x08, 0x89, 0x24, 0x7f, 0x00, 0x89,
  0x2a, 0x74, 0x00, 0x89, 0x3c, 0x53, 0x0a, 0x81, 0x20, 0x7f, 0x30, 0x86,
  0x3f, 0x7f, 0x0e, 0x91, 0x20, 0x7f, 0x00, 0x99, 0x2a, 0x30, 0x18, 0x89,
  0x2a, 0x30, 0x0a, 0x81, 0x20, 0x7f, 0x0e, 0x95, 0x38, 0x7f, 0x00, 0x99,
  0x2a, 0x47, 0x00, 0x99, 0x3e, 0x53, 0x10, 0x85, 0x38, 0x7f, 0x08, 0x89,
  0x2a, 0x47, 0x00, 0x89, 0x3e, 0x53, 0x18, 0x96, 0x38, 0x7f, 0x00, 0x99,
  0x24, 0x7f, 0x00, 0x99, 0x26, 0x7c, 0x00, 0x99, 0x2a, 0x74, 0x00, 0x99,
  0x3c, 0x53, 0x00, 0x99, 0x27, 0x74, 0x18, 0x86, 0x38, 0x7f, 0x00, 0x89,
  0x24, 0x7f, 0x00, 0x89, 0x26, 0x7c, 0x00, 0x89, 0x2a, 0x74, 0x00, 0x89,
  0x3c, 0x53, 0x00, 0x89, 0x27, 0x74, 0x18, 0x96, 0x3a, 0x78, 0x12, 0x86,
  0x3a, 0x78, 0x14, 0xe6, 0x3c, 0x3f, 0x04, 0xe6, 0x23, 0x3c, 0x06, 0x91,
  0x1b, 0x7f, 0x00, 0x93, 0x50, 0x7f, 0x00, 0x95, 0x35, 0x7f, 0x00, 0xb6,
  0x01, 0x2b, 0x00, 0x96, 0x3d, 0x76, 0x00, 0x99, 0x2a, 0x0d, 0x00, 0x99,
  0x3d, 0x53, 0x02, 0xe6, 0x60, 0x3a, 0x02, 0x83, 0x57, 0x7f, 0x04, 0xe6,
  0x4f, 0x3a, 0x08, 0x85, 0x35, 0x7f, 0x00, 0xe6, 0x10, 0x3b, 0x06, 0xe6,
  0x46, 0x3c, 0x02, 0x89, 0x2a, 0x0d, 0x00, 0x89, 0x3d, 0x53, 0x06, 0xe6,
  0x3b, 0x3e, 0x02, 0x86, 0x3d, 0x76, 0x02, 0x81, 0x1b, 0x7f, 0x02, 0xe6,
  0x70, 0x3f, 0x06, 0xe6, 0x00, 0x40, 0x06, 0x91, 0x20, 0x7f, 0x00, 0x95,
  0x38, 0x7f, 0x00, 0xb6, 0x01, 0x00, 0x00, 0x96, 0x3a, 0x63, 0x00, 0x99,
  0x2a, 0x47, 0x08, 0x86, 0x3a, 0x63, 0x08, 0x85, 0x38, 0x7f, 0x08, 0x89,
  0x2a, 0x47, 0x0a, 0x81, 0x20, 0x7f, 0x0e, 0x80, 0x3f, 0x7f, 0x00, 0x80,
  0x3c, 0x7f, 0x00, 0x80, 0x38, 0x7f, 0x00, 0x90, 0x3f, 0x7f, 0x00, 0x90,
  0x3c, 0x7f, 0x00, 0x90, 0x38, 0x7f, 0x00, 0x91, 0x1d, 0x7f, 0x00, 0x93,
  0x57, 0x7f, 0x00, 0x96, 0x44, 0x7f, 0x00, 0x99, 0x24, 0x7f, 0x00, 0x99,
  0x2a, 0x64, 0x00, 0x99, 0x3c, 0x53, 0x02, 0x83, 0x50, 0x7f, 0x16, 0x89,
  0x24, 0x7f, 0x00, 0x89, 0x2a, 0x64, 0x00, 0x89, 0x3c, 0x53, 0x0a, 0x81,
  0x1d, 0x7f, 0x0e, 0x95, 0x38, 0x7f, 0x10, 0x85, 0x38, 0x7f, 0x20, 0x91,
  0x1d, 0x7f, 0x00, 0x99, 0x2a, 0x36, 0x18, 0x89, 0x2a, 0x36, 0x0a, 0x81,
  0x1d, 0x7f, 0x0e, 0x91, 0x24, 0x7f, 0x00, 0x99, 0x2a, 0x53, 0x00, 0x99,
  0x3e, 0x53, 0x14, 0x86, 0x44, 0x7f, 0x04, 0x89, 0x2a, 0x53, 0x00, 0x89,
  0x3e, 0x53, 0x0a, 0x81, 0x24, 0x7f, 0x0e, 0x95, 0x38, 0x7f, 0x00, 0x96,
  0x3d, 0x7f, 0x00, 0x99, 0x24, 0x7f, 0x00, 0x99, 0x26, 0x70, 0x00, 0x99,
  0x2a, 0x74, 0x00, 0x99, 0x3c, 0x53, 0x00, 0x99, 0x27, 0x74, 0x10, 0x85,
  0x38, 0x7f, 0x08, 0x89, 0x24, 0x7f, 0x00, 0x89, 0x26, 0x70, 0x00, 0x89,
  0x2a, 0x74, 0x00, 0x89, 0x3c, 0x53, 0x00, 0x89, 0x27, 0x74, 0x08, 0x86,
  0x3d, 0x7f, 0x10, 0x91, 0x24, 0x7f, 0x20, 0x82, 0x3f, 0x7f, 0x02, 0x81,
  0x24, 0x7f, 0x06, 0x82, 0x3c, 0x7f, 0x08, 0x80, 0x3f, 0x7f, 0x00, 0x80,
  0x3c, 0x7f, 0x00, 0x80, 0x38, 0x7f, 0x00, 0x90, 0x41, 0x7f, 0x00, 0x90,
  0x3d, 0x7f, 0x00, 0x90, 0x3a, 0x7f, 0x00, 0x91, 0x22, 0x7f, 0x00, 0x92,
  0x41, 0x7f, 0x00, 0x92, 0x3d, 0x7f, 0x00, 0x93, 0x59, 0x7f, 0x00, 0x96,
  0x3d, 0x7f, 0x00, 0x99, 0x2a, 0x36, 0x00, 0x99, 0x3d, 0x53, 0x02, 0x83,
  0x57, 0x7f, 0x16, 0x89, 0x2a, 0x36, 0x00, 0x89, 0x3d, 0x53, 0x0a, 0x81,
  0x22, 0x7f, 0x0e, 0x95, 0x35, 0x7f, 0x00, 0x99, 0x2a, 0x47, 0x10, 0x85,
  0x35, 0x7f, 0x08, 0x89, 0x2a, 0x47, 0x18, 0x95, 0x38, 0x7f, 0x00, 0x99,
  0x24, 0x7f, 0x00, 0x99, 0x2a, 0x64, 0x00, 0x99, 0x3c, 0x53, 0x10, 0x85,
  0x38, 0x7f, 0x08, 0x89, 0x24, 0x7f, 0x00, 0x89, 0x2a, 0x64, 0x00, 0x89,
  0x3c, 0x53, 0x10, 0x86, 0x3d, 0x7f, 0x08, 0x96, 0x3c, 0x68, 0x18, 0x86,
  0x3c, 0x68, 0x18, 0x91, 0x22, 0x7f, 0x00, 0x95, 0x38, 0x7f, 0x00, 0x96,
  0x3a, 0x7c, 0x00, 0x99, 0x2a, 0x47, 0x10, 0x85, 0x38, 0x7f, 0x08, 0x89,
  0x2a, 0x47, 0x0a, 0x81, 0x22, 0x7f, 0x0e, 0x91, 0x22, 0x7f, 0x00, 0x99,
  0x2a, 0x47, 0x00, 0x99, 0x3e, 0x53, 0x18, 0x89, 0x2a, 0x47, 0x00, 0x89,
  0x3e, 0x53, 0x06, 0x86, 0x3a, 0x7c, 0x04, 0x81, 0x22, 0x7f, 0x0a, 0x83,
  0x59, 0x7f, 0x04, 0x92, 0x3f, 0x7f, 0x00, 0x92, 0x3c, 0x7f, 0x00, 0x93,
  0x5c, 0x7f, 0x00, 0x95, 0x38, 0x7f, 0x00, 0x96, 0x38, 0x7f, 0x00, 0x99,
  0x24, 0x7f, 0x00, 0x99, 0x26, 0x70, 0x00, 0x99, 0x2a, 0x74, 0x00, 0x99,
  0x3c, 0x53, 0x00, 0x99, 0x27, 0x64, 0x06, 0x82, 0x3d, 0x7f, 0x0a, 0x85,
  0x38, 0x7f, 0x08, 0x86, 0x38, 0x7f, 0x00, 0x89, 0x24, 0x7f, 0x00, 0x89,
  0x26, 0x70, 0x00, 0x89, 0x2a, 0x74, 0x00, 0x89, 0x3c, 0x53, 0x00, 0x89,
  0x27, 0x64, 0x0a, 0x82, 0x41, 0x7f, 0x0e, 0x91, 0x24, 0x7f, 0x00, 0x93,
  0x5a, 0x7f, 0x00, 0x95, 0x3a, 0x7f, 0x00, 0xb6, 0x01, 0x05, 0x00, 0x96,
  0x3a, 0x7f, 0x02, 0x83, 0x5c, 0x7f, 0x0c, 0x86, 0x3a, 0x7f, 0x02, 0x85,
  0x3a, 0x7f, 0x12, 0x81, 0x24, 0x7f, 0x0e, 0x91, 0x22, 0x7f, 0x00, 0x93,
  0x59, 0x7f, 0x00, 0xb6, 0x01, 0x00, 0x00, 0x96, 0x3d, 0x7f, 0x00, 0x99,
  0x2e, 0x44, 0x00, 0x99, 0x3d, 0x53, 0x02, 0x83, 0x5a, 0x7f, 0x16, 0x89,
  0x2e, 0x44, 0x00, 0x89, 0x3d, 0x53, 0x0a, 0x81, 0x22, 0x7f, 0x00, 0x86,
  0x3d, 0x7f, 0x0e, 0x93, 0x55, 0x7f, 0x00, 0x96, 0x3a, 0x68, 0x08, 0x83,
  0x59, 0x7f, 0x06, 0x86, 0x3a, 0x68, 0x10, 0x82, 0x3c, 0x7f, 0x12, 0x80,
  0x41, 0x7f, 0x00, 0x80, 0x3d, 0x7f, 0x00, 0x80, 0x3a, 0x7f, 0x00, 0x82,
  0x3f, 0x7f, 0x00, 0x90, 0x3d, 0x7f, 0x00, 0x90, 0x3a, 0x7f, 0x00, 0x90,
  0x36, 0x7f, 0x00, 0x91, 0x1b, 0x7f, 0x00, 0x92, 0x42, 0x7f, 0x00, 0x92,
  0x3d, 0x7f, 0x00, 0x92, 0x3a, 0x7f, 0x00, 0x96, 0x3d, 0x7f, 0x00, 0x99,
  0x24, 0x7f, 0x00, 0x99, 0x2a, 0x74, 0x00, 0x99, 0x3c, 0x53, 0x04, 0x82,
  0x44, 0x7f, 0x14, 0x89, 0x24, 0x7f, 0x00, 0x89, 0x2a, 0x74, 0x00, 0x89,
  0x3c, 0x53, 0x0a, 0x81, 0x1b, 0x7f, 0x0e, 0x95, 0x38, 0x7f, 0x10, 0x85,
  0x38, 0x7f, 0x20, 0x91, 0x1b, 0x7f, 0x00, 0x99, 0x2a, 0x2c, 0x18, 0x89,
  0x2a, 0x2c, 0x0a, 0x81, 0x1b, 0x7f, 0x0e, 0x91, 0x24, 0x7f, 0x00, 0x99,
  0x2a, 0x64, 0x00, 0x99, 0x3e, 0x53, 0x14, 0x86, 0x3d, 0x7f, 0x04, 0x89,
  0x2a, 0x64, 0x00, 0x89, 0x3e, 0x53, 0x00, 0xe6, 0x1e, 0x3f, 0x06, 0xe6,
  0x56, 0x3c, 0x04, 0x81, 0x24, 0x7f, 0x02, 0xe6, 0x7f, 0x3a, 0x06, 0xe6,
  0x4f, 0x3a, 0x06, 0x95, 0x38, 0x7f, 0x00, 0xb6, 0x01, 0x30, 0x00, 0x96,
  0x3f, 0x7f, 0x00, 0x99, 0x24, 0x7f, 0x00, 0x99, 0x26, 0x7c, 0x00, 0x99,
  0x2a, 0x74, 0x00, 0x99, 0x3c, 0x53, 0x00, 0x99, 0x27, 0x64, 0x06, 0xe6,
  0x10, 0x3b, 0x02, 0xe6, 0x67, 0x3c, 0x08, 0x85, 0x38, 0x7f, 0x00, 0xe6,
  0x3c, 0x3f, 0x08, 0x89, 0x24, 0x7f, 0x00, 0x89, 0x26, 0x7c, 0x00, 0x89,
  0x2a, 0x74, 0x00, 0x89, 0x3c, 0x53, 0x00, 0x89, 0x27, 0x64, 0x00, 0xe6,
  0x70, 0x3f, 0x02, 0xe6, 0x00, 0x40, 0x08, 0x86, 0x3f, 0x7f, 0x0e, 0x91,
  0x24, 0x7f, 0x0a, 0x80, 0x3a, 0x7f, 0x08, 0x80, 0x36, 0x7f, 0x10, 0x81,
  0x24, 0x7f, 0x08, 0x82, 0x3d, 0x7f, 0x06, 0x90, 0x3f, 0x7f, 0x00, 0x90,
  0x3c, 0x7f, 0x00, 0x90, 0x38, 0x7f, 0x00, 0x91, 0x22, 0x7f, 0x00, 0x92,
  0x44, 0x7f, 0x00, 0x92, 0x3f, 0x7f, 0x00, 0x92, 0x3c, 0x7f, 0x00, 0x93,
  0x57, 0x7f, 0x00, 0xb6, 0x01, 0x00, 0x00, 0x96, 0x3c, 0x7f, 0x00, 0x96,
  0x3a, 0x7f, 0x00, 0x99, 0x2a, 0x21, 0x00, 0x99, 0x3d, 0x53, 0x0a, 0x83,
  0x55, 0x7f, 0x02, 0x80, 0x3d, 0x7f, 0x00, 0x82, 0x3a, 0x7f, 0x0c, 0x89,
  0x2a, 0x21, 0x00, 0x89, 0x3d, 0x53, 0x0a, 0x81, 0x22, 0x7f, 0x02, 0x82,
  0x42, 0x7f, 0x04, 0x86, 0x3a, 0x7f, 0x08, 0x95, 0x35, 0x7f, 0x00, 0x99,
  0x2a, 0x53, 0x10, 0x85, 0x35, 0x7f, 0x08, 0x89, 0x2a, 0x53, 0x18, 0x91,
  0x20, 0x7f, 0x00, 0x95, 0x38, 0x7f, 0x00, 0x99, 0x24, 0x7f, 0x00, 0x99,
  0x2a, 0x74, 0x00, 0x99, 0x3c, 0x53, 0x10, 0x85, 0x38, 0x7f, 0x08, 0x89,
  0x24, 0x7f, 0x00, 0x89, 0x2a, 0x74, 0x00, 0x89, 0x3c, 0x53, 0x0a, 0x81,
  0x20, 0x7f, 0x00, 0x86, 0x3c, 0x7f, 0x0e, 0x96, 0x3a, 0x6c, 0x14, 0x86,
  0x3a, 0x6c, 0x1c, 0x91, 0x20, 0x7f, 0x00, 0x95, 0x38, 0x7f, 0x00, 0x96,
  0x38, 0x7f, 0x00, 0x99, 0x2a, 0x47, 0x10, 0x85, 0x38, 0x7f, 0x08, 0x89,
  0x2a, 0x47, 0x0a, 0x81, 0x20, 0x7f, 0x0e, 0x99, 0x2a, 0x53, 0x00, 0x99,
  0x3e, 0x53, 0x18, 0x89, 0x2a, 0x53, 0x00, 0x89, 0x3e, 0x53, 0x10, 0x83,
  0x57, 0x7f, 0x08, 0x93, 0x50, 0x7f, 0x00, 0x99, 0x24, 0x7f, 0x00, 0x99,
  0x26, 0x70, 0x00, 0x99, 0x2a, 0x7f, 0x00, 0x99, 0x3c, 0x53, 0x00, 0x99,
  0x27, 0x74, 0x18, 0x89, 0x24, 0x7f, 0x00, 0x89, 0x26, 0x70, 0x00, 0x89,
  0x2a, 0x7f, 0x00, 0x89, 0x3c, 0x53, 0x00, 0x89, 0x27, 0x74, 0x24, 0x86,
  0x38, 0x7f, 0x12, 0xe6, 0x70, 0x3f, 0x02, 0xe6, 0x7a, 0x3d, 0x06, 0xe6,
  0x62, 0x3b, 0x08, 0xe6, 0x22, 0x3b, 0x02, 0x91, 0x1b, 0x7f, 0x00, 0x95,
  0x33, 0x7f, 0x00, 0xb6, 0x01, 0x3f, 0x00, 0x96, 0x38, 0x7f, 0x00, 0x99,
  0x2a, 0x30, 0x00, 0x99, 0x3d, 0x53, 0x06, 0xe6, 0x62, 0x3b, 0x06, 0xe6,
  0x76, 0x3c, 0x04, 0x85, 0x33, 0x7f, 0x02, 0xe6, 0x3b, 0x3e, 0x06, 0x89,
  0x2a, 0x30, 0x00, 0x89, 0x3d, 0x53, 0x02, 0xe6, 0x5f, 0x3f, 0x08, 0x81,
  0x1b, 0x7f, 0x00, 0xe6, 0x70, 0x3f, 0x02, 0xe6, 0x00, 0x40, 0x04, 0x86,
  0x38, 0x7f, 0x08, 0x91, 0x1b, 0x7f, 0x00, 0x95, 0x35, 0x7f, 0x00, 0x99,
  0x2a, 0x3d, 0x10, 0x85, 0x35, 0x7f, 0x08, 0x89, 0x2a, 0x3d, 0x0a, 0x81,
  0x1b, 0x7f, 0x0e, 0x80, 0x3f, 0x7f, 0x00, 0x80, 0x3c, 0x7f, 0x00, 0x80,
  0x38, 0x7f, 0x00, 0x90, 0x3f, 0x7f, 0x00, 0x90, 0x3c, 0x7f, 0x00, 0x90,
  0x38, 0x7f, 0x00, 0x91, 0x1d, 0x7f, 0x00, 0x92, 0x38, 0x7f, 0x00, 0xb6,
  0x01, 0x00, 0x00, 0x96, 0x3f, 0x7f, 0x00, 0x99, 0x24, 0x7f, 0x00, 0x99,
  0x2a, 0x74, 0x00, 0x99, 0x3c, 0x53, 0x18, 0x89, 0x24, 0x7f, 0x00, 0x89,
  0x2a, 0x74, 0x00, 0x89, 0x3c, 0x53, 0x0a, 0x81, 0x1d, 0x7f, 0x0e, 0x95,
  0x38, 0x7f, 0x10, 0x85, 0x38, 0x7f, 0x20, 0x91, 0x1d, 0x7f, 0x00, 0x99,
  0x30, 0x5f, 0x18, 0x89, 0x30, 0x5f, 0x0a, 0x81, 0x1d, 0x7f, 0x0e, 0x91,
  0x1d, 0x7f, 0x00, 0x99, 0x3e, 0x53, 0x00, 0x99, 0x30, 0x3b, 0x14, 0x86,
  0x3f, 0x7f, 0x04, 0x89, 0x3e, 0x53, 0x00, 0x89, 0x30, 0x3b, 0x0a, 0x81,
  0x1d, 0x7f, 0x04, 0x82, 0x3f, 0x7f, 0x00, 0x82, 0x3c, 0x7f, 0x02, 0x82,
  0x38, 0x7f, 0x08, 0x80, 0x3f, 0x7f, 0x00, 0x80, 0x3c, 0x7f, 0x00, 0x80,
  0x38, 0x7f, 0x00, 0x90, 0x41, 0x7f, 0x00, 0x90, 0x3d, 0x7f, 0x00, 0x90,
  0x38, 0x7f, 0x00, 0x92, 0x41, 0x7f, 0x00, 0x92, 0x3d, 0x7f, 0x00, 0x95,
  0x38, 0x7f, 0x00, 0x96, 0x3d, 0x7f, 0x00, 0x99, 0x24, 0x7f, 0x00, 0x99,
  0x26, 0x7c, 0x00, 0x99, 0x3c, 0x53, 0x00, 0x99, 0x27, 0x64, 0x00, 0x99,
  0x30, 0x3b, 0x10, 0x85, 0x38, 0x7f, 0x08, 0x89, 0x24, 0x7f, 0x00, 0x89,
  0x26, 0x7c, 0x00, 0x89, 0x3c, 0x53, 0x00, 0x89, 0x27, 0x64, 0x00, 0x89,
  0x30, 0x3b, 0x18, 0x91, 0x24, 0x7f, 0x00, 0x99, 0x30, 0x50, 0x18, 0x89,
  0x30, 0x50, 0x0a, 0x81, 0x24, 0x7f, 0x0e, 0x91, 0x22, 0x7f, 0x00, 0x99,
  0x2e, 0x44, 0x00, 0x99, 0x3d, 0x53, 0x00, 0x99, 0x2d, 0x70, 0x18, 0x89,
  0x2e, 0x44, 0x00, 0x89, 0x3d, 0x53, 0x00, 0x89, 0x2d, 0x70, 0x0a, 0x81,
  0x22, 0x7f, 0x0e, 0x95, 0x35, 0x7f, 0x00, 0x99, 0x2d, 0x70, 0x10, 0x85,
  0x35, 0x7f, 0x08, 0x89, 0x2d, 0x70, 0x18, 0x94, 0x55, 0x7f, 0x00, 0x94,
  0x50, 0x7f, 0x00, 0x94, 0x44, 0x7f, 0x00, 0x95, 0x38, 0x7f, 0x00, 0x99,
  0x24, 0x7f, 0x00, 0x99, 0x3c, 0x53, 0x00, 0x99, 0x2d, 0x70, 0x10, 0x85,
  0x38, 0x7f, 0x02, 0x84, 0x55, 0x7f, 0x02, 0x84, 0x44, 0x7f, 0x00, 0x86,
  0x3d, 0x7f, 0x04, 0x89, 0x24, 0x7f, 0x00, 0x89, 0x3c, 0x53, 0x00, 0x89,
  0x2d, 0x70, 0x08, 0x84, 0x50, 0x7f, 0x10, 0x94, 0x55, 0x7f, 0x00, 0x94,
  0x50, 0x7f, 0x00, 0x94, 0x44, 0x7f, 0x00, 0x99, 0x2d, 0x7c, 0x16, 0x84,
  0x55, 0x7f, 0x02, 0x89, 0x2d, 0x7c, 0x02, 0x84, 0x50, 0x7f, 0x04, 0x84,
  0x44, 0x7f, 0x12, 0x91, 0x20, 0x7f, 0x00, 0x95, 0x38, 0x7f, 0x00, 0x99,
  0x29, 0x44, 0x10, 0x85, 0x38, 0x7f, 0x08, 0x89, 0x29, 0x44, 0x0a, 0x81,
  0x20, 0x7f, 0x0e, 0x94, 0x55, 0x7f, 0x00, 0x94, 0x50, 0x7f, 0x00, 0x94,
  0x44, 0x7f, 0x00, 0x99, 0x3e, 0x53, 0x00, 0x99, 0x29, 0x70, 0x0e, 0x84,
  0x50, 0x7f, 0x06, 0x84, 0x55, 0x7f, 0x02, 0x84, 0x44, 0x7f, 0x02, 0x89,
  0x3e, 0x53, 0x00, 0x89, 0x29, 0x70, 0x18, 0x91, 0x25, 0x63, 0x00, 0x94,
  0x55, 0x7f, 0x00, 0x94, 0x50, 0x7f, 0x00, 0x94, 0x44, 0x7f, 0x00, 0x96,
  0x38, 0x7f, 0x00, 0x99, 0x24, 0x7f, 0x00, 0x99, 0x26, 0x7d, 0x00, 0x99,
  0x3c, 0x53, 0x00, 0x99, 0x27, 0x7d, 0x00, 0x99, 0x29, 0x70, 0x16, 0x84,
  0x55, 0x7f, 0x00, 0x84, 0x50, 0x7f, 0x00, 0x86, 0x38, 0x7f, 0x02, 0x84,
  0x44, 0x7f, 0x00, 0x89, 0x24, 0x7f, 0x00, 0x89, 0x26, 0x7d, 0x00, 0x89,
  0x3c, 0x53, 0x00, 0x89, 0x27, 0x7d, 0x00, 0x89, 0x29, 0x70, 0x0a, 0x81,
  0x25, 0x63, 0x0e, 0x91, 0x22, 0x75, 0x00, 0x94, 0x55, 0x7f, 0x00, 0x94,
  0x50, 0x7f, 0x00, 0x94, 0x44, 0x7f, 0x00, 0x95, 0x38, 0x7f, 0x00, 0x96,
  0x3a, 0x7f, 0x00, 0x99, 0x27, 0x69, 0x00, 0x99, 0x29, 0x70, 0x10, 0x85,
  0x38, 0x7f, 0x06, 0x84, 0x55, 0x7f, 0x00, 0x84, 0x50, 0x7f, 0x00, 0x86,
  0x3a, 0x7f, 0x02, 0x89, 0x27, 0x69, 0x00, 0x89, 0x29, 0x70, 0x02, 0x84,
  0x44, 0x7f, 0x08, 0x81, 0x22, 0x75, 0x0e, 0x94, 0x55, 0x7f, 0x00, 0x94,
  0x50, 0x7f, 0x00, 0x94, 0x44, 0x7f, 0x00, 0x96, 0x3d, 0x7f, 0x00, 0x99,
  0x3d, 0x53, 0x00, 0x99, 0x27, 0x55, 0x00, 0x99, 0x29, 0x70, 0x16, 0x84,
  0x55, 0x7f, 0x02, 0x84, 0x50, 0x7f, 0x00, 0x84, 0x44, 0x7f, 0x00, 0x89,
  0x3d, 0x53, 0x00, 0x89, 0x27, 0x55, 0x00, 0x89, 0x29, 0x70, 0x02, 0x82,
  0x41, 0x7f, 0x00, 0x86, 0x3d, 0x7f, 0x08, 0x82, 0x44, 0x7f, 0x04, 0x82,
  0x3d, 0x7f, 0x0a, 0x91, 0x25, 0x63, 0x00, 0x94, 0x55, 0x7f, 0x00, 0x94,
  0x50, 0x7f, 0x00, 0x94, 0x44, 0x7f, 0x00, 0x95, 0x38, 0x7f, 0x00, 0x96,
  0x3a, 0x7f, 0x00, 0x99, 0x27, 0x41, 0x00, 0x99, 0x29, 0x7c, 0x10, 0x85,
  0x38, 0x7f, 0x02, 0x83, 0x50, 0x7f, 0x06, 0x89, 0x27, 0x41, 0x00, 0x89,
  0x29, 0x7c, 0x02, 0x84, 0x55, 0x7f, 0x00, 0x84, 0x44, 0x7f, 0x00, 0x86,
  0x3a, 0x7f, 0x02, 0x84, 0x50, 0x7f, 0x06, 0x81, 0x25, 0x63, 0x0e, 0x80,
  0x41, 0x7f, 0x00, 0x80, 0x3d, 0x7f, 0x00, 0x80, 0x38, 0x7f, 0x00, 0x91,
  0x22, 0x7f, 0x00, 0x92, 0x44, 0x7f, 0x00, 0x99, 0x24, 0x7f, 0x00, 0x99,
  0x2a, 0x70, 0x00, 0x99, 0x3c, 0x53, 0x18, 0x89, 0x24, 0x7f, 0x00, 0x89,
  0x2a, 0x70, 0x00, 0x89, 0x3c, 0x53, 0x02, 0x81, 0x22, 0x7f, 0x16, 0x95,
  0x38, 0x7f, 0x10, 0x85, 0x38, 0x7f, 0x20, 0x91, 0x22, 0x7f, 0x00, 0x99,
  0x2a, 0x36, 0x18, 0x81, 0x22, 0x7f, 0x00, 0x89, 0x2a, 0x36, 0x18, 0x91,
  0x22, 0x7f, 0x00, 0x99, 0x2a, 0x64, 0x00, 0x99, 0x3e, 0x53, 0x18, 0x89,
  0x2a, 0x64, 0x00, 0x89, 0x3e, 0x53, 0x0a, 0x81, 0x22, 0x7f, 0x0e, 0x95,
  0x38, 0x7f, 0x00, 0x99, 0x24, 0x7f, 0x00, 0x99, 0x26, 0x70, 0x00, 0x99,
  0x2a, 0x74, 0x00, 0x99, 0x3c, 0x53, 0x00, 0x99, 0x27, 0x64, 0x10, 0x85,
  0x38, 0x7f, 0x08, 0x89, 0x24, 0x7f, 0x00, 0x89, 0x26, 0x70, 0x00, 0x89,
  0x2a, 0x74, 0x00, 0x89, 0x3c, 0x53, 0x00, 0x89, 0x27, 0x64, 0x18, 0x91,
  0x25, 0x7f, 0x2a, 0x81, 0x25, 0x7f, 0x06, 0x91, 0x24, 0x7f, 0x00, 0x99,
  0x2a, 0x28, 0x00, 0x99, 0x3d, 0x53, 0x18, 0x89, 0x2a, 0x28, 0x00, 0x89,
  0x3d, 0x53, 0x0a, 0x81, 0x24, 0x7f, 0x0e, 0x95, 0x35, 0x7f, 0x00, 0x99,
  0x2a, 0x53, 0x10, 0x85, 0x35, 0x7f, 0x08, 0x89, 0x2a, 0x53, 0x18, 0x91,
  0x20, 0x7f, 0x00, 0x95, 0x38, 0x7f, 0x00, 0x99, 0x24, 0x7f, 0x00, 0x99,
  0x2a, 0x74, 0x00, 0x99, 0x3c, 0x53, 0x10, 0x85, 0x38, 0x7f, 0x08, 0x89,
  0x24, 0x7f, 0x00, 0x89, 0x2a, 0x74, 0x00, 0x89, 0x3c, 0x53, 0x1a, 0x81,
  0x20, 0x7f, 0x2e, 0x91, 0x22, 0x7f, 0x00, 0x99, 0x2a, 0x30, 0x18, 0x89,
  0x2a, 0x30, 0x0a, 0x81, 0x22, 0x7f, 0x0e, 0x95, 0x38, 0x7f, 0x00, 0x99,
  0x2a, 0x47, 0x00, 0x99, 0x3e, 0x53, 0x10, 0x85, 0x38, 0x7f, 0x08, 0x89,
  0x2a, 0x47, 0x00, 0x89, 0x3e, 0x53, 0x18, 0x99, 0x24, 0x7f, 0x00, 0x99,
  0x26, 0x7c, 0x00, 0x99, 0x2a, 0x74, 0x00, 0x99, 0x3c, 0x53, 0x00, 0x99,
  0x27, 0x74, 0x18, 0x89, 0x24, 0x7f, 0x00, 0x89, 0x26, 0x7c, 0x00, 0x89,
  0x2a, 0x74, 0x00, 0x89, 0x3c, 0x53, 0x00, 0x89, 0x27, 0x74, 0x34, 0x82,
  0x44, 0x7f, 0x14, 0x91, 0x1d, 0x7f, 0x00, 0x92, 0x41, 0x7f, 0x00, 0x95,
  0x35, 0x7f, 0x00, 0x99, 0x2a, 0x0d, 0x00, 0x99, 0x3d, 0x53, 0x10, 0x85,
  0x35, 0x7f, 0x08, 0x89, 0x2a, 0x0d, 0x00, 0x89, 0x3d, 0x53, 0x0a, 0x81,
  0x1d, 0x7f, 0x0e, 0x82, 0x41, 0x7f, 0x00, 0x91, 0x22, 0x7f, 0x00, 0x92,
  0x3f, 0x7f, 0x00, 0x95, 0x38, 0x7f, 0x00, 0x99, 0x2a, 0x47, 0x10, 0x85,
  0x38, 0x7f, 0x08, 0x81, 0x22, 0x7f, 0x00, 0x89, 0x2a, 0x47, 0x04, 0x82,
  0x3f, 0x7f, 0x14, 0x90, 0x49, 0x7f, 0x00, 0x90, 0x44, 0x7f, 0x00, 0x90,
  0x41, 0x7f, 0x00, 0x99, 0x24, 0x7f, 0x00, 0x99, 0x2a, 0x64, 0x00, 0x99,
  0x3c, 0x53, 0x18, 0x89, 0x24, 0x7f, 0x00, 0x89, 0x2a, 0x64, 0x00, 0x89,
  0x3c, 0x53, 0x18, 0x95, 0x38, 0x7f, 0x10, 0x85, 0x38, 0x7f, 0x20, 0x80,
  0x49, 0x7f, 0x00, 0x80, 0x44, 0x7f, 0x00, 0x80, 0x41, 0x7f, 0x00, 0x91,
  0x20, 0x7f, 0x00, 0x99, 0x2a, 0x36, 0x18, 0x81, 0x20, 0x7f, 0x00, 0x89,
  0x2a, 0x36, 0x18, 0x90, 0x49, 0x7f, 0x00, 0x90, 0x44, 0x7f, 0x00, 0x90,
  0x41, 0x7f, 0x00, 0x91, 0x22, 0x7f, 0x00, 0x99, 0x2a, 0x53, 0x00, 0x99,
  0x3e, 0x53, 0x18, 0x89, 0x2a, 0x53, 0x00, 0x89, 0x3e, 0x53, 0x06, 0x81,
  0x22, 0x7f, 0x12, 0x95, 0x38, 0x7f, 0x00, 0x99, 0x24, 0x7f, 0x00, 0x99,
  0x26, 0x70, 0x00, 0x99, 0x2a, 0x74, 0x00, 0x99, 0x3c, 0x53, 0x00, 0x99,
  0x27, 0x74, 0x10, 0x85, 0x38, 0x7f, 0x08, 0x89, 0x24, 0x7f, 0x00, 0x89,
  0x26, 0x70, 0x00, 0x89, 0x2a, 0x74, 0x00, 0x89, 0x3c, 0x53, 0x00, 0x89,
  0x27, 0x74, 0x18, 0x91, 0x25, 0x7f, 0x1e, 0x81, 0x25, 0x7f, 0x12, 0x80,
  0x49, 0x7f, 0x00, 0x80, 0x44, 0x7f, 0x00, 0x80, 0x41, 0x7f, 0x00, 0x90,
  0x48, 0x7f, 0x00, 0x90, 0x44, 0x7f, 0x00, 0x90, 0x3f, 0x7f, 0x00, 0x91,
  0x24, 0x7f, 0x00, 0x99, 0x2a, 0x36, 0x00, 0x99, 0x3d, 0x53, 0x18, 0x89,
  0x2a, 0x36, 0x00, 0x89, 0x3d, 0x53, 0x04, 0x81, 0x24, 0x7f, 0x14, 0x80,
  0x48, 0x7f, 0x00, 0x80, 0x44, 0x7f, 0x00, 0x80, 0x3f, 0x7f, 0x00, 0x95,
  0x35, 0x7f, 0x00, 0x99, 0x2a, 0x47, 0x10, 0x85, 0x35, 0x7f, 0x08, 0x89,
  0x2a, 0x47, 0x18, 0x95, 0x38, 0x7f, 0x00, 0x99, 0x24, 0x7f, 0x00, 0x99,
  0x2a, 0x64, 0x00, 0x99, 0x3c, 0x53, 0x10, 0x85, 0x38, 0x7f, 0x08, 0x89,
  0x24, 0x7f, 0x00, 0x89, 0x2a, 0x64, 0x00, 0x89, 0x3c, 0x53, 0x48, 0x91,
  0x22, 0x7f, 0x00, 0x95, 0x38, 0x7f, 0x00, 0x99, 0x2a, 0x47, 0x10, 0x85,
  0x38, 0x7f, 0x08, 0x89, 0x2a, 0x47, 0x08, 0x81, 0x22, 0x7f, 0x10, 0x99,
  0x2a, 0x47, 0x00, 0x99, 0x3e, 0x53, 0x18, 0x89, 0x2a, 0x47, 0x00, 0x89,
  0x3e, 0x53, 0x18, 0x92, 0x38, 0x7f, 0x00, 0x95, 0x38, 0x7f, 0x00, 0x99,
  0x24, 0x7f, 0x00, 0x99, 0x26, 0x70, 0x00, 0x99, 0x2a, 0x74, 0x00, 0x99,
  0x3c, 0x53, 0x00, 0x99, 0x27, 0x64, 0x10, 0x85, 0x38, 0x7f, 0x08, 0x89,
  0x24, 0x7f, 0x00, 0x89, 0x26, 0x70, 0x00, 0x89, 0x2a, 0x74, 0x00, 0x89,
  0x3c, 0x53, 0x00, 0x89, 0x27, 0x64, 0x18, 0x95, 0x3a, 0x7f, 0x10, 0x85,
  0x3a, 0x7f, 0x20, 0x91, 0x20, 0x7f, 0x00, 0x99, 0x2e, 0x44, 0x00, 0x99,
  0x3d, 0x53, 0x14, 0x81, 0x20, 0x7f, 0x04, 0x89, 0x2e, 0x44, 0x00, 0x89,
  0x3d, 0x53, 0x18, 0x91, 0x20, 0x7f, 0x1c, 0x81, 0x20, 0x7f, 0x06, 0x82,
  0x38, 0x7f, 0x0e, 0x91, 0x22, 0x7f, 0x00, 0x92, 0x44, 0x7f, 0x00, 0x99,
  0x24, 0x7f, 0x00, 0x99, 0x2a, 0x74, 0x00, 0x99, 0x3c, 0x53, 0x18, 0x89,
  0x24, 0x7f, 0x00, 0x89, 0x2a, 0x74, 0x00, 0x89, 0x3c, 0x53, 0x0e, 0x81,
  0x22, 0x7f, 0x0a, 0x95, 0x38, 0x7f, 0x10, 0x85, 0x38, 0x7f, 0x20, 0x91,
  0x22, 0x7f, 0x00, 0x99, 0x2a, 0x2c, 0x18, 0x89, 0x2a, 0x2c, 0x02, 0x81,
  0x22, 0x7f, 0x16, 0x91, 0x22, 0x7f, 0x00, 0x99, 0x2a, 0x64, 0x00, 0x99,
  0x3e, 0x53, 0x18, 0x89, 0x2a, 0x64, 0x00, 0x89, 0x3e, 0x53, 0x08, 0x81,
  0x22, 0x7f, 0x10, 0x95, 0x38, 0x7f, 0x00, 0x99, 0x24, 0x7f, 0x00, 0x99,
  0x26, 0x7c, 0x00, 0x99, 0x2a, 0x74, 0x00, 0x99, 0x3c, 0x53, 0x00, 0x99,
  0x27, 0x64, 0x10, 0x85, 0x38, 0x7f, 0x08, 0x89, 0x24, 0x7f, 0x00, 0x89,
  0x26, 0x7c, 0x00, 0x89, 0x2a, 0x74, 0x00, 0x89, 0x3c, 0x53, 0x00, 0x89,
  0x27, 0x64, 0x18, 0x91, 0x25, 0x7f, 0x20, 0x81, 0x25, 0x7f, 0x10, 0x91,
  0x24, 0x7f, 0x00, 0x99, 0x2a, 0x21, 0x00, 0x99, 0x3d, 0x53, 0x18, 0x89,
  0x2a, 0x21, 0x00, 0x89, 0x3d, 0x53, 0x04, 0x81, 0x24, 0x7f, 0x14, 0x95,
  0x35, 0x7f, 0x00, 0x99, 0x2a, 0x53, 0x10, 0x85, 0x35, 0x7f, 0x08, 0x89,
  0x2a, 0x53, 0x18, 0x91, 0x20, 0x7f, 0x00, 0x95, 0x38, 0x7f, 0x00, 0x99,
  0x24, 0x7f, 0x00, 0x99, 0x2a, 0x74, 0x00, 0x99, 0x3c, 0x53, 0x10, 0x85,
  0x38, 0x7f, 0x08, 0x89, 0x24, 0x7f, 0x00, 0x89, 0x2a, 0x74, 0x00, 0x89,
  0x3c, 0x53, 0x18, 0x81, 0x20, 0x7f, 0x30, 0x91, 0x22, 0x7f, 0x00, 0x95,
  0x38, 0x7f, 0x00, 0x99, 0x2a, 0x47, 0x10, 0x85, 0x38, 0x7f, 0x08, 0x89,
  0x2a, 0x47, 0x0a, 0x81, 0x22, 0x7f, 0x0e, 0x99, 0x2a, 0x53, 0x00, 0x99,
  0x3e, 0x53, 0x18, 0x89, 0x2a, 0x53, 0x00, 0x89, 0x3e, 0x53, 0x18, 0x99,
  0x24, 0x7f, 0x00, 0x99, 0x26, 0x70, 0x00, 0x99, 0x2a, 0x7f, 0x00, 0x99,
  0x3c, 0x53, 0x00, 0x99, 0x27, 0x74, 0x18, 0x89, 0x24, 0x7f, 0x00, 0x89,
  0x26, 0x70, 0x00, 0x89, 0x2a, 0x7f, 0x00, 0x89, 0x3c, 0x53, 0x00, 0x89,
  0x27, 0x74, 0x3c, 0x82, 0x44, 0x7f, 0x0c, 0x91, 0x20, 0x7f, 0x00, 0x92,
  0x41, 0x7f, 0x00, 0x95, 0x33, 0x7f, 0x00, 0x99, 0x2a, 0x30, 0x00, 0x99,
  0x3d, 0x53, 0x10, 0x85, 0x33, 0x7f, 0x04, 0x81, 0x20, 0x7f, 0x04, 0x89,
  0x2a, 0x30, 0x00, 0x89, 0x3d, 0x53, 0x18, 0x91, 0x20, 0x7f, 0x00, 0x92,
  0x3f, 0x7f, 0x00, 0x95, 0x35, 0x7f, 0x00, 0x99, 0x2a, 0x3d, 0x02, 0x82,
  0x41, 0x7f, 0x0e, 0x85, 0x35, 0x7f, 0x04, 0x81, 0x20, 0x7f, 0x04, 0x89,
  0x2a, 0x3d, 0x08, 0x82, 0x3f, 0x7f, 0x10, 0x90, 0x49, 0x7f, 0x00, 0x90,
  0x44, 0x7f, 0x00, 0x90, 0x41, 0x7f, 0x00, 0x91, 0x1b, 0x7f, 0x00, 0x99,
  0x24, 0x7f, 0x00, 0x99, 0x2a, 0x74, 0x00, 0x99, 0x3c, 0x53, 0x18, 0x89,
  0x24, 0x7f, 0x00, 0x89, 0x2a, 0x74, 0x00, 0x89, 0x3c, 0x53, 0x18, 0x81,
  0x1b, 0x7f, 0x00, 0x95, 0x38, 0x7f, 0x10, 0x85, 0x38, 0x7f, 0x20, 0x80,
  0x49, 0x7f, 0x00, 0x80, 0x44, 0x7f, 0x00, 0x80, 0x41, 0x7f, 0x00, 0x91,
  0x1b, 0x63, 0x00, 0x99, 0x2a, 0x47, 0x18, 0x89, 0x2a, 0x47, 0x04, 0x81,
  0x1b, 0x63, 0x14, 0x90, 0x49, 0x7f, 0x00, 0x90, 0x44, 0x7f, 0x00, 0x90,
  0x41, 0x7f, 0x00, 0x91, 0x20, 0x73, 0x00, 0x99, 0x2a, 0x47, 0x00, 0x99,
  0x3e, 0x53, 0x18, 0x89, 0x2a, 0x47, 0x00, 0x89, 0x3e, 0x53, 0x16, 0x81,
  0x20, 0x73, 0x02, 0x95, 0x38, 0x7f, 0x00, 0x99, 0x24, 0x7f, 0x00, 0x99,
  0x26, 0x7c, 0x00, 0x99, 0x2a, 0x74, 0x00, 0x99, 0x3c, 0x53, 0x00, 0x99,
  0x27, 0x64, 0x10, 0x85, 0x38, 0x7f, 0x08, 0x89, 0x24, 0x7f, 0x00, 0x89,
  0x26, 0x7c, 0x00, 0x89, 0x2a, 0x74, 0x00, 0x89, 0x3c, 0x53, 0x00, 0x89,
  0x27, 0x64, 0x18, 0x91, 0x20, 0x47, 0x10, 0x81, 0x20, 0x47, 0x20, 0x80,
  0x49, 0x7f, 0x00, 0x80, 0x44, 0x7f, 0x00, 0x80, 0x41, 0x7f, 0x00, 0x90,
  0x48, 0x7f, 0x00, 0x90, 0x44, 0x7f, 0x00, 0x90, 0x3f, 0x7f, 0x00, 0x91,
  0x20, 0x7f, 0x00, 0x99, 0x2e, 0x44, 0x00, 0x99, 0x3d, 0x53, 0x18, 0x89,
  0x2e, 0x44, 0x00, 0x89, 0x3d, 0x53, 0x06, 0x81, 0x20, 0x7f, 0x12, 0x80,
  0x48, 0x7f, 0x00, 0x80, 0x44, 0x7f, 0x00, 0x80, 0x3f, 0x7f, 0x00, 0x95,
  0x35, 0x7f, 0x10, 0x85, 0x35, 0x7f, 0x20, 0x95, 0x38, 0x7f, 0x00, 0x99,
  0x24, 0x7f, 0x00, 0x99, 0x2a, 0x74, 0x00, 0x99, 0x3c, 0x53, 0x10, 0x85,
  0x38, 0x7f, 0x08, 0x89, 0x24, 0x7f, 0x00, 0x89, 0x2a, 0x74, 0x00, 0x89,
  0x3c, 0x53, 0x48, 0x91, 0x20, 0x7f, 0x00, 0x95, 0x38, 0x7f, 0x00, 0x99,
  0x2a, 0x3d, 0x10, 0x85, 0x38, 0x7f, 0x04, 0x81, 0x20, 0x7f, 0x04, 0x89,
  0x2a, 0x3d, 0x18, 0x91, 0x20, 0x7f, 0x00, 0x99, 0x2a, 0x64, 0x00, 0x99,
  0x3e, 0x53, 0x18, 0x89, 0x2a, 0x64, 0x00, 0x89, 0x3e, 0x53, 0x0c, 0x81,
  0x20, 0x7f, 0x0c, 0x92, 0x38, 0x7f, 0x00, 0x99, 0x24, 0x7f, 0x00, 0x99,
  0x26, 0x7d, 0x00, 0x99, 0x2a, 0x74, 0x00, 0x99, 0x3c, 0x53, 0x00, 0x99,
  0x27, 0x7d, 0x18, 0x89, 0x24, 0x7f, 0x00, 0x89, 0x26, 0x7d, 0x00, 0x89,
  0x2a, 0x74, 0x00, 0x89, 0x3c, 0x53, 0x00, 0x89, 0x27, 0x7d, 0x18, 0x91,
  0x20, 0x63, 0x00, 0x95, 0x38, 0x7f, 0x00, 0x99, 0x27, 0x69, 0x10, 0x85,
  0x38, 0x7f, 0x08, 0x81, 0x20, 0x63, 0x00, 0x89, 0x27, 0x69, 0x18, 0x91,
  0x22, 0x63, 0x00, 0x99, 0x2e, 0x5f, 0x00, 0x99, 0x3d, 0x53, 0x00, 0x99,
  0x27, 0x55, 0x10, 0x81, 0x22, 0x63, 0x08, 0x89, 0x2e, 0x5f, 0x00, 0x89,
  0x3d, 0x53, 0x00, 0x89, 0x27, 0x55, 0x18, 0x91, 0x22, 0x7f, 0x00, 0x95,
  0x38, 0x7f, 0x00, 0x99, 0x27, 0x41, 0x10, 0x85, 0x38, 0x7f, 0x06, 0x81,
  0x22, 0x7f, 0x02, 0x89, 0x27, 0x41, 0x08, 0x82, 0x38, 0x7f, 0x10, 0x91,
  0x22, 0x7f, 0x00, 0x92, 0x44, 0x7f, 0x00, 0x99, 0x24, 0x7f, 0x00, 0x99,
  0x2a, 0x70, 0x00, 0x99, 0x3c, 0x53, 0x18, 0x89, 0x24, 0x7f, 0x00, 0x89,
  0x2a, 0x70, 0x00, 0x89, 0x3c, 0x53, 0x02, 0x81, 0x22, 0x7f, 0x16, 0x95,
  0x38, 0x7f, 0x10, 0x85, 0x38, 0x7f, 0x20, 0x91, 0x22, 0x7f, 0x00, 0x99,
  0x2a, 0x36, 0x18, 0x81, 0x22, 0x7f, 0x00, 0x89, 0x2a, 0x36, 0x18, 0x91,
  0x22, 0x7f, 0x00, 0x99, 0x2a, 0x64, 0x00, 0x99, 0x3e, 0x53, 0x18, 0x89,
  0x2a, 0x64, 0x00, 0x89, 0x3e, 0x53, 0x0a, 0x81, 0x22, 0x7f, 0x0e, 0x95,
  0x38, 0x7f, 0x00, 0x99, 0x24, 0x7f, 0x00, 0x99, 0x26, 0x70, 0x00, 0x99,
  0x2a, 0x74, 0x00, 0x99, 0x3c, 0x53, 0x00, 0x99, 0x27, 0x64, 0x10, 0x85,
  0x38, 0x7f, 0x08, 0x89, 0x24, 0x7f, 0x00, 0x89, 0x26, 0x70, 0x00, 0x89,
  0x2a, 0x74, 0x00, 0x89, 0x3c, 0x53, 0x00, 0x89, 0x27, 0x64, 0x18, 0x91,
  0x25, 0x7f, 0x2a, 0x81, 0x25, 0x7f, 0x06, 0x91, 0x24, 0x7f, 0x00, 0x99,
  0x2a, 0x28, 0x00, 0x99, 0x3d, 0x53, 0x18, 0x89, 0x2a, 0x28, 0x00, 0x89,
  0x3d, 0x53, 0x0a, 0x81, 0x24, 0x7f, 0x0e, 0x95, 0x35, 0x7f, 0x00, 0x99,
  0x2a, 0x53, 0x10, 0x85, 0x35, 0x7f, 0x08, 0x89, 0x2a, 0x53, 0x18, 0x91,
  0x20, 0x7f, 0x00, 0x95, 0x38, 0x7f, 0x00, 0x99, 0x24, 0x7f, 0x00, 0x99,
  0x2a, 0x74, 0x00, 0x99, 0x3c, 0x53, 0x10, 0x85, 0x38, 0x7f, 0x08, 0x89,
  0x24, 0x7f, 0x00, 0x89, 0x2a, 0x74, 0x00, 0x89, 0x3c, 0x53, 0x1a, 0x81,
  0x20, 0x7f, 0x2e, 0x91, 0x22, 0x7f, 0x00, 0x99, 0x2a, 0x30, 0x18, 0x89,
  0x2a, 0x30, 0x0a, 0x81, 0x22, 0x7f, 0x0e, 0x95, 0x38, 0x7f, 0x00, 0x99,
  0x2a, 0x47, 0x00, 0x99, 0x3e, 0x53, 0x10, 0x85, 0x38, 0x7f, 0x08, 0x89,
  0x2a, 0x47, 0x00, 0x89, 0x3e, 0x53, 0x18, 0x99, 0x24, 0x7f, 0x00, 0x99,
  0x26, 0x7c, 0x00, 0x99, 0x2a, 0x74, 0x00, 0x99, 0x3c, 0x53, 0x00, 0x99,
  0x27, 0x74, 0x18, 0x89, 0x24, 0x7f, 0x00, 0x89, 0x26, 0x7c, 0x00, 0x89,
  0x2a, 0x74, 0x00, 0x89, 0x3c, 0x53, 0x00, 0x89, 0x27, 0x74, 0x34, 0x82,
  0x44, 0x7f, 0x14, 0x91, 0x1d, 0x7f, 0x00, 0x92, 0x41, 0x7f, 0x00, 0x95,
  0x35, 0x7f, 0x00, 0x99, 0x2a, 0x0d, 0x00, 0x99, 0x3d, 0x53, 0x10, 0x85,
  0x35, 0x7f, 0x08, 0x89, 0x2a, 0x0d, 0x00, 0x89, 0x3d, 0x53, 0x0a, 0x81,
  0x1d, 0x7f, 0x0e, 0x82, 0x41, 0x7f, 0x00, 0x91, 0x22, 0x7f, 0x00, 0x92,
  0x3f, 0x7f, 0x00, 0x95, 0x38, 0x7f, 0x00, 0x99, 0x2a, 0x47, 0x10, 0x85,
  0x38, 0x7f, 0x08, 0x81, 0x22, 0x7f, 0x00, 0x89, 0x2a, 0x47, 0x04, 0x82,
  0x3f, 0x7f, 0x14, 0x90, 0x49, 0x7f, 0x00, 0x90, 0x44, 0x7f, 0x00, 0x90,
  0x41, 0x7f, 0x00, 0x99, 0x24, 0x7f, 0x00, 0x99, 0x2a, 0x64, 0x00, 0x99,
  0x3c, 0x53, 0x18, 0x89, 0x24, 0x7f, 0x00, 0x89, 0x2a, 0x64, 0x00, 0x89,
  0x3c, 0x53, 0x18, 0x95, 0x38, 0x7f, 0x10, 0x85, 0x38, 0x7f, 0x20, 0x80,
  0x49, 0x7f, 0x00, 0x80, 0x44, 0x7f, 0x00, 0x80, 0x41, 0x7f, 0x00, 0x91,
  0x20, 0x7f, 0x00, 0x99, 0x2a, 0x36, 0x18, 0x81, 0x20, 0x7f, 0x00, 0x89,
  0x2a, 0x36, 0x18, 0x90, 0x49, 0x7f, 0x00, 0x90, 0x44, 0x7f, 0x00, 0x90,
  0x41, 0x7f, 0x00, 0x91, 0x22, 0x7f, 0x00, 0x99, 0x2a, 0x53, 0x00, 0x99,
  0x3e, 0x53, 0x18, 0x89, 0x2a, 0x53, 0x00, 0x89, 0x3e, 0x53, 0x06, 0x81,
  0x22, 0x7f, 0x12, 0x95, 0x38, 0x7f, 0x00, 0x99, 0x24, 0x7f, 0x00, 0x99,
  0x26, 0x70, 0x00, 0x99, 0x2a, 0x74, 0x00, 0x99, 0x3c, 0x53, 0x00, 0x99,
  0x27, 0x74, 0x10, 0x85, 0x38, 0x7f, 0x08, 0x89, 0x24, 0x7f, 0x00, 0x89,
  0x26, 0x70, 0x00, 0x89, 0x2a, 0x74, 0x00, 0x89, 0x3c, 0x53, 0x00, 0x89,
  0x27, 0x74, 0x18, 0x91, 0x25, 0x7f, 0x1e, 0x81, 0x25, 0x7f, 0x12, 0x80,
  0x49, 0x7f, 0x00, 0x80, 0x44, 0x7f, 0x00, 0x80, 0x41, 0x7f, 0x00, 0x90,
  0x48, 0x7f, 0x00, 0x90, 0x44, 0x7f, 0x00, 0x90, 0x3f, 0x7f, 0x00, 0x91,
  0x24, 0x7f, 0x00, 0x99, 0x2a, 0x36, 0x00, 0x99, 0x3d, 0x53, 0x18, 0x89,
  0x2a, 0x36, 0x00, 0x89, 0x3d, 0x53, 0x04, 0x81, 0x24, 0x7f, 0x14, 0x80,
  0x48, 0x7f, 0x00, 0x80, 0x44, 0x7f, 0x00, 0x80, 0x3f, 0x7f, 0x00, 0x95,
  0x35, 0x7f, 0x00, 0x99, 0x2a, 0x47, 0x10, 0x85, 0x35, 0x7f, 0x08, 0x89,
  0x2a, 0x47, 0x18, 0x95, 0x38, 0x7f, 0x00, 0x99, 0x24, 0x7f, 0x00, 0x99,
  0x2a, 0x64, 0x00, 0x99, 0x3c, 0x53, 0x10, 0x85, 0x38, 0x7f, 0x08, 0x89,
  0x24, 0x7f, 0x00, 0x89, 0x2a, 0x64, 0x00, 0x89, 0x3c, 0x53, 0x48, 0x91,
  0x22, 0x7f, 0x00, 0x95, 0x38, 0x7f, 0x00, 0x99, 0x2a, 0x47, 0x10, 0x85,
  0x38, 0x7f, 0x08, 0x89, 0x2a, 0x47, 0x08, 0x81, 0x22, 0x7f, 0x10, 0x99,
  0x2a, 0x47, 0x00, 0x99, 0x3e, 0x53, 0x18, 0x89, 0x2a, 0x47, 0x00, 0x89,
  0x3e, 0x53, 0x18, 0x92, 0x38, 0x7f, 0x00, 0x95, 0x38, 0x7f, 0x00, 0x99,
  0x24, 0x7f, 0x00, 0x99, 0x26, 0x70, 0x00, 0x99, 0x2a, 0x74, 0x00, 0x99,
  0x3c, 0x53, 0x00, 0x99, 0x27, 0x64, 0x10, 0x85, 0x38, 0x7f, 0x08, 0x89,
  0x24, 0x7f, 0x00, 0x89, 0x26, 0x70, 0x00, 0x89, 0x2a, 0x74, 0x00, 0x89,
  0x3c, 0x53, 0x00, 0x89, 0x27, 0x64, 0x18, 0x95, 0x3a, 0x7f, 0x10, 0x85,
  0x3a, 0x7f, 0x20, 0x91, 0x20, 0x7f, 0x00, 0x99, 0x2e, 0x44, 0x00, 0x99,
  0x3d, 0x53, 0x14, 0x81, 0x20, 0x7f, 0x04, 0x89, 0x2e, 0x44, 0x00, 0x89,
  0x3d, 0x53, 0x18, 0x91, 0x20, 0x7f, 0x1c, 0x81, 0x20, 0x7f, 0x06, 0x82,
  0x38, 0x7f, 0x0e, 0x91, 0x22, 0x7f, 0x00, 0x92, 0x44, 0x7f, 0x00, 0x99,
  0x24, 0x7f, 0x00, 0x99, 0x2a, 0x74, 0x00, 0x99, 0x3c, 0x53, 0x18, 0x89,
  0x24, 0x7f, 0x00, 0x89, 0x2a, 0x74, 0x00, 0x89, 0x3c, 0x53, 0x0e, 0x81,
  0x22, 0x7f, 0x0a, 0x95, 0x38, 0x7f, 0x10, 0x85, 0x38, 0x7f, 0x20, 0x91,
  0x22, 0x7f, 0x00, 0x99, 0x2a, 0x2c, 0x18, 0x89, 0x2a, 0x2c, 0x02, 0x81,
  0x22, 0x7f, 0x16, 0x91, 0x22, 0x7f, 0x00, 0x99, 0x2a, 0x64, 0x00, 0x99,
  0x3e, 0x53, 0x18, 0x89, 0x2a, 0x64, 0x00, 0x89, 0x3e, 0x53, 0x08, 0x81,
  0x22, 0x7f, 0x10, 0x95, 0x38, 0x7f, 0x00, 0x99, 0x24, 0x7f, 0x00, 0x99,
  0x26, 0x7c, 0x00, 0x99, 0x2a, 0x74, 0x00, 0x99, 0x3c, 0x53, 0x00, 0x99,
  0x27, 0x64, 0x10, 0x85, 0x38, 0x7f, 0x08, 0x89, 0x24, 0x7f, 0x00, 0x89,
  0x26, 0x7c, 0x00, 0x89, 0x2a, 0x74, 0x00, 0x89, 0x3c, 0x53, 0x00, 0x89,
  0x27, 0x64, 0x18, 0x91, 0x25, 0x7f, 0x20, 0x81, 0x25, 0x7f, 0x10, 0x91,
  0x24, 0x7f, 0x00, 0x99, 0x2a, 0x21, 0x00, 0x99, 0x3d, 0x53, 0x18, 0x89,
  0x2a, 0x21, 0x00, 0x89, 0x3d, 0x53, 0x04, 0x81, 0x24, 0x7f, 0x14, 0x95,
  0x35, 0x7f, 0x00, 0x99, 0x2a, 0x53, 0x10, 0x85, 0x35, 0x7f, 0x08, 0x89,
  0x2a, 0x53, 0x18, 0x91, 0x20, 0x7f, 0x00, 0x95, 0x38, 0x7f, 0x00, 0x99,
  0x24, 0x7f, 0x00, 0x99, 0x2a, 0x74, 0x00, 0x99, 0x3c, 0x53, 0x10, 0x85,
  0x38, 0x7f, 0x08, 0x89, 0x24, 0x7f, 0x00, 0x89, 0x2a, 0x74, 0x00, 0x89,
  0x3c, 0x53, 0x18, 0x81, 0x20, 0x7f, 0x30, 0x91, 0x22, 0x7f, 0x00, 0x95,
  0x38, 0x7f, 0x00, 0x99, 0x2a, 0x47, 0x10, 0x85, 0x38, 0x7f, 0x08, 0x89,
  0x2a, 0x47, 0x0a, 0x81, 0x22, 0x7f, 0x0e, 0x99, 0x2a, 0x53, 0x00, 0x99,
  0x3e, 0x53, 0x18, 0x89, 0x2a, 0x53, 0x00, 0x89, 0x3e, 0x53, 0x18, 0x99,
  0x24, 0x7f, 0x00, 0x99, 0x26, 0x70, 0x00, 0x99, 0x2a, 0x7f, 0x00, 0x99,
  0x3c, 0x53, 0x00, 0x99, 0x27, 0x74, 0x18, 0x89, 0x24, 0x7f, 0x00, 0x89,
  0x26, 0x70, 0x00, 0x89, 0x2a, 0x7f, 0x00, 0x89, 0x3c, 0x53, 0x00, 0x89,
  0x27, 0x74, 0x3c, 0x82, 0x44, 0x7f, 0x0c, 0x91, 0x20, 0x7f, 0x00, 0x92,
  0x41, 0x7f, 0x00, 0x95, 0x33, 0x7f, 0x00, 0x99, 0x2a, 0x30, 0x00, 0x99,
  0x3d, 0x53, 0x10, 0x85, 0x33, 0x7f, 0x04, 0x81, 0x20, 0x7f, 0x04, 0x89,
  0x2a, 0x30, 0x00, 0x89, 0x3d, 0x53, 0x18, 0x91, 0x20, 0x7f, 0x00, 0x92,
  0x3f, 0x7f, 0x00, 0x95, 0x35, 0x7f, 0x00, 0x99, 0x2a, 0x3d, 0x02, 0x82,
  0x41, 0x7f, 0x0e, 0x85, 0x35, 0x7f, 0x04, 0x81, 0x20, 0x7f, 0x04, 0x89,
  0x2a, 0x3d, 0x08, 0x82, 0x3f, 0x7f, 0x10, 0x90, 0x49, 0x7f, 0x00, 0x90,
  0x44, 0x7f, 0x00, 0x90, 0x41, 0x7f, 0x00, 0x91, 0x1b, 0x7f, 0x00, 0x99,
  0x24, 0x7f, 0x00, 0x99, 0x2a, 0x74, 0x00, 0x99, 0x3c, 0x53, 0x18, 0x89,
  0x24, 0x7f, 0x00, 0x89, 0x2a, 0x74, 0x00, 0x89, 0x3c, 0x53, 0x18, 0x81,
  0x1b, 0x7f, 0x00, 0x95, 0x38, 0x7f, 0x10, 0x85, 0x38, 0x7f, 0x20, 0x80,
  0x49, 0x7f, 0x00, 0x80, 0x44, 0x7f, 0x00, 0x80, 0x41, 0x7f, 0x00, 0x91,
  0x1b, 0x63, 0x00, 0x99, 0x2a, 0x47, 0x18, 0x89, 0x2a, 0x47, 0x04, 0x81,
  0x1b, 0x63, 0x14, 0x90, 0x49, 0x7f, 0x00, 0x90, 0x44, 0x7f, 0x00, 0x90,
  0x41, 0x7f, 0x00, 0x91, 0x20, 0x73, 0x00, 0x99, 0x2a, 0x47, 0x00, 0x99,
  0x3e, 0x53, 0x18, 0x89, 0x2a, 0x47, 0x00, 0x89, 0x3e, 0x53, 0x16, 0x81,
  0x20, 0x73, 0x02, 0x95, 0x38, 0x7f, 0x00, 0x99, 0x24, 0x7f, 0x00, 0x99,
  0x26, 0x7c, 0x00, 0x99, 0x2a, 0x74, 0x00, 0x99, 0x3c, 0x53, 0x00, 0x99,
  0x27, 0x64, 0x10, 0x85, 0x38, 0x7f, 0x08, 0x89, 0x24, 0x7f, 0x00, 0x89,
  0x26, 0x7c, 0x00, 0x89, 0x2a, 0x74, 0x00, 0x89, 0x3c, 0x53, 0x00, 0x89,
  0x27, 0x64, 0x18, 0x91, 0x20, 0x47, 0x10, 0x81, 0x20, 0x47, 0x20, 0x80,
  0x49, 0x7f, 0x00, 0x80, 0x44, 0x7f, 0x00, 0x80, 0x41, 0x7f, 0x00, 0x90,
  0x48, 0x7f, 0x00, 0x90, 0x44, 0x7f, 0x00, 0x90, 0x3f, 0x7f, 0x00, 0x91,
  0x20, 0x7f, 0x00, 0x99, 0x2e, 0x44, 0x00, 0x99, 0x3d, 0x53, 0x18, 0x89,
  0x2e, 0x44, 0x00, 0x89, 0x3d, 0x53, 0x06, 0x81, 0x20, 0x7f, 0x12, 0x80,
  0x48, 0x7f, 0x00, 0x80, 0x44, 0x7f, 0x00, 0x80, 0x3f, 0x7f, 0x00, 0x95,
  0x35, 0x7f, 0x10, 0x85, 0x35, 0x7f, 0x20, 0x95, 0x38, 0x7f, 0x00, 0x99,
  0x24, 0x7f, 0x00, 0x99, 0x2a, 0x74, 0x00, 0x99, 0x3c, 0x53, 0x10, 0x85,
  0x38, 0x7f, 0x08, 0x89, 0x24, 0x7f, 0x00, 0x89, 0x2a, 0x74, 0x00, 0x89,
  0x3c, 0x53, 0x48, 0x91, 0x20, 0x7f, 0x00, 0x95, 0x38, 0x7f, 0x00, 0x99,
  0x2a, 0x3d, 0x10, 0x85, 0x38, 0x7f, 0x04, 0x81, 0x20, 0x7f, 0x04, 0x89,
  0x2a, 0x3d, 0x18, 0x91, 0x20, 0x7f, 0x00, 0x99, 0x2a, 0x64, 0x00, 0x99,
  0x3e, 0x53, 0x18, 0x89, 0x2a, 0x64, 0x00, 0x89, 0x3e, 0x53, 0x0c, 0x81,
  0x20, 0x7f, 0x0c, 0x92, 0x38, 0x7f, 0x00, 0x99, 0x24, 0x7f, 0x00, 0x99,
  0x26, 0x7d, 0x00, 0x99, 0x2a, 0x74, 0x00, 0x99, 0x3c, 0x53, 0x00, 0x99,
  0x27, 0x7d, 0x18, 0x89, 0x24, 0x7f, 0x00, 0x89, 0x26, 0x7d, 0x00, 0x89,
  0x2a, 0x74, 0x00, 0x89, 0x3c, 0x53, 0x00, 0x89, 0x27, 0x7d, 0x18, 0x91,
  0x20, 0x63, 0x00, 0x95, 0x38, 0x7f, 0x00, 0x99, 0x27, 0x69, 0x10, 0x85,
  0x38, 0x7f, 0x08, 0x81, 0x20, 0x63, 0x00, 0x89, 0x27, 0x69, 0x18, 0x91,
  0x22, 0x63, 0x00, 0x99, 0x2e, 0x5f, 0x00, 0x99, 0x3d, 0x53, 0x00, 0x99,
  0x27, 0x55, 0x10, 0x81, 0x22, 0x63, 0x08, 0x89, 0x2e, 0x5f, 0x00, 0x89,
  0x3d, 0x53, 0x00, 0x89, 0x27, 0x55, 0x18, 0x91, 0x22, 0x7f, 0x00, 0x95,
  0x38, 0x7f, 0x00, 0x99, 0x27, 0x41, 0x10, 0x85, 0x38, 0x7f, 0x06, 0x81,
  0x22, 0x7f, 0x02, 0x89, 0x27, 0x41, 0x08, 0x82, 0x38, 0x7f, 0x10, 0x91,
  0x22, 0x7f, 0x00, 0x92, 0x44, 0x7f, 0x00, 0x99, 0x24, 0x7f, 0x00, 0x99,
  0x2a, 0x70, 0x00, 0x99, 0x3c, 0x53, 0x18, 0x89, 0x24, 0x7f, 0x00, 0x89,
  0x2a, 0x70, 0x00, 0x89, 0x3c, 0x53, 0x02, 0x81, 0x22, 0x7f, 0x16, 0x95,
  0x38, 0x7f, 0x10, 0x85, 0x38, 0x7f, 0x20, 0x91, 0x22, 0x7f, 0x00, 0x94,
  0x44, 0x7f, 0x00, 0x99, 0x2a, 0x36, 0x18, 0x81, 0x22, 0x7f, 0x00, 0x89,
  0x2a, 0x36, 0x08, 0x84, 0x44, 0x7f, 0x10, 0x91, 0x22, 0x7f, 0x00, 0x94,
  0x46, 0x7f, 0x00, 0x99, 0x2a, 0x64, 0x00, 0x99, 0x3e, 0x53, 0x18, 0x84,
  0x46, 0x7f, 0x00, 0x89, 0x2a, 0x64, 0x00, 0x89, 0x3e, 0x53, 0x0a, 0x81,
  0x22, 0x7f, 0x0e, 0x94, 0x49, 0x7f, 0x00, 0x95, 0x38, 0x7f, 0x00, 0x99,
  0x24, 0x7f, 0x00, 0x99, 0x26, 0x70, 0x00, 0x99, 0x2a, 0x74, 0x00, 0x99,
  0x3c, 0x53, 0x00, 0x99, 0x27, 0x64, 0x10, 0x85, 0x38, 0x7f, 0x06, 0x84,
  0x49, 0x7f, 0x02, 0x89, 0x24, 0x7f, 0x00, 0x89, 0x26, 0x70, 0x00, 0x89,
  0x2a, 0x74, 0x00, 0x89, 0x3c, 0x53, 0x00, 0x89, 0x27, 0x64, 0x18, 0x91,
  0x25, 0x7f, 0x00, 0x94, 0x46, 0x7f, 0x14, 0x84, 0x46, 0x7f, 0x16, 0x81,
  0x25, 0x7f, 0x06, 0x91, 0x24, 0x7f, 0x00, 0x94, 0x4d, 0x7f, 0x00, 0x99,
  0x2a, 0x28, 0x00, 0x99, 0x3d, 0x53, 0x18, 0x89, 0x2a, 0x28, 0x00, 0x89,
  0x3d, 0x53, 0x0a, 0x81, 0x24, 0x7f, 0x0e, 0x95, 0x35, 0x7f, 0x00, 0x99,
  0x2a, 0x53, 0x0a, 0x84, 0x4d, 0x7f, 0x06, 0x85, 0x35, 0x7f, 0x08, 0x89,
  0x2a, 0x53, 0x18, 0x91, 0x20, 0x7f, 0x00, 0x94, 0x44, 0x7f, 0x00, 0x95,
  0x38, 0x7f, 0x00, 0x99, 0x24, 0x7f, 0x00, 0x99, 0x2a, 0x74, 0x00, 0x99,
  0x3c, 0x53, 0x10, 0x85, 0x38, 0x7f, 0x08, 0x89, 0x24, 0x7f, 0x00, 0x89,
  0x2a, 0x74, 0x00, 0x89, 0x3c, 0x53, 0x0a, 0x84, 0x44, 0x7f, 0x0e, 0x94,
  0x46, 0x7f, 0x02, 0x81, 0x20, 0x7f, 0x1a, 0x84, 0x46, 0x7f, 0x14, 0x91,
  0x22, 0x7f, 0x00, 0x94, 0x49, 0x7f, 0x00, 0x99, 0x2a, 0x30, 0x18, 0x89,
  0x2a, 0x30, 0x08, 0x84, 0x49, 0x7f, 0x02, 0x81, 0x22, 0x7f, 0x0e, 0x94,
  0x46, 0x7f, 0x00, 0x95, 0x38, 0x7f, 0x00, 0x99, 0x2a, 0x47, 0x00, 0x99,
  0x3e, 0x53, 0x10, 0x85, 0x38, 0x7f, 0x02, 0x84, 0x46, 0x7f, 0x06, 0x89,
  0x2a, 0x47, 0x00, 0x89, 0x3e, 0x53, 0x18, 0x94, 0x4d, 0x7f, 0x00, 0x99,
  0x24, 0x7f, 0x00, 0x99, 0x26, 0x7c, 0x00, 0x99, 0x2a, 0x74, 0x00, 0x99,
  0x3c, 0x53, 0x00, 0x99, 0x27, 0x74, 0x18, 0x89, 0x24, 0x7f, 0x00, 0x89,
  0x26, 0x7c, 0x00, 0x89, 0x2a, 0x74, 0x00, 0x89, 0x3c, 0x53, 0x00, 0x89,
  0x27, 0x74, 0x34, 0x82, 0x44, 0x7f, 0x02, 0x84, 0x4d, 0x7f, 0x12, 0x91,
  0x1d, 0x7f, 0x00, 0x92, 0x41, 0x7f, 0x00, 0x94, 0x46, 0x7f, 0x00, 0x95,
  0x35, 0x7f, 0x00, 0x99, 0x2a, 0x0d, 0x00, 0x99, 0x3d, 0x53, 0x10, 0x84,
  0x46, 0x7f, 0x00, 0x85, 0x35, 0x7f, 0x08, 0x89, 0x2a, 0x0d, 0x00, 0x89,
  0x3d, 0x53, 0x0a, 0x81, 0x1d, 0x7f, 0x0e, 0x82, 0x41, 0x7f, 0x00, 0x91,
  0x22, 0x7f, 0x00, 0x92, 0x3f, 0x7f, 0x00, 0x95, 0x38, 0x7f, 0x00, 0x99,
  0x2a, 0x47, 0x10, 0x85, 0x38, 0x7f, 0x08, 0x81, 0x22, 0x7f, 0x00, 0x89,
  0x2a, 0x47, 0x04, 0x82, 0x3f, 0x7f, 0x14, 0x90, 0x49, 0x7f, 0x00, 0x90,
  0x44, 0x7f, 0x00, 0x90, 0x41, 0x7f, 0x00, 0x99, 0x24, 0x7f, 0x00, 0x99,
  0x2a, 0x64, 0x00, 0x99, 0x3c, 0x53, 0x18, 0x89, 0x24, 0x7f, 0x00, 0x89,
  0x2a, 0x64, 0x00, 0x89, 0x3c, 0x53, 0x18, 0x95, 0x38, 0x7f, 0x10, 0x85,
  0x38, 0x7f, 0x20, 0x80, 0x49, 0x7f, 0x00, 0x80, 0x44, 0x7f, 0x00, 0x80,
  0x41, 0x7f, 0x00, 0x91, 0x20, 0x7f, 0x00, 0x99, 0x2a, 0x36, 0x18, 0x81,
  0x20, 0x7f, 0x00, 0x89, 0x2a, 0x36, 0x18, 0x90, 0x49, 0x7f, 0x00, 0x90,
  0x44, 0x7f, 0x00, 0x90, 0x41, 0x7f, 0x00, 0x91, 0x22, 0x7f, 0x00, 0x99,
  0x2a, 0x53, 0x00, 0x99, 0x3e, 0x53, 0x18, 0x89, 0x2a, 0x53, 0x00, 0x89,
  0x3e, 0x53, 0x06, 0x81, 0x22, 0x7f, 0x12, 0x95, 0x38, 0x7f, 0x00, 0x99,
  0x24, 0x7f, 0x00, 0x99, 0x26, 0x70, 0x00, 0x99, 0x2a, 0x74, 0x00, 0x99,
  0x3c, 0x53, 0x00, 0x99, 0x27, 0x74, 0x10, 0x85, 0x38, 0x7f, 0x08, 0x89,
  0x24, 0x7f, 0x00, 0x89, 0x26, 0x70, 0x00, 0x89, 0x2a, 0x74, 0x00, 0x89,
  0x3c, 0x53, 0x00, 0x89, 0x27, 0x74, 0x18, 0x91, 0x25, 0x7f, 0x1e, 0x81,
  0x25, 0x7f, 0x12, 0x80, 0x49, 0x7f, 0x00, 0x80, 0x44, 0x7f, 0x00, 0x80,
  0x41, 0x7f, 0x00, 0x90, 0x48, 0x7f, 0x00, 0x90, 0x44, 0x7f, 0x00, 0x90,
  0x3f, 0x7f, 0x00, 0x91, 0x24, 0x7f, 0x00, 0x99, 0x2a, 0x36, 0x00, 0x99,
  0x3d, 0x53, 0x18, 0x89, 0x2a, 0x36, 0x00, 0x89, 0x3d, 0x53, 0x04, 0x81,
  0x24, 0x7f, 0x14, 0x80, 0x48, 0x7f, 0x00, 0x80, 0x44, 0x7f, 0x00, 0x80,
  0x3f, 0x7f, 0x00, 0x95, 0x35, 0x7f, 0x00, 0x99, 0x2a, 0x47, 0x10, 0x85,
  0x35, 0x7f, 0x08, 0x89, 0x2a, 0x47, 0x18, 0x95, 0x38, 0x7f, 0x00, 0x99,
  0x24, 0x7f, 0x00, 0x99, 0x2a, 0x64, 0x00, 0x99, 0x3c, 0x53, 0x10, 0x85,
  0x38, 0x7f, 0x08, 0x89, 0x24, 0x7f, 0x00, 0x89, 0x2a, 0x64, 0x00, 0x89,
  0x3c, 0x53, 0x48, 0x91, 0x22, 0x7f, 0x00, 0x95, 0x38, 0x7f, 0x00, 0x99,
  0x2a, 0x47, 0x10, 0x85, 0x38, 0x7f, 0x08, 0x89, 0x2a, 0x47, 0x08, 0x81,
  0x22, 0x7f, 0x10, 0x99, 0x2a, 0x47, 0x00, 0x99, 0x3e, 0x53, 0x18, 0x89,
  0x2a, 0x47, 0x00, 0x89, 0x3e, 0x53, 0x18, 0x92, 0x38, 0x7f, 0x00, 0x95,
  0x38, 0x7f, 0x00, 0x99, 0x24, 0x7f, 0x00, 0x99, 0x26, 0x70, 0x00, 0x99,
  0x2a, 0x74, 0x00, 0x99, 0x3c, 0x53, 0x00, 0x99, 0x27, 0x64, 0x10, 0x85,
  0x38, 0x7f, 0x08, 0x89, 0x24, 0x7f, 0x00, 0x89, 0x26, 0x70, 0x00, 0x89,
  0x2a, 0x74, 0x00, 0x89, 0x3c, 0x53, 0x00, 0x89, 0x27, 0x64, 0x18, 0x95,
  0x3a, 0x7f, 0x10, 0x85, 0x3a, 0x7f, 0x20, 0x91, 0x20, 0x7f, 0x00, 0x99,
  0x2e, 0x44, 0x00, 0x99, 0x3d, 0x53, 0x14, 0x81, 0x20, 0x7f, 0x04, 0x89,
  0x2e, 0x44, 0x00, 0x89, 0x3d, 0x53, 0x18, 0x91, 0x20, 0x7f, 0x1c, 0x81,
  0x20, 0x7f, 0x06, 0x82, 0x38, 0x7f, 0x0e, 0x91, 0x22, 0x7f, 0x00, 0x92,
  0x44, 0x7f, 0x00, 0x99, 0x24, 0x7f, 0x00, 0x99, 0x2a, 0x74, 0x00, 0x99,
  0x3c, 0x53, 0x18, 0x89, 0x24, 0x7f, 0x00, 0x89, 0x2a, 0x74, 0x00, 0x89,
  0x3c, 0x53, 0x0e, 0x81, 0x22, 0x7f, 0x0a, 0x95, 0x38, 0x7f, 0x10, 0x85,
  0x38, 0x7f, 0x20, 0x91, 0x22, 0x7f, 0x00, 0x94, 0x44, 0x7f, 0x00, 0x99,
  0x2a, 0x2c, 0x18, 0x89, 0x2a, 0x2c, 0x02, 0x81, 0x22, 0x7f, 0x06, 0x84,
  0x44, 0x7f, 0x10, 0x91, 0x22, 0x7f, 0x00, 0x94, 0x46, 0x7f, 0x00, 0x99,
  0x2a, 0x64, 0x00, 0x99, 0x3e, 0x53, 0x18, 0x84, 0x46, 0x7f, 0x00, 0x89,
  0x2a, 0x64, 0x00, 0x89, 0x3e, 0x53, 0x08, 0x81, 0x22, 0x7f, 0x10, 0x94,
  0x49, 0x7f, 0x00, 0x95, 0x38, 0x7f, 0x00, 0x99, 0x24, 0x7f, 0x00, 0x99,
  0x26, 0x7c, 0x00, 0x99, 0x2a, 0x74, 0x00, 0x99, 0x3c, 0x53, 0x00, 0x99,
  0x27, 0x64, 0x10, 0x85, 0x38, 0x7f, 0x06, 0x84, 0x49, 0x7f, 0x02, 0x89,
  0x24, 0x7f, 0x00, 0x89, 0x26, 0x7c, 0x00, 0x89, 0x2a, 0x74, 0x00, 0x89,
  0x3c, 0x53, 0x00, 0x89, 0x27, 0x64, 0x18, 0x91, 0x25, 0x7f, 0x00, 0x94,
  0x46, 0x7f, 0x14, 0x84, 0x46, 0x7f, 0x0c, 0x81, 0x25, 0x7f, 0x10, 0x91,
  0x24, 0x7f, 0x00, 0x94, 0x4d, 0x7f, 0x00, 0x99, 0x2a, 0x21, 0x00, 0x99,
  0x3d, 0x53, 0x18, 0x89, 0x2a, 0x21, 0x00, 0x89, 0x3d, 0x53, 0x04, 0x81,
  0x24, 0x7f, 0x14, 0x95, 0x35, 0x7f, 0x00, 0x99, 0x2a, 0x53, 0x0a, 0x84,
  0x4d, 0x7f, 0x06, 0x85, 0x35, 0x7f, 0x08, 0x89, 0x2a, 0x53, 0x18, 0x91,
  0x20, 0x7f, 0x00, 0x94, 0x44, 0x7f, 0x00, 0x95, 0x38, 0x7f, 0x00, 0x99,
  0x24, 0x7f, 0x00, 0x99, 0x2a, 0x74, 0x00, 0x99, 0x3c, 0x53, 0x10, 0x85,
  0x38, 0x7f, 0x08, 0x89, 0x24, 0x7f, 0x00, 0x89, 0x2a, 0x74, 0x00, 0x89,
  0x3c, 0x53, 0x0a, 0x84, 0x44, 0x7f, 0x0e, 0x81, 0x20, 0x7f, 0x00, 0x94,
  0x46, 0x7f, 0x1c, 0x84, 0x46, 0x7f, 0x14, 0x91, 0x22, 0x7f, 0x00, 0x94,
  0x49, 0x7f, 0x00, 0x95, 0x38, 0x7f, 0x00, 0x99, 0x2a, 0x47, 0x10, 0x85,
  0x38, 0x7f, 0x08, 0x89, 0x2a, 0x47, 0x08, 0x84, 0x49, 0x7f, 0x02, 0x81,
  0x22, 0x7f, 0x0e, 0x94, 0x46, 0x7f, 0x00, 0x99, 0x2a, 0x53, 0x00, 0x99,
  0x3e, 0x53, 0x12, 0x84, 0x46, 0x7f, 0x06, 0x89, 0x2a, 0x53, 0x00, 0x89,
  0x3e, 0x53, 0x18, 0x94, 0x4d, 0x7f, 0x00, 0x99, 0x24, 0x7f, 0x00, 0x99,
  0x26, 0x70, 0x00, 0x99, 0x2a, 0x7f, 0x00, 0x99, 0x3c, 0x53, 0x00, 0x99,
  0x27, 0x74, 0x18, 0x89, 0x24, 0x7f, 0x00, 0x89, 0x26, 0x70, 0x00, 0x89,
  0x2a, 0x7f, 0x00, 0x89, 0x3c, 0x53, 0x00, 0x89, 0x27, 0x74, 0x36, 0x84,
  0x4d, 0x7f, 0x06, 0x82, 0x44, 0x7f, 0x0c, 0x91, 0x20, 0x7f, 0x00, 0x92,
  0x41, 0x7f, 0x00, 0x94, 0x46, 0x7f, 0x00, 0x95, 0x33, 0x7f, 0x00, 0x99,
  0x2a, 0x30, 0x00, 0x99, 0x3d, 0x53, 0x10, 0x84, 0x46, 0x7f, 0x00, 0x85,
  0x33, 0x7f, 0x04, 0x81, 0x20, 0x7f, 0x04, 0x89, 0x2a, 0x30, 0x00, 0x89,
  0x3d, 0x53, 0x18, 0x91, 0x20, 0x7f, 0x00, 0x92, 0x3f, 0x7f, 0x00, 0x95,
  0x35, 0x7f, 0x00, 0x99, 0x2a, 0x3d, 0x02, 0x82, 0x41, 0x7f, 0x0e, 0x85,
  0x35, 0x7f, 0x04, 0x81, 0x20, 0x7f, 0x04, 0x89, 0x2a, 0x3d, 0x08, 0x82,
  0x3f, 0x7f, 0x10, 0x90, 0x49, 0x7f, 0x00, 0x90, 0x44, 0x7f, 0x00, 0x90,
  0x41, 0x7f, 0x00, 0x91, 0x1b, 0x7f, 0x00, 0x99, 0x24, 0x7f, 0x00, 0x99,
  0x2a, 0x74, 0x00, 0x99, 0x3c, 0x53, 0x18, 0x89, 0x24, 0x7f, 0x00, 0x89,
  0x2a, 0x74, 0x00, 0x89, 0x3c, 0x53, 0x18, 0x81, 0x1b, 0x7f, 0x00, 0x95,
  0x38, 0x7f, 0x10, 0x85, 0x38, 0x7f, 0x20, 0x80, 0x49, 0x7f, 0x00, 0x80,
  0x44, 0x7f, 0x00, 0x80, 0x41, 0x7f, 0x00, 0x91, 0x1b, 0x63, 0x00, 0x99,
  0x2a, 0x47, 0x18, 0x89, 0x2a, 0x47, 0x04, 0x81, 0x1b, 0x63, 0x14, 0x90,
  0x49, 0x7f, 0x00, 0x90, 0x44, 0x7f, 0x00, 0x90, 0x41, 0x7f, 0x00, 0x91,
  0x20, 0x73, 0x00, 0x99, 0x2a, 0x47, 0x00, 0x99, 0x3e, 0x53, 0x18, 0x89,
  0x2a, 0x47, 0x00, 0x89, 0x3e, 0x53, 0x16, 0x81, 0x20, 0x73, 0x02, 0x95,
  0x38, 0x7f, 0x00, 0x99, 0x24, 0x7f, 0x00, 0x99, 0x26, 0x7c, 0x00, 0x99,
  0x2a, 0x74, 0x00, 0x99, 0x3c, 0x53, 0x00, 0x99, 0x27, 0x64, 0x10, 0x85,
  0x38, 0x7f, 0x08, 0x89, 0x24, 0x7f, 0x00, 0x89, 0x26, 0x7c, 0x00, 0x89,
  0x2a, 0x74, 0x00, 0x89, 0x3c, 0x53, 0x00, 0x89, 0x27, 0x64, 0x18, 0x91,
  0x20, 0x47, 0x10, 0x81, 0x20, 0x47, 0x20, 0x80, 0x49, 0x7f, 0x00, 0x80,
  0x44, 0x7f, 0x00, 0x80, 0x41, 0x7f, 0x00, 0x90, 0x48, 0x7f, 0x00, 0x90,
  0x44, 0x7f, 0x00, 0x90, 0x3f, 0x7f, 0x00, 0x91, 0x20, 0x7f, 0x00, 0x99,
  0x2e, 0x44, 0x00, 0x99, 0x3d, 0x53, 0x18, 0x89, 0x2e, 0x44, 0x00, 0x89,
  0x3d, 0x53, 0x06, 0x81, 0x20, 0x7f, 0x12, 0x80, 0x48, 0x7f, 0x00, 0x80,
  0x44, 0x7f, 0x00, 0x80, 0x3f, 0x7f, 0x00, 0x95, 0x35, 0x7f, 0x10, 0x85,
  0x35, 0x7f, 0x20, 0x95, 0x38, 0x7f, 0x00, 0x99, 0x24, 0x7f, 0x00, 0x99,
  0x2a, 0x74, 0x00, 0x99, 0x3c, 0x53, 0x10, 0x85, 0x38, 0x7f, 0x08, 0x89,
  0x24, 0x7f, 0x00, 0x89, 0x2a, 0x74, 0x00, 0x89, 0x3c, 0x53, 0x48, 0x91,
  0x20, 0x7f, 0x00, 0x95, 0x38, 0x7f, 0x00, 0x99, 0x2a, 0x3d, 0x10, 0x85,
  0x38, 0x7f, 0x04, 0x81, 0x20, 0x7f, 0x04, 0x89, 0x2a, 0x3d, 0x18, 0x91,
  0x20, 0x7f, 0x00, 0x99, 0x2a, 0x64, 0x00, 0x99, 0x3e, 0x53, 0x18, 0x89,
  0x2a, 0x64, 0x00, 0x89, 0x3e, 0x53, 0x0c, 0x81, 0x20, 0x7f, 0x0c, 0x92,
  0x38, 0x7f, 0x00, 0x99, 0x24, 0x7f, 0x00, 0x99, 0x26, 0x7d, 0x00, 0x99,
  0x2a, 0x74, 0x00, 0x99, 0x3c, 0x53, 0x00, 0x99, 0x27, 0x7d, 0x18, 0x89,
  0x24, 0x7f, 0x00, 0x89, 0x26, 0x7d, 0x00, 0x89, 0x2a, 0x74, 0x00, 0x89,
  0x3c, 0x53, 0x00, 0x89, 0x27, 0x7d, 0x18, 0x91, 0x20, 0x63, 0x00, 0x95,
  0x38, 0x7f, 0x00, 0x99, 0x27, 0x69, 0x10, 0x85, 0x38, 0x7f, 0x08, 0x81,
  0x20, 0x63, 0x00, 0x89, 0x27, 0x69, 0x18, 0x91, 0x22, 0x63, 0x00, 0x99,
  0x2e, 0x5f, 0x00, 0x99, 0x3d, 0x53, 0x00, 0x99, 0x27, 0x55, 0x10, 0x81,
  0x22, 0x63, 0x08, 0x89, 0x2e, 0x5f, 0x00, 0x89, 0x3d, 0x53, 0x00, 0x89,
  0x27, 0x55, 0x18, 0x91, 0x22, 0x7f, 0x00, 0x95, 0x38, 0x7f, 0x00, 0x99,
  0x27, 0x41, 0x10, 0x85, 0x38, 0x7f, 0x06, 0x81, 0x22, 0x7f, 0x02, 0x89,
  0x27, 0x41, 0x08, 0x82, 0x38, 0x7f, 0x10, 0x91, 0x22, 0x7f, 0x00, 0x92,
  0x44, 0x7f, 0x00, 0x99, 0x24, 0x7f, 0x00, 0x99, 0x2a, 0x70, 0x00, 0x99,
  0x3c, 0x53, 0x18, 0x89, 0x24, 0x7f, 0x00, 0x89, 0x2a, 0x70, 0x00, 0x89,
  0x3c, 0x53, 0x02, 0x81, 0x22, 0x7f, 0x16, 0x95, 0x38, 0x7f, 0x10, 0x85,
  0x38, 0x7f, 0x20, 0x91, 0x22, 0x7f, 0x00, 0x94, 0x44, 0x7f, 0x00, 0x99,
  0x2a, 0x36, 0x18, 0x81, 0x22, 0x7f, 0x00, 0x89, 0x2a, 0x36, 0x08, 0x84,
  0x44, 0x7f, 0x10, 0x91, 0x22, 0x7f, 0x00, 0x94, 0x46, 0x7f, 0x00, 0x99,
  0x2a, 0x64, 0x00, 0x99, 0x3e, 0x53, 0x18, 0x84, 0x46, 0x7f, 0x00, 0x89,
  0x2a, 0x64, 0x00, 0x89, 0x3e, 0x53, 0x0a, 0x81, 0x22, 0x7f, 0x0e, 0x94,
  0x49, 0x7f, 0x00, 0x95, 0x38, 0x7f, 0x00, 0x99, 0x24, 0x7f, 0x00, 0x99,
  0x26, 0x70, 0x00, 0x99, 0x2a, 0x74, 0x00, 0x99, 0x3c, 0x53, 0x00, 0x99,
  0x27, 0x64, 0x10, 0x85, 0x38, 0x7f, 0x06, 0x84, 0x49, 0x7f, 0x02, 0x89,
  0x24, 0x7f, 0x00, 0x89, 0x26, 0x70, 0x00, 0x89, 0x2a, 0x74, 0x00, 0x89,
  0x3c, 0x53, 0x00, 0x89, 0x27, 0x64, 0x18, 0x91, 0x25, 0x7f, 0x00, 0x94,
  0x46, 0x7f, 0x14, 0x84, 0x46, 0x7f, 0x16, 0x81, 0x25, 0x7f, 0x06, 0x91,
  0x24, 0x7f, 0x00, 0x94, 0x4d, 0x7f, 0x00, 0x99, 0x2a, 0x28, 0x00, 0x99,
  0x3d, 0x53, 0x18, 0x89, 0x2a, 0x28, 0x00, 0x89, 0x3d, 0x53, 0x0a, 0x81,
  0x24, 0x7f, 0x0e, 0x95, 0x35, 0x7f, 0x00, 0x99, 0x2a, 0x53, 0x0a, 0x84,
  0x4d, 0x7f, 0x06, 0x85, 0x35, 0x7f, 0x08, 0x89, 0x2a, 0x53, 0x18, 0x91,
  0x20, 0x7f, 0x00, 0x94, 0x44, 0x7f, 0x00, 0x95, 0x38, 0x7f, 0x00, 0x99,
  0x24, 0x7f, 0x00, 0x99, 0x2a, 0x74, 0x00, 0x99, 0x3c, 0x53, 0x10, 0x85,
  0x38, 0x7f, 0x08, 0x89, 0x24, 0x7f, 0x00, 0x89, 0x2a, 0x74, 0x00, 0x89,
  0x3c, 0x53, 0x0a, 0x84, 0x44, 0x7f, 0x0e, 0x94, 0x46, 0x7f, 0x02, 0x81,
  0x20, 0x7f, 0x1a, 0x84, 0x46, 0x7f, 0x14, 0x91, 0x22, 0x7f, 0x00, 0x94,
  0x49, 0x7f, 0x00, 0x99, 0x2a, 0x30, 0x18, 0x89, 0x2a, 0x30, 0x08, 0x84,
  0x49, 0x7f, 0x02, 0x81, 0x22, 0x7f, 0x0e, 0x94, 0x46, 0x7f, 0x00, 0x95,
  0x38, 0x7f, 0x00, 0x99, 0x2a, 0x47, 0x00, 0x99, 0x3e, 0x53, 0x10, 0x85,
  0x38, 0x7f, 0x02, 0x84, 0x46, 0x7f, 0x06, 0x89, 0x2a, 0x47, 0x00, 0x89,
  0x3e, 0x53, 0x18, 0x94, 0x4d, 0x7f, 0x00, 0x99, 0x24, 0x7f, 0x00, 0x99,
  0x26, 0x7c, 0x00, 0x99, 0x2a, 0x74, 0x00, 0x99, 0x3c, 0x53, 0x00, 0x99,
  0x27, 0x74, 0x18, 0x89, 0x24, 0x7f, 0x00, 0x89, 0x26, 0x7c, 0x00, 0x89,
  0x2a, 0x74, 0x00, 0x89, 0x3c, 0x53, 0x00, 0x89, 0x27, 0x74, 0x34, 0x82,
  0x44, 0x7f, 0x02, 0x84, 0x4d, 0x7f, 0x12, 0x91, 0x1d, 0x7f, 0x00, 0x92,
  0x41, 0x7f, 0x00, 0x94, 0x46, 0x7f, 0x00, 0x95, 0x35, 0x7f, 0x00, 0x99,
  0x2a, 0x0d, 0x00, 0x99, 0x3d, 0x53, 0x10, 0x84, 0x46, 0x7f, 0x00, 0x85,
  0x35, 0x7f, 0x08, 0x89, 0x2a, 0x0d, 0x00, 0x89, 0x3d, 0x53, 0x0a, 0x81,
  0x1d, 0x7f, 0x0e, 0x82, 0x41, 0x7f, 0x00, 0x91, 0x22, 0x7f, 0x00, 0x92,
  0x3f, 0x7f, 0x00, 0x95, 0x38, 0x7f, 0x00, 0x99, 0x2a, 0x47, 0x10, 0x85,
  0x38, 0x7f, 0x08, 0x81, 0x22, 0x7f, 0x00, 0x89, 0x2a, 0x47, 0x04, 0x82,
  0x3f, 0x7f, 0x14, 0x90, 0x49, 0x7f, 0x00, 0x90, 0x44, 0x7f, 0x00, 0x90,
  0x41, 0x7f, 0x00, 0x99, 0x24, 0x7f, 0x00, 0x99, 0x2a, 0x64, 0x00, 0x99,
  0x3c, 0x53, 0x18, 0x89, 0x24, 0x7f, 0x00, 0x89, 0x2a, 0x64, 0x00, 0x89,
  0x3c, 0x53, 0x18, 0x95, 0x38, 0x7f, 0x10, 0x85, 0x38, 0x7f, 0x20, 0x80,
  0x49, 0x7f, 0x00, 0x80, 0x44, 0x7f, 0x00, 0x80, 0x41, 0x7f, 0x00, 0x91,
  0x20, 0x7f, 0x00, 0x99, 0x2a, 0x36, 0x18, 0x81, 0x20, 0x7f, 0x00, 0x89,
  0x2a, 0x36, 0x18, 0x90, 0x49, 0x7f, 0x00, 0x90, 0x44, 0x7f, 0x00, 0x90,
  0x41, 0x7f, 0x00, 0x91, 0x22, 0x7f, 0x00, 0x99, 0x2a, 0x53, 0x00, 0x99,
  0x3e, 0x53, 0x18, 0x89, 0x2a, 0x53, 0x00, 0x89, 0x3e, 0x53, 0x06, 0x81,
  0x22, 0x7f, 0x12, 0x95, 0x38, 0x7f, 0x00, 0x99, 0x24, 0x7f, 0x00, 0x99,
  0x26, 0x70, 0x00, 0x99, 0x2a, 0x74, 0x00, 0x99, 0x3c, 0x53, 0x00, 0x99,
  0x27, 0x74, 0x10, 0x85, 0x38, 0x7f, 0x08, 0x89, 0x24, 0x7f, 0x00, 0x89,
  0x26, 0x70, 0x00, 0x89, 0x2a, 0x74, 0x00, 0x89, 0x3c, 0x53, 0x00, 0x89,
  0x27, 0x74, 0x18, 0x91, 0x25, 0x7f, 0x1e, 0x81, 0x25, 0x7f, 0x12, 0x80,
  0x49, 0x7f, 0x00, 0x80, 0x44, 0x7f, 0x00, 0x80, 0x41, 0x7f, 0x00, 0x90,
  0x48, 0x7f, 0x00, 0x90, 0x44, 0x7f, 0x00, 0x90, 0x3f, 0x7f, 0x00, 0x91,
  0x24, 0x7f, 0x00, 0x99, 0x2a, 0x36, 0x00, 0x99, 0x3d, 0x53, 0x18, 0x89,
  0x2a, 0x36, 0x00, 0x89, 0x3d, 0x53, 0x04, 0x81, 0x24, 0x7f, 0x14, 0x80,
  0x48, 0x7f, 0x00, 0x80, 0x44, 0x7f, 0x00, 0x80, 0x3f, 0x7f, 0x00, 0x95,
  0x35, 0x7f, 0x00, 0x99, 0x2a, 0x47, 0x10, 0x85, 0x35, 0x7f, 0x08, 0x89,
  0x2a, 0x47, 0x18, 0x95, 0x38, 0x7f, 0x00, 0x99, 0x24, 0x7f, 0x00, 0x99,
  0x2a, 0x64, 0x00, 0x99, 0x3c, 0x53, 0x10, 0x85, 0x38, 0x7f, 0x08, 0x89,
  0x24, 0x7f, 0x00, 0x89, 0x2a, 0x64, 0x00, 0x89, 0x3c, 0x53, 0x48, 0x91,
  0x22, 0x7f, 0x00, 0x95, 0x38, 0x7f, 0x00, 0x99, 0x2a, 0x47, 0x10, 0x85,
  0x38, 0x7f, 0x08, 0x89, 0x2a, 0x47, 0x08, 0x81, 0x22, 0x7f, 0x10, 0x99,
  0x2a, 0x47, 0x00, 0x99, 0x3e, 0x53, 0x18, 0x89, 0x2a, 0x47, 0x00, 0x89,
  0x3e, 0x53, 0x18, 0x92, 0x38, 0x7f, 0x00, 0x95, 0x38, 0x7f, 0x00, 0x99,
  0x24, 0x7f, 0x00, 0x99, 0x26, 0x70, 0x00, 0x99, 0x2a, 0x74, 0x00, 0x99,
  0x3c, 0x53, 0x00, 0x99, 0x27, 0x64, 0x10, 0x85, 0x38, 0x7f, 0x08, 0x89,
  0x24, 0x7f, 0x00, 0x89, 0x26, 0x70, 0x00, 0x89, 0x2a, 0x74, 0x00, 0x89,
  0x3c, 0x53, 0x00, 0x89, 0x27, 0x64, 0x18, 0x95, 0x3a, 0x7f, 0x10, 0x85,
  0x3a, 0x7f, 0x20, 0x91, 0x20, 0x7f, 0x00, 0x99, 0x2e, 0x44, 0x00, 0x99,
  0x3d, 0x53, 0x14, 0x81, 0x20, 0x7f, 0x04, 0x89, 0x2e, 0x44, 0x00, 0x89,
  0x3d, 0x53, 0x18, 0x91, 0x20, 0x7f, 0x1c, 0x81, 0x20, 0x7f, 0x06, 0x82,
  0x38, 0x7f, 0x0e, 0x91, 0x22, 0x7f, 0x00, 0x92, 0x44, 0x7f, 0x00, 0x99,
  0x24, 0x7f, 0x00, 0x99, 0x2a, 0x74, 0x00, 0x99, 0x3c, 0x53, 0x18, 0x89,
  0x24, 0x7f, 0x00, 0x89, 0x2a, 0x74, 0x00, 0x89, 0x3c, 0x53, 0x0e, 0x81,
  0x22, 0x7f, 0x0a, 0x95, 0x38, 0x7f, 0x10, 0x85, 0x38, 0x7f, 0x20, 0x91,
  0x22, 0x7f, 0x00, 0x94, 0x44, 0x7f, 0x00, 0x99, 0x2a, 0x2c, 0x18, 0x89,
  0x2a, 0x2c, 0x02, 0x81, 0x22, 0x7f, 0x06, 0x84, 0x44, 0x7f, 0x10, 0x91,
  0x22, 0x7f, 0x00, 0x94, 0x46, 0x7f, 0x00, 0x99, 0x2a, 0x64, 0x00, 0x99,
  0x3e, 0x53, 0x18, 0x84, 0x46, 0x7f, 0x00, 0x89, 0x2a, 0x64, 0x00, 0x89,
  0x3e, 0x53, 0x08, 0x81, 0x22, 0x7f, 0x10, 0x94, 0x49, 0x7f, 0x00, 0x95,
  0x38, 0x7f, 0x00, 0x99, 0x24, 0x7f, 0x00, 0x99, 0x26, 0x7c, 0x00, 0x99,
  0x2a, 0x74, 0x00, 0x99, 0x3c, 0x53, 0x00, 0x99, 0x27, 0x64, 0x10, 0x85,
  0x38, 0x7f, 0x06, 0x84, 0x49, 0x7f, 0x02, 0x89, 0x24, 0x7f, 0x00, 0x89,
  0x26, 0x7c, 0x00, 0x89, 0x2a, 0x74, 0x00, 0x89, 0x3c, 0x53, 0x00, 0x89,
  0x27, 0x64, 0x18, 0x91, 0x25, 0x7f, 0x00, 0x94, 0x46, 0x7f, 0x14, 0x84,
  0x46, 0x7f, 0x0c, 0x81, 0x25, 0x7f, 0x10, 0x91, 0x24, 0x7f, 0x00, 0x94,
  0x4d, 0x7f, 0x00, 0x99, 0x2a, 0x21, 0x00, 0x99, 0x3d, 0x53, 0x18, 0x89,
  0x2a, 0x21, 0x00, 0x89, 0x3d, 0x53, 0x04, 0x81, 0x24, 0x7f, 0x14, 0x95,
  0x35, 0x7f, 0x00, 0x99, 0x2a, 0x53, 0x0a, 0x84, 0x4d, 0x7f, 0x06, 0x85,
  0x35, 0x7f, 0x08, 0x89, 0x2a, 0x53, 0x18, 0x91, 0x20, 0x7f, 0x00, 0x94,
  0x44, 0x7f, 0x00, 0x95, 0x38, 0x7f, 0x00, 0x99, 0x24, 0x7f, 0x00, 0x99,
  0x2a, 0x74, 0x00, 0x99, 0x3c, 0x53, 0x10, 0x85, 0x38, 0x7f, 0x08, 0x89,
  0x24, 0x7f, 0x00, 0x89, 0x2a, 0x74, 0x00, 0x89, 0x3c, 0x53, 0x0a, 0x84,
  0x44, 0x7f, 0x0e, 0x81, 0x20, 0x7f, 0x00, 0x94, 0x46, 0x7f, 0x1c, 0x84,
  0x46, 0x7f, 0x14, 0x91, 0x22, 0x7f, 0x00, 0x94, 0x49, 0x7f, 0x00, 0x95,
  0x38, 0x7f, 0x00, 0x99, 0x2a, 0x47, 0x10, 0x85, 0x38, 0x7f, 0x08, 0x89,
  0x2a, 0x47, 0x08, 0x84, 0x49, 0x7f, 0x02, 0x81, 0x22, 0x7f, 0x0e, 0x94,
  0x46, 0x7f, 0x00, 0x99, 0x2a, 0x53, 0x00, 0x99, 0x3e, 0x53, 0x12, 0x84,
  0x46, 0x7f, 0x06, 0x89, 0x2a, 0x53, 0x00, 0x89, 0x3e, 0x53, 0x18, 0x94,
  0x4d, 0x7f, 0x00, 0x99, 0x24, 0x7f, 0x00, 0x99, 0x26, 0x70, 0x00, 0x99,
  0x2a, 0x7f, 0x00, 0x99, 0x3c, 0x53, 0x00, 0x99, 0x27, 0x74, 0x18, 0x89,
  0x24, 0x7f, 0x00, 0x89, 0x26, 0x70, 0x00, 0x89, 0x2a, 0x7f, 0x00, 0x89,
  0x3c, 0x53, 0x00, 0x89, 0x27, 0x74, 0x36, 0x84, 0x4d, 0x7f, 0x06, 0x82,
  0x44, 0x7f, 0x0c, 0x91, 0x20, 0x7f, 0x00, 0x92, 0x41, 0x7f, 0x00, 0x94,
  0x46, 0x7f, 0x00, 0x95, 0x33, 0x7f, 0x00, 0x99, 0x2a, 0x30, 0x00, 0x99,
  0x3d, 0x53, 0x10, 0x84, 0x46, 0x7f, 0x00, 0x85, 0x33, 0x7f, 0x04, 0x81,
  0x20, 0x7f, 0x04, 0x89, 0x2a, 0x30, 0x00, 0x89, 0x3d, 0x53, 0x18, 0x91,
  0x20, 0x7f, 0x00, 0x92, 0x3f, 0x7f, 0x00, 0x95, 0x35, 0x7f, 0x00, 0x99,
  0x2a, 0x3d, 0x02, 0x82, 0x41, 0x7f, 0x0e, 0x85, 0x35, 0x7f, 0x04, 0x81,
  0x20, 0x7f, 0x04, 0x89, 0x2a, 0x3d, 0x08, 0x82, 0x3f, 0x7f, 0x10, 0x90,
  0x49, 0x7f, 0x00, 0x90, 0x44, 0x7f, 0x00, 0x90, 0x41, 0x7f, 0x00, 0x91,
  0x1b, 0x7f, 0x00, 0x99, 0x24, 0x7f, 0x00, 0x99, 0x2a, 0x74, 0x00, 0x99,
  0x3c, 0x53, 0x18, 0x89, 0x24, 0x7f, 0x00, 0x89, 0x2a, 0x74, 0x00, 0x89,
  0x3c, 0x53, 0x18, 0x81, 0x1b, 0x7f, 0x00, 0x95, 0x38, 0x7f, 0x10, 0x85,
  0x38, 0x7f, 0x20, 0x80, 0x49, 0x7f, 0x00, 0x80, 0x44, 0x7f, 0x00, 0x80,
  0x41, 0x7f, 0x00, 0x91, 0x1b, 0x63, 0x00, 0x99, 0x2a, 0x47, 0x00, 0x99,
  0x30, 0x5f, 0x18, 0x89, 0x2a, 0x47, 0x00, 0x89, 0x30, 0x5f, 0x04, 0x81,
  0x1b, 0x63, 0x14, 0x90, 0x49, 0x7f, 0x00, 0x90, 0x44, 0x7f, 0x00, 0x90,
  0x41, 0x7f, 0x00, 0x91, 0x20, 0x73, 0x00, 0x99, 0x2a, 0x47, 0x00, 0x99,
  0x3e, 0x53, 0x00, 0x99, 0x30, 0x50, 0x18, 0x89, 0x2a, 0x47, 0x00, 0x89,
  0x3e, 0x53, 0x00, 0x89, 0x30, 0x50, 0x16, 0x81, 0x20, 0x73, 0x02, 0x95,
  0x38, 0x7f, 0x00, 0x99, 0x24, 0x7f, 0x00, 0x99, 0x26, 0x7c, 0x00, 0x99,
  0x2a, 0x74, 0x00, 0x99, 0x3c, 0x53, 0x00, 0x99, 0x27, 0x64, 0x00, 0x99,
  0x30, 0x50, 0x10, 0x85, 0x38, 0x7f, 0x08, 0x89, 0x24, 0x7f, 0x00, 0x89,
  0x26, 0x7c, 0x00, 0x89, 0x2a, 0x74, 0x00, 0x89, 0x3c, 0x53, 0x00, 0x89,
  0x27, 0x64, 0x00, 0x89, 0x30, 0x50, 0x18, 0x91, 0x20, 0x47, 0x00, 0x99,
  0x30, 0x70, 0x10, 0x81, 0x20, 0x47, 0x08, 0x89, 0x30, 0x70, 0x18, 0x80,
  0x49, 0x7f, 0x00, 0x80, 0x44, 0x7f, 0x00, 0x80, 0x41, 0x7f, 0x00, 0x90,
  0x48, 0x7f, 0x00, 0x90, 0x44, 0x7f, 0x00, 0x90, 0x3f, 0x7f, 0x00, 0x91,
  0x20, 0x7f, 0x00, 0x99, 0x2e, 0x44, 0x00, 0x99, 0x3d, 0x53, 0x00, 0x99,
  0x2d, 0x50, 0x18, 0x89, 0x2e, 0x44, 0x00, 0x89, 0x3d, 0x53, 0x00, 0x89,
  0x2d, 0x50, 0x06, 0x81, 0x20, 0x7f, 0x12, 0x80, 0x48, 0x7f, 0x00, 0x80,
  0x44, 0x7f, 0x00, 0x80, 0x3f, 0x7f, 0x00, 0x95, 0x35, 0x7f, 0x00, 0x99,
  0x2d, 0x70, 0x10, 0x85, 0x35, 0x7f, 0x08, 0x89, 0x2d, 0x70, 0x18, 0x95,
  0x38, 0x7f, 0x00, 0x99, 0x24, 0x7f, 0x00, 0x99, 0x2a, 0x74, 0x00, 0x99,
  0x3c, 0x53, 0x00, 0x99, 0x2d, 0x3b, 0x10, 0x85, 0x38, 0x7f, 0x08, 0x89,
  0x24, 0x7f, 0x00, 0x89, 0x2a, 0x74, 0x00, 0x89, 0x3c, 0x53, 0x00, 0x89,
  0x2d, 0x3b, 0x18, 0x99, 0x2d, 0x50, 0x18, 0x89, 0x2d, 0x50, 0x18, 0x91,
  0x20, 0x7f, 0x00, 0x95, 0x38, 0x7f, 0x00, 0x99, 0x2a, 0x3d, 0x00, 0x99,
  0x29, 0x70, 0x10, 0x85, 0x38, 0x7f, 0x04, 0x81, 0x20, 0x7f, 0x04, 0x89,
  0x2a, 0x3d, 0x00, 0x89, 0x29, 0x70, 0x18, 0x91, 0x20, 0x7f, 0x00, 0x99,
  0x2a, 0x64, 0x00, 0x99, 0x3e, 0x53, 0x00, 0x99, 0x29, 0x5f, 0x18, 0x89,
  0x2a, 0x64, 0x00, 0x89, 0x3e, 0x53, 0x00, 0x89, 0x29, 0x5f, 0x0c, 0x81,
  0x20, 0x7f, 0x0c, 0x99, 0x24, 0x7f, 0x00, 0x99, 0x26, 0x7d, 0x00, 0x99,
  0x2a, 0x74, 0x00, 0x99, 0x3c, 0x53, 0x00, 0x99, 0x27, 0x7d, 0x00, 0x99,
  0x29, 0x50, 0x18, 0x89, 0x24, 0x7f, 0x00, 0x89, 0x26, 0x7d, 0x00, 0x89,
  0x2a, 0x74, 0x00, 0x89, 0x3c, 0x53, 0x00, 0x89, 0x27, 0x7d, 0x00, 0x89,
  0x29, 0x50, 0x18, 0x91, 0x20, 0x63, 0x00, 0x95, 0x38, 0x7f, 0x00, 0x99,
  0x27, 0x69, 0x00, 0x99, 0x29, 0x70, 0x10, 0x85, 0x38, 0x7f, 0x08, 0x81,
  0x20, 0x63, 0x00, 0x89, 0x27, 0x69, 0x00, 0x89, 0x29, 0x70, 0x18, 0x91,
  0x22, 0x63, 0x00, 0x99, 0x2e, 0x5f, 0x00, 0x99, 0x3d, 0x53, 0x00, 0x99,
  0x27, 0x55, 0x00, 0x99, 0x29, 0x70, 0x10, 0x81, 0x22, 0x63, 0x08, 0x89,
  0x2e, 0x5f, 0x00, 0x89, 0x3d, 0x53, 0x00, 0x89, 0x27, 0x55, 0x00, 0x89,
  0x29, 0x70, 0x18, 0x91, 0x22, 0x73, 0x00, 0x95, 0x38, 0x7f, 0x00, 0x99,
  0x27, 0x41, 0x00, 0x99, 0x29, 0x70, 0x10, 0x85, 0x38, 0x7f, 0x06, 0x81,
  0x22, 0x73, 0x02, 0x89, 0x27, 0x41, 0x00, 0x89, 0x29, 0x70, 0x18, 0x99,
  0x24, 0x7f, 0x00, 0x99, 0x2a, 0x70, 0x00, 0x99, 0x3c, 0x53, 0x18, 0x89,
  0x24, 0x7f, 0x00, 0x89, 0x2a, 0x70, 0x00, 0x89, 0x3c, 0x53, 0x48, 0x99,
  0x2a, 0x36, 0x18, 0x89, 0x2a, 0x36, 0x18, 0x99, 0x2a, 0x64, 0x00, 0x99,
  0x3e, 0x53, 0x18, 0x89, 0x2a, 0x64, 0x00, 0x89, 0x3e, 0x53, 0x18, 0x96,
  0x3a, 0x7c, 0x00, 0x99, 0x24, 0x7f, 0x00, 0x99, 0x26, 0x70, 0x00, 0x99,
  0x2a, 0x74, 0x00, 0x99, 0x3c, 0x53, 0x00, 0x99, 0x27, 0x64, 0x18, 0x89,
  0x24, 0x7f, 0x00, 0x89, 0x26, 0x70, 0x00, 0x89, 0x2a, 0x74, 0x00, 0x89,
  0x3c, 0x53, 0x00, 0x89, 0x27, 0x64, 0x38, 0x86, 0x3a, 0x7c, 0x10, 0x96,
  0x3c, 0x78, 0x00, 0x96, 0x3a, 0x6a, 0x00, 0x99, 0x2a, 0x28, 0x00, 0x99,
  0x3d, 0x53, 0x16, 0x86, 0x3c, 0x78, 0x02, 0x89, 0x2a, 0x28, 0x00, 0x89,
  0x3d, 0x53, 0x18, 0x99, 0x2a, 0x53, 0x18, 0x89, 0x2a, 0x53, 0x08, 0x86,
  0x3a, 0x6a, 0x10, 0x96, 0x3d, 0x7e, 0x00, 0x96, 0x3c, 0x66, 0x00, 0x99,
  0x24, 0x7f, 0x00, 0x99, 0x2a, 0x74, 0x00, 0x99, 0x3c, 0x53, 0x16, 0x86,
  0x3c, 0x66, 0x02, 0x89, 0x24, 0x7f, 0x00, 0x89, 0x2a, 0x74, 0x00, 0x89,
  0x3c, 0x53, 0x38, 0x86, 0x3d, 0x7e, 0x10, 0x96, 0x3d, 0x72, 0x00, 0x99,
  0x2a, 0x30, 0x18, 0x89, 0x2a, 0x30, 0x18, 0x99, 0x2a, 0x47, 0x00, 0x99,
  0x3e, 0x53, 0x18, 0x89, 0x2a, 0x47, 0x00, 0x89, 0x3e, 0x53, 0x00, 0xe6,
  0x1e, 0x3f, 0x06, 0xe6, 0x22, 0x3b, 0x02, 0x86, 0x3d, 0x72, 0x0a, 0xe6,
  0x4f, 0x3a, 0x06, 0x96, 0x3f, 0x7e, 0x00, 0x96, 0x3d, 0x5f, 0x00, 0x99,
  0x24, 0x7f, 0x00, 0x99, 0x26, 0x7c, 0x00, 0x99, 0x2a, 0x74, 0x00, 0x99,
  0x3c, 0x53, 0x00, 0x99, 0x27, 0x74, 0x14, 0xe6, 0x16, 0x3c, 0x04, 0x89,
  0x24, 0x7f, 0x00, 0x89, 0x26, 0x7c, 0x00, 0x89, 0x2a, 0x74, 0x00, 0x89,
  0x3c, 0x53, 0x00, 0x89, 0x27, 0x74, 0x06, 0xe6, 0x47, 0x3d, 0x08, 0xe6,
  0x7c, 0x3e, 0x02, 0x86, 0x3f, 0x7e, 0x04, 0xe6, 0x70, 0x3f, 0x06, 0xe6,
  0x00, 0x40, 0x02, 0x86, 0x3d, 0x5f, 0x2c, 0x96, 0x3f, 0x6c, 0x00, 0x96,
  0x3c, 0x7e, 0x00, 0x99, 0x2a, 0x0d, 0x00, 0x99, 0x3d, 0x53, 0x18, 0x89,
  0x2a, 0x0d, 0x00, 0x89, 0x3d, 0x53, 0x10, 0x86, 0x3f, 0x6c, 0x08, 0x99,
  0x2a, 0x47, 0x18, 0x89, 0x2a, 0x47, 0x18, 0x86, 0x3c, 0x40, 0x00, 0x96,
  0x3c, 0x6c, 0x00, 0x99, 0x24, 0x7f, 0x00, 0x99, 0x2a, 0x64, 0x00, 0x99,
  0x3c, 0x53, 0x16, 0x86, 0x3c, 0x6c, 0x02, 0x89, 0x24, 0x7f, 0x00, 0x89,
  0x2a, 0x64, 0x00, 0x89, 0x3c, 0x53, 0x18, 0x96, 0x3a, 0x6e, 0x18, 0x86,
  0x3a, 0x6e, 0x18, 0x96, 0x38, 0x7e, 0x00, 0x99, 0x2a, 0x36, 0x18, 0x89,
  0x2a, 0x36, 0x18, 0x96, 0x3a, 0x5b, 0x00, 0x99, 0x2a, 0x53, 0x00, 0x99,
  0x3e, 0x53, 0x18, 0x86, 0x3a, 0x5b, 0x00, 0x89, 0x2a, 0x53, 0x00, 0x89,
  0x3e, 0x53, 0x18, 0x86, 0x38, 0x40, 0x00, 0x96, 0x38, 0x6c, 0x00, 0x99,
  0x24, 0x7f, 0x00, 0x99, 0x26, 0x70, 0x00, 0x99, 0x2a, 0x74, 0x00, 0x99,
  0x3c, 0x53, 0x00, 0x99, 0x27, 0x74, 0x18, 0x89, 0x24, 0x7f, 0x00, 0x89,
  0x26, 0x70, 0x00, 0x89, 0x2a, 0x74, 0x00, 0x89, 0x3c, 0x53, 0x00, 0x89,
  0x27, 0x74, 0x48, 0x99, 0x2a, 0x36, 0x00, 0x99, 0x3d, 0x53, 0x18, 0x89,
  0x2a, 0x36, 0x00, 0x89, 0x3d, 0x53, 0x18, 0x99, 0x2a, 0x47, 0x18, 0x89,
  0x2a, 0x47, 0x18, 0x99, 0x24, 0x7f, 0x00, 0x99, 0x2a, 0x64, 0x00, 0x99,
  0x3c, 0x53, 0x18, 0x89, 0x24, 0x7f, 0x00, 0x89, 0x2a, 0x64, 0x00, 0x89,
  0x3c, 0x53, 0x3a, 0x86, 0x38, 0x6c, 0x0e, 0x99, 0x2a, 0x47, 0x18, 0x89,
  0x2a, 0x47, 0x18, 0x99, 0x2a, 0x47, 0x00, 0x99, 0x3e, 0x53, 0x18, 0x89,
  0x2a, 0x47, 0x00, 0x89, 0x3e, 0x53, 0x18, 0x99, 0x24, 0x7f, 0x00, 0x99,
  0x26, 0x70, 0x00, 0x99, 0x2a, 0x74, 0x00, 0x99, 0x3c, 0x53, 0x00, 0x99,
  0x27, 0x64, 0x18, 0x89, 0x24, 0x7f, 0x00, 0x89, 0x26, 0x70, 0x00, 0x89,
  0x2a, 0x74, 0x00, 0x89, 0x3c, 0x53, 0x00, 0x89, 0x27, 0x64, 0x48, 0x99,
  0x2e, 0x44, 0x00, 0x99, 0x3d, 0x53, 0x18, 0x89, 0x2e, 0x44, 0x00, 0x89,
  0x3d, 0x53, 0x48, 0x99, 0x24, 0x7f, 0x00, 0x99, 0x2a, 0x74, 0x00, 0x99,
  0x3c, 0x53, 0x18, 0x89, 0x24, 0x7f, 0x00, 0x89, 0x2a, 0x74, 0x00, 0x89,
  0x3c, 0x53, 0x48, 0x96, 0x3a, 0x7e, 0x00, 0x99, 0x2a, 0x2c, 0x18, 0x89,
  0x2a, 0x2c, 0x18, 0x99, 0x2a, 0x64, 0x00, 0x99, 0x3e, 0x53, 0x18, 0x86,
  0x3a, 0x7e, 0x00, 0x89, 0x2a, 0x64, 0x00, 0x89, 0x3e, 0x53, 0x18, 0x96,
  0x3a, 0x7f, 0x00, 0x99, 0x24, 0x7f, 0x00, 0x99, 0x26, 0x7c, 0x00, 0x99,
  0x2a, 0x74, 0x00, 0x99, 0x3c, 0x53, 0x00, 0x99, 0x27, 0x64, 0x18, 0x89,
  0x24, 0x7f, 0x00, 0x89, 0x26, 0x7c, 0x00, 0x89, 0x2a, 0x74, 0x00, 0x89,
  0x3c, 0x53, 0x00, 0x89, 0x27, 0x64, 0x36, 0x86, 0x3a, 0x7f, 0x12, 0x96,
  0x3c, 0x7f, 0x00, 0x96, 0x3a, 0x7f, 0x00, 0x99, 0x2a, 0x21, 0x00, 0x99,
  0x3d, 0x53, 0x18, 0x89, 0x2a, 0x21, 0x00, 0x89, 0x3d, 0x53, 0x18, 0x99,
  0x2a, 0x53, 0x18, 0x89, 0x2a, 0x53, 0x02, 0x86, 0x3c, 0x7f, 0x04, 0x86,
  0x3a, 0x7f, 0x12, 0x96, 0x3d, 0x7f, 0x00, 0x96, 0x3c, 0x7f, 0x00, 0x99,
  0x24, 0x7f, 0x00, 0x99, 0x2a, 0x74, 0x00, 0x99, 0x3c, 0x53, 0x18, 0x89,
  0x24, 0x7f, 0x00, 0x89, 0x2a, 0x74, 0x00, 0x89, 0x3c, 0x53, 0x32, 0x86,
  0x3d, 0x7f, 0x00, 0x86, 0x3c, 0x7f, 0x16, 0x96, 0x3d, 0x7f, 0x00, 0x96,
  0x3a, 0x70, 0x00, 0x99, 0x2a, 0x47, 0x18, 0x89, 0x2a, 0x47, 0x0a, 0x86,
  0x3a, 0x70, 0x0e, 0x99, 0x2a, 0x53, 0x00, 0x99, 0x3e, 0x53, 0x18, 0x89,
  0x2a, 0x53, 0x00, 0x89, 0x3e, 0x53, 0x02, 0x86, 0x3d, 0x7f, 0x16, 0xb6,
  0x01, 0x03, 0x00, 0x96, 0x3a, 0x5d, 0x00, 0x99, 0x24, 0x7f, 0x00, 0x99,
  0x26, 0x70, 0x00, 0x99, 0x2a, 0x7f, 0x00, 0x99, 0x3c, 0x53, 0x00, 0x99,
  0x27, 0x74, 0x18, 0x89, 0x24, 0x7f, 0x00, 0x89, 0x26, 0x70, 0x00, 0x89,
  0x2a, 0x7f, 0x00, 0x89, 0x3c, 0x53, 0x00, 0x89, 0x27, 0x74, 0x0a, 0x86,
  0x3a, 0x5d, 0x2e, 0xe6, 0x6a, 0x3d, 0x0a, 0xe6, 0x73, 0x3b, 0x06, 0x94,
  0x44, 0x7f, 0x00, 0x94, 0x38, 0x7f, 0x00, 0x96, 0x38, 0x7e, 0x00, 0x99,
  0x2a, 0x30, 0x00, 0x99, 0x3d, 0x53, 0x02, 0xe6, 0x7f, 0x3a, 0x0e, 0xe6,
  0x6a, 0x3d, 0x08, 0x89, 0x2a, 0x30, 0x00, 0x89, 0x3d, 0x53, 0x04, 0xe6,
  0x4e, 0x3f, 0x08, 0xe6, 0x70, 0x3f, 0x02, 0xe6, 0x00, 0x40, 0x04, 0x86,
  0x38, 0x7e, 0x06, 0x99, 0x2a, 0x3d, 0x18, 0x89, 0x2a, 0x3d, 0x02, 0x84,
  0x44, 0x7f, 0x00, 0x84, 0x38, 0x7f, 0x16, 0x90, 0x41, 0x7f, 0x00, 0x90,
  0x3d, 0x7f, 0x00, 0x90, 0x3a, 0x7f, 0x00, 0x90, 0x36, 0x7c, 0x00, 0x93,
  0x41, 0x7f, 0x00, 0x93, 0x3d, 0x7f, 0x00, 0x93, 0x3a, 0x7f, 0x00, 0x93,
  0x36, 0x62, 0x00, 0x94, 0x50, 0x7f, 0x00, 0x94, 0x44, 0x7f, 0x00, 0xb6,
  0x01, 0x00, 0x00, 0x96, 0x44, 0x7e, 0x00, 0x96, 0x38, 0x6c, 0x00, 0x99,
  0x24, 0x7f, 0x00, 0x99, 0x2a, 0x74, 0x00, 0x99, 0x3c, 0x53, 0x18, 0x89,
  0x24, 0x7f, 0x00, 0x89, 0x2a, 0x74, 0x00, 0x89, 0x3c, 0x53, 0x12, 0x86,
  0x38, 0x6c, 0x08, 0x84, 0x50, 0x7f, 0x02, 0x84, 0x44, 0x7f, 0x26, 0xe6,
  0x04, 0x3c, 0x06, 0x86, 0x44, 0x40, 0x00, 0x96, 0x44, 0x6c, 0x00, 0x99,
  0x2a, 0x47, 0x06, 0x86, 0x44, 0x6c, 0x00, 0xe6, 0x4f, 0x3a, 0x12, 0x89,
  0x2a, 0x47, 0x00, 0xe6, 0x76, 0x3c, 0x08, 0xe6, 0x4e, 0x3f, 0x08, 0xe6,
  0x70, 0x3f, 0x02, 0xe6, 0x00, 0x40, 0x06, 0x99, 0x2a, 0x47, 0x00, 0x99,
  0x3e, 0x53, 0x18, 0x89, 0x2a, 0x47, 0x00, 0x89, 0x3e, 0x53, 0x18, 0x94,
  0x50, 0x7f, 0x00, 0x94, 0x44, 0x7f, 0x00, 0x96, 0x44, 0x7e, 0x00, 0x99,
  0x24, 0x7f, 0x00, 0x99, 0x26, 0x7c, 0x00, 0x99, 0x2a, 0x74, 0x00, 0x99,
  0x3c, 0x53, 0x00, 0x99, 0x27, 0x64, 0x06, 0x86, 0x44, 0x7e, 0x12, 0x89,
  0x24, 0x7f, 0x00, 0x89, 0x26, 0x7c, 0x00, 0x89, 0x2a, 0x74, 0x00, 0x89,
  0x3c, 0x53, 0x00, 0x89, 0x27, 0x64, 0x02, 0x83, 0x3a, 0x7f, 0x00, 0x83,
  0x36, 0x62, 0x06, 0x83, 0x41, 0x7f, 0x06, 0x83, 0x3d, 0x7f, 0x30, 0x84,
  0x44, 0x7f, 0x04, 0x84, 0x50, 0x7f, 0x06, 0x80, 0x41, 0x7f, 0x00, 0x80,
  0x3d, 0x7f, 0x00, 0x80, 0x3a, 0x7f, 0x00, 0x80, 0x36, 0x7c, 0x00, 0x90,
  0x3f, 0x70, 0x00, 0x90, 0x3c, 0x73, 0x00, 0x90, 0x38, 0x7c, 0x00, 0x90,
  0x35, 0x73, 0x00, 0x93, 0x3f, 0x62, 0x00, 0x93, 0x3c, 0x62, 0x00, 0x93,
  0x38, 0x62, 0x00, 0x93, 0x35, 0x62, 0x00, 0x94, 0x4b, 0x7f, 0x00, 0x94,
  0x3f, 0x7f, 0x00, 0x96, 0x3f, 0x6c, 0x00, 0x96, 0x44, 0x5d, 0x00, 0x99,
  0x2e, 0x44, 0x00, 0x99, 0x3d, 0x53, 0x18, 0x89, 0x2e, 0x44, 0x00, 0x89,
  0x3d, 0x53, 0x2c, 0x86, 0x44, 0x5d, 0x1c, 0x86, 0x3f, 0x40, 0x00, 0x96,
  0x3f, 0x6f, 0x00, 0x99, 0x24, 0x7f, 0x00, 0x99, 0x2a, 0x74, 0x00, 0x99,
  0x3c, 0x53, 0x18, 0x89, 0x24, 0x7f, 0x00, 0x89, 0x2a, 0x74, 0x00, 0x89,
  0x3c, 0x53, 0x3c, 0x84, 0x4b, 0x7f, 0x06, 0x84, 0x3f, 0x7f, 0x06, 0x94,
  0x4d, 0x7f, 0x00, 0x94, 0x41, 0x7f, 0x00, 0x99, 0x2a, 0x3d, 0x18, 0x89,
  0x2a, 0x3d, 0x18, 0x99, 0x2a, 0x64, 0x00, 0x99, 0x3e, 0x53, 0x18, 0x89,
  0x2a, 0x64, 0x00, 0x89, 0x3e, 0x53, 0x14, 0x84, 0x41, 0x7f, 0x04, 0x86,
  0x3f, 0x6f, 0x00, 0x94, 0x4b, 0x7f, 0x00, 0x94, 0x3f, 0x7f, 0x00, 0x99,
  0x24, 0x7f, 0x00, 0x99, 0x26, 0x7d, 0x00, 0x99, 0x2a, 0x74, 0x00, 0x99,
  0x3c, 0x53, 0x00, 0x99, 0x27, 0x7d, 0x04, 0x84, 0x4d, 0x7f, 0x14, 0x89,
  0x24, 0x7f, 0x00, 0x89, 0x26, 0x7d, 0x00, 0x89, 0x2a, 0x74, 0x00, 0x89,
  0x3c, 0x53, 0x00, 0x89, 0x27, 0x7d, 0x18, 0x99, 0x27, 0x69, 0x06, 0x83,
  0x35, 0x62, 0x04, 0x83, 0x3f, 0x62, 0x00, 0x83, 0x3c, 0x62, 0x00, 0x83,
  0x38, 0x62, 0x0e, 0x89, 0x27, 0x69, 0x12, 0x84, 0x3f, 0x7f, 0x06, 0x94,
  0x49, 0x7f, 0x00, 0x94, 0x3d, 0x7f, 0x00, 0x99, 0x2e, 0x5f, 0x00, 0x99,
  0x3d, 0x53, 0x00, 0x99, 0x27, 0x55, 0x04, 0x84, 0x4b, 0x7f, 0x14, 0x89,
  0x2e, 0x5f, 0x00, 0x89, 0x3d, 0x53, 0x00, 0x89, 0x27, 0x55, 0x0e, 0x84,
  0x49, 0x7f, 0x04, 0x84, 0x3d, 0x7f, 0x06, 0x99, 0x27, 0x41, 0x18, 0x89,
  0x27, 0x41, 0x18, 0x80, 0x3f, 0x70, 0x00, 0x80, 0x3c, 0x73, 0x00, 0x80,
  0x38, 0x7c, 0x00, 0x80, 0x35, 0x73, 0x00, 0x99, 0x24, 0x7f, 0x00, 0x99,
  0x2a, 0x70, 0x00, 0x99, 0x3c, 0x53, 0x18, 0x89, 0x24, 0x7f, 0x00, 0x89,
  0x2a, 0x70, 0x00, 0x89, 0x3c, 0x53, 0x48, 0x96, 0x3a, 0x79, 0x00, 0x99,
  0x2a, 0x36, 0x18, 0x89, 0x2a, 0x36, 0x08, 0x86, 0x3a, 0x79, 0x10, 0x99,
  0x2a, 0x64, 0x00, 0x99, 0x3e, 0x53, 0x18, 0x89, 0x2a, 0x64, 0x00, 0x89,
  0x3e, 0x53, 0x18, 0x96, 0x3a, 0x7e, 0x00, 0x99, 0x24, 0x7f, 0x00, 0x99,
  0x26, 0x70, 0x00, 0x99, 0x2a, 0x74, 0x00, 0x99, 0x3c, 0x53, 0x00, 0x99,
  0x27, 0x64, 0x18, 0x89, 0x24, 0x7f, 0x00, 0x89, 0x26, 0x70, 0x00, 0x89,
  0x2a, 0x74, 0x00, 0x89, 0x3c, 0x53, 0x00, 0x89, 0x27, 0x64, 0x32, 0x86,
  0x3a, 0x7e, 0x16, 0x96, 0x3c, 0x7f, 0x00, 0x96, 0x3a, 0x6c, 0x00, 0x99,
  0x2a, 0x28, 0x00, 0x99, 0x3d, 0x53, 0x14, 0x86, 0x3c, 0x7f, 0x04, 0x89,
  0x2a, 0x28, 0x00, 0x89, 0x3d, 0x53, 0x18, 0x99, 0x2a, 0x53, 0x18, 0x89,
  0x2a, 0x53, 0x02, 0x86, 0x3a, 0x6c, 0x16, 0x96, 0x3d, 0x7c, 0x00, 0x96,
  0x3c, 0x5d, 0x00, 0x99, 0x24, 0x7f, 0x00, 0x99, 0x2a, 0x74, 0x00, 0x99,
  0x3c, 0x53, 0x14, 0x86, 0x3c, 0x5d, 0x04, 0x89, 0x24, 0x7f, 0x00, 0x89,
  0x2a, 0x74, 0x00, 0x89, 0x3c, 0x53, 0x3e, 0x86, 0x3d, 0x7c, 0x0a, 0x96,
  0x3d, 0x6a, 0x00, 0x96, 0x3a, 0x74, 0x00, 0x99, 0x2a, 0x30, 0x18, 0x89,
  0x2a, 0x30, 0x08, 0x86, 0x3a, 0x74, 0x10, 0x99, 0x2a, 0x47, 0x00, 0x99,
  0x3e, 0x53, 0x18, 0x89, 0x2a, 0x47, 0x00, 0x89, 0x3e, 0x53, 0x0e, 0x86,
  0x3d, 0x6a, 0x0a, 0x96, 0x3d, 0x7e, 0x00, 0x96, 0x3a, 0x63, 0x00, 0x99,
  0x24, 0x7f, 0x00, 0x99, 0x26, 0x7c, 0x00, 0x99, 0x2a, 0x74, 0x00, 0x99,
  0x3c, 0x53, 0x00, 0x99, 0x27, 0x74, 0x18, 0x89, 0x24, 0x7f, 0x00, 0x89,
  0x26, 0x7c, 0x00, 0x89, 0x2a, 0x74, 0x00, 0x89, 0x3c, 0x53, 0x00, 0x89,
  0x27, 0x74, 0x08, 0x86, 0x3a, 0x63, 0x32, 0x86, 0x3d, 0x7e, 0x0e, 0x96,
  0x3f, 0x78, 0x00, 0x96, 0x3d, 0x6c, 0x00, 0x99, 0x2a, 0x0d, 0x00, 0x99,
  0x3d, 0x53, 0x18, 0x89, 0x2a, 0x0d, 0x00, 0x89, 0x3d, 0x53, 0x02, 0x86,
  0x3f, 0x78, 0x16, 0x99, 0x2a, 0x47, 0x14, 0xe6, 0x2f, 0x3f, 0x04, 0x89,
  0x2a, 0x47, 0x02, 0xe6, 0x3a, 0x3d, 0x08, 0x86, 0x3d, 0x6c, 0x00, 0xe6,
  0x22, 0x3b, 0x08, 0xe6, 0x60, 0x3a, 0x06, 0xb6, 0x01, 0x3f, 0x00, 0x96,
  0x3f, 0x66, 0x00, 0x99, 0x24, 0x7f, 0x00, 0x99, 0x2a, 0x64, 0x00, 0x99,
  0x3c, 0x53, 0x06, 0xe6, 0x52, 0x3b, 0x08, 0xe6, 0x17, 0x3d, 0x06, 0xe6,
  0x4e, 0x3f, 0x04, 0x89, 0x24, 0x7f, 0x00, 0x89, 0x2a, 0x64, 0x00, 0x89,
  0x3c, 0x53, 0x02, 0x86, 0x3f, 0x66, 0x04, 0xe6, 0x70, 0x3f, 0x02, 0xe6,
  0x00, 0x40, 0x40, 0xb6, 0x01, 0x00, 0x00, 0x96, 0x3c, 0x7f, 0x00, 0x99,
  0x2a, 0x36, 0x18, 0x89, 0x2a, 0x36, 0x18, 0x99, 0x2a, 0x53, 0x00, 0x99,
  0x3e, 0x53, 0x18, 0x89, 0x2a, 0x53, 0x00, 0x89, 0x3e, 0x53, 0x0a, 0x86,
  0x3c, 0x7f, 0x0e, 0x96, 0x3c, 0x7f, 0x00, 0x96, 0x3a, 0x7f, 0x00, 0x99,
  0x24, 0x7f, 0x00, 0x99, 0x26, 0x70, 0x00, 0x99, 0x2a, 0x74, 0x00, 0x99,
  0x3c, 0x53, 0x00, 0x99, 0x27, 0x74, 0x18, 0x89, 0x24, 0x7f, 0x00, 0x89,
  0x26, 0x70, 0x00, 0x89, 0x2a, 0x74, 0x00, 0x89, 0x3c, 0x53, 0x00, 0x89,
  0x27, 0x74, 0x2e, 0x86, 0x3a, 0x7f, 0x0c, 0x86, 0x3c, 0x7f, 0x0e, 0x96,
  0x3c, 0x7f, 0x00, 0x96, 0x3a, 0x7f, 0x00, 0x99, 0x2a, 0x36, 0x00, 0x99,
  0x3d, 0x53, 0x18, 0x86, 0x3c, 0x7f, 0x00, 0x89, 0x2a, 0x36, 0x00, 0x89,
  0x3d, 0x53, 0x18, 0x86, 0x3a, 0x40, 0x00, 0xb6, 0x01, 0x26, 0x00, 0x96,
  0x3a, 0x6c, 0x00, 0x99, 0x2a, 0x47, 0x16, 0x86, 0x3a, 0x6c, 0x02, 0x89,
  0x2a, 0x47, 0x18, 0xb6, 0x01, 0x00, 0x00, 0x96, 0x38, 0x6c, 0x00, 0x96,
  0x3c, 0x55, 0x00, 0x99, 0x24, 0x7f, 0x00, 0x99, 0x2a, 0x64, 0x00, 0x99,
  0x3c, 0x53, 0x18, 0x86, 0x3c, 0x55, 0x00, 0x89, 0x24, 0x7f, 0x00, 0x89,
  0x2a, 0x64, 0x00, 0x89, 0x3c, 0x53, 0x18, 0x96, 0x3a, 0x4e, 0x14, 0x86,
  0x3a, 0x4e, 0x1c, 0x86, 0x38, 0x40, 0x00, 0x96, 0x38, 0x6c, 0x00, 0x99,
  0x2a, 0x47, 0x18, 0x89, 0x2a, 0x47, 0x18, 0x99, 0x2a, 0x47, 0x00, 0x99,
  0x3e, 0x53, 0x18, 0x89, 0x2a, 0x47, 0x00, 0x89, 0x3e, 0x53, 0x18, 0x99,
  0x24, 0x7f, 0x00, 0x99, 0x26, 0x70, 0x00, 0x99, 0x2a, 0x74, 0x00, 0x99,
  0x3c, 0x53, 0x00, 0x99, 0x27, 0x64, 0x02, 0x86, 0x38, 0x6c, 0x16, 0x89,
  0x24, 0x7f, 0x00, 0x89, 0x26, 0x70, 0x00, 0x89, 0x2a, 0x74, 0x00, 0x89,
  0x3c, 0x53, 0x00, 0x89, 0x27, 0x64, 0x48, 0x99, 0x2e, 0x44, 0x00, 0x99,
  0x3d, 0x53, 0x18, 0x89, 0x2e, 0x44, 0x00, 0x89, 0x3d, 0x53, 0x48, 0x99,
  0x24, 0x7f, 0x00, 0x99, 0x2a, 0x74, 0x00, 0x99, 0x3c, 0x53, 0x18, 0x89,
  0x24, 0x7f, 0x00, 0x89, 0x2a, 0x74, 0x00, 0x89, 0x3c, 0x53, 0x48, 0x96,
  0x3a, 0x7d, 0x00, 0x99, 0x2a, 0x2c, 0x18, 0x89, 0x2a, 0x2c, 0x18, 0x99,
  0x2a, 0x64, 0x00, 0x99, 0x3e, 0x53, 0x12, 0x86, 0x3a, 0x7d, 0x06, 0x89,
  0x2a, 0x64, 0x00, 0x89, 0x3e, 0x53, 0x18, 0x96, 0x3a, 0x7d, 0x00, 0x99,
  0x24, 0x7f, 0x00, 0x99, 0x26, 0x7c, 0x00, 0x99, 0x2a, 0x74, 0x00, 0x99,
  0x3c, 0x53, 0x00, 0x99, 0x27, 0x64, 0x18, 0x89, 0x24, 0x7f, 0x00, 0x89,
  0x26, 0x7c, 0x00, 0x89, 0x2a, 0x74, 0x00, 0x89, 0x3c, 0x53, 0x00, 0x89,
  0x27, 0x64, 0x32, 0x86, 0x3a, 0x7d, 0x16, 0x96, 0x3c, 0x78, 0x00, 0x96,
  0x3a, 0x6c, 0x00, 0x99, 0x2a, 0x21, 0x00, 0x99, 0x3d, 0x53, 0x18, 0x89,
  0x2a, 0x21, 0x00, 0x89, 0x3d, 0x53, 0x16, 0x86, 0x3c, 0x78, 0x02, 0x99,
  0x2a, 0x53, 0x18, 0x89, 0x2a, 0x53, 0x02, 0x86, 0x3a, 0x6c, 0x16, 0x96,
  0x3d, 0x7f, 0x00, 0x96, 0x3c, 0x67, 0x00, 0x99, 0x24, 0x7f, 0x00, 0x99,
  0x2a, 0x74, 0x00, 0x99, 0x3c, 0x53, 0x18, 0x89, 0x24, 0x7f, 0x00, 0x89,
  0x2a, 0x74, 0x00, 0x89, 0x3c, 0x53, 0x16, 0x86, 0x3c, 0x67, 0x20, 0x86,
  0x3d, 0x7f, 0x12, 0x96, 0x3d, 0x6c, 0x00, 0x96, 0x3a, 0x73, 0x00, 0x99,
  0x2a, 0x47, 0x18, 0x89, 0x2a, 0x47, 0x0e, 0x86, 0x3a, 0x73, 0x0a, 0x99,
  0x2a, 0x53, 0x00, 0x99, 0x3e, 0x53, 0x18, 0x89, 0x2a, 0x53, 0x00, 0x89,
  0x3e, 0x53, 0x06, 0x86, 0x3d, 0x6c, 0x12, 0x96, 0x38, 0x7f, 0x00, 0x96,
  0x3a, 0x60, 0x00, 0x99, 0x24, 0x7f, 0x00, 0x99, 0x26, 0x70, 0x00, 0x99,
  0x2a, 0x7f, 0x00, 0x99, 0x3c, 0x53, 0x00, 0x99, 0x27, 0x74, 0x18, 0x89,
  0x24, 0x7f, 0x00, 0x89, 0x26, 0x70, 0x00, 0x89, 0x2a, 0x7f, 0x00, 0x89,
  0x3c, 0x53, 0x00, 0x89, 0x27, 0x74, 0x0e, 0x86, 0x3a, 0x60, 0x1e, 0xe6,
  0x0b, 0x3e, 0x08, 0xe6, 0x52, 0x3b, 0x08, 0xe6, 0x4f, 0x3a, 0x0c, 0x86,
  0x38, 0x40, 0x00, 0x96, 0x38, 0x70, 0x00, 0x99, 0x2a, 0x30, 0x00, 0x99,
  0x3d, 0x53, 0x02, 0xe6, 0x43, 0x3b, 0x06, 0xe6, 0x4c, 0x3e, 0x0a, 0xe6,
  0x5f, 0x3f, 0x04, 0xe6, 0x00, 0x40, 0x02, 0x89, 0x2a, 0x30, 0x00, 0x89,
  0x3d, 0x53, 0x08, 0x86, 0x38, 0x70, 0x10, 0x99, 0x2a, 0x3d, 0x18, 0x89,
  0x2a, 0x3d, 0x18, 0x90, 0x41, 0x73, 0x00, 0x90, 0x3d, 0x7c, 0x00, 0x90,
  0x3a, 0x7c, 0x00, 0x90, 0x36, 0x7f, 0x00, 0x93, 0x41, 0x62, 0x00, 0x93,
  0x3d, 0x62, 0x00, 0x93, 0x3a, 0x62, 0x00, 0x93, 0x36, 0x7f, 0x00, 0x94,
  0x4b, 0x7f, 0x00, 0x94, 0x3f, 0x7f, 0x00, 0xb6, 0x01, 0x3a, 0x00, 0x96,
  0x3f, 0x7e, 0x00, 0x99, 0x24, 0x7f, 0x00, 0x99, 0x2a, 0x74, 0x00, 0x99,
  0x3c, 0x53, 0x18, 0x89, 0x24, 0x7f, 0x00, 0x89, 0x2a, 0x74, 0x00, 0x89,
  0x3c, 0x53, 0x34, 0x86, 0x3f, 0x7e, 0x10, 0x84, 0x4b, 0x7f, 0x04, 0x94,
  0x4b, 0x7f, 0x00, 0x84, 0x3f, 0x40, 0x00, 0x94, 0x3f, 0x7f, 0x00, 0xb6,
  0x01, 0x00, 0x00, 0x96, 0x3f, 0x7f, 0x00, 0x99, 0x2a, 0x47, 0x18, 0x89,
  0x2a, 0x47, 0x18, 0x99, 0x2a, 0x47, 0x00, 0x99, 0x3e, 0x53, 0x18, 0x89,
  0x2a, 0x47, 0x00, 0x89, 0x3e, 0x53, 0x04, 0x86, 0x3f, 0x7f, 0x10, 0x84,
  0x4b, 0x7f, 0x04, 0x84, 0x3f, 0x7f, 0x00, 0x94, 0x4b, 0x7f, 0x00, 0x94,
  0x3f, 0x7f, 0x00, 0x96, 0x3f, 0x7f, 0x00, 0x99, 0x24, 0x7f, 0x00, 0x99,
  0x26, 0x7c, 0x00, 0x99, 0x2a, 0x74, 0x00, 0x99, 0x3c, 0x53, 0x00, 0x99,
  0x27, 0x64, 0x18, 0x89, 0x24, 0x7f, 0x00, 0x89, 0x26, 0x7c, 0x00, 0x89,
  0x2a, 0x74, 0x00, 0x89, 0x3c, 0x53, 0x00, 0x89, 0x27, 0x64, 0x02, 0x83,
  0x3a, 0x62, 0x00, 0x83, 0x36, 0x7f, 0x06, 0x83, 0x41, 0x62, 0x06, 0x83,
  0x3d, 0x62, 0x20, 0x86, 0x3f, 0x7f, 0x16, 0x84, 0x4b, 0x7f, 0x04, 0x80,
  0x41, 0x73, 0x00, 0x80, 0x3d, 0x7c, 0x00, 0x80, 0x3a, 0x7c, 0x00, 0x80,
  0x36, 0x7f, 0x00, 0x84, 0x3f, 0x7f, 0x00, 0x90, 0x3f, 0x7f, 0x00, 0x90,
  0x3c, 0x7f, 0x00, 0x90, 0x38, 0x7f, 0x00, 0x90, 0x35, 0x7f, 0x00, 0x93,
  0x3f, 0x7f, 0x00, 0x93, 0x3c, 0x7f, 0x00, 0x93, 0x38, 0x7f, 0x00, 0x93,
  0x35, 0x7f, 0x00, 0x94, 0x4d, 0x7f, 0x00, 0x94, 0x41, 0x7f, 0x00, 0x96,
  0x41, 0x7d, 0x00, 0x96, 0x3f, 0x6d, 0x00, 0x99, 0x2e, 0x44, 0x00, 0x99,
  0x3d, 0x53, 0x18, 0x89, 0x2e, 0x44, 0x00, 0x89, 0x3d, 0x53, 0x2c, 0x86,
  0x41, 0x7d, 0x02, 0x86, 0x3f, 0x6d, 0x1a, 0x84, 0x4d, 0x7f, 0x00, 0x84,
  0x41, 0x7f, 0x00, 0x94, 0x4b, 0x7f, 0x00, 0x94, 0x3f, 0x7f, 0x00, 0x96,
  0x3f, 0x6c, 0x00, 0x96, 0x41, 0x5a, 0x00, 0x99, 0x24, 0x7f, 0x00, 0x99,
  0x2a, 0x74, 0x00, 0x99, 0x3c, 0x53, 0x18, 0x89, 0x24, 0x7f, 0x00, 0x89,
  0x2a, 0x74, 0x00, 0x89, 0x3c, 0x53, 0x2c, 0x86, 0x41, 0x5a, 0x1c, 0x86,
  0x3f, 0x40, 0x00, 0x96, 0x3f, 0x6d, 0x00, 0x99, 0x2a, 0x3d, 0x18, 0x89,
  0x2a, 0x3d, 0x18, 0x99, 0x2a, 0x64, 0x00, 0x99, 0x3e, 0x53, 0x18, 0x89,
  0x2a, 0x64, 0x00, 0x89, 0x3e, 0x53, 0x18, 0x99, 0x24, 0x7f, 0x00, 0x99,
  0x26, 0x7d, 0x00, 0x99, 0x2a, 0x74, 0x00, 0x99, 0x3c, 0x53, 0x00, 0x99,
  0x27, 0x7d, 0x0a, 0x86, 0x3f, 0x6d, 0x0e, 0x89, 0x24, 0x7f, 0x00, 0x89,
  0x26, 0x7d, 0x00, 0x89, 0x2a, 0x74, 0x00, 0x89, 0x3c, 0x53, 0x00, 0x89,
  0x27, 0x7d, 0x18, 0x99, 0x27, 0x69, 0x06, 0x83, 0x3c, 0x7f, 0x00, 0x83,
  0x35, 0x7f, 0x04, 0x83, 0x3f, 0x7f, 0x00, 0x83, 0x38, 0x7f, 0x0e, 0x89,
  0x27, 0x69, 0x18, 0x99, 0x2e, 0x5f, 0x00, 0x99, 0x3d, 0x53, 0x00, 0x99,
  0x27, 0x55, 0x18, 0x89, 0x2e, 0x5f, 0x00, 0x89, 0x3d, 0x53, 0x00, 0x89,
  0x27, 0x55, 0x18, 0x99, 0x27, 0x41, 0x18, 0x89, 0x27, 0x41, 0x10, 0x84,
  0x4b, 0x7f, 0x08, 0x80, 0x3f, 0x7f, 0x00, 0x80, 0x3c, 0x7f, 0x00, 0x80,
  0x38, 0x7f, 0x00, 0x80, 0x35, 0x7f, 0x00, 0x84, 0x3f, 0x7f, 0x00, 0x90,
  0x3d, 0x7f, 0x00, 0x90, 0x3a, 0x7f, 0x00, 0x90, 0x36, 0x7f, 0x00, 0x91,
  0x22, 0x7f, 0x00, 0x93, 0x3d, 0x7f, 0x00, 0x93, 0x49, 0x7f, 0x00, 0x93,
  0x46, 0x7f, 0x00, 0x93, 0x42, 0x7f, 0x00, 0x93, 0x3f, 0x7f, 0x00, 0x96,
  0x3d, 0x7f, 0x00, 0x99, 0x24, 0x7f, 0x00, 0x99, 0x2e, 0x70, 0x00, 0x99,
  0x3c, 0x53, 0x18, 0x89, 0x24, 0x7f, 0x00, 0x89, 0x2e, 0x70, 0x00, 0x89,
  0x3c, 0x53, 0x02, 0x81, 0x22, 0x7f, 0x16, 0x95, 0x38, 0x7f, 0x10, 0x85,
  0x38, 0x7f, 0x20, 0x91, 0x22, 0x7f, 0x00, 0x99, 0x2a, 0x36, 0x18, 0x81,
  0x22, 0x7f, 0x00, 0x89, 0x2a, 0x36, 0x18, 0x91, 0x25, 0x7f, 0x00, 0x99,
  0x2a, 0x64, 0x00, 0x99, 0x3e, 0x53, 0x18, 0x89, 0x2a, 0x64, 0x00, 0x89,
  0x3e, 0x53, 0x0a, 0x81, 0x25, 0x7f, 0x0e, 0x95, 0x38, 0x7f, 0x00, 0x99,
  0x24, 0x7f, 0x00, 0x99, 0x26, 0x70, 0x00, 0x99, 0x28, 0x70, 0x00, 0x99,
  0x2a, 0x74, 0x00, 0x99, 0x3c, 0x53, 0x10, 0x85, 0x38, 0x7f, 0x08, 0x89,
  0x24, 0x7f, 0x00, 0x89, 0x26, 0x70, 0x00, 0x89, 0x28, 0x70, 0x00, 0x89,
  0x2a, 0x74, 0x00, 0x89, 0x3c, 0x53, 0x18, 0x91, 0x25, 0x7f, 0x2a, 0x81,
  0x25, 0x7f, 0x06, 0x91, 0x24, 0x7f, 0x00, 0x99, 0x2a, 0x28, 0x00, 0x99,
  0x3d, 0x53, 0x18, 0x89, 0x2a, 0x28, 0x00, 0x89, 0x3d, 0x53, 0x0a, 0x81,
  0x24, 0x7f, 0x0e, 0x95, 0x35, 0x7f, 0x00, 0x99, 0x2a, 0x53, 0x10, 0x85,
  0x35, 0x7f, 0x08, 0x89, 0x2a, 0x53, 0x18, 0x91, 0x20, 0x7f, 0x00, 0x95,
  0x38, 0x7f, 0x00, 0x99, 0x24, 0x7f, 0x00, 0x99, 0x2a, 0x74, 0x00, 0x99,
  0x3c, 0x53, 0x10, 0x85, 0x38, 0x7f, 0x08, 0x89, 0x24, 0x7f, 0x00, 0x89,
  0x2a, 0x74, 0x00, 0x89, 0x3c, 0x53, 0x02, 0x86, 0x3d, 0x7f, 0x18, 0x81,
  0x20, 0x7f, 0x18, 0xe6, 0x06, 0x3d, 0x0a, 0xe6, 0x60, 0x3a, 0x06, 0xe6,
  0x4f, 0x3a, 0x06, 0x91, 0x22, 0x7f, 0x00, 0x96, 0x3f, 0x7e, 0x00, 0x99,
  0x2a, 0x30, 0x0e, 0xe6, 0x47, 0x3d, 0x0a, 0x89, 0x2a, 0x30, 0x00, 0xe6,
  0x4e, 0x3f, 0x06, 0xe6, 0x70, 0x3f, 0x02, 0xe6, 0x00, 0x40, 0x02, 0x81,
  0x22, 0x7f, 0x02, 0x86, 0x3f, 0x7e, 0x0c, 0x95, 0x38, 0x7f, 0x00, 0x99,
  0x2a, 0x47, 0x00, 0x99, 0x3e, 0x53, 0x10, 0x85, 0x38, 0x7f, 0x08, 0x89,
  0x2a, 0x47, 0x00, 0x89, 0x3e, 0x53, 0x18, 0x96, 0x41, 0x7f, 0x00, 0x99,
  0x24, 0x7f, 0x00, 0x99, 0x26, 0x7c, 0x00, 0x99, 0x28, 0x7c, 0x00, 0x99,
  0x2a, 0x74, 0x00, 0x99, 0x3c, 0x53, 0x12, 0x83, 0x49, 0x7f, 0x00, 0x83,
  0x46, 0x7f, 0x00, 0x83, 0x42, 0x7f, 0x00, 0x83, 0x3f, 0x7f, 0x02, 0x83,
  0x3d, 0x7f, 0x04, 0x89, 0x24, 0x7f, 0x00, 0x89, 0x26, 0x7c, 0x00, 0x89,
  0x28, 0x7c, 0x00, 0x89, 0x2a, 0x74, 0x00, 0x89, 0x3c, 0x53, 0x34, 0x86,
  0x41, 0x7f, 0x14, 0x90, 0x3f, 0x7f, 0x00, 0x90, 0x3c, 0x7f, 0x00, 0x90,
  0x38, 0x7f, 0x00, 0x90, 0x35, 0x7f, 0x00, 0x93, 0x4b, 0x7f, 0x00, 0x93,
  0x48, 0x7f, 0x00, 0x93, 0x44, 0x7f, 0x00, 0x93, 0x41, 0x7f, 0x00, 0x93,
  0x3f, 0x7f, 0x00, 0x95, 0x35, 0x7f, 0x00, 0x96, 0x3f, 0x7f, 0x00, 0x99,
  0x2a, 0x0d, 0x00, 0x99, 0x3d, 0x53, 0x04, 0x80, 0x3d, 0x7f, 0x00, 0x80,
  0x3a, 0x7f, 0x00, 0x80, 0x36, 0x7f, 0x0c, 0x85, 0x35, 0x7f, 0x08, 0x89,
  0x2a, 0x0d, 0x00, 0x89, 0x3d, 0x53, 0x18, 0x91, 0x20, 0x7f, 0x00, 0x95,
  0x38, 0x7f, 0x00, 0x99, 0x2a, 0x47, 0x10, 0x85, 0x38, 0x7f, 0x08, 0x81,
  0x20, 0x7f, 0x00, 0x89, 0x2a, 0x47, 0x18, 0x91, 0x22, 0x7f, 0x00, 0x99,
  0x24, 0x7f, 0x00, 0x99, 0x2a, 0x64, 0x00, 0x99, 0x3c, 0x53, 0x18, 0x89,
  0x24, 0x7f, 0x00, 0x89, 0x2a, 0x64, 0x00, 0x89, 0x3c, 0x53, 0x04, 0x81,
  0x22, 0x7f, 0x14, 0x95, 0x38, 0x7f, 0x0e, 0x86, 0x3f, 0x7f, 0x02, 0x85,
  0x38, 0x7f, 0x20, 0x91, 0x22, 0x7f, 0x00, 0x96, 0x3f, 0x7b, 0x00, 0x99,
  0x2a, 0x36, 0x18, 0x81, 0x22, 0x7f, 0x00, 0x89, 0x2a, 0x36, 0x08, 0x86,
  0x3f, 0x7b, 0x10, 0x91, 0x25, 0x7f, 0x00, 0x99, 0x2a, 0x53, 0x00, 0x99,
  0x3e, 0x53, 0x18, 0x89, 0x2a, 0x53, 0x00, 0x89, 0x3e, 0x53, 0x06, 0x81,
  0x25, 0x7f, 0x04, 0xe6, 0x28, 0x3d, 0x0c, 0xe6, 0x10, 0x3b, 0x02, 0x95,
  0x38, 0x7f, 0x00, 0x96, 0x3f, 0x7e, 0x00, 0x99, 0x24, 0x7f, 0x00, 0x99,
  0x26, 0x70, 0x00, 0x99, 0x28, 0x70, 0x00, 0x99, 0x2a, 0x74, 0x00, 0x99,
  0x3c, 0x53, 0x04, 0xe6, 0x4f, 0x3a, 0x08, 0xe6, 0x43, 0x3b, 0x04, 0x85,
  0x38, 0x7f, 0x02, 0xe6, 0x3a, 0x3d, 0x06, 0x89, 0x24, 0x7f, 0x00, 0x89,
  0x26, 0x70, 0x00, 0x89, 0x28, 0x70, 0x00, 0x89, 0x2a, 0x74, 0x00, 0x89,
  0x3c, 0x53, 0x02, 0xe6, 0x00, 0x40, 0x16, 0x91, 0x25, 0x7f, 0x1a, 0x86,
  0x3f, 0x7e, 0x04, 0x81, 0x25, 0x7f, 0x12, 0x91, 0x24, 0x7f, 0x00, 0x96,
  0x41, 0x7f, 0x00, 0x99, 0x2a, 0x36, 0x00, 0x99, 0x3d, 0x53, 0x18, 0x89,
  0x2a, 0x36, 0x00, 0x89, 0x3d, 0x53, 0x04, 0x81, 0x24, 0x7f, 0x14, 0x95,
  0x35, 0x7f, 0x00, 0x99, 0x2a, 0x47, 0x10, 0x85, 0x35, 0x7f, 0x04, 0x86,
  0x41, 0x7f, 0x04, 0x89, 0x2a, 0x47, 0x18, 0x91, 0x20, 0x7f, 0x00, 0x95,
  0x38, 0x7f, 0x00, 0x96, 0x3f, 0x7e, 0x00, 0x99, 0x24, 0x7f, 0x00, 0x99,
  0x2a, 0x64, 0x00, 0x99, 0x3c, 0x53, 0x10, 0x85, 0x38, 0x7f, 0x08, 0x89,
  0x24, 0x7f, 0x00, 0x89, 0x2a, 0x64, 0x00, 0x89, 0x3c, 0x53, 0x0a, 0x81,
  0x20, 0x7f, 0x2c, 0x86, 0x3f, 0x7e, 0x12, 0x91, 0x22, 0x7f, 0x00, 0x95,
  0x38, 0x7f, 0x00, 0x96, 0x38, 0x72, 0x00, 0x99, 0x2a, 0x47, 0x10, 0x85,
  0x38, 0x7f, 0x08, 0x89, 0x2a, 0x47, 0x08, 0x81, 0x22, 0x7f, 0x10, 0x99,
  0x2a, 0x47, 0x00, 0x99, 0x3e, 0x53, 0x10, 0x86, 0x38, 0x72, 0x08, 0x89,
  0x2a, 0x47, 0x00, 0x89, 0x3e, 0x53, 0x18, 0x95, 0x38, 0x7f, 0x00, 0x96,
  0x38, 0x7f, 0x00, 0x99, 0x24, 0x7f, 0x00, 0x99, 0x26, 0x70, 0x00, 0x99,
  0x28, 0x70, 0x00, 0x99, 0x2a, 0x74, 0x00, 0x99, 0x3c, 0x53, 0x10, 0x85,
  0x38, 0x7f, 0x08, 0x89, 0x24, 0x7f, 0x00, 0x89, 0x26, 0x70, 0x00, 0x89,
  0x28, 0x70, 0x00, 0x89, 0x2a, 0x74, 0x00, 0x89, 0x3c, 0x53, 0x04, 0x83,
  0x41, 0x7f, 0x00, 0x83, 0x3f, 0x7f, 0x10, 0x83, 0x4b, 0x7f, 0x00, 0x83,
  0x48, 0x7f, 0x00, 0x83, 0x44, 0x7f, 0x04, 0x95, 0x3a, 0x7f, 0x10, 0x85,
  0x3a, 0x7f, 0x20, 0x91, 0x20, 0x7f, 0x00, 0x93, 0x4d, 0x7f, 0x00, 0x93,
  0x49, 0x7f, 0x00, 0x93, 0x46, 0x7f, 0x00, 0x93, 0x44, 0x7f, 0x00, 0x93,
  0x42, 0x7f, 0x00, 0x99, 0x2e, 0x44, 0x00, 0x99, 0x3d, 0x53, 0x14, 0x81,
  0x20, 0x7f, 0x04, 0x89, 0x2e, 0x44, 0x00, 0x89, 0x3d, 0x53, 0x18, 0x91,
  0x20, 0x7f, 0x08, 0x86, 0x38, 0x7f, 0x14, 0x81, 0x20, 0x7f, 0x14, 0x80,
  0x3f, 0x7f, 0x00, 0x80, 0x3c, 0x7f, 0x00, 0x80, 0x38, 0x7f, 0x00, 0x80,
  0x35, 0x7f, 0x00, 0x90, 0x3d, 0x7f, 0x00, 0x90, 0x3a, 0x7f, 0x00, 0x90,
  0x36, 0x7f, 0x00, 0x91, 0x22, 0x7f, 0x00, 0x99, 0x24, 0x7f, 0x00, 0x99,
  0x2a, 0x74, 0x00, 0x99, 0x3c, 0x53, 0x18, 0x89, 0x24, 0x7f, 0x00, 0x89,
  0x2a, 0x74, 0x00, 0x89, 0x3c, 0x53, 0x0e, 0x81, 0x22, 0x7f, 0x0a, 0x95,
  0x38, 0x7f, 0x10, 0x85, 0x38, 0x7f, 0x20, 0x91, 0x22, 0x7f, 0x00, 0x99,
  0x2a, 0x2c, 0x18, 0x89, 0x2a, 0x2c, 0x02, 0x81, 0x22, 0x7f, 0x16, 0x91,
  0x25, 0x7f, 0x00, 0x99, 0x2a, 0x64, 0x00, 0x99, 0x3e, 0x53, 0x18, 0x89,
  0x2a, 0x64, 0x00, 0x89, 0x3e, 0x53, 0x08, 0x81, 0x25, 0x7f, 0x10, 0x95,
  0x38, 0x7f, 0x00, 0x99, 0x24, 0x7f, 0x00, 0x99, 0x26, 0x7c, 0x00, 0x99,
  0x28, 0x7c, 0x00, 0x99, 0x2a, 0x74, 0x00, 0x99, 0x3c, 0x53, 0x10, 0x85,
  0x38, 0x7f, 0x08, 0x89, 0x24, 0x7f, 0x00, 0x89, 0x26, 0x7c, 0x00, 0x89,
  0x28, 0x7c, 0x00, 0x89, 0x2a, 0x74, 0x00, 0x89, 0x3c, 0x53, 0x18, 0x91,
  0x25, 0x7f, 0x1c, 0xe6, 0x7a, 0x3d, 0x04, 0x81, 0x25, 0x7f, 0x06, 0xe6,
  0x60, 0x3a, 0x0a, 0x91, 0x24, 0x7f, 0x00, 0x96, 0x38, 0x7f, 0x00, 0x99,
  0x2a, 0x21, 0x00, 0x99, 0x3d, 0x53, 0x02, 0xe6, 0x4f, 0x3a, 0x0a, 0xe6,
  0x34, 0x3c, 0x0a, 0xe6, 0x5e, 0x3e, 0x02, 0x89, 0x2a, 0x21, 0x00, 0x89,
  0x3d, 0x53, 0x04, 0x81, 0x24, 0x7f, 0x02, 0xe6, 0x70, 0x3f, 0x06, 0xe6,
  0x00, 0x40, 0x04, 0x86, 0x38, 0x7f, 0x08, 0x95, 0x35, 0x7f, 0x00, 0x99,
  0x2a, 0x53, 0x10, 0x85, 0x35, 0x7f, 0x08, 0x89, 0x2a, 0x53, 0x18, 0x91,
  0x20, 0x7f, 0x00, 0x95, 0x38, 0x7f, 0x00, 0x96, 0x3a, 0x7f, 0x00, 0x99,
  0x24, 0x7f, 0x00, 0x99, 0x2a, 0x74, 0x00, 0x99, 0x3c, 0x53, 0x10, 0x85,
  0x38, 0x7f, 0x08, 0x89, 0x24, 0x7f, 0x00, 0x89, 0x2a, 0x74, 0x00, 0x89,
  0x3c, 0x53, 0x18, 0x81, 0x20, 0x7f, 0x1a, 0x86, 0x3a, 0x7f, 0x16, 0x91,
  0x22, 0x7f, 0x00, 0x95, 0x38, 0x7f, 0x00, 0x96, 0x3c, 0x7f, 0x00, 0x99,
  0x2a, 0x47, 0x10, 0x85, 0x38, 0x7f, 0x08, 0x89, 0x2a, 0x47, 0x0a, 0x81,
  0x22, 0x7f, 0x0a, 0x86, 0x3c, 0x7f, 0x04, 0x99, 0x2a, 0x53, 0x00, 0x99,
  0x3e, 0x53, 0x18, 0x89, 0x2a, 0x53, 0x00, 0x89, 0x3e, 0x53, 0x18, 0x96,
  0x3d, 0x7f, 0x00, 0x99, 0x24, 0x7f, 0x00, 0x99, 0x26, 0x70, 0x00, 0x99,
  0x28, 0x70, 0x00, 0x99, 0x2a, 0x7f, 0x00, 0x99, 0x3c, 0x53, 0x18, 0x89,
  0x24, 0x7f, 0x00, 0x89, 0x26, 0x70, 0x00, 0x89, 0x28, 0x70, 0x00, 0x89,
  0x2a, 0x7f, 0x00, 0x89, 0x3c, 0x53, 0x38, 0x86, 0x3d, 0x7f, 0x0a, 0x83,
  0x44, 0x7f, 0x06, 0x95, 0x33, 0x7f, 0x00, 0x96, 0x3a, 0x6f, 0x00, 0x99,
  0x2a, 0x30, 0x00, 0x99, 0x3d, 0x53, 0x08, 0x83, 0x4d, 0x7f, 0x00, 0x83,
  0x46, 0x7f, 0x08, 0x83, 0x49, 0x7f, 0x00, 0x85, 0x33, 0x7f, 0x08, 0x89,
  0x2a, 0x30, 0x00, 0x89, 0x3d, 0x53, 0x08, 0x83, 0x42, 0x7f, 0x08, 0x86,
  0x3a, 0x6f, 0x08, 0x91, 0x20, 0x7f, 0x00, 0x95, 0x35, 0x7f, 0x00, 0x99,
  0x2a, 0x3d, 0x10, 0x85, 0x35, 0x7f, 0x04, 0x81, 0x20, 0x7f, 0x04, 0x89,
  0x2a, 0x3d, 0x18, 0x80, 0x3d, 0x7f, 0x00, 0x80, 0x3a, 0x7f, 0x00, 0x80,
  0x36, 0x7f, 0x00, 0x90, 0x41, 0x7f, 0x00, 0x90, 0x3d, 0x7f, 0x00, 0x90,
  0x3a, 0x7f, 0x00, 0x90, 0x36, 0x7f, 0x00, 0x91, 0x22, 0x7f, 0x00, 0x93,
  0x49, 0x7f, 0x00, 0x93, 0x46, 0x7f, 0x00, 0x93, 0x42, 0x7f, 0x00, 0x93,
  0x3f, 0x7f, 0x00, 0x99, 0x24, 0x7f, 0x00, 0x99, 0x2a, 0x74, 0x00, 0x99,
  0x3c, 0x53, 0x16, 0x83, 0x42, 0x7f, 0x02, 0x89, 0x24, 0x7f, 0x00, 0x89,
  0x2a, 0x74, 0x00, 0x89, 0x3c, 0x53, 0x04, 0x83, 0x46, 0x7f, 0x00, 0x83,
  0x3f, 0x7f, 0x04, 0x83, 0x49, 0x7f, 0x04, 0x81, 0x22, 0x7f, 0x0c, 0x95,
  0x38, 0x7f, 0x10, 0x85, 0x38, 0x7f, 0x20, 0x91, 0x22, 0x7f, 0x00, 0x96,
  0x3f, 0x7f, 0x00, 0x99, 0x26, 0x70, 0x00, 0x99, 0x28, 0x70, 0x00, 0x99,
  0x2a, 0x47, 0x18, 0x89, 0x26, 0x70, 0x00, 0x89, 0x28, 0x70, 0x00, 0x89,
  0x2a, 0x47, 0x04, 0x81, 0x22, 0x7f, 0x14, 0x91, 0x25, 0x7f, 0x00, 0x93,
  0x49, 0x7f, 0x00, 0x93, 0x46, 0x7f, 0x00, 0x93, 0x42, 0x7f, 0x00, 0x93,
  0x3f, 0x7f, 0x00, 0x99, 0x2a, 0x47, 0x00, 0x99, 0x3e, 0x53, 0x18, 0x83,
  0x46, 0x7f, 0x00, 0x89, 0x2a, 0x47, 0x00, 0x89, 0x3e, 0x53, 0x04, 0x83,
  0x3f, 0x7f, 0x00, 0x86, 0x3f, 0x7f, 0x02, 0x83, 0x42, 0x7f, 0x04, 0x81,
  0x25, 0x7f, 0x00, 0x83, 0x49, 0x7f, 0x0e, 0x95, 0x38, 0x7f, 0x00, 0x96,
  0x41, 0x7f, 0x00, 0x99, 0x24, 0x7f, 0x00, 0x99, 0x2a, 0x74, 0x00, 0x99,
  0x3c, 0x53, 0x10, 0x85, 0x38, 0x7f, 0x08, 0x89, 0x24, 0x7f, 0x00, 0x89,
  0x2a, 0x74, 0x00, 0x89, 0x3c, 0x53, 0x18, 0x91, 0x25, 0x7f, 0x00, 0x99,
  0x26, 0x7c, 0x00, 0x99, 0x28, 0x7c, 0x0e, 0x86, 0x41, 0x7f, 0x0a, 0x89,
  0x26, 0x7c, 0x00, 0x89, 0x28, 0x7c, 0x0e, 0x81, 0x25, 0x7f, 0x0a, 0x80,
  0x41, 0x7f, 0x00, 0x80, 0x3d, 0x7f, 0x00, 0x80, 0x3a, 0x7f, 0x00, 0x80,
  0x36, 0x7f, 0x00, 0x90, 0x3f, 0x7f, 0x00, 0x90, 0x3c, 0x7f, 0x00, 0x90,
  0x38, 0x7f, 0x00, 0x90, 0x35, 0x7f, 0x00, 0x91, 0x24, 0x7f, 0x00, 0x93,
  0x4b, 0x7f, 0x00, 0x93, 0x48, 0x7f, 0x00, 0x93, 0x44, 0x7f, 0x00, 0x93,
  0x41, 0x7f, 0x00, 0x94, 0x44, 0x7f, 0x00, 0x94, 0x38, 0x7f, 0x00, 0x96,
  0x3f, 0x7f, 0x00, 0x99, 0x2e, 0x44, 0x00, 0x99, 0x3d, 0x53, 0x18, 0x89,
  0x2e, 0x44, 0x00, 0x89, 0x3d, 0x53, 0x08, 0x81, 0x24, 0x7f, 0x10, 0x95,
  0x35, 0x7f, 0x10, 0x85, 0x35, 0x7f, 0x20, 0x91, 0x20, 0x7f, 0x00, 0x95,
  0x38, 0x7f, 0x00, 0x99, 0x24, 0x7f, 0x00, 0x99, 0x26, 0x70, 0x00, 0x99,
  0x28, 0x70, 0x00, 0x99, 0x2a, 0x74, 0x00, 0x99, 0x3c, 0x53, 0x10, 0x85,
  0x38, 0x7f, 0x08, 0x89, 0x24, 0x7f, 0x00, 0x89, 0x26, 0x70, 0x00, 0x89,
  0x28, 0x70, 0x00, 0x89, 0x2a, 0x74, 0x00, 0x89, 0x3c, 0x53, 0x10, 0x81,
  0x20, 0x7f, 0x38, 0x86, 0x3f, 0x7f, 0x00, 0x91, 0x22, 0x7f, 0x00, 0x95,
  0x38, 0x7f, 0x00, 0x99, 0x26, 0x44, 0x00, 0x99, 0x28, 0x44, 0x00, 0x99,
  0x2a, 0x3d, 0x10, 0x85, 0x38, 0x7f, 0x08, 0x89, 0x26, 0x44, 0x00, 0x89,
  0x28, 0x44, 0x00, 0x89, 0x2a, 0x3d, 0x0e, 0x81, 0x22, 0x7f, 0x0a, 0x99,
  0x26, 0x3b, 0x00, 0x99, 0x28, 0x3b, 0x00, 0x99, 0x2a, 0x64, 0x00, 0x99,
  0x3e, 0x53, 0x02, 0x84, 0x44, 0x7f, 0x02, 0x83, 0x4b, 0x7f, 0x00, 0x83,
  0x48, 0x7f, 0x00, 0x83, 0x41, 0x7f, 0x00, 0x84, 0x38, 0x7f, 0x04, 0x83,
  0x44, 0x7f, 0x10, 0x89, 0x26, 0x3b, 0x00, 0x89, 0x28, 0x3b, 0x00, 0x89,
  0x2a, 0x64, 0x00, 0x89, 0x3e, 0x53, 0x18, 0x91, 0x1d, 0x7f, 0x00, 0x93,
  0x44, 0x7f, 0x00, 0x94, 0x44, 0x7f, 0x00, 0x94, 0x38, 0x7f, 0x00, 0x96,
  0x38, 0x7e, 0x00, 0x99, 0x24, 0x7f, 0x00, 0x99, 0x26, 0x50, 0x00, 0x99,
  0x28, 0x50, 0x00, 0x99, 0x2a, 0x74, 0x00, 0x99, 0x3c, 0x53, 0x14, 0x83,
  0x44, 0x7f, 0x00, 0x84, 0x44, 0x7f, 0x00, 0x84, 0x38, 0x7f, 0x04, 0x89,
  0x24, 0x7f, 0x00, 0x89, 0x26, 0x50, 0x00, 0x89, 0x28, 0x50, 0x00, 0x89,
  0x2a, 0x74, 0x00, 0x89, 0x3c, 0x53, 0x04, 0x86, 0x38, 0x7e, 0x14, 0x93,
  0x46, 0x7f, 0x00, 0x94, 0x46, 0x7f, 0x00, 0x94, 0x3a, 0x7f, 0x00, 0x95,
  0x38, 0x7f, 0x00, 0x96, 0x3a, 0x78, 0x00, 0x99, 0x26, 0x50, 0x00, 0x99,
  0x28, 0x50, 0x04, 0x81, 0x1d, 0x7f, 0x0c, 0x85, 0x38, 0x7f, 0x04, 0x84,
  0x3a, 0x7f, 0x00, 0x86, 0x3a, 0x78, 0x04, 0x89, 0x26, 0x50, 0x00, 0x89,
  0x28, 0x50, 0x04, 0x84, 0x46, 0x7f, 0x04, 0x83, 0x46, 0x7f, 0x08, 0xe6,
  0x6b, 0x3e, 0x06, 0xe6, 0x33, 0x3b, 0x02, 0x91, 0x20, 0x7f, 0x00, 0x93,
  0x49, 0x7f, 0x00, 0x94, 0x49, 0x7f, 0x00, 0x94, 0x3d, 0x7f, 0x00, 0x96,
  0x3d, 0x7c, 0x00, 0x99, 0x26, 0x5f, 0x00, 0x99, 0x28, 0x5f, 0x00, 0x99,
  0x2e, 0x5f, 0x00, 0x99, 0x3d, 0x53, 0x06, 0xe6, 0x4f, 0x3a, 0x12, 0x84,
  0x49, 0x7f, 0x00, 0x84, 0x3d, 0x7f, 0x00, 0x89, 0x26, 0x5f, 0x00, 0x89,
  0x28, 0x5f, 0x00, 0x89, 0x2e, 0x5f, 0x00, 0x89, 0x3d, 0x53, 0x04, 0x86,
  0x3d, 0x7c, 0x04, 0x81, 0x20, 0x7f, 0x00, 0xe6, 0x04, 0x3c, 0x08, 0x83,
  0x49, 0x7f, 0x00, 0xe6, 0x0c, 0x3f, 0x08, 0x91, 0x1d, 0x7f, 0x00, 0x93,
  0x46, 0x7f, 0x00, 0x94, 0x46, 0x7f, 0x00, 0x94, 0x3a, 0x7f, 0x00, 0x95,
  0x38, 0x7f, 0x00, 0xe6, 0x70, 0x3f, 0x00, 0x96, 0x3a, 0x72, 0x00, 0x99,
  0x26, 0x70, 0x00, 0x99, 0x28, 0x70, 0x04, 0xe6, 0x00, 0x40, 0x0c, 0x85,
  0x38, 0x7f, 0x04, 0x86, 0x3a, 0x72, 0x04, 0x84, 0x46, 0x7f, 0x00, 0x89,
  0x26, 0x70, 0x00, 0x89, 0x28, 0x70, 0x02, 0x81, 0x1d, 0x7f, 0x06, 0x83,
  0x46, 0x7f, 0x00, 0x84, 0x3a, 0x7f, 0x10, 0x80, 0x3f, 0x7f, 0x00, 0x80,
  0x3c, 0x7f, 0x00, 0x80, 0x38, 0x7f, 0x00, 0x80, 0x35, 0x7f, 0x00, 0x90,
  0x41, 0x7f, 0x00, 0x90, 0x3d, 0x7f, 0x00, 0x90, 0x3a, 0x7f, 0x00, 0x90,
  0x36, 0x7f, 0x00, 0x91, 0x1b, 0x7f, 0x00, 0x92, 0x42, 0x7f, 0x00, 0x92,
  0x3d, 0x7f, 0x00, 0x92, 0x3a, 0x7f, 0x00, 0x93, 0x55, 0x7f, 0x00, 0x96,
  0x41, 0x7f, 0x00, 0x99, 0x24, 0x7f, 0x00, 0x99, 0x2a, 0x70, 0x00, 0x99,
  0x3c, 0x53, 0x18, 0x89, 0x24, 0x7f, 0x00, 0x89, 0x2a, 0x70, 0x00, 0x89,
  0x3c, 0x53, 0x0a, 0x81, 0x1b, 0x7f, 0x0e, 0x95, 0x38, 0x7f, 0x10, 0x85,
  0x38, 0x7f, 0x20, 0x91, 0x1b, 0x7f, 0x00, 0x99, 0x2a, 0x36, 0x08, 0x86,
  0x41, 0x7f, 0x10, 0x89, 0x2a, 0x36, 0x0a, 0x81, 0x1b, 0x7f, 0x0e, 0x91,
  0x1b, 0x7f, 0x00, 0x96, 0x41, 0x7f, 0x00, 0x99, 0x2a, 0x64, 0x00, 0x99,
  0x3e, 0x53, 0x18, 0x89, 0x2a, 0x64, 0x00, 0x89, 0x3e, 0x53, 0x0a, 0x81,
  0x1b, 0x7f, 0x0e, 0x95, 0x38, 0x7f, 0x00, 0x99, 0x24, 0x7f, 0x00, 0x99,
  0x26, 0x70, 0x00, 0x99, 0x2a, 0x74, 0x00, 0x99, 0x3c, 0x53, 0x00, 0x99,
  0x27, 0x64, 0x10, 0x85, 0x38, 0x7f, 0x08, 0x89, 0x24, 0x7f, 0x00, 0x89,
  0x26, 0x70, 0x00, 0x89, 0x2a, 0x74, 0x00, 0x89, 0x3c, 0x53, 0x00, 0x89,
  0x27, 0x64, 0x18, 0x91, 0x24, 0x7f, 0x04, 0x86, 0x41, 0x7f, 0x1c, 0x82,
  0x3d, 0x7f, 0x02, 0x81, 0x24, 0x7f, 0x00, 0x83, 0x55, 0x7f, 0x08, 0x82,
  0x3a, 0x7f, 0x06, 0x80, 0x41, 0x7f, 0x00, 0x80, 0x3d, 0x7f, 0x00, 0x80,
  0x3a, 0x7f, 0x00, 0x80, 0x36, 0x7f, 0x00, 0x90, 0x3f, 0x7f, 0x00, 0x90,
  0x3c, 0x7f, 0x00, 0x90, 0x38, 0x7f, 0x00, 0x91, 0x22, 0x7f, 0x00, 0x92,
  0x44, 0x7f, 0x00, 0x92, 0x3f, 0x7f, 0x00, 0x92, 0x3c, 0x7f, 0x00, 0x93,
  0x57, 0x7f, 0x00, 0x96, 0x3f, 0x7f, 0x00, 0x99, 0x2a, 0x28, 0x00, 0x99,
  0x3d, 0x53, 0x14, 0x82, 0x42, 0x7f, 0x04, 0x89, 0x2a, 0x28, 0x00, 0x89,
  0x3d, 0x53, 0x0a, 0x81, 0x22, 0x7f, 0x0e, 0x95, 0x35, 0x7f, 0x00, 0x99,
  0x2a, 0x53, 0x10, 0x85, 0x35, 0x7f, 0x08, 0x89, 0x2a, 0x53, 0x18, 0x91,
  0x20, 0x7f, 0x00, 0x95, 0x38, 0x7f, 0x00, 0x99, 0x24, 0x7f, 0x00, 0x99,
  0x2a, 0x74, 0x00, 0x99, 0x3c, 0x53, 0x10, 0x85, 0x38, 0x7f, 0x08, 0x89,
  0x24, 0x7f, 0x00, 0x89, 0x2a, 0x74, 0x00, 0x89, 0x3c, 0x53, 0x0a, 0x81,
  0x20, 0x7f, 0x20, 0x86, 0x3f, 0x7f, 0x1e, 0x91, 0x20, 0x7f, 0x00, 0x99,
  0x2a, 0x30, 0x18, 0x89, 0x2a, 0x30, 0x0a, 0x81, 0x20, 0x7f, 0x0e, 0x95,
  0x38, 0x7f, 0x00, 0x99, 0x2a, 0x47, 0x00, 0x99, 0x3e, 0x53, 0x10, 0x85,
  0x38, 0x7f, 0x08, 0x89, 0x2a, 0x47, 0x00, 0x89, 0x3e, 0x53, 0x18, 0x96,
  0x38, 0x7f, 0x00, 0x99, 0x24, 0x7f, 0x00, 0x99, 0x26, 0x7c, 0x00, 0x99,
  0x2a, 0x74, 0x00, 0x99, 0x3c, 0x53, 0x00, 0x99, 0x27, 0x74, 0x18, 0x89,
  0x24, 0x7f, 0x00, 0x89, 0x26, 0x7c, 0x00, 0x89, 0x2a, 0x74, 0x00, 0x89,
  0x3c, 0x53, 0x00, 0x89, 0x27, 0x74, 0x02, 0x86, 0x38, 0x7f, 0x16, 0x96,
  0x3a, 0x7f, 0x14, 0x86, 0x3a, 0x7f, 0x14, 0xe6, 0x47, 0x3d, 0x08, 0x91,
  0x1b, 0x7f, 0x00, 0x93, 0x50, 0x7f, 0x00, 0x95, 0x35, 0x7f, 0x00, 0xe6,
  0x10, 0x3b, 0x00, 0x96, 0x3d, 0x7f, 0x00, 0x99, 0x2a, 0x0d, 0x00, 0x99,
  0x3d, 0x53, 0x04, 0x83, 0x57, 0x7f, 0x02, 0xe6, 0x4f, 0x3a, 0x0a, 0x85,
  0x35, 0x7f, 0x08, 0x89, 0x2a, 0x0d, 0x00, 0x89, 0x3d, 0x53, 0x02, 0xe6,
  0x46, 0x3c, 0x04, 0x86, 0x3d, 0x7f, 0x04, 0x81, 0x1b, 0x7f, 0x00, 0xe6,
  0x2f, 0x3f, 0x08, 0xe6, 0x70, 0x3f, 0x04, 0xe6, 0x00, 0x40, 0x02, 0x91,
  0x20, 0x7f, 0x00, 0x95, 0x38, 0x7f, 0x00, 0x96, 0x3a, 0x7f, 0x00, 0x99,
  0x2a, 0x47, 0x10, 0x85, 0x38, 0x7f, 0x04, 0x86, 0x3a, 0x7f, 0x04, 0x89,
  0x2a, 0x47, 0x0a, 0x81, 0x20, 0x7f, 0x0e, 0x80, 0x3f, 0x7f, 0x00, 0x80,
  0x3c, 0x7f, 0x00, 0x80, 0x38, 0x7f, 0x00, 0x90, 0x3f, 0x7f, 0x00, 0x90,
  0x3c, 0x7f, 0x00, 0x90, 0x38, 0x7f, 0x00, 0x91, 0x1d, 0x7f, 0x00, 0x93,
  0x57, 0x7f, 0x00, 0x96, 0x3f, 0x7f, 0x00, 0x99, 0x24, 0x7f, 0x00, 0x99,
  0x2a, 0x64, 0x00, 0x99, 0x3c, 0x53, 0x02, 0x83, 0x50, 0x7f, 0x16, 0x89,
  0x24, 0x7f, 0x00, 0x89, 0x2a, 0x64, 0x00, 0x89, 0x3c, 0x53, 0x0a, 0x81,
  0x1d, 0x7f, 0x0e, 0x95, 0x38, 0x7f, 0x10, 0x85, 0x38, 0x7f, 0x20, 0x91,
  0x1d, 0x7f, 0x00, 0x99, 0x2a, 0x36, 0x12, 0x86, 0x3f, 0x7f, 0x06, 0x89,
  0x2a, 0x36, 0x0a, 0x81, 0x1d, 0x7f, 0x0e, 0x91, 0x24, 0x7f, 0x00, 0x96,
  0x3f, 0x7f, 0x00, 0x99, 0x2a, 0x53, 0x00, 0x99, 0x3e, 0x53, 0x18, 0x89,
  0x2a, 0x53, 0x00, 0x89, 0x3e, 0x53, 0x0a, 0x81, 0x24, 0x7f, 0x08, 0xe6,
  0x5e, 0x3e, 0x06, 0x95, 0x38, 0x7f, 0x00, 0x99, 0x24, 0x7f, 0x00, 0x99,
  0x26, 0x70, 0x00, 0x99, 0x2a, 0x74, 0x00, 0x99, 0x3c, 0x53, 0x00, 0x99,
  0x27, 0x74, 0x00, 0xe6, 0x4f, 0x3a, 0x10, 0x85, 0x38, 0x7f, 0x04, 0xe6,
  0x16, 0x3c, 0x04, 0x89, 0x24, 0x7f, 0x00, 0x89, 0x26, 0x70, 0x00, 0x89,
  0x2a, 0x74, 0x00, 0x89, 0x3c, 0x53, 0x00, 0x89, 0x27, 0x74, 0x04, 0xe6,
  0x2a, 0x3e, 0x06, 0xe6, 0x70, 0x3f, 0x08, 0xe6, 0x00, 0x40, 0x06, 0x91,
  0x24, 0x7f, 0x06, 0x86, 0x3f, 0x7f, 0x1a, 0x82, 0x3f, 0x7f, 0x02, 0x81,
  0x24, 0x7f, 0x06, 0x82, 0x3c, 0x7f, 0x08, 0x80, 0x3f, 0x7f, 0x00, 0x80,
  0x3c, 0x7f, 0x00, 0x80, 0x38, 0x7f, 0x00, 0x90, 0x41, 0x7f, 0x00, 0x90,
  0x3d, 0x7f, 0x00, 0x90, 0x3a, 0x7f, 0x00, 0x91, 0x22, 0x7f, 0x00, 0x92,
  0x41, 0x7f, 0x00, 0x92, 0x3d, 0x7f, 0x00, 0x93, 0x59, 0x7f, 0x00, 0x96,
  0x3d, 0x7f, 0x00, 0x99, 0x2a, 0x36, 0x00, 0x99, 0x3d, 0x53, 0x02, 0x83,
  0x57, 0x7f, 0x16, 0x89, 0x2a, 0x36, 0x00, 0x89, 0x3d, 0x53, 0x0a, 0x81,
  0x22, 0x7f, 0x0e, 0x95, 0x35, 0x7f, 0x00, 0x99, 0x2a, 0x47, 0x10, 0x85,
  0x35, 0x7f, 0x08, 0x89, 0x2a, 0x47, 0x18, 0x95, 0x38, 0x7f, 0x00, 0x99,
  0x24, 0x7f, 0x00, 0x99, 0x2a, 0x64, 0x00, 0x99, 0x3c, 0x53, 0x0e, 0x86,
  0x3d, 0x7f, 0x02, 0x85, 0x38, 0x7f, 0x08, 0x89, 0x24, 0x7f, 0x00, 0x89,
  0x2a, 0x64, 0x00, 0x89, 0x3c, 0x53, 0x18, 0x96, 0x3c, 0x68, 0x1c, 0x86,
  0x3c, 0x68, 0x14, 0x91, 0x22, 0x7f, 0x00, 0x95, 0x38, 0x7f, 0x00, 0x96,
  0x3a, 0x78, 0x00, 0x99, 0x2a, 0x47, 0x10, 0x85, 0x38, 0x7f, 0x08, 0x89,
  0x2a, 0x47, 0x0a, 0x81, 0x22, 0x7f, 0x0e, 0x91, 0x22, 0x7f, 0x00, 0x99,
  0x2a, 0x47, 0x00, 0x99, 0x3e, 0x53, 0x18, 0x89, 0x2a, 0x47, 0x00, 0x89,
  0x3e, 0x53, 0x06, 0x86, 0x3a, 0x78, 0x04, 0x81, 0x22, 0x7f, 0x0a, 0x83,
  0x59, 0x7f, 0x04, 0x92, 0x3f, 0x7f, 0x00, 0x92, 0x3c, 0x7f, 0x00, 0x93,
  0x5c, 0x7f, 0x00, 0x95, 0x38, 0x7f, 0x00, 0xb6, 0x01, 0x1c, 0x00, 0x96,
  0x38, 0x76, 0x00, 0x99, 0x24, 0x7f, 0x00, 0x99, 0x26, 0x70, 0x00, 0x99,
  0x2a, 0x74, 0x00, 0x99, 0x3c, 0x53, 0x00, 0x99, 0x27, 0x64, 0x06, 0x82,
  0x3d, 0x7f, 0x0a, 0x85, 0x38, 0x7f, 0x08, 0x86, 0x38, 0x76, 0x00, 0x89,
  0x24, 0x7f, 0x00, 0x89, 0x26, 0x70, 0x00, 0x89, 0x2a, 0x74, 0x00, 0x89,
  0x3c, 0x53, 0x00, 0x89, 0x27, 0x64, 0x0a, 0x82, 0x41, 0x7f, 0x0e, 0x91,
  0x24, 0x7f, 0x00, 0x93, 0x5a, 0x7f, 0x00, 0x95, 0x3a, 0x7f, 0x00, 0xb6,
  0x01, 0x00, 0x00, 0x96, 0x3a, 0x7e, 0x02, 0x83, 0x5c, 0x7f, 0x0e, 0x85,
  0x3a, 0x7f, 0x04, 0x86, 0x3a, 0x7e, 0x0e, 0x81, 0x24, 0x7f, 0x0e, 0x91,
  0x22, 0x7f, 0x00, 0x93, 0x59, 0x7f, 0x00, 0x96, 0x3d, 0x7e, 0x00, 0x99,
  0x2e, 0x44, 0x00, 0x99, 0x3d, 0x53, 0x02, 0x83, 0x5a, 0x7f, 0x16, 0x89,
  0x2e, 0x44, 0x00, 0x89, 0x3d, 0x53, 0x04, 0x86, 0x3d, 0x7e, 0x06, 0x81,
  0x22, 0x7f, 0x0e, 0x93, 0x55, 0x7f, 0x00, 0x96, 0x3a, 0x78, 0x08, 0x83,
  0x59, 0x7f, 0x0a, 0x86, 0x3a, 0x78, 0x0c, 0x82, 0x3c, 0x7f, 0x12, 0x80,
  0x41, 0x7f, 0x00, 0x80, 0x3d, 0x7f, 0x00, 0x80, 0x3a, 0x7f, 0x00, 0x82,
  0x3f, 0x7f, 0x00, 0x90, 0x41, 0x7f, 0x00, 0x90, 0x3d, 0x7f, 0x00, 0x90,
  0x3a, 0x7f, 0x00, 0x90, 0x36, 0x7f, 0x00, 0x91, 0x1b, 0x7f, 0x00, 0x92,
  0x42, 0x7f, 0x00, 0x92, 0x3d, 0x7f, 0x00, 0x92, 0x3a, 0x7f, 0x00, 0x96,
  0x3d, 0x7e, 0x00, 0x99, 0x24, 0x7f, 0x00, 0x99, 0x2a, 0x74, 0x00, 0x99,
  0x3c, 0x53, 0x04, 0x82, 0x44, 0x7f, 0x14, 0x89, 0x24, 0x7f, 0x00, 0x89,
  0x2a, 0x74, 0x00, 0x89, 0x3c, 0x53, 0x0a, 0x81, 0x1b, 0x7f, 0x0e, 0x95,
  0x38, 0x7f, 0x10, 0x85, 0x38, 0x7f, 0x20, 0x91, 0x1b, 0x7f, 0x00, 0x99,
  0x2a, 0x2c, 0x18, 0x89, 0x2a, 0x2c, 0x0a, 0x81, 0x1b, 0x7f, 0x0e, 0x91,
  0x24, 0x7f, 0x00, 0x99, 0x2a, 0x64, 0x00, 0x99, 0x3e, 0x53, 0x0a, 0x86,
  0x3d, 0x7e, 0x0a, 0xe6, 0x4c, 0x3e, 0x04, 0x89, 0x2a, 0x64, 0x00, 0x89,
  0x3e, 0x53, 0x06, 0xe6, 0x7f, 0x3a, 0x04, 0x81, 0x24, 0x7f, 0x08, 0xe6,
  0x60, 0x3a, 0x06, 0x95, 0x38, 0x7f, 0x00, 0xb6, 0x01, 0x21, 0x00, 0x96,
  0x3f, 0x76, 0x00, 0x99, 0x24, 0x7f, 0x00, 0x99, 0x26, 0x7c, 0x00, 0x99,
  0x2a, 0x74, 0x00, 0x99, 0x3c, 0x53, 0x00, 0x99, 0x27, 0x64, 0x04, 0xe6,
  0x46, 0x3c, 0x0a, 0xe6, 0x3c, 0x3f, 0x02, 0x85, 0x38, 0x7f, 0x06, 0xe6,
  0x70, 0x3f, 0x02, 0x89, 0x24, 0x7f, 0x00, 0x89, 0x26, 0x7c, 0x00, 0x89,
  0x2a, 0x74, 0x00, 0x89, 0x3c, 0x53, 0x00, 0x89, 0x27, 0x64, 0x02, 0xe6,
  0x00, 0x40, 0x10, 0x86, 0x3f, 0x76, 0x06, 0x91, 0x24, 0x7f, 0x22, 0x81,
  0x24, 0x7f, 0x08, 0x82, 0x3d, 0x7f, 0x06, 0x80, 0x41, 0x7f, 0x00, 0x80,
  0x3d, 0x7f, 0x00, 0x80, 0x3a, 0x7f, 0x00, 0x80, 0x36, 0x7f, 0x00, 0x90,
  0x3f, 0x7f, 0x00, 0x90, 0x3c, 0x7f, 0x00, 0x90, 0x38, 0x7f, 0x00, 0x91,
  0x22, 0x7f, 0x00, 0x92, 0x44, 0x7f, 0x00, 0x92, 0x3f, 0x7f, 0x00, 0x92,
  0x3c, 0x7f, 0x00, 0x93, 0x57, 0x7f, 0x00, 0xb6, 0x01, 0x00, 0x00, 0x96,
  0x3c, 0x7e, 0x00, 0x99, 0x2a, 0x21, 0x00, 0x99, 0x3d, 0x53, 0x0a, 0x83,
  0x55, 0x7f, 0x02, 0x82, 0x3a, 0x7f, 0x0c, 0x89, 0x2a, 0x21, 0x00, 0x89,
  0x3d, 0x53, 0x0a, 0x81, 0x22, 0x7f, 0x02, 0x82, 0x42, 0x7f, 0x0c, 0x95,
  0x35, 0x7f, 0x00, 0x99, 0x2a, 0x53, 0x10, 0x85, 0x35, 0x7f, 0x08, 0x89,
  0x2a, 0x53, 0x18, 0x91, 0x20, 0x7f, 0x00, 0x95, 0x38, 0x7f, 0x00, 0x99,
  0x24, 0x7f, 0x00, 0x99, 0x2a, 0x74, 0x00, 0x99, 0x3c, 0x53, 0x10, 0x85,
  0x38, 0x7f, 0x08, 0x89, 0x24, 0x7f, 0x00, 0x89, 0x2a, 0x74, 0x00, 0x89,
  0x3c, 0x53, 0x02, 0x86, 0x3c, 0x7e, 0x08, 0x81, 0x20, 0x7f, 0x0e, 0x96,
  0x3a, 0x66, 0x16, 0x86, 0x3a, 0x66, 0x1a, 0x91, 0x20, 0x7f, 0x00, 0x95,
  0x38, 0x7f, 0x00, 0x96, 0x38, 0x7f, 0x00, 0x99, 0x2a, 0x47, 0x10, 0x85,
  0x38, 0x7f, 0x08, 0x89, 0x2a, 0x47, 0x0a, 0x81, 0x20, 0x7f, 0x0e, 0x99,
  0x2a, 0x53, 0x00, 0x99, 0x3e, 0x53, 0x18, 0x89, 0x2a, 0x53, 0x00, 0x89,
  0x3e, 0x53, 0x10, 0x83, 0x57, 0x7f, 0x08, 0x93, 0x50, 0x7f, 0x00, 0x99,
  0x24, 0x7f, 0x00, 0x99, 0x26, 0x70, 0x00, 0x99, 0x2a, 0x7f, 0x00, 0x99,
  0x3c, 0x53, 0x00, 0x99, 0x27, 0x74, 0x18, 0x89, 0x24, 0x7f, 0x00, 0x89,
  0x26, 0x70, 0x00, 0x89, 0x2a, 0x7f, 0x00, 0x89, 0x3c, 0x53, 0x00, 0x89,
  0x27, 0x74, 0x20, 0x86, 0x38, 0x7f, 0x12, 0xe6, 0x04, 0x3c, 0x0c, 0xe6,
  0x4f, 0x3a, 0x0a, 0x91, 0x1b, 0x7f, 0x00, 0x95, 0x33, 0x7f, 0x00, 0xb6,
  0x01, 0x3d, 0x00, 0x96, 0x38, 0x7f, 0x00, 0x99, 0x2a, 0x30, 0x00, 0x99,
  0x3d, 0x53, 0x0a, 0xe6, 0x46, 0x3c, 0x06, 0x85, 0x33, 0x7f, 0x02, 0xe6,
  0x1e, 0x3f, 0x06, 0x89, 0x2a, 0x30, 0x00, 0x89, 0x3d, 0x53, 0x00, 0xe6,
  0x5f, 0x3f, 0x02, 0xe6, 0x00, 0x40, 0x08, 0x81, 0x1b, 0x7f, 0x0a, 0x86,
  0x38, 0x7f, 0x04, 0x91, 0x1b, 0x7f, 0x00, 0x95, 0x35, 0x7f, 0x00, 0x99,
  0x2a, 0x3d, 0x10, 0x85, 0x35, 0x7f, 0x08, 0x89, 0x2a, 0x3d, 0x0a, 0x81,
  0x1b, 0x7f, 0x0e, 0x80, 0x3f, 0x7f, 0x00, 0x80, 0x3c, 0x7f, 0x00, 0x80,
  0x38, 0x7f, 0x00, 0x90, 0x3f, 0x7f, 0x00, 0x90, 0x3c, 0x7f, 0x00, 0x90,
  0x38, 0x7f, 0x00, 0x91, 0x1d, 0x7f, 0x00, 0x92, 0x38, 0x7f, 0x00, 0xb6,
  0x01, 0x00, 0x00, 0x96, 0x3f, 0x7f, 0x00, 0x99, 0x24, 0x7f, 0x00, 0x99,
  0x2a, 0x74, 0x00, 0x99, 0x3c, 0x53, 0x18, 0x89, 0x24, 0x7f, 0x00, 0x89,
  0x2a, 0x74, 0x00, 0x89, 0x3c, 0x53, 0x0a, 0x81, 0x1d, 0x7f, 0x0e, 0x95,
  0x38, 0x7f, 0x10, 0x85, 0x38, 0x7f, 0x16, 0x86, 0x3f, 0x7f, 0x0a, 0x91,
  0x1d, 0x7f, 0x00, 0x96, 0x3d, 0x70, 0x00, 0x99, 0x2a, 0x47, 0x18, 0x89,
  0x2a, 0x47, 0x0a, 0x81, 0x1d, 0x7f, 0x0e, 0x91, 0x1d, 0x7f, 0x00, 0x99,
  0x2a, 0x47, 0x00, 0x99, 0x3e, 0x53, 0x16, 0x86, 0x3d, 0x70, 0x02, 0x89,
  0x2a, 0x47, 0x00, 0x89, 0x3e, 0x53, 0x0a, 0x81, 0x1d, 0x7f, 0x04, 0x82,
  0x3f, 0x7f, 0x00, 0x82, 0x3c, 0x7f, 0x02, 0x82, 0x38, 0x7f, 0x08, 0x92,
  0x41, 0x7f, 0x00, 0x92, 0x3d, 0x7f, 0x00, 0x95, 0x38, 0x7f, 0x00, 0x96,
  0x3d, 0x7f, 0x00, 0x99, 0x24, 0x7f, 0x00, 0x99, 0x26, 0x7c, 0x00, 0x99,
  0x2a, 0x74, 0x00, 0x99, 0x3c, 0x53, 0x00, 0x99, 0x27, 0x64, 0x10, 0x85,
  0x38, 0x7f, 0x08, 0x89, 0x24, 0x7f, 0x00, 0x89, 0x26, 0x7c, 0x00, 0x89,
  0x2a, 0x74, 0x00, 0x89, 0x3c, 0x53, 0x00, 0x89, 0x27, 0x64, 0x18, 0x91,
  0x24, 0x7f, 0x22, 0x81, 0x24, 0x7f, 0x0e, 0x80, 0x3f, 0x7f, 0x00, 0x80,
  0x3c, 0x7f, 0x00, 0x80, 0x38, 0x7f, 0x00, 0x90, 0x41, 0x7f, 0x00, 0x90,
  0x3d, 0x7f, 0x00, 0x90, 0x3a, 0x7f, 0x00, 0x91, 0x22, 0x7f, 0x00, 0x99,
  0x2e, 0x44, 0x00, 0x99, 0x3d, 0x53, 0x18, 0x89, 0x2e, 0x44, 0x00, 0x89,
  0x3d, 0x53, 0x0a, 0x81, 0x22, 0x7f, 0x0e, 0x95, 0x35, 0x7f, 0x10, 0x85,
  0x35, 0x7f, 0x10, 0x86, 0x3d, 0x7f, 0x10, 0x94, 0x50, 0x7f, 0x00, 0x94,
  0x44, 0x7f, 0x00, 0x95, 0x38, 0x7f, 0x00, 0x99, 0x24, 0x7f, 0x00, 0x99,
  0x2a, 0x74, 0x00, 0x99, 0x3c, 0x53, 0x10, 0x85, 0x38, 0x7f, 0x04, 0x84,
  0x44, 0x7f, 0x04, 0x89, 0x24, 0x7f, 0x00, 0x89, 0x2a, 0x74, 0x00, 0x89,
  0x3c, 0x53, 0x08, 0x84, 0x50, 0x7f, 0x10, 0x94, 0x50, 0x7f, 0x00, 0x94,
  0x44, 0x7f, 0x1a, 0x84, 0x50, 0x7f, 0x04, 0x84, 0x44, 0x7f, 0x12, 0x91,
  0x20, 0x7f, 0x00, 0x95, 0x38, 0x7f, 0x00, 0x99, 0x2a, 0x3d, 0x10, 0x85,
  0x38, 0x7f, 0x08, 0x89, 0x2a, 0x3d, 0x0a, 0x81, 0x20, 0x7f, 0x0e, 0x94,
  0x50, 0x7f, 0x00, 0x94, 0x44, 0x7f, 0x00, 0x99, 0x2a, 0x64, 0x00, 0x99,
  0x3e, 0x53, 0x0e, 0x84, 0x50, 0x7f, 0x08, 0x84, 0x44, 0x7f, 0x02, 0x89,
  0x2a, 0x64, 0x00, 0x89, 0x3e, 0x53, 0x18, 0x91, 0x25, 0x7f, 0x00, 0x94,
  0x50, 0x7f, 0x00, 0x94, 0x44, 0x7f, 0x00, 0x96, 0x38, 0x7f, 0x00, 0x99,
  0x24, 0x7f, 0x00, 0x99, 0x26, 0x7d, 0x00, 0x99, 0x2a, 0x74, 0x00, 0x99,
  0x3c, 0x53, 0x00, 0x99, 0x27, 0x7d, 0x16, 0x84, 0x50, 0x7f, 0x02, 0x84,
  0x44, 0x7f, 0x00, 0x86, 0x38, 0x7f, 0x00, 0x89, 0x24, 0x7f, 0x00, 0x89,
  0x26, 0x7d, 0x00, 0x89, 0x2a, 0x74, 0x00, 0x89, 0x3c, 0x53, 0x00, 0x89,
  0x27, 0x7d, 0x0a, 0x81, 0x25, 0x7f, 0x0e, 0x91, 0x22, 0x7f, 0x00, 0x94,
  0x52, 0x7f, 0x00, 0x94, 0x46, 0x7f, 0x00, 0x95, 0x38, 0x7f, 0x00, 0x96,
  0x3a, 0x7f, 0x00, 0x99, 0x27, 0x69, 0x10, 0x85, 0x38, 0x7f, 0x04, 0x86,
  0x3a, 0x7f, 0x02, 0x84, 0x52, 0x7f, 0x02, 0x89, 0x27, 0x69, 0x02, 0x84,
  0x46, 0x7f, 0x08, 0x81, 0x22, 0x7f, 0x04, 0xe6, 0x67, 0x3c, 0x08, 0xe6,
  0x4f, 0x3a, 0x02, 0x94, 0x55, 0x7f, 0x00, 0x94, 0x49, 0x7f, 0x00, 0x96,
  0x3d, 0x7f, 0x00, 0x99, 0x2e, 0x5f, 0x00, 0x99, 0x3d, 0x53, 0x00, 0x99,
  0x27, 0x55, 0x14, 0xe6, 0x76, 0x3c, 0x02, 0x84, 0x55, 0x7f, 0x02, 0x84,
  0x49, 0x7f, 0x00, 0x89, 0x2e, 0x5f, 0x00, 0x89, 0x3d, 0x53, 0x00, 0x89,
  0x27, 0x55, 0x02, 0x82, 0x41, 0x7f, 0x02, 0xe6, 0x5f, 0x3f, 0x02, 0x86,
  0x3d, 0x7f, 0x04, 0x82, 0x44, 0x7f, 0x02, 0xe6, 0x00, 0x40, 0x02, 0x82,
  0x3d, 0x7f, 0x0a, 0x91, 0x25, 0x7f, 0x00, 0x94, 0x55, 0x7f, 0x00, 0x94,
  0x49, 0x7f, 0x00, 0x95, 0x38, 0x7f, 0x00, 0x96, 0x3a, 0x7f, 0x00, 0x99,
  0x27, 0x41, 0x0a, 0x83, 0x50, 0x7f, 0x06, 0x85, 0x38, 0x7f, 0x04, 0x86,
  0x3a, 0x7f, 0x04, 0x89, 0x27, 0x41, 0x02, 0x84, 0x55, 0x7f, 0x00, 0x84,
  0x49, 0x7f, 0x08, 0x81, 0x25, 0x7f, 0x0e, 0x80, 0x41, 0x7f, 0x00, 0x80,
  0x3d, 0x7f, 0x00, 0x80, 0x3a, 0x7f, 0x00, 0x90, 0x41, 0x7f, 0x00, 0x90,
  0x3d, 0x7f, 0x00, 0x90, 0x3a, 0x7f, 0x00, 0x90, 0x36, 0x7f, 0x00, 0x91,
  0x1b, 0x7f, 0x00, 0x92, 0x42, 0x7f, 0x00, 0x92, 0x3d, 0x7f, 0x00, 0x92,
  0x3a, 0x7f, 0x00, 0x93, 0x55, 0x7f, 0x00, 0x96, 0x41, 0x7f, 0x00, 0x99,
  0x24, 0x7f, 0x00, 0x99, 0x2a, 0x70, 0x00, 0x99, 0x3c, 0x53, 0x18, 0x89,
  0x24, 0x7f, 0x00, 0x89, 0x2a, 0x70, 0x00, 0x89, 0x3c, 0x53, 0x0a, 0x81,
  0x1b, 0x7f, 0x0e, 0x95, 0x38, 0x7f, 0x10, 0x85, 0x38, 0x7f, 0x20, 0x91,
  0x1b, 0x7f, 0x00, 0x99, 0x2a, 0x36, 0x18, 0x89, 0x2a, 0x36, 0x0a, 0x81,
  0x1b, 0x7f, 0x0e, 0x91, 0x1b, 0x7f, 0x00, 0x99, 0x2a, 0x64, 0x00, 0x99,
  0x3e, 0x53, 0x10, 0x86, 0x41, 0x7f, 0x08, 0x89, 0x2a, 0x64, 0x00, 0x89,
  0x3e, 0x53, 0x0a, 0x81, 0x1b, 0x7f, 0x0e, 0x95, 0x38, 0x7f, 0x00, 0x96,
  0x41, 0x7f, 0x00, 0x99, 0x24, 0x7f, 0x00, 0x99, 0x26, 0x70, 0x00, 0x99,
  0x2a, 0x74, 0x00, 0x99, 0x3c, 0x53, 0x00, 0x99, 0x27, 0x64, 0x10, 0x85,
  0x38, 0x7f, 0x08, 0x89, 0x24, 0x7f, 0x00, 0x89, 0x26, 0x70, 0x00, 0x89,
  0x2a, 0x74, 0x00, 0x89, 0x3c, 0x53, 0x00, 0x89, 0x27, 0x64, 0x18, 0x91,
  0x24, 0x7f, 0x12, 0x86, 0x41, 0x7f, 0x0e, 0x82, 0x3d, 0x7f, 0x02, 0x81,
  0x24, 0x7f, 0x00, 0x83, 0x55, 0x7f, 0x08, 0x82, 0x3a, 0x7f, 0x06, 0x80,
  0x41, 0x7f, 0x00, 0x80, 0x3d, 0x7f, 0x00, 0x80, 0x3a, 0x7f, 0x00, 0x80,
  0x36, 0x7f, 0x00, 0x90, 0x3f, 0x7f, 0x00, 0x90, 0x3c, 0x7f, 0x00, 0x90,
  0x38, 0x7f, 0x00, 0x91, 0x22, 0x7f, 0x00, 0x92, 0x44, 0x7f, 0x00, 0x92,
  0x3f, 0x7f, 0x00, 0x92, 0x3c, 0x7f, 0x00, 0x93, 0x57, 0x7f, 0x00, 0x96,
  0x3f, 0x7f, 0x00, 0x99, 0x2a, 0x28, 0x00, 0x99, 0x3d, 0x53, 0x14, 0x82,
  0x42, 0x7f, 0x04, 0x89, 0x2a, 0x28, 0x00, 0x89, 0x3d, 0x53, 0x0a, 0x81,
  0x22, 0x7f, 0x0e, 0x95, 0x35, 0x7f, 0x00, 0x99, 0x2a, 0x53, 0x10, 0x85,
  0x35, 0x7f, 0x08, 0x89, 0x2a, 0x53, 0x18, 0x91, 0x20, 0x7f, 0x00, 0x95,
  0x38, 0x7f, 0x00, 0x99, 0x24, 0x7f, 0x00, 0x99, 0x2a, 0x74, 0x00, 0x99,
  0x3c, 0x53, 0x10, 0x85, 0x38, 0x7f, 0x08, 0x89, 0x24, 0x7f, 0x00, 0x89,
  0x2a, 0x74, 0x00, 0x89, 0x3c, 0x53, 0x0a, 0x81, 0x20, 0x7f, 0x30, 0x86,
  0x3f, 0x7f, 0x0e, 0x91, 0x20, 0x7f, 0x00, 0x99, 0x2a, 0x30, 0x18, 0x89,
  0x2a, 0x30, 0x0a, 0x81, 0x20, 0x7f, 0x0e, 0x95, 0x38, 0x7f, 0x00, 0x99,
  0x2a, 0x47, 0x00, 0x99, 0x3e, 0x53, 0x10, 0x85, 0x38, 0x7f, 0x08, 0x89,
  0x2a, 0x47, 0x00, 0x89, 0x3e, 0x53, 0x18, 0x96, 0x38, 0x7f, 0x00, 0x99,
  0x24, 0x7f, 0x00, 0x99, 0x26, 0x7c, 0x00, 0x99, 0x2a, 0x74, 0x00, 0x99,
  0x3c, 0x53, 0x00, 0x99, 0x27, 0x74, 0x18, 0x86, 0x38, 0x7f, 0x00, 0x89,
  0x24, 0x7f, 0x00, 0x89, 0x26, 0x7c, 0x00, 0x89, 0x2a, 0x74, 0x00, 0x89,
  0x3c, 0x53, 0x00, 0x89, 0x27, 0x74, 0x18, 0x96, 0x3a, 0x78, 0x12, 0x86,
  0x3a, 0x78, 0x14, 0xe6, 0x23, 0x3c, 0x0a, 0x91, 0x1b, 0x7f, 0x00, 0x93,
  0x50, 0x7f, 0x00, 0x95, 0x35, 0x7f, 0x00, 0xb6, 0x01, 0x2b, 0x00, 0x96,
  0x3d, 0x76, 0x00, 0x99, 0x2a, 0x0d, 0x00, 0x99, 0x3d, 0x53, 0x02, 0xe6,
  0x60, 0x3a, 0x02, 0x83, 0x57, 0x7f, 0x04, 0xe6, 0x4f, 0x3a, 0x08, 0x85,
  0x35, 0x7f, 0x00, 0xe6, 0x46, 0x3c, 0x08, 0x89, 0x2a, 0x0d, 0x00, 0x89,
  0x3d, 0x53, 0x06, 0xe6, 0x3b, 0x3e, 0x02, 0x86, 0x3d, 0x76, 0x02, 0x81,
  0x1b, 0x7f, 0x02, 0xe6, 0x70, 0x3f, 0x06, 0xe6, 0x00, 0x40, 0x06, 0x91,
  0x20, 0x7f, 0x00, 0x95, 0x38, 0x7f, 0x00, 0xb6, 0x01, 0x00, 0x00, 0x96,
  0x3a, 0x63, 0x00, 0x99, 0x2a, 0x47, 0x08, 0x86, 0x3a, 0x63, 0x08, 0x85,
  0x38, 0x7f, 0x08, 0x89, 0x2a, 0x47, 0x0a, 0x81, 0x20, 0x7f, 0x0e, 0x80,
  0x3f, 0x7f, 0x00, 0x80, 0x3c, 0x7f, 0x00, 0x80, 0x38, 0x7f, 0x00, 0x90,
  0x3f, 0x7f, 0x00, 0x90, 0x3c, 0x7f, 0x00, 0x90, 0x38, 0x7f, 0x00, 0x91,
  0x1d, 0x7f, 0x00, 0x93, 0x57, 0x7f, 0x00, 0x96, 0x44, 0x7f, 0x00, 0x99,
  0x24, 0x7f, 0x00, 0x99, 0x2a, 0x64, 0x00, 0x99, 0x3c, 0x53, 0x02, 0x83,
  0x50, 0x7f, 0x16, 0x89, 0x24, 0x7f, 0x00, 0x89, 0x2a, 0x64, 0x00, 0x89,
  0x3c, 0x53, 0x0a, 0x81, 0x1d, 0x7f, 0x0e, 0x95, 0x38, 0x7f, 0x10, 0x85,
  0x38, 0x7f, 0x20, 0x91, 0x1d, 0x7f, 0x00, 0x99, 0x2a, 0x36, 0x18, 0x89,
  0x2a, 0x36, 0x0a, 0x81, 0x1d, 0x7f, 0x0e, 0x91, 0x24, 0x7f, 0x00, 0x99,
  0x2a, 0x53, 0x00, 0x99, 0x3e, 0x53, 0x14, 0x86, 0x44, 0x7f, 0x04, 0x89,
  0x2a, 0x53, 0x00, 0x89, 0x3e, 0x53, 0x0a, 0x81, 0x24, 0x7f, 0x0e, 0x95,
  0x38, 0x7f, 0x00, 0x96, 0x3d, 0x7f, 0x00, 0x99, 0x24, 0x7f, 0x00, 0x99,
  0x26, 0x70, 0x00, 0x99, 0x2a, 0x74, 0x00, 0x99, 0x3c, 0x53, 0x00, 0x99,
  0x27, 0x74, 0x10, 0x85, 0x38, 0x7f, 0x08, 0x89, 0x24, 0x7f, 0x00, 0x89,
  0x26, 0x70, 0x00, 0x89, 0x2a, 0x74, 0x00, 0x89, 0x3c, 0x53, 0x00, 0x89,
  0x27, 0x74, 0x08, 0x86, 0x3d, 0x7f, 0x10, 0x91, 0x24, 0x7f, 0x20, 0x82,
  0x3f, 0x7f, 0x02, 0x81, 0x24, 0x7f, 0x06, 0x82, 0x3c, 0x7f, 0x08, 0x80,
  0x3f, 0x7f, 0x00, 0x80, 0x3c, 0x7f, 0x00, 0x80, 0x38, 0x7f, 0x00, 0x90,
  0x41, 0x7f, 0x00, 0x90, 0x3d, 0x7f, 0x00, 0x90, 0x3a, 0x7f, 0x00, 0x91,
  0x22, 0x7f, 0x00, 0x92, 0x41, 0x7f, 0x00, 0x92, 0x3d, 0x7f, 0x00, 0x93,
  0x59, 0x7f, 0x00, 0x96, 0x3d, 0x7f, 0x00, 0x99, 0x2a, 0x36, 0x00, 0x99,
  0x3d, 0x53, 0x02, 0x83, 0x57, 0x7f, 0x16, 0x89, 0x2a, 0x36, 0x00, 0x89,
  0x3d, 0x53, 0x0a, 0x81, 0x22, 0x7f, 0x0e, 0x95, 0x35, 0x7f, 0x00, 0x99,
  0x2a, 0x47, 0x10, 0x85, 0x35, 0x7f, 0x08, 0x89, 0x2a, 0x47, 0x18, 0x95,
  0x38, 0x7f, 0x00, 0x99, 0x24, 0x7f, 0x00, 0x99, 0x2a, 0x64, 0x00, 0x99,
  0x3c, 0x53, 0x10, 0x85, 0x38, 0x7f, 0x08, 0x89, 0x24, 0x7f, 0x00, 0x89,
  0x2a, 0x64, 0x00, 0x89, 0x3c, 0x53, 0x10, 0x86, 0x3d, 0x7f, 0x08, 0x96,
  0x3c, 0x68, 0x18, 0x86, 0x3c, 0x68, 0x18, 0x91, 0x22, 0x7f, 0x00, 0x95,
  0x38, 0x7f, 0x00, 0x96, 0x3a, 0x7c, 0x00, 0x99, 0x2a, 0x47, 0x10, 0x85,
  0x38, 0x7f, 0x08, 0x89, 0x2a, 0x47, 0x0a, 0x81, 0x22, 0x7f, 0x0e, 0x91,
  0x22, 0x7f, 0x00, 0x99, 0x2a, 0x47, 0x00, 0x99, 0x3e, 0x53, 0x18, 0x89,
  0x2a, 0x47, 0x00, 0x89, 0x3e, 0x53, 0x06, 0x86, 0x3a, 0x7c, 0x04, 0x81,
  0x22, 0x7f, 0x0a, 0x83, 0x59, 0x7f, 0x04, 0x92, 0x3f, 0x7f, 0x00, 0x92,
  0x3c, 0x7f, 0x00, 0x93, 0x5c, 0x7f, 0x00, 0x95, 0x38, 0x7f, 0x00, 0x96,
  0x38, 0x7f, 0x00, 0x99, 0x24, 0x7f, 0x00, 0x99, 0x26, 0x70, 0x00, 0x99,
  0x2a, 0x74, 0x00, 0x99, 0x3c, 0x53, 0x00, 0x99, 0x27, 0x64, 0x06, 0x82,
  0x3d, 0x7f, 0x0a, 0x85, 0x38, 0x7f, 0x08, 0x86, 0x38, 0x7f, 0x00, 0x89,
  0x24, 0x7f, 0x00, 0x89, 0x26, 0x70, 0x00, 0x89, 0x2a, 0x74, 0x00, 0x89,
  0x3c, 0x53, 0x00, 0x89, 0x27, 0x64, 0x0a, 0x82, 0x41, 0x7f, 0x0e, 0x91,
  0x24, 0x7f, 0x00, 0x93, 0x5a, 0x7f, 0x00, 0x95, 0x3a, 0x7f, 0x00, 0xb6,
  0x01, 0x05, 0x00, 0x96, 0x3a, 0x7f, 0x02, 0x83, 0x5c, 0x7f, 0x0c, 0x86,
  0x3a, 0x7f, 0x02, 0x85, 0x3a, 0x7f, 0x12, 0x81, 0x24, 0x7f, 0x0e, 0x91,
  0x22, 0x7f, 0x00, 0x93, 0x59, 0x7f, 0x00, 0xb6, 0x01, 0x00, 0x00, 0x96,
  0x3d, 0x7f, 0x00, 0x99, 0x2e, 0x44, 0x00, 0x99, 0x3d, 0x53, 0x02, 0x83,
  0x5a, 0x7f, 0x16, 0x89, 0x2e, 0x44, 0x00, 0x89, 0x3d, 0x53, 0x0a, 0x81,
  0x22, 0x7f, 0x00, 0x86, 0x3d, 0x7f, 0x0e, 0x93, 0x55, 0x7f, 0x00, 0x96,
  0x3a, 0x68, 0x08, 0x83, 0x59, 0x7f, 0x06, 0x86, 0x3a, 0x68, 0x10, 0x82,
  0x3c, 0x7f, 0x12, 0x80, 0x41, 0x7f, 0x00, 0x80, 0x3d, 0x7f, 0x00, 0x80,
  0x3a, 0x7f, 0x00, 0x82, 0x3f, 0x7f, 0x00, 0x90, 0x3d, 0x7f, 0x00, 0x90,
  0x3a, 0x7f, 0x00, 0x90, 0x36, 0x7f, 0x00, 0x91, 0x1b, 0x7f, 0x00, 0x92,
  0x42, 0x7f, 0x00, 0x92, 0x3d, 0x7f, 0x00, 0x92, 0x3a, 0x7f, 0x00, 0x96,
  0x3d, 0x7f, 0x00, 0x99, 0x24, 0x7f, 0x00, 0x99, 0x2a, 0x74, 0x00, 0x99,
  0x3c, 0x53, 0x04, 0x82, 0x44, 0x7f, 0x14, 0x89, 0x24, 0x7f, 0x00, 0x89,
  0x2a, 0x74, 0x00, 0x89, 0x3c, 0x53, 0x0a, 0x81, 0x1b, 0x7f, 0x0e, 0x95,
  0x38, 0x7f, 0x10, 0x85, 0x38, 0x7f, 0x20, 0x91, 0x1b, 0x7f, 0x00, 0x99,
  0x2a, 0x2c, 0x18, 0x89, 0x2a, 0x2c, 0x0a, 0x81, 0x1b, 0x7f, 0x0e, 0x91,
  0x24, 0x7f, 0x00, 0x99, 0x2a, 0x64, 0x00, 0x99, 0x3e, 0x53, 0x14, 0x86,
  0x3d, 0x7f, 0x04, 0x89, 0x2a, 0x64, 0x00, 0x89, 0x3e, 0x53, 0x00, 0xe6,
  0x56, 0x3c, 0x0a, 0x81, 0x24, 0x7f, 0x02, 0xe6, 0x7f, 0x3a, 0x06, 0xe6,
  0x4f, 0x3a, 0x06, 0x95, 0x38, 0x7f, 0x00, 0xb6, 0x01, 0x30, 0x00, 0x96,
  0x3f, 0x7f, 0x00, 0x99, 0x24, 0x7f, 0x00, 0x99, 0x26, 0x7c, 0x00, 0x99,
  0x2a, 0x74, 0x00, 0x99, 0x3c, 0x53, 0x00, 0x99, 0x27, 0x64, 0x06, 0xe6,
  0x67, 0x3c, 0x0a, 0x85, 0x38, 0x7f, 0x00, 0xe6, 0x3c, 0x3f, 0x08, 0x89,
  0x24, 0x7f, 0x00, 0x89, 0x26, 0x7c, 0x00, 0x89, 0x2a, 0x74, 0x00, 0x89,
  0x3c, 0x53, 0x00, 0x89, 0x27, 0x64, 0x00, 0xe6, 0x70, 0x3f, 0x02, 0xe6,
  0x00, 0x40, 0x08, 0x86, 0x3f, 0x7f, 0x0e, 0x91, 0x24, 0x7f, 0x0a, 0x80,
  0x3a, 0x7f, 0x08, 0x80, 0x36, 0x7f, 0x10, 0x81, 0x24, 0x7f, 0x08, 0x82,
  0x3d, 0x7f, 0x06, 0x90, 0x3f, 0x7f, 0x00, 0x90, 0x3c, 0x7f, 0x00, 0x90,
  0x38, 0x7f, 0x00, 0x91, 0x22, 0x7f, 0x00, 0x92, 0x44, 0x7f, 0x00, 0x92,
  0x3f, 0x7f, 0x00, 0x92, 0x3c, 0x7f, 0x00, 0x93, 0x57, 0x7f, 0x00, 0xb6,
  0x01, 0x00, 0x00, 0x96, 0x3c, 0x7f, 0x00, 0x96, 0x3a, 0x7f, 0x00, 0x99,
  0x2a, 0x21, 0x00, 0x99, 0x3d, 0x53, 0x0a, 0x83, 0x55, 0x7f, 0x02, 0x80,
  0x3d, 0x7f, 0x00, 0x82, 0x3a, 0x7f, 0x0c, 0x89, 0x2a, 0x21, 0x00, 0x89,
  0x3d, 0x53, 0x0a, 0x81, 0x22, 0x7f, 0x02, 0x82, 0x42, 0x7f, 0x04, 0x86,
  0x3a, 0x7f, 0x08, 0x95, 0x35, 0x7f, 0x00, 0x99, 0x2a, 0x53, 0x10, 0x85,
  0x35, 0x7f, 0x08, 0x89, 0x2a, 0x53, 0x18, 0x91, 0x20, 0x7f, 0x00, 0x95,
  0x38, 0x7f, 0x00, 0x99, 0x24, 0x7f, 0x00, 0x99, 0x2a, 0x74, 0x00, 0x99,
  0x3c, 0x53, 0x10, 0x85, 0x38, 0x7f, 0x08, 0x89, 0x24, 0x7f, 0x00, 0x89,
  0x2a, 0x74, 0x00, 0x89, 0x3c, 0x53, 0x0a, 0x81, 0x20, 0x7f, 0x00, 0x86,
  0x3c, 0x7f, 0x0e, 0x96, 0x3a, 0x6c, 0x14, 0x86, 0x3a, 0x6c, 0x1c, 0x91,
  0x20, 0x7f, 0x00, 0x95, 0x38, 0x7f, 0x00, 0x96, 0x38, 0x7f, 0x00, 0x99,
  0x2a, 0x47, 0x10, 0x85, 0x38, 0x7f, 0x08, 0x89, 0x2a, 0x47, 0x0a, 0x81,
  0x20, 0x7f, 0x0e, 0x99, 0x2a, 0x53, 0x00, 0x99, 0x3e, 0x53, 0x18, 0x89,
  0x2a, 0x53, 0x00, 0x89, 0x3e, 0x53, 0x10, 0x83, 0x57, 0x7f, 0x08, 0x93,
  0x50, 0x7f, 0x00, 0x99, 0x24, 0x7f, 0x00, 0x99, 0x26, 0x70, 0x00, 0x99,
  0x2a, 0x7f, 0x00, 0x99, 0x3c, 0x53, 0x00, 0x99, 0x27, 0x74, 0x18, 0x89,
  0x24, 0x7f, 0x00, 0x89, 0x26, 0x70, 0x00, 0x89, 0x2a, 0x7f, 0x00, 0x89,
  0x3c, 0x53, 0x00, 0x89, 0x27, 0x74, 0x24, 0x86, 0x38, 0x7f, 0x12, 0xe6,
  0x7a, 0x3d, 0x08, 0xe6, 0x62, 0x3b, 0x08, 0xe6, 0x22, 0x3b, 0x02, 0x91,
  0x1b, 0x7f, 0x00, 0x95, 0x33, 0x7f, 0x00, 0xb6, 0x01, 0x3f, 0x00, 0x96,
  0x38, 0x7f, 0x00, 0x99, 0x2a, 0x30, 0x00, 0x99, 0x3d, 0x53, 0x06, 0xe6,
  0x62, 0x3b, 0x06, 0xe6, 0x76, 0x3c, 0x04, 0x85, 0x33, 0x7f, 0x02, 0xe6,
  0x3b, 0x3e, 0x06, 0x89, 0x2a, 0x30, 0x00, 0x89, 0x3d, 0x53, 0x02, 0xe6,
  0x5f, 0x3f, 0x08, 0x81, 0x1b, 0x7f, 0x00, 0xe6, 0x70, 0x3f, 0x02, 0xe6,
  0x00, 0x40, 0x04, 0x86, 0x38, 0x7f, 0x08, 0x91, 0x1b, 0x7f, 0x00, 0x95,
  0x35, 0x7f, 0x00, 0x99, 0x2a, 0x3d, 0x10, 0x85, 0x35, 0x7f, 0x08, 0x89,
  0x2a, 0x3d, 0x0a, 0x81, 0x1b, 0x7f, 0x0e, 0x80, 0x3f, 0x7f, 0x00, 0x80,
  0x3c, 0x7f, 0x00, 0x80, 0x38, 0x7f, 0x00, 0x90, 0x3f, 0x7f, 0x00, 0x90,
  0x3c, 0x7f, 0x00, 0x90, 0x38, 0x7f, 0x00, 0x91, 0x1d, 0x7f, 0x00, 0x92,
  0x38, 0x7f, 0x00, 0xb6, 0x01, 0x00, 0x00, 0x96, 0x3f, 0x7f, 0x00, 0x99,
  0x24, 0x7f, 0x00, 0x99, 0x2a, 0x74, 0x00, 0x99, 0x3c, 0x53, 0x18, 0x89,
  0x24, 0x7f, 0x00, 0x89, 0x2a, 0x74, 0x00, 0x89, 0x3c, 0x53, 0x0a, 0x81,
  0x1d, 0x7f, 0x0e, 0x95, 0x38, 0x7f, 0x10, 0x85, 0x38, 0x7f, 0x20, 0x91,
  0x1d, 0x7f, 0x00, 0x99, 0x2a, 0x47, 0x18, 0x89, 0x2a, 0x47, 0x0a, 0x81,
  0x1d, 0x7f, 0x0e, 0x91, 0x1d, 0x7f, 0x00, 0x99, 0x2a, 0x47, 0x00, 0x99,
  0x3e, 0x53, 0x14, 0x86, 0x3f, 0x7f, 0x04, 0x89, 0x2a, 0x47, 0x00, 0x89,
  0x3e, 0x53, 0x0a, 0x81, 0x1d, 0x7f, 0x04, 0x82, 0x3f, 0x7f, 0x00, 0x82,
  0x3c, 0x7f, 0x02, 0x82, 0x38, 0x7f, 0x08, 0x80, 0x3f, 0x7f, 0x00, 0x80,
  0x3c, 0x7f, 0x00, 0x80, 0x38, 0x7f, 0x00, 0x90, 0x41, 0x7f, 0x00, 0x90,
  0x3d, 0x7f, 0x00, 0x90, 0x38, 0x7f, 0x00, 0x92, 0x41, 0x7f, 0x00, 0x92,
  0x3d, 0x7f, 0x00, 0x95, 0x38, 0x7f, 0x00, 0x96, 0x3d, 0x7f, 0x00, 0x99,
  0x24, 0x7f, 0x00, 0x99, 0x26, 0x7c, 0x00, 0x99, 0x2a, 0x74, 0x00, 0x99,
  0x3c, 0x53, 0x00, 0x99, 0x27, 0x64, 0x10, 0x85, 0x38, 0x7f, 0x08, 0x89,
  0x24, 0x7f, 0x00, 0x89, 0x26, 0x7c, 0x00, 0x89, 0x2a, 0x74, 0x00, 0x89,
  0x3c, 0x53, 0x00, 0x89, 0x27, 0x64, 0x18, 0x91, 0x24, 0x7f, 0x22, 0x81,
  0x24, 0x7f, 0x0e, 0x91, 0x22, 0x7f, 0x00, 0x99, 0x2e, 0x44, 0x00, 0x99,
  0x3d, 0x53, 0x18, 0x89, 0x2e, 0x44, 0x00, 0x89, 0x3d, 0x53, 0x0a, 0x81,
  0x22, 0x7f, 0x0e, 0x95, 0x35, 0x7f, 0x10, 0x85, 0x35, 0x7f, 0x20, 0x94,
  0x55, 0x7f, 0x00, 0x94, 0x50, 0x7f, 0x00, 0x94, 0x44, 0x7f, 0x00, 0x95,
  0x38, 0x7f, 0x00, 0x99, 0x24, 0x7f, 0x00, 0x99, 0x2a, 0x74, 0x00, 0x99,
  0x3c, 0x53, 0x10, 0x85, 0x38, 0x7f, 0x02, 0x84, 0x55, 0x7f, 0x00, 0x86,
  0x3d, 0x7f, 0x02, 0x84, 0x44, 0x7f, 0x04, 0x89, 0x24, 0x7f, 0x00, 0x89,
  0x2a, 0x74, 0x00, 0x89, 0x3c, 0x53, 0x08, 0x84, 0x50, 0x7f, 0x10, 0x94,
  0x55, 0x7f, 0x00, 0x94, 0x50, 0x7f, 0x00, 0x94, 0x44, 0x7f, 0x16, 0x84,
  0x55, 0x7f, 0x04, 0x84, 0x50, 0x7f, 0x04, 0x84, 0x44, 0x7f, 0x12, 0x91,
  0x20, 0x7f, 0x00, 0x95, 0x38, 0x7f, 0x00, 0x99, 0x2a, 0x3d, 0x10, 0x85,
  0x38, 0x7f, 0x08, 0x89, 0x2a, 0x3d, 0x0a, 0x81, 0x20, 0x7f, 0x0e, 0x94,
  0x55, 0x7f, 0x00, 0x94, 0x50, 0x7f, 0x00, 0x94, 0x44, 0x7f, 0x00, 0x99,
  0x2a, 0x64, 0x00, 0x99, 0x3e, 0x53, 0x0e, 0x84, 0x50, 0x7f, 0x06, 0x84,
  0x55, 0x7f, 0x02, 0x84, 0x44, 0x7f, 0x02, 0x89, 0x2a, 0x64, 0x00, 0x89,
  0x3e, 0x53, 0x18, 0x91, 0x25, 0x63, 0x00, 0x94, 0x55, 0x7f, 0x00, 0x94,
  0x50, 0x7f, 0x00, 0x94, 0x44, 0x7f, 0x00, 0x99, 0x24, 0x7f, 0x00, 0x99,
  0x26, 0x7d, 0x00, 0x99, 0x2a, 0x74, 0x00, 0x99, 0x3c, 0x53, 0x00, 0x99,
  0x27, 0x7d, 0x16, 0x84, 0x55, 0x7f, 0x00, 0x84, 0x50, 0x7f, 0x02, 0x84,
  0x44, 0x7f, 0x00, 0x89, 0x24, 0x7f, 0x00, 0x89, 0x26, 0x7d, 0x00, 0x89,
  0x2a, 0x74, 0x00, 0x89, 0x3c, 0x53, 0x00, 0x89, 0x27, 0x7d, 0x0a, 0x81,
  0x25, 0x63, 0x0e, 0x91, 0x22, 0x75, 0x00, 0x94, 0x55, 0x7f, 0x00, 0x94,
  0x50, 0x7f, 0x00, 0x94, 0x44, 0x7f, 0x00, 0x95, 0x38, 0x7f, 0x00, 0x99,
  0x27, 0x69, 0x10, 0x85, 0x38, 0x7f, 0x06, 0x84, 0x55, 0x7f, 0x00, 0x84,
  0x50, 0x7f, 0x02, 0x89, 0x27, 0x69, 0x02, 0x84, 0x44, 0x7f, 0x08, 0x81,
  0x22, 0x75, 0x0e, 0x94, 0x55, 0x7f, 0x00, 0x94, 0x50, 0x7f, 0x00, 0x94,
  0x44, 0x7f, 0x00, 0x99, 0x2e, 0x5f, 0x00, 0x99, 0x3d, 0x53, 0x00, 0x99,
  0x27, 0x55, 0x06, 0xe6, 0x4f, 0x3a, 0x10, 0x84, 0x55, 0x7f, 0x02, 0x84,
  0x50, 0x7f, 0x00, 0x84, 0x44, 0x7f, 0x00, 0x89, 0x2e, 0x5f, 0x00, 0x89,
  0x3d, 0x53, 0x00, 0x89, 0x27, 0x55, 0x02, 0x82, 0x41, 0x7f, 0x06, 0xe6,
  0x04, 0x3c, 0x02, 0x82, 0x44, 0x7f, 0x04, 0x82, 0x3d, 0x7f, 0x02, 0xe6,
  0x0c, 0x3f, 0x08, 0x91, 0x25, 0x63, 0x00, 0x94, 0x55, 0x7f, 0x00, 0x94,
  0x50, 0x7f, 0x00, 0x94, 0x44, 0x7f, 0x00, 0x95, 0x38, 0x7f, 0x00, 0x99,
  0x27, 0x41, 0x00, 0xe6, 0x70, 0x3f, 0x04, 0xe6, 0x00, 0x40, 0x06, 0x83,
  0x50, 0x7f, 0x06, 0x85, 0x38, 0x7f, 0x08, 0x89, 0x27, 0x41, 0x02, 0x84,
  0x55, 0x7f, 0x00, 0x84, 0x44, 0x7f, 0x02, 0x84, 0x50, 0x7f, 0x06, 0x81,
  0x25, 0x63, 0x0e, 0x80, 0x41, 0x7f, 0x00, 0x80, 0x3d, 0x7f, 0x00, 0x80,
  0x38, 0x7f, 0x00, 0x90, 0x41, 0x7f, 0x00, 0x90, 0x3d, 0x7f, 0x00, 0x90,
  0x3a, 0x7f, 0x00, 0x90, 0x36, 0x7f, 0x00, 0x91, 0x1b, 0x7f, 0x00, 0x92,
  0x42, 0x7f, 0x00, 0x92, 0x3d, 0x7f, 0x00, 0x92, 0x3a, 0x7f, 0x00, 0x93,
  0x55, 0x7f, 0x00, 0x96, 0x41, 0x7f, 0x00, 0x99, 0x24, 0x7f, 0x00, 0x99,
  0x2a, 0x70, 0x00, 0x99, 0x3c, 0x53, 0x18, 0x89, 0x24, 0x7f, 0x00, 0x89,
  0x2a, 0x70, 0x00, 0x89, 0x3c, 0x53, 0x0a, 0x81, 0x1b, 0x7f, 0x0e, 0x95,
  0x38, 0x7f, 0x10, 0x85, 0x38, 0x7f, 0x20, 0x91, 0x1b, 0x7f, 0x00, 0x99,
  0x2a, 0x36, 0x08, 0x86, 0x41, 0x7f, 0x10, 0x89, 0x2a, 0x36, 0x0a, 0x81,
  0x1b, 0x7f, 0x0e, 0x91, 0x1b, 0x7f, 0x00, 0x96, 0x41, 0x7f, 0x00, 0x99,
  0x2a, 0x64, 0x00, 0x99, 0x3e, 0x53, 0x18, 0x89, 0x2a, 0x64, 0x00, 0x89,
  0x3e, 0x53, 0x0a, 0x81, 0x1b, 0x7f, 0x0e, 0x95, 0x38, 0x7f, 0x00, 0x99,
  0x24, 0x7f, 0x00, 0x99, 0x26, 0x70, 0x00, 0x99, 0x2a, 0x74, 0x00, 0x99,
  0x3c, 0x53, 0x00, 0x99, 0x27, 0x64, 0x10, 0x85, 0x38, 0x7f, 0x08, 0x89,
  0x24, 0x7f, 0x00, 0x89, 0x26, 0x70, 0x00, 0x89, 0x2a, 0x74, 0x00, 0x89,
  0x3c, 0x53, 0x00, 0x89, 0x27, 0x64, 0x18, 0x91, 0x24, 0x7f, 0x04, 0x86,
  0x41, 0x7f, 0x1c, 0x82, 0x3d, 0x7f, 0x02, 0x81, 0x24, 0x7f, 0x00, 0x83,
  0x55, 0x7f, 0x08, 0x82, 0x3a, 0x7f, 0x06, 0x80, 0x41, 0x7f, 0x00, 0x80,
  0x3d, 0x7f, 0x00, 0x80, 0x3a, 0x7f, 0x00, 0x80, 0x36, 0x7f, 0x00, 0x90,
  0x3f, 0x7f, 0x00, 0x90, 0x3c, 0x7f, 0x00, 0x90, 0x38, 0x7f, 0x00, 0x91,
  0x22, 0x7f, 0x00, 0x92, 0x44, 0x7f, 0x00, 0x92, 0x3f, 0x7f, 0x00, 0x92,
  0x3c, 0x7f, 0x00, 0x93, 0x57, 0x7f, 0x00, 0x96, 0x3f, 0x7f, 0x00, 0x99,
  0x2a, 0x28, 0x00, 0x99, 0x3d, 0x53, 0x14, 0x82, 0x42, 0x7f, 0x04, 0x89,
  0x2a, 0x28, 0x00, 0x89, 0x3d, 0x53, 0x0a, 0x81, 0x22, 0x7f, 0x0e, 0x95,
  0x35, 0x7f, 0x00, 0x99, 0x2a, 0x53, 0x10, 0x85, 0x35, 0x7f, 0x08, 0x89,
  0x2a, 0x53, 0x18, 0x91, 0x20, 0x7f, 0x00, 0x95, 0x38, 0x7f, 0x00, 0x99,
  0x24, 0x7f, 0x00, 0x99, 0x2a, 0x74, 0x00, 0x99, 0x3c, 0x53, 0x10, 0x85,
  0x38, 0x7f, 0x08, 0x89, 0x24, 0x7f, 0x00, 0x89, 0x2a, 0x74, 0x00, 0x89,
  0x3c, 0x53, 0x0a, 0x81, 0x20, 0x7f, 0x20, 0x86, 0x3f, 0x7f, 0x1e, 0x91,
  0x20, 0x7f, 0x00, 0x99, 0x2a, 0x30, 0x18, 0x89, 0x2a, 0x30, 0x0a, 0x81,
  0x20, 0x7f, 0x0e, 0x95, 0x38, 0x7f, 0x00, 0x99, 0x2a, 0x47, 0x00, 0x99,
  0x3e, 0x53, 0x10, 0x85, 0x38, 0x7f, 0x08, 0x89, 0x2a, 0x47, 0x00, 0x89,
  0x3e, 0x53, 0x18, 0x96, 0x38, 0x7f, 0x00, 0x99, 0x24, 0x7f, 0x00, 0x99,
  0x26, 0x7c, 0x00, 0x99, 0x2a, 0x74, 0x00, 0x99, 0x3c, 0x53, 0x00, 0x99,
  0x27, 0x74, 0x18, 0x89, 0x24, 0x7f, 0x00, 0x89, 0x26, 0x7c, 0x00, 0x89,
  0x2a, 0x74, 0x00, 0x89, 0x3c, 0x53, 0x00, 0x89, 0x27, 0x74, 0x02, 0x86,
  0x38, 0x7f, 0x16, 0x96, 0x3a, 0x7f, 0x14, 0x86, 0x3a, 0x7f, 0x14, 0xe6,
  0x47, 0x3d, 0x08, 0x91, 0x1b, 0x7f, 0x00, 0x93, 0x50, 0x7f, 0x00, 0x95,
  0x35, 0x7f, 0x00, 0xe6, 0x10, 0x3b, 0x00, 0x96, 0x3d, 0x7f, 0x00, 0x99,
  0x2a, 0x0d, 0x00, 0x99, 0x3d, 0x53, 0x04, 0x83, 0x57, 0x7f, 0x02, 0xe6,
  0x4f, 0x3a, 0x0a, 0x85, 0x35, 0x7f, 0x08, 0x89, 0x2a, 0x0d, 0x00, 0x89,
  0x3d, 0x53, 0x02, 0xe6, 0x46, 0x3c, 0x04, 0x86, 0x3d, 0x7f, 0x04, 0x81,
  0x1b, 0x7f, 0x00, 0xe6, 0x2f, 0x3f, 0x08, 0xe6, 0x70, 0x3f, 0x04, 0xe6,
  0x00, 0x40, 0x02, 0x91, 0x20, 0x7f, 0x00, 0x95, 0x38, 0x7f, 0x00, 0x96,
  0x3a, 0x7f, 0x00, 0x99, 0x2a, 0x47, 0x10, 0x85, 0x38, 0x7f, 0x04, 0x86,
  0x3a, 0x7f, 0x04, 0x89, 0x2a, 0x47, 0x0a, 0x81, 0x20, 0x7f, 0x0e, 0x80,
  0x3f, 0x7f, 0x00, 0x80, 0x3c, 0x7f, 0x00, 0x80, 0x38, 0x7f, 0x00, 0x90,
  0x3f, 0x7f, 0x00, 0x90, 0x3c, 0x7f, 0x00, 0x90, 0x38, 0x7f, 0x00, 0x91,
  0x1d, 0x7f, 0x00, 0x93, 0x57, 0x7f, 0x00, 0x96, 0x3f, 0x7f, 0x00, 0x99,
  0x24, 0x7f, 0x00, 0x99, 0x2a, 0x64, 0x00, 0x99, 0x3c, 0x53, 0x02, 0x83,
  0x50, 0x7f, 0x16, 0x89, 0x24, 0x7f, 0x00, 0x89, 0x2a, 0x64, 0x00, 0x89,
  0x3c, 0x53, 0x0a, 0x81, 0x1d, 0x7f, 0x0e, 0x95, 0x38, 0x7f, 0x10, 0x85,
  0x38, 0x7f, 0x20, 0x91, 0x1d, 0x7f, 0x00, 0x99, 0x2a, 0x36, 0x12, 0x86,
  0x3f, 0x7f, 0x06, 0x89, 0x2a, 0x36, 0x0a, 0x81, 0x1d, 0x7f, 0x0e, 0x91,
  0x24, 0x7f, 0x00, 0x96, 0x3f, 0x7f, 0x00, 0x99, 0x2a, 0x53, 0x00, 0x99,
  0x3e, 0x53, 0x18, 0x89, 0x2a, 0x53, 0x00, 0x89, 0x3e, 0x53, 0x0a, 0x81,
  0x24, 0x7f, 0x08, 0xe6, 0x5e, 0x3e, 0x06, 0x95, 0x38, 0x7f, 0x00, 0x99,
  0x24, 0x7f, 0x00, 0x99, 0x26, 0x70, 0x00, 0x99, 0x2a, 0x74, 0x00, 0x99,
  0x3c, 0x53, 0x00, 0x99, 0x27, 0x74, 0x00, 0xe6, 0x22, 0x3b, 0x06, 0xe6,
  0x4f, 0x3a, 0x0a, 0x85, 0x38, 0x7f, 0x04, 0xe6, 0x16, 0x3c, 0x04, 0x89,
  0x24, 0x7f, 0x00, 0x89, 0x26, 0x70, 0x00, 0x89, 0x2a, 0x74, 0x00, 0x89,
  0x3c, 0x53, 0x00, 0x89, 0x27, 0x74, 0x04, 0xe6, 0x2a, 0x3e, 0x06, 0xe6,
  0x70, 0x3f, 0x08, 0xe6, 0x00, 0x40, 0x06, 0x91, 0x24, 0x7f, 0x06, 0x86,
  0x3f, 0x7f, 0x1a, 0x82, 0x3f, 0x7f, 0x02, 0x81, 0x24, 0x7f, 0x06, 0x82,
  0x3c, 0x7f, 0x08, 0x80, 0x3f, 0x7f, 0x00, 0x80, 0x3c, 0x7f, 0x00, 0x80,
  0x38, 0x7f, 0x00, 0x90, 0x41, 0x7f, 0x00, 0x90, 0x3d, 0x7f, 0x00, 0x90,
  0x3a, 0x7f, 0x00, 0x91, 0x22, 0x7f, 0x00, 0x92, 0x41, 0x7f, 0x00, 0x92,
  0x3d, 0x7f, 0x00, 0x93, 0x59, 0x7f, 0x00, 0x96, 0x3d, 0x7f, 0x00, 0x99,
  0x2a, 0x36, 0x00, 0x99, 0x3d, 0x53, 0x02, 0x83, 0x57, 0x7f, 0x16, 0x89,
  0x2a, 0x36, 0x00, 0x89, 0x3d, 0x53, 0x0a, 0x81, 0x22, 0x7f, 0x0e, 0x95,
  0x35, 0x7f, 0x00, 0x99, 0x2a, 0x47, 0x10, 0x85, 0x35, 0x7f, 0x08, 0x89,
  0x2a, 0x47, 0x18, 0x95, 0x38, 0x7f, 0x00, 0x99, 0x24, 0x7f, 0x00, 0x99,
  0x2a, 0x64, 0x00, 0x99, 0x3c, 0x53, 0x0e, 0x86, 0x3d, 0x7f, 0x02, 0x85,
  0x38, 0x7f, 0x08, 0x89, 0x24, 0x7f, 0x00, 0x89, 0x2a, 0x64, 0x00, 0x89,
  0x3c, 0x53, 0x18, 0x96, 0x3c, 0x68, 0x1c, 0x86, 0x3c, 0x68, 0x14, 0x91,
  0x22, 0x7f, 0x00, 0x95, 0x38, 0x7f, 0x00, 0x96, 0x3a, 0x78, 0x00, 0x99,
  0x2a, 0x47, 0x10, 0x85, 0x38, 0x7f, 0x08, 0x89, 0x2a, 0x47, 0x0a, 0x81,
  0x22, 0x7f, 0x0e, 0x91, 0x22, 0x7f, 0x00, 0x99, 0x2a, 0x47, 0x00, 0x99,
  0x3e, 0x53, 0x18, 0x89, 0x2a, 0x47, 0x00, 0x89, 0x3e, 0x53, 0x06, 0x86,
  0x3a, 0x78, 0x04, 0x81, 0x22, 0x7f, 0x0a, 0x83, 0x59, 0x7f, 0x04, 0x92,
  0x3f, 0x7f, 0x00, 0x92, 0x3c, 0x7f, 0x00, 0x93, 0x5c, 0x7f, 0x00, 0x95,
  0x38, 0x7f, 0x00, 0xb6, 0x01, 0x1c, 0x00, 0x96, 0x38, 0x76, 0x00, 0x99,
  0x24, 0x7f, 0x00, 0x99, 0x26, 0x70, 0x00, 0x99, 0x2a, 0x74, 0x00, 0x99,
  0x3c, 0x53, 0x00, 0x99, 0x27, 0x64, 0x06, 0x82, 0x3d, 0x7f, 0x0a, 0x85,
  0x38, 0x7f, 0x08, 0x86, 0x38, 0x76, 0x00, 0x89, 0x24, 0x7f, 0x00, 0x89,
  0x26, 0x70, 0x00, 0x89, 0x2a, 0x74, 0x00, 0x89, 0x3c, 0x53, 0x00, 0x89,
  0x27, 0x64, 0x0a, 0x82, 0x41, 0x7f, 0x0e, 0x91, 0x24, 0x7f, 0x00, 0x93,
  0x5a, 0x7f, 0x00, 0x95, 0x3a, 0x7f, 0x00, 0xb6, 0x01, 0x00, 0x00, 0x96,
  0x3a, 0x7e, 0x02, 0x83, 0x5c, 0x7f, 0x0e, 0x85, 0x3a, 0x7f, 0x04, 0x86,
  0x3a, 0x7e, 0x0e, 0x81, 0x24, 0x7f, 0x0e, 0x91, 0x22, 0x7f, 0x00, 0x93,
  0x59, 0x7f, 0x00, 0x96, 0x3d, 0x7e, 0x00, 0x99, 0x2e, 0x44, 0x00, 0x99,
  0x3d, 0x53, 0x02, 0x83, 0x5a, 0x7f, 0x16, 0x89, 0x2e, 0x44, 0x00, 0x89,
  0x3d, 0x53, 0x04, 0x86, 0x3d, 0x7e, 0x06, 0x81, 0x22, 0x7f, 0x0e, 0x93,
  0x55, 0x7f, 0x00, 0x96, 0x3a, 0x78, 0x08, 0x83, 0x59, 0x7f, 0x0a, 0x86,
  0x3a, 0x78, 0x0c, 0x82, 0x3c, 0x7f, 0x12, 0x80, 0x41, 0x7f, 0x00, 0x80,
  0x3d, 0x7f, 0x00, 0x80, 0x3a, 0x7f, 0x00, 0x82, 0x3f, 0x7f, 0x00, 0x90,
  0x41, 0x7f, 0x00, 0x90, 0x3d, 0x7f, 0x00, 0x90, 0x3a, 0x7f, 0x00, 0x90,
  0x36, 0x7f, 0x00, 0x91, 0x1b, 0x7f, 0x00, 0x92, 0x42, 0x7f, 0x00, 0x92,
  0x3d, 0x7f, 0x00, 0x92, 0x3a, 0x7f, 0x00, 0x96, 0x3d, 0x7e, 0x00, 0x99,
  0x24, 0x7f, 0x00, 0x99, 0x2a, 0x74, 0x00, 0x99, 0x3c, 0x53, 0x04, 0x82,
  0x44, 0x7f, 0x14, 0x89, 0x24, 0x7f, 0x00, 0x89, 0x2a, 0x74, 0x00, 0x89,
  0x3c, 0x53, 0x0a, 0x81, 0x1b, 0x7f, 0x0e, 0x95, 0x38, 0x7f, 0x10, 0x85,
  0x38, 0x7f, 0x20, 0x91, 0x1b, 0x7f, 0x00, 0x99, 0x2a, 0x2c, 0x18, 0x89,
  0x2a, 0x2c, 0x0a, 0x81, 0x1b, 0x7f, 0x0e, 0x91, 0x24, 0x7f, 0x00, 0x99,
  0x2a, 0x64, 0x00, 0x99, 0x3e, 0x53, 0x0a, 0x86, 0x3d, 0x7e, 0x0a, 0xe6,
  0x4c, 0x3e, 0x04, 0x89, 0x2a, 0x64, 0x00, 0x89, 0x3e, 0x53, 0x06, 0xe6,
  0x46, 0x3c, 0x04, 0x81, 0x24, 0x7f, 0x02, 0xe6, 0x7f, 0x3a, 0x06, 0xe6,
  0x60, 0x3a, 0x06, 0x95, 0x38, 0x7f, 0x00, 0xb6, 0x01, 0x21, 0x00, 0x96,
  0x3f, 0x76, 0x00, 0x99, 0x24, 0x7f, 0x00, 0x99, 0x26, 0x7c, 0x00, 0x99,
  0x2a, 0x74, 0x00, 0x99, 0x3c, 0x53, 0x00, 0x99, 0x27, 0x64, 0x04, 0xe6,
  0x46, 0x3c, 0x0a, 0xe6, 0x3c, 0x3f, 0x02, 0x85, 0x38, 0x7f, 0x06, 0xe6,
  0x70, 0x3f, 0x02, 0x89, 0x24, 0x7f, 0x00, 0x89, 0x26, 0x7c, 0x00, 0x89,
  0x2a, 0x74, 0x00, 0x89, 0x3c, 0x53, 0x00, 0x89, 0x27, 0x64, 0x02, 0xe6,
  0x00, 0x40, 0x10, 0x86, 0x3f, 0x76, 0x06, 0x91, 0x24, 0x7f, 0x22, 0x81,
  0x24, 0x7f, 0x08, 0x82, 0x3d, 0x7f, 0x06, 0x80, 0x41, 0x7f, 0x00, 0x80,
  0x3d, 0x7f, 0x00, 0x80, 0x3a, 0x7f, 0x00, 0x80, 0x36, 0x7f, 0x00, 0x90,
  0x3f, 0x7f, 0x00, 0x90, 0x3c, 0x7f, 0x00, 0x90, 0x38, 0x7f, 0x00, 0x91,
  0x22, 0x7f, 0x00, 0x92, 0x44, 0x7f, 0x00, 0x92, 0x3f, 0x7f, 0x00, 0x92,
  0x3c, 0x7f, 0x00, 0x93, 0x57, 0x7f, 0x00, 0xb6, 0x01, 0x00, 0x00, 0x96,
  0x3c, 0x7e, 0x00, 0x99, 0x2a, 0x21, 0x00, 0x99, 0x3d, 0x53, 0x0a, 0x83,
  0x55, 0x7f, 0x02, 0x82, 0x3a, 0x7f, 0x0c, 0x89, 0x2a, 0x21, 0x00, 0x89,
  0x3d, 0x53, 0x0a, 0x81, 0x22, 0x7f, 0x02, 0x82, 0x42, 0x7f, 0x0c, 0x95,
  0x35, 0x7f, 0x00, 0x99, 0x2a, 0x53, 0x10, 0x85, 0x35, 0x7f, 0x08, 0x89,
  0x2a, 0x53, 0x18, 0x91, 0x20, 0x7f, 0x00, 0x95, 0x38, 0x7f, 0x00, 0x99,
  0x24, 0x7f, 0x00, 0x99, 0x2a, 0x74, 0x00, 0x99, 0x3c, 0x53, 0x10, 0x85,
  0x38, 0x7f, 0x08, 0x89, 0x24, 0x7f, 0x00, 0x89, 0x2a, 0x74, 0x00, 0x89,
  0x3c, 0x53, 0x02, 0x86, 0x3c, 0x7e, 0x08, 0x81, 0x20, 0x7f, 0x0e, 0x96,
  0x3a, 0x66, 0x16, 0x86, 0x3a, 0x66, 0x1a, 0x91, 0x20, 0x7f, 0x00, 0x95,
  0x38, 0x7f, 0x00, 0x96, 0x38, 0x7f, 0x00, 0x99, 0x2a, 0x47, 0x10, 0x85,
  0x38, 0x7f, 0x08, 0x89, 0x2a, 0x47, 0x0a, 0x81, 0x20, 0x7f, 0x0e, 0x99,
  0x2a, 0x53, 0x00, 0x99, 0x3e, 0x53, 0x18, 0x89, 0x2a, 0x53, 0x00, 0x89,
  0x3e, 0x53, 0x10, 0x83, 0x57, 0x7f, 0x08, 0x93, 0x50, 0x7f, 0x00, 0x99,
  0x24, 0x7f, 0x00, 0x99, 0x26, 0x70, 0x00, 0x99, 0x2a, 0x7f, 0x00, 0x99,
  0x3c, 0x53, 0x00, 0x99, 0x27, 0x74, 0x18, 0x89, 0x24, 0x7f, 0x00, 0x89,
  0x26, 0x70, 0x00, 0x89, 0x2a, 0x7f, 0x00, 0x89, 0x3c, 0x53, 0x00, 0x89,
  0x27, 0x74, 0x20, 0x86, 0x38, 0x7f, 0x12, 0xe6, 0x3c, 0x3f, 0x04, 0xe6,
  0x04, 0x3c, 0x08, 0xe6, 0x4f, 0x3a, 0x0a, 0x91, 0x1b, 0x7f, 0x00, 0x95,
  0x33, 0x7f, 0x00, 0xb6, 0x01, 0x3d, 0x00, 0x96, 0x38, 0x7f, 0x00, 0x99,
  0x2a, 0x30, 0x00, 0x99, 0x3d, 0x53, 0x0a, 0xe6, 0x46, 0x3c, 0x06, 0x85,
  0x33, 0x7f, 0x02, 0xe6, 0x1e, 0x3f, 0x06, 0x89, 0x2a, 0x30, 0x00, 0x89,
  0x3d, 0x53, 0x00, 0xe6, 0x5f, 0x3f, 0x02, 0xe6, 0x00, 0x40, 0x08, 0x81,
  0x1b, 0x7f, 0x0a, 0x86, 0x38, 0x7f, 0x04, 0x91, 0x1b, 0x7f, 0x00, 0x95,
  0x35, 0x7f, 0x00, 0x99, 0x2a, 0x3d, 0x10, 0x85, 0x35, 0x7f, 0x08, 0x89,
  0x2a, 0x3d, 0x0a, 0x81, 0x1b, 0x7f, 0x0e, 0x80, 0x3f, 0x7f, 0x00, 0x80,
  0x3c, 0x7f, 0x00, 0x80, 0x38, 0x7f, 0x00, 0x90, 0x3f, 0x7f, 0x00, 0x90,
  0x3c, 0x7f, 0x00, 0x90, 0x38, 0x7f, 0x00, 0x91, 0x1d, 0x7f, 0x00, 0x92,
  0x38, 0x7f, 0x00, 0xb6, 0x01, 0x00, 0x00, 0x96, 0x3f, 0x7f, 0x00, 0x99,
  0x24, 0x7f, 0x00, 0x99, 0x2a, 0x74, 0x00, 0x99, 0x3c, 0x53, 0x18, 0x89,
  0x24, 0x7f, 0x00, 0x89, 0x2a, 0x74, 0x00, 0x89, 0x3c, 0x53, 0x0a, 0x81,
  0x1d, 0x7f, 0x0e, 0x95, 0x38, 0x7f, 0x10, 0x85, 0x38, 0x7f, 0x16, 0x86,
  0x3f, 0x7f, 0x0a, 0x91, 0x1d, 0x7f, 0x00, 0x96, 0x3d, 0x70, 0x00, 0x99,
  0x2a, 0x47, 0x18, 0x89, 0x2a, 0x47, 0x0a, 0x81, 0x1d, 0x7f, 0x0e, 0x91,
  0x1d, 0x7f, 0x00, 0x99, 0x2a, 0x47, 0x00, 0x99, 0x3e, 0x53, 0x16, 0x86,
  0x3d, 0x70, 0x02, 0x89, 0x2a, 0x47, 0x00, 0x89, 0x3e, 0x53, 0x0a, 0x81,
  0x1d, 0x7f, 0x04, 0x82, 0x3f, 0x7f, 0x00, 0x82, 0x3c, 0x7f, 0x02, 0x82,
  0x38, 0x7f, 0x08, 0x92, 0x41, 0x7f, 0x00, 0x92, 0x3d, 0x7f, 0x00, 0x95,
  0x38, 0x7f, 0x00, 0x96, 0x3d, 0x7f, 0x00, 0x99, 0x24, 0x7f, 0x00, 0x99,
  0x26, 0x7c, 0x00, 0x99, 0x2a, 0x74, 0x00, 0x99, 0x3c, 0x53, 0x00, 0x99,
  0x27, 0x64, 0x10, 0x85, 0x38, 0x7f, 0x08, 0x89, 0x24, 0x7f, 0x00, 0x89,
  0x26, 0x7c, 0x00, 0x89, 0x2a, 0x74, 0x00, 0x89, 0x3c, 0x53, 0x00, 0x89,
  0x27, 0x64, 0x18, 0x91, 0x24, 0x7f, 0x22, 0x81, 0x24, 0x7f, 0x0e, 0x80,
  0x3f, 0x7f, 0x00, 0x80, 0x3c, 0x7f, 0x00, 0x80, 0x38, 0x7f, 0x00, 0x90,
  0x41, 0x7f, 0x00, 0x90, 0x3d, 0x7f, 0x00, 0x90, 0x3a, 0x7f, 0x00, 0x91,
  0x22, 0x7f, 0x00, 0x99, 0x2e, 0x44, 0x00, 0x99, 0x3d, 0x53, 0x18, 0x89,
  0x2e, 0x44, 0x00, 0x89, 0x3d, 0x53, 0x0a, 0x81, 0x22, 0x7f, 0x0e, 0x95,
  0x35, 0x7f, 0x10, 0x85, 0x35, 0x7f, 0x10, 0x86, 0x3d, 0x7f, 0x10, 0x94,
  0x50, 0x7f, 0x00, 0x94, 0x44, 0x7f, 0x00, 0x95, 0x38, 0x7f, 0x00, 0x99,
  0x24, 0x7f, 0x00, 0x99, 0x2a, 0x74, 0x00, 0x99, 0x3c, 0x53, 0x10, 0x85,
  0x38, 0x7f, 0x04, 0x84, 0x44, 0x7f, 0x04, 0x89, 0x24, 0x7f, 0x00, 0x89,
  0x2a, 0x74, 0x00, 0x89, 0x3c, 0x53, 0x08, 0x84, 0x50, 0x7f, 0x10, 0x94,
  0x50, 0x7f, 0x00, 0x94, 0x44, 0x7f, 0x1a, 0x84, 0x50, 0x7f, 0x04, 0x84,
  0x44, 0x7f, 0x12, 0x91, 0x20, 0x7f, 0x00, 0x95, 0x38, 0x7f, 0x00, 0x99,
  0x2a, 0x3d, 0x10, 0x85, 0x38, 0x7f, 0x08, 0x89, 0x2a, 0x3d, 0x0a, 0x81,
  0x20, 0x7f, 0x0e, 0x94, 0x50, 0x7f, 0x00, 0x94, 0x44, 0x7f, 0x00, 0x99,
  0x2a, 0x64, 0x00, 0x99, 0x3e, 0x53, 0x0e, 0x84, 0x50, 0x7f, 0x08, 0x84,
  0x44, 0x7f, 0x02, 0x89, 0x2a, 0x64, 0x00, 0x89, 0x3e, 0x53, 0x18, 0x91,
  0x25, 0x7f, 0x00, 0x94, 0x50, 0x7f, 0x00, 0x94, 0x44, 0x7f, 0x00, 0x96,
  0x38, 0x7f, 0x00, 0x99, 0x24, 0x7f, 0x00, 0x99, 0x26, 0x7d, 0x00, 0x99,
  0x2a, 0x74, 0x00, 0x99, 0x3c, 0x53, 0x00, 0x99, 0x27, 0x7d, 0x16, 0x84,
  0x50, 0x7f, 0x02, 0x84, 0x44, 0x7f, 0x00, 0x86, 0x38, 0x7f, 0x00, 0x89,
  0x24, 0x7f, 0x00, 0x89, 0x26, 0x7d, 0x00, 0x89, 0x2a, 0x74, 0x00, 0x89,
  0x3c, 0x53, 0x00, 0x89, 0x27, 0x7d, 0x0a, 0x81, 0x25, 0x7f, 0x0e, 0x91,
  0x22, 0x7f, 0x00, 0x94, 0x52, 0x7f, 0x00, 0x94, 0x46, 0x7f, 0x00, 0x95,
  0x38, 0x7f, 0x00, 0x96, 0x3a, 0x7f, 0x00, 0x99, 0x27, 0x69, 0x10, 0x85,
  0x38, 0x7f, 0x04, 0x86, 0x3a, 0x7f, 0x02, 0x84, 0x52, 0x7f, 0x02, 0x89,
  0x27, 0x69, 0x02, 0x84, 0x46, 0x7f, 0x08, 0x81, 0x22, 0x7f, 0x04, 0xe6,
  0x67, 0x3c, 0x08, 0xe6, 0x4f, 0x3a, 0x02, 0x94, 0x55, 0x7f, 0x00, 0x94,
  0x49, 0x7f, 0x00, 0x96, 0x3d, 0x7f, 0x00, 0x99, 0x2e, 0x5f, 0x00, 0x99,
  0x3d, 0x53, 0x00, 0x99, 0x27, 0x55, 0x14, 0xe6, 0x76, 0x3c, 0x02, 0x84,
  0x55, 0x7f, 0x02, 0x84, 0x49, 0x7f, 0x00, 0x89, 0x2e, 0x5f, 0x00, 0x89,
  0x3d, 0x53, 0x00, 0x89, 0x27, 0x55, 0x02, 0x82, 0x41, 0x7f, 0x02, 0xe6,
  0x2f, 0x3f, 0x02, 0x86, 0x3d, 0x7f, 0x04, 0x82, 0x44, 0x7f, 0x00, 0xe6,
  0x5f, 0x3f, 0x02, 0xe6, 0x00, 0x40, 0x02, 0x82, 0x3d, 0x7f, 0x0a, 0x91,
  0x25, 0x7f, 0x00, 0x94, 0x55, 0x7f, 0x00, 0x94, 0x49, 0x7f, 0x00, 0x95,
  0x38, 0x7f, 0x00, 0x96, 0x3a, 0x7f, 0x00, 0x99, 0x27, 0x41, 0x0a, 0x83,
  0x50, 0x7f, 0x06, 0x85, 0x38, 0x7f, 0x04, 0x86, 0x3a, 0x7f, 0x04, 0x89,
  0x27, 0x41, 0x02, 0x84, 0x55, 0x7f, 0x00, 0x84, 0x49, 0x7f, 0x08, 0x81,
  0x25, 0x7f, 0x0e, 0x80, 0x41, 0x7f, 0x00, 0x80, 0x3d, 0x7f, 0x00, 0x80,
  0x3a, 0x7f, 0x00, 0x90, 0x41, 0x7f, 0x00, 0x90, 0x3d, 0x7f, 0x00, 0x90,
  0x3a, 0x7f, 0x00, 0x90, 0x36, 0x7f, 0x00, 0x91, 0x1b, 0x7f, 0x00, 0x92,
  0x42, 0x7f, 0x00, 0x92, 0x3d, 0x7f, 0x00, 0x92, 0x3a, 0x7f, 0x00, 0x93,
  0x55, 0x7f, 0x00, 0x96, 0x41, 0x7f, 0x00, 0x99, 0x24, 0x7f, 0x00, 0x99,
  0x2a, 0x70, 0x00, 0x99, 0x3c, 0x53, 0x18, 0x89, 0x24, 0x7f, 0x00, 0x89,
  0x2a, 0x70, 0x00, 0x89, 0x3c, 0x53, 0x0a, 0x81, 0x1b, 0x7f, 0x0e, 0x95,
  0x38, 0x7f, 0x10, 0x85, 0x38, 0x7f, 0x20, 0x91, 0x1b, 0x7f, 0x00, 0x99,
  0x2a, 0x36, 0x18, 0x89, 0x2a, 0x36, 0x0a, 0x81, 0x1b, 0x7f, 0x0e, 0x91,
  0x1b, 0x7f, 0x00, 0x99, 0x2a, 0x64, 0x00, 0x99, 0x3e, 0x53, 0x10, 0x86,
  0x41, 0x7f, 0x08, 0x89, 0x2a, 0x64, 0x00, 0x89, 0x3e, 0x53, 0x0a, 0x81,
  0x1b, 0x7f, 0x0e, 0x95, 0x38, 0x7f, 0x00, 0x96, 0x41, 0x7f, 0x00, 0x99,
  0x24, 0x7f, 0x00, 0x99, 0x26, 0x70, 0x00, 0x99, 0x2a, 0x74, 0x00, 0x99,
  0x3c, 0x53, 0x00, 0x99, 0x27, 0x64, 0x10, 0x85, 0x38, 0x7f, 0x08, 0x89,
  0x24, 0x7f, 0x00, 0x89, 0x26, 0x70, 0x00, 0x89, 0x2a, 0x74, 0x00, 0x89,
  0x3c, 0x53, 0x00, 0x89, 0x27, 0x64, 0x18, 0x91, 0x24, 0x7f, 0x12, 0x86,
  0x41, 0x7f, 0x0e, 0x82, 0x3d, 0x7f, 0x02, 0x81, 0x24, 0x7f, 0x00, 0x83,
  0x55, 0x7f, 0x08, 0x82, 0x3a, 0x7f, 0x06, 0x80, 0x41, 0x7f, 0x00, 0x80,
  0x3d, 0x7f, 0x00, 0x80, 0x3a, 0x7f, 0x00, 0x80, 0x36, 0x7f, 0x00, 0x90,
  0x3f, 0x7f, 0x00, 0x90, 0x3c, 0x7f, 0x00, 0x90, 0x38, 0x7f, 0x00, 0x91,
  0x22, 0x7f, 0x00, 0x92, 0x44, 0x7f, 0x00, 0x92, 0x3f, 0x7f, 0x00, 0x92,
  0x3c, 0x7f, 0x00, 0x93, 0x57, 0x7f, 0x00, 0x96, 0x3f, 0x7f, 0x00, 0x99,
  0x2a, 0x28, 0x00, 0x99, 0x3d, 0x53, 0x14, 0x82, 0x42, 0x7f, 0x04, 0x89,
  0x2a, 0x28, 0x00, 0x89, 0x3d, 0x53, 0x0a, 0x81, 0x22, 0x7f, 0x0e, 0x95,
  0x35, 0x7f, 0x00, 0x99, 0x2a, 0x53, 0x10, 0x85, 0x35, 0x7f, 0x08, 0x89,
  0x2a, 0x53, 0x18, 0x91, 0x20, 0x7f, 0x00, 0x95, 0x38, 0x7f, 0x00, 0x99,
  0x24, 0x7f, 0x00, 0x99, 0x2a, 0x74, 0x00, 0x99, 0x3c, 0x53, 0x10, 0x85,
  0x38, 0x7f, 0x08, 0x89, 0x24, 0x7f, 0x00, 0x89, 0x2a, 0x74, 0x00, 0x89,
  0x3c, 0x53, 0x0a, 0x81, 0x20, 0x7f, 0x30, 0x86, 0x3f, 0x7f, 0x0e, 0x91,
  0x20, 0x7f, 0x00, 0x99, 0x2a, 0x30, 0x18, 0x89, 0x2a, 0x30, 0x0a, 0x81,
  0x20, 0x7f, 0x0e, 0x95, 0x38, 0x7f, 0x00, 0x99, 0x2a, 0x47, 0x00, 0x99,
  0x3e, 0x53, 0x10, 0x85, 0x38, 0x7f, 0x08, 0x89, 0x2a, 0x47, 0x00, 0x89,
  0x3e, 0x53, 0x18, 0x96, 0x38, 0x7f, 0x00, 0x99, 0x24, 0x7f, 0x00, 0x99,
  0x26, 0x7c, 0x00, 0x99, 0x2a, 0x74, 0x00, 0x99, 0x3c, 0x53, 0x00, 0x99,
  0x27, 0x74, 0x18, 0x86, 0x38, 0x7f, 0x00, 0x89, 0x24, 0x7f, 0x00, 0x89,
  0x26, 0x7c, 0x00, 0x89, 0x2a, 0x74, 0x00, 0x89, 0x3c, 0x53, 0x00, 0x89,
  0x27, 0x74, 0x18, 0x96, 0x3a, 0x78, 0x12, 0x86, 0x3a, 0x78, 0x14, 0xe6,
  0x3c, 0x3f, 0x04, 0xe6, 0x23, 0x3c, 0x06, 0x91, 0x1b, 0x7f, 0x00, 0x93,
  0x50, 0x7f, 0x00, 0x95, 0x35, 0x7f, 0x00, 0xb6, 0x01, 0x2b, 0x00, 0x96,
  0x3d, 0x76, 0x00, 0x99, 0x2a, 0x0d, 0x00, 0x99, 0x3d, 0x53, 0x02, 0xe6,
  0x60, 0x3a, 0x02, 0x83, 0x57, 0x7f, 0x04, 0xe6, 0x4f, 0x3a, 0x08, 0x85,
  0x35, 0x7f, 0x00, 0xe6, 0x10, 0x3b, 0x06, 0xe6, 0x46, 0x3c, 0x02, 0x89,
  0x2a, 0x0d, 0x00, 0x89, 0x3d, 0x53, 0x06, 0xe6, 0x3b, 0x3e, 0x02, 0x86,
  0x3d, 0x76, 0x02, 0x81, 0x1b, 0x7f, 0x02, 0xe6, 0x70, 0x3f, 0x06, 0xe6,
  0x00, 0x40, 0x06, 0x91, 0x20, 0x7f, 0x00, 0x95, 0x38, 0x7f, 0x00, 0xb6,
  0x01, 0x00, 0x00, 0x96, 0x3a, 0x63, 0x00, 0x99, 0x2a, 0x47, 0x08, 0x86,
  0x3a, 0x63, 0x08, 0x85, 0x38, 0x7f, 0x08, 0x89, 0x2a, 0x47, 0x0a, 0x81,
  0x20, 0x7f, 0x0e, 0x80, 0x3f, 0x7f, 0x00, 0x80, 0x3c, 0x7f, 0x00, 0x80,
  0x38, 0x7f, 0x00, 0x90, 0x3f, 0x7f, 0x00, 0x90, 0x3c, 0x7f, 0x00, 0x90,
  0x38, 0x7f, 0x00, 0x91, 0x1d, 0x7f, 0x00, 0x93, 0x57, 0x7f, 0x00, 0x96,
  0x44, 0x7f, 0x00, 0x99, 0x24, 0x7f, 0x00, 0x99, 0x2a, 0x64, 0x00, 0x99,
  0x3c, 0x53, 0x02, 0x83, 0x50, 0x7f, 0x16, 0x89, 0x24, 0x7f, 0x00, 0x89,
  0x2a, 0x64, 0x00, 0x89, 0x3c, 0x53, 0x0a, 0x81, 0x1d, 0x7f, 0x0e, 0x95,
  0x38, 0x7f, 0x10, 0x85, 0x38, 0x7f, 0x20, 0x91, 0x1d, 0x7f, 0x00, 0x99,
  0x2a, 0x36, 0x18, 0x89, 0x2a, 0x36, 0x0a, 0x81, 0x1d, 0x7f, 0x0e, 0x91,
  0x24, 0x7f, 0x00, 0x99, 0x2a, 0x53, 0x00, 0x99, 0x3e, 0x53, 0x14, 0x86,
  0x44, 0x7f, 0x04, 0x89, 0x2a, 0x53, 0x00, 0x89, 0x3e, 0x53, 0x0a, 0x81,
  0x24, 0x7f, 0x0e, 0x95, 0x38, 0x7f, 0x00, 0x96, 0x3d, 0x7f, 0x00, 0x99,
  0x24, 0x7f, 0x00, 0x99, 0x26, 0x70, 0x00, 0x99, 0x2a, 0x74, 0x00, 0x99,
  0x3c, 0x53, 0x00, 0x99, 0x27, 0x74, 0x10, 0x85, 0x38, 0x7f, 0x08, 0x89,
  0x24, 0x7f, 0x00, 0x89, 0x26, 0x70, 0x00, 0x89, 0x2a, 0x74, 0x00, 0x89,
  0x3c, 0x53, 0x00, 0x89, 0x27, 0x74, 0x08, 0x86, 0x3d, 0x7f, 0x10, 0x91,
  0x24, 0x7f, 0x20, 0x82, 0x3f, 0x7f, 0x02, 0x81, 0x24, 0x7f, 0x06, 0x82,
  0x3c, 0x7f, 0x08, 0x80, 0x3f, 0x7f, 0x00, 0x80, 0x3c, 0x7f, 0x00, 0x80,
  0x38, 0x7f, 0x00, 0x90, 0x41, 0x7f, 0x00, 0x90, 0x3d, 0x7f, 0x00, 0x90,
  0x3a, 0x7f, 0x00, 0x91, 0x22, 0x7f, 0x00, 0x92, 0x41, 0x7f, 0x00, 0x92,
  0x3d, 0x7f, 0x00, 0x93, 0x59, 0x7f, 0x00, 0x96, 0x3d, 0x7f, 0x00, 0x99,
  0x2a, 0x36, 0x00, 0x99, 0x3d, 0x53, 0x02, 0x83, 0x57, 0x7f, 0x16, 0x89,
  0x2a, 0x36, 0x00, 0x89, 0x3d, 0x53, 0x0a, 0x81, 0x22, 0x7f, 0x0e, 0x95,
  0x35, 0x7f, 0x00, 0x99, 0x2a, 0x47, 0x10, 0x85, 0x35, 0x7f, 0x08, 0x89,
  0x2a, 0x47, 0x18, 0x95, 0x38, 0x7f, 0x00, 0x99, 0x24, 0x7f, 0x00, 0x99,
  0x2a, 0x64, 0x00, 0x99, 0x3c, 0x53, 0x10, 0x85, 0x38, 0x7f, 0x08, 0x89,
  0x24, 0x7f, 0x00, 0x89, 0x2a, 0x64, 0x00, 0x89, 0x3c, 0x53, 0x10, 0x86,
  0x3d, 0x7f, 0x08, 0x96, 0x3c, 0x68, 0x18, 0x86, 0x3c, 0x68, 0x18, 0x91,
  0x22, 0x7f, 0x00, 0x95, 0x38, 0x7f, 0x00, 0x96, 0x3a, 0x7c, 0x00, 0x99,
  0x2a, 0x47, 0x10, 0x85, 0x38, 0x7f, 0x08, 0x89, 0x2a, 0x47, 0x0a, 0x81,
  0x22, 0x7f, 0x0e, 0x91, 0x22, 0x7f, 0x00, 0x99, 0x2a, 0x47, 0x00, 0x99,
  0x3e, 0x53, 0x18, 0x89, 0x2a, 0x47, 0x00, 0x89, 0x3e, 0x53, 0x06, 0x86,
  0x3a, 0x7c, 0x04, 0x81, 0x22, 0x7f, 0x0a, 0x83, 0x59, 0x7f, 0x04, 0x92,
  0x3f, 0x7f, 0x00, 0x92, 0x3c, 0x7f, 0x00, 0x93, 0x5c, 0x7f, 0x00, 0x95,
  0x38, 0x7f, 0x00, 0x96, 0x38, 0x7f, 0x00, 0x99, 0x24, 0x7f, 0x00, 0x99,
  0x26, 0x70, 0x00, 0x99, 0x2a, 0x74, 0x00, 0x99, 0x3c, 0x53, 0x00, 0x99,
  0x27, 0x64, 0x06, 0x82, 0x3d, 0x7f, 0x0a, 0x85, 0x38, 0x7f, 0x08, 0x86,
  0x38, 0x7f, 0x00, 0x89, 0x24, 0x7f, 0x00, 0x89, 0x26, 0x70, 0x00, 0x89,
  0x2a, 0x74, 0x00, 0x89, 0x3c, 0x53, 0x00, 0x89, 0x27, 0x64, 0x0a, 0x82,
  0x41, 0x7f, 0x0e, 0x91, 0x24, 0x7f, 0x00, 0x93, 0x5a, 0x7f, 0x00, 0x95,
  0x3a, 0x7f, 0x00, 0xb6, 0x01, 0x05, 0x00, 0x96, 0x3a, 0x7f, 0x02, 0x83,
  0x5c, 0x7f, 0x0c, 0x86, 0x3a, 0x7f, 0x02, 0x85, 0x3a, 0x7f, 0x12, 0x81,
  0x24, 0x7f, 0x0e, 0x91, 0x22, 0x7f, 0x00, 0x93, 0x59, 0x7f, 0x00, 0xb6,
  0x01, 0x00, 0x00, 0x96, 0x3d, 0x7f, 0x00, 0x99, 0x2e, 0x44, 0x00, 0x99,
  0x3d, 0x53, 0x02, 0x83, 0x5a, 0x7f, 0x16, 0x89, 0x2e, 0x44, 0x00, 0x89,
  0x3d, 0x53, 0x0a, 0x81, 0x22, 0x7f, 0x00, 0x86, 0x3d, 0x7f, 0x0e, 0x93,
  0x55, 0x7f, 0x00, 0x96, 0x3a, 0x68, 0x08, 0x83, 0x59, 0x7f, 0x06, 0x86,
  0x3a, 0x68, 0x10, 0x82, 0x3c, 0x7f, 0x12, 0x80, 0x41, 0x7f, 0x00, 0x80,
  0x3d, 0x7f, 0x00, 0x80, 0x3a, 0x7f, 0x00, 0x82, 0x3f, 0x7f, 0x00, 0x90,
  0x3d, 0x7f, 0x00, 0x90, 0x3a, 0x7f, 0x00, 0x90, 0x36, 0x7f, 0x00, 0x91,
  0x1b, 0x7f, 0x00, 0x92, 0x42, 0x7f, 0x00, 0x92, 0x3d, 0x7f, 0x00, 0x92,
  0x3a, 0x7f, 0x00, 0x96, 0x3d, 0x7f, 0x00, 0x99, 0x24, 0x7f, 0x00, 0x99,
  0x2a, 0x74, 0x00, 0x99, 0x3c, 0x53, 0x04, 0x82, 0x44, 0x7f, 0x14, 0x89,
  0x24, 0x7f, 0x00, 0x89, 0x2a, 0x74, 0x00, 0x89, 0x3c, 0x53, 0x0a, 0x81,
  0x1b, 0x7f, 0x0e, 0x95, 0x38, 0x7f, 0x10, 0x85, 0x38, 0x7f, 0x20, 0x91,
  0x1b, 0x7f, 0x00, 0x99, 0x2a, 0x2c, 0x18, 0x89, 0x2a, 0x2c, 0x0a, 0x81,
  0x1b, 0x7f, 0x0e, 0x91, 0x24, 0x7f, 0x00, 0x99, 0x2a, 0x64, 0x00, 0x99,
  0x3e, 0x53, 0x14, 0x86, 0x3d, 0x7f, 0x04, 0x89, 0x2a, 0x64, 0x00, 0x89,
  0x3e, 0x53, 0x00, 0xe6, 0x1e, 0x3f, 0x06, 0xe6, 0x56, 0x3c, 0x04, 0x81,
  0x24, 0x7f, 0x02, 0xe6, 0x7f, 0x3a, 0x06, 0xe6, 0x4f, 0x3a, 0x06, 0x95,
  0x38, 0x7f, 0x00, 0xb6, 0x01, 0x30, 0x00, 0x96, 0x3f, 0x7f, 0x00, 0x99,
  0x24, 0x7f, 0x00, 0x99, 0x26, 0x7c, 0x00, 0x99, 0x2a, 0x74, 0x00, 0x99,
  0x3c, 0x53, 0x00, 0x99, 0x27, 0x64, 0x06, 0xe6, 0x67, 0x3c, 0x0a, 0x85,
  0x38, 0x7f, 0x00, 0xe6, 0x3c, 0x3f, 0x08, 0x89, 0x24, 0x7f, 0x00, 0x89,
  0x26, 0x7c, 0x00, 0x89, 0x2a, 0x74, 0x00, 0x89, 0x3c, 0x53, 0x00, 0x89,
  0x27, 0x64, 0x00, 0xe6, 0x70, 0x3f, 0x02, 0xe6, 0x00, 0x40, 0x08, 0x86,
  0x3f, 0x7f, 0x0e, 0x91, 0x24, 0x7f, 0x0a, 0x80, 0x3a, 0x7f, 0x08, 0x80,
  0x36, 0x7f, 0x10, 0x81, 0x24, 0x7f, 0x08, 0x82, 0x3d, 0x7f, 0x06, 0x90,
  0x3f, 0x7f, 0x00, 0x90, 0x3c, 0x7f, 0x00, 0x90, 0x38, 0x7f, 0x00, 0x91,
  0x22, 0x7f, 0x00, 0x92, 0x44, 0x7f, 0x00, 0x92, 0x3f, 0x7f, 0x00, 0x92,
  0x3c, 0x7f, 0x00, 0x93, 0x57, 0x7f, 0x00, 0xb6, 0x01, 0x00, 0x00, 0x96,
  0x3c, 0x7f, 0x00, 0x96, 0x3a, 0x7f, 0x00, 0x99, 0x2a, 0x21, 0x00, 0x99,
  0x3d, 0x53, 0x0a, 0x83, 0x55, 0x7f, 0x02, 0x80, 0x3d, 0x7f, 0x00, 0x82,
  0x3a, 0x7f, 0x0c, 0x89, 0x2a, 0x21, 0x00, 0x89, 0x3d, 0x53, 0x0a, 0x81,
  0x22, 0x7f, 0x02, 0x82, 0x42, 0x7f, 0x04, 0x86, 0x3a, 0x7f, 0x08, 0x95,
  0x35, 0x7f, 0x00, 0x99, 0x2a, 0x53, 0x10, 0x85, 0x35, 0x7f, 0x08, 0x89,
  0x2a, 0x53, 0x18, 0x91, 0x20, 0x7f, 0x00, 0x95, 0x38, 0x7f, 0x00, 0x99,
  0x24, 0x7f, 0x00, 0x99, 0x2a, 0x74, 0x00, 0x99, 0x3c, 0x53, 0x10, 0x85,
  0x38, 0x7f, 0x08, 0x89, 0x24, 0x7f, 0x00, 0x89, 0x2a, 0x74, 0x00, 0x89,
  0x3c, 0x53, 0x0a, 0x81, 0x20, 0x7f, 0x00, 0x86, 0x3c, 0x7f, 0x0e, 0x96,
  0x3a, 0x6c, 0x14, 0x86, 0x3a, 0x6c, 0x1c, 0x91, 0x20, 0x7f, 0x00, 0x95,
  0x38, 0x7f, 0x00, 0x96, 0x38, 0x7f, 0x00, 0x99, 0x2a, 0x47, 0x10, 0x85,
  0x38, 0x7f, 0x08, 0x89, 0x2a, 0x47, 0x0a, 0x81, 0x20, 0x7f, 0x0e, 0x99,
  0x2a, 0x53, 0x00, 0x99, 0x3e, 0x53, 0x18, 0x89, 0x2a, 0x53, 0x00, 0x89,
  0x3e, 0x53, 0x10, 0x83, 0x57, 0x7f, 0x08, 0x93, 0x50, 0x7f, 0x00, 0x99,
  0x24, 0x7f, 0x00, 0x99, 0x26, 0x70, 0x00, 0x99, 0x2a, 0x7f, 0x00, 0x99,
  0x3c, 0x53, 0x00, 0x99, 0x27, 0x74, 0x18, 0x89, 0x24, 0x7f, 0x00, 0x89,
  0x26, 0x70, 0x00, 0x89, 0x2a, 0x7f, 0x00, 0x89, 0x3c, 0x53, 0x00, 0x89,
  0x27, 0x74, 0x24, 0x86, 0x38, 0x7f, 0x12, 0xe6, 0x7a, 0x3d, 0x08, 0xe6,
  0x62, 0x3b, 0x08, 0xe6, 0x22, 0x3b, 0x02, 0x91, 0x1b, 0x7f, 0x00, 0x95,
  0x33, 0x7f, 0x00, 0xb6, 0x01, 0x3f, 0x00, 0x96, 0x38, 0x7f, 0x00, 0x99,
  0x2a, 0x30, 0x00, 0x99, 0x3d, 0x53, 0x06, 0xe6, 0x62, 0x3b, 0x06, 0xe6,
  0x76, 0x3c, 0x04, 0x85, 0x33, 0x7f, 0x02, 0xe6, 0x3b, 0x3e, 0x06, 0x89,
  0x2a, 0x30, 0x00, 0x89, 0x3d, 0x53, 0x02, 0xe6, 0x5f, 0x3f, 0x08, 0x81,
  0x1b, 0x7f, 0x00, 0xe6, 0x70, 0x3f, 0x02, 0xe6, 0x00, 0x40, 0x04, 0x86,
  0x38, 0x7f, 0x08, 0x91, 0x1b, 0x7f, 0x00, 0x95, 0x35, 0x7f, 0x00, 0x99,
  0x2a, 0x3d, 0x10, 0x85, 0x35, 0x7f, 0x08, 0x89, 0x2a, 0x3d, 0x0a, 0x81,
  0x1b, 0x7f, 0x0e, 0x80, 0x3f, 0x7f, 0x00, 0x80, 0x3c, 0x7f, 0x00, 0x80,
  0x38, 0x7f, 0x00, 0x90, 0x3f, 0x7f, 0x00, 0x90, 0x3c, 0x7f, 0x00, 0x90,
  0x38, 0x7f, 0x00, 0x91, 0x1d, 0x7f, 0x00, 0x92, 0x38, 0x7f, 0x00, 0xb6,
  0x01, 0x00, 0x00, 0x96, 0x3f, 0x7f, 0x00, 0x99, 0x24, 0x7f, 0x00, 0x99,
  0x2a, 0x74, 0x00, 0x99, 0x3c, 0x53, 0x18, 0x89, 0x24, 0x7f, 0x00, 0x89,
  0x2a, 0x74, 0x00, 0x89, 0x3c, 0x53, 0x0a, 0x81, 0x1d, 0x7f, 0x0e, 0x95,
  0x38, 0x7f, 0x10, 0x85, 0x38, 0x7f, 0x20, 0x91, 0x1d, 0x7f, 0x00, 0x99,
  0x2a, 0x47, 0x18, 0x89, 0x2a, 0x47, 0x0a, 0x81, 0x1d, 0x7f, 0x0e, 0x91,
  0x1d, 0x7f, 0x00, 0x99, 0x2a, 0x47, 0x00, 0x99, 0x3e, 0x53, 0x14, 0x86,
  0x3f, 0x7f, 0x04, 0x89, 0x2a, 0x47, 0x00, 0x89, 0x3e, 0x53, 0x0a, 0x81,
  0x1d, 0x7f, 0x04, 0x82, 0x3f, 0x7f, 0x00, 0x82, 0x3c, 0x7f, 0x02, 0x82,
  0x38, 0x7f, 0x08, 0x80, 0x3f, 0x7f, 0x00, 0x80, 0x3c, 0x7f, 0x00, 0x80,
  0x38, 0x7f, 0x00, 0x90, 0x41, 0x7f, 0x00, 0x90, 0x3d, 0x7f, 0x00, 0x90,
  0x38, 0x7f, 0x00, 0x92, 0x41, 0x7f, 0x00, 0x92, 0x3d, 0x7f, 0x00, 0x95,
  0x38, 0x7f, 0x00, 0x96, 0x3d, 0x7f, 0x00, 0x99, 0x24, 0x7f, 0x00, 0x99,
  0x26, 0x7c, 0x00, 0x99, 0x2a, 0x74, 0x00, 0x99, 0x3c, 0x53, 0x00, 0x99,
  0x27, 0x64, 0x10, 0x85, 0x38, 0x7f, 0x08, 0x89, 0x24, 0x7f, 0x00, 0x89,
  0x26, 0x7c, 0x00, 0x89, 0x2a, 0x74, 0x00, 0x89, 0x3c, 0x53, 0x00, 0x89,
  0x27, 0x64, 0x18, 0x91, 0x24, 0x7f, 0x22, 0x81, 0x24, 0x7f, 0x0e, 0x91,
  0x22, 0x7f, 0x00, 0x99, 0x2e, 0x44, 0x00, 0x99, 0x3d, 0x53, 0x18, 0x89,
  0x2e, 0x44, 0x00, 0x89, 0x3d, 0x53, 0x0a, 0x81, 0x22, 0x7f, 0x0e, 0x95,
  0x35, 0x7f, 0x10, 0x85, 0x35, 0x7f, 0x20, 0x94, 0x55, 0x7f, 0x00, 0x94,
  0x50, 0x7f, 0x00, 0x94, 0x44, 0x7f, 0x00, 0x95, 0x38, 0x7f, 0x00, 0x99,
  0x24, 0x7f, 0x00, 0x99, 0x2a, 0x74, 0x00, 0x99, 0x3c, 0x53, 0x10, 0x85,
  0x38, 0x7f, 0x02, 0x84, 0x55, 0x7f, 0x02, 0x84, 0x44, 0x7f, 0x00, 0x86,
  0x3d, 0x7f, 0x04, 0x89, 0x24, 0x7f, 0x00, 0x89, 0x2a, 0x74, 0x00, 0x89,
  0x3c, 0x53, 0x08, 0x84, 0x50, 0x7f, 0x10, 0x94, 0x55, 0x7f, 0x00, 0x94,
  0x50, 0x7f, 0x00, 0x94, 0x44, 0x7f, 0x16, 0x84, 0x55, 0x7f, 0x04, 0x84,
  0x50, 0x7f, 0x04, 0x84, 0x44, 0x7f, 0x12, 0x91, 0x20, 0x7f, 0x00, 0x95,
  0x38, 0x7f, 0x00, 0x99, 0x2a, 0x3d, 0x10, 0x85, 0x38, 0x7f, 0x08, 0x89,
  0x2a, 0x3d, 0x0a, 0x81, 0x20, 0x7f, 0x0e, 0x94, 0x55, 0x7f, 0x00, 0x94,
  0x50, 0x7f, 0x00, 0x94, 0x44, 0x7f, 0x00, 0x99, 0x2a, 0x64, 0x00, 0x99,
  0x3e, 0x53, 0x0e, 0x84, 0x50, 0x7f, 0x06, 0x84, 0x55, 0x7f, 0x02, 0x84,
  0x44, 0x7f, 0x02, 0x89, 0x2a, 0x64, 0x00, 0x89, 0x3e, 0x53, 0x18, 0x91,
  0x25, 0x63, 0x00, 0x94, 0x55, 0x7f, 0x00, 0x94, 0x50, 0x7f, 0x00, 0x94,
  0x44, 0x7f, 0x00, 0x96, 0x38, 0x7f, 0x00, 0x99, 0x24, 0x7f, 0x00, 0x99,
  0x26, 0x7d, 0x00, 0x99, 0x2a, 0x74, 0x00, 0x99, 0x3c, 0x53, 0x00, 0x99,
  0x27, 0x7d, 0x16, 0x84, 0x55, 0x7f, 0x00, 0x84, 0x50, 0x7f, 0x00, 0x86,
  0x38, 0x7f, 0x02, 0x84, 0x44, 0x7f, 0x00, 0x89, 0x24, 0x7f, 0x00, 0x89,
  0x26, 0x7d, 0x00, 0x89, 0x2a, 0x74, 0x00, 0x89, 0x3c, 0x53, 0x00, 0x89,
  0x27, 0x7d, 0x0a, 0x81, 0x25, 0x63, 0x0e, 0x91, 0x22, 0x75, 0x00, 0x94,
  0x55, 0x7f, 0x00, 0x94, 0x50, 0x7f, 0x00, 0x94, 0x44, 0x7f, 0x00, 0x95,
  0x38, 0x7f, 0x00, 0x96, 0x3a, 0x7f, 0x00, 0x99, 0x27, 0x69, 0x10, 0x85,
  0x38, 0x7f, 0x06, 0x84, 0x55, 0x7f, 0x00, 0x84, 0x50, 0x7f, 0x00, 0x86,
  0x3a, 0x7f, 0x02, 0x89, 0x27, 0x69, 0x02, 0x84, 0x44, 0x7f, 0x08, 0x81,
  0x22, 0x75, 0x0e, 0x94, 0x55, 0x7f, 0x00, 0x94, 0x50, 0x7f, 0x00, 0x94,
  0x44, 0x7f, 0x00, 0x96, 0x3d, 0x7f, 0x00, 0x99, 0x2e, 0x5f, 0x00, 0x99,
  0x3d, 0x53, 0x00, 0x99, 0x27, 0x55, 0x16, 0x84, 0x55, 0x7f, 0x02, 0x84,
  0x50, 0x7f, 0x00, 0x84, 0x44, 0x7f, 0x00, 0x89, 0x2e, 0x5f, 0x00, 0x89,
  0x3d, 0x53, 0x00, 0x89, 0x27, 0x55, 0x02, 0x82, 0x41, 0x7f, 0x00, 0x86,
  0x3d, 0x7f, 0x08, 0x82, 0x44, 0x7f, 0x04, 0x82, 0x3d, 0x7f, 0x0a, 0x91,
  0x25, 0x63, 0x00, 0x94, 0x55, 0x7f, 0x00, 0x94, 0x50, 0x7f, 0x00, 0x94,
  0x44, 0x7f, 0x00, 0x95, 0x38, 0x7f, 0x00, 0x96, 0x3a, 0x7f, 0x00, 0x99,
  0x27, 0x41, 0x0a, 0x83, 0x50, 0x7f, 0x06, 0x85, 0x38, 0x7f, 0x08, 0x89,
  0x27, 0x41, 0x02, 0x84, 0x55, 0x7f, 0x00, 0x84, 0x44, 0x7f, 0x00, 0x86,
  0x3a, 0x7f, 0x02, 0x84, 0x50, 0x7f, 0x06, 0x81, 0x25, 0x63, 0x0e, 0x80,
  0x41, 0x7f, 0x00, 0x80, 0x3d, 0x7f, 0x00, 0x80, 0x38, 0x7f, 0x00, 0x91,
  0x22, 0x7f, 0x00, 0x99, 0x24, 0x7f, 0x00, 0x99, 0x2a, 0x70, 0x00, 0x99,
  0x3c, 0x53, 0x18, 0x89, 0x24, 0x7f, 0x00, 0x89, 0x2a, 0x70, 0x00, 0x89,
  0x3c, 0x53, 0x02, 0x81, 0x22, 0x7f, 0x16, 0x95, 0x38, 0x7f, 0x10, 0x85,
  0x38, 0x7f, 0x20, 0x91, 0x22, 0x7f, 0x00, 0x99, 0x2a, 0x36, 0x18, 0x81,
  0x22, 0x7f, 0x00, 0x89, 0x2a, 0x36, 0x18, 0x91, 0x22, 0x7f, 0x00, 0x99,
  0x2a, 0x64, 0x00, 0x99, 0x3e, 0x53, 0x18, 0x89, 0x2a, 0x64, 0x00, 0x89,
  0x3e, 0x53, 0x0a, 0x81, 0x22, 0x7f, 0x0e, 0x95, 0x38, 0x7f, 0x00, 0x99,
  0x24, 0x7f, 0x00, 0x99, 0x26, 0x70, 0x00, 0x99, 0x2a, 0x74, 0x00, 0x99,
  0x3c, 0x53, 0x00, 0x99, 0x27, 0x64, 0x10, 0x85, 0x38, 0x7f, 0x08, 0x89,
  0x24, 0x7f, 0x00, 0x89, 0x26, 0x70, 0x00, 0x89, 0x2a, 0x74, 0x00, 0x89,
  0x3c, 0x53, 0x00, 0x89, 0x27, 0x64, 0x18, 0x91, 0x25, 0x7f, 0x2a, 0x81,
  0x25, 0x7f, 0x06, 0x91, 0x24, 0x7f, 0x00, 0x99, 0x2a, 0x28, 0x00, 0x99,
  0x3d, 0x53, 0x18, 0x89, 0x2a, 0x28, 0x00, 0x89, 0x3d, 0x53, 0x0a, 0x81,
  0x24, 0x7f, 0x0e, 0x95, 0x35, 0x7f, 0x00, 0x99, 0x2a, 0x53, 0x10, 0x85,
  0x35, 0x7f, 0x08, 0x89, 0x2a, 0x53, 0x18, 0x91, 0x20, 0x7f, 0x00, 0x95,
  0x38, 0x7f, 0x00, 0x99, 0x24, 0x7f, 0x00, 0x99, 0x2a, 0x74, 0x00, 0x99,
  0x3c, 0x53, 0x10, 0x85, 0x38, 0x7f, 0x08, 0x89, 0x24, 0x7f, 0x00, 0x89,
  0x2a, 0x74, 0x00, 0x89, 0x3c, 0x53, 0x1a, 0x81, 0x20, 0x7f, 0x2e, 0x91,
  0x22, 0x7f, 0x00, 0x99, 0x2a, 0x30, 0x18, 0x89, 0x2a, 0x30, 0x0a, 0x81,
  0x22, 0x7f, 0x0e, 0x95, 0x38, 0x7f, 0x00, 0x99, 0x2a, 0x47, 0x00, 0x99,
  0x3e, 0x53, 0x10, 0x85, 0x38, 0x7f, 0x08, 0x89, 0x2a, 0x47, 0x00, 0x89,
  0x3e, 0x53, 0x18, 0x99, 0x24, 0x7f, 0x00, 0x99, 0x26, 0x7c, 0x00, 0x99,
  0x2a, 0x74, 0x00, 0x99, 0x3c, 0x53, 0x00, 0x99, 0x27, 0x74, 0x18, 0x89,
  0x24, 0x7f, 0x00, 0x89, 0x26, 0x7c, 0x00, 0x89, 0x2a, 0x74, 0x00, 0x89,
  0x3c, 0x53, 0x00, 0x89, 0x27, 0x74, 0x48, 0x91, 0x1d, 0x7f, 0x00, 0x95,
  0x35, 0x7f, 0x00, 0x99, 0x2a, 0x0d, 0x00, 0x99, 0x3d, 0x53, 0x10, 0x85,
  0x35, 0x7f, 0x08, 0x89, 0x2a, 0x0d, 0x00, 0x89, 0x3d, 0x53, 0x0a, 0x81,
  0x1d, 0x7f, 0x0e, 0x91, 0x22, 0x7f, 0x00, 0x95, 0x38, 0x7f, 0x00, 0x99,
  0x2a, 0x47, 0x10, 0x85, 0x38, 0x7f, 0x08, 0x81, 0x22, 0x7f, 0x00, 0x89,
  0x2a, 0x47, 0x18, 0x90, 0x49, 0x7f, 0x00, 0x90, 0x44, 0x7f, 0x00, 0x90,
  0x41, 0x7f, 0x00, 0x99, 0x24, 0x7f, 0x00, 0x99, 0x2a, 0x64, 0x00, 0x99,
  0x3c, 0x53, 0x18, 0x89, 0x24, 0x7f, 0x00, 0x89, 0x2a, 0x64, 0x00, 0x89,
  0x3c, 0x53, 0x18, 0x95, 0x38, 0x7f, 0x10, 0x85, 0x38, 0x7f, 0x20, 0x80,
  0x49, 0x7f, 0x00, 0x80, 0x44, 0x7f, 0x00, 0x80, 0x41, 0x7f, 0x00, 0x91,
  0x20, 0x7f, 0x00, 0x99, 0x2a, 0x36, 0x18, 0x81, 0x20, 0x7f, 0x00, 0x89,
  0x2a, 0x36, 0x18, 0x90, 0x49, 0x7f, 0x00, 0x90, 0x44, 0x7f, 0x00, 0x90,
  0x41, 0x7f, 0x00, 0x91, 0x22, 0x7f, 0x00, 0x99, 0x2a, 0x53, 0x00, 0x99,
  0x3e, 0x53, 0x18, 0x89, 0x2a, 0x53, 0x00, 0x89, 0x3e, 0x53, 0x06, 0x81,
  0x22, 0x7f, 0x12, 0x95, 0x38, 0x7f, 0x00, 0x99, 0x24, 0x7f, 0x00, 0x99,
  0x26, 0x70, 0x00, 0x99, 0x2a, 0x74, 0x00, 0x99, 0x3c, 0x53, 0x00, 0x99,
  0x27, 0x74, 0x10, 0x85, 0x38, 0x7f, 0x08, 0x89, 0x24, 0x7f, 0x00, 0x89,
  0x26, 0x70, 0x00, 0x89, 0x2a, 0x74, 0x00, 0x89, 0x3c, 0x53, 0x00, 0x89,
  0x27, 0x74, 0x18, 0x91, 0x25, 0x7f, 0x1e, 0x81, 0x25, 0x7f, 0x12, 0x80,
  0x49, 0x7f, 0x00, 0x80, 0x44, 0x7f, 0x00, 0x80, 0x41, 0x7f, 0x00, 0x90,
  0x48, 0x7f, 0x00, 0x90, 0x44, 0x7f, 0x00, 0x90, 0x3f, 0x7f, 0x00, 0x91,
  0x24, 0x7f, 0x00, 0x99, 0x2a, 0x36, 0x00, 0x99, 0x3d, 0x53, 0x18, 0x89,
  0x2a, 0x36, 0x00, 0x89, 0x3d, 0x53, 0x04, 0x81, 0x24, 0x7f, 0x14, 0x80,
  0x48, 0x7f, 0x00, 0x80, 0x44, 0x7f, 0x00, 0x80, 0x3f, 0x7f, 0x00, 0x95,
  0x35, 0x7f, 0x00, 0x99, 0x2a, 0x47, 0x10, 0x85, 0x35, 0x7f, 0x08, 0x89,
  0x2a, 0x47, 0x18, 0x95, 0x38, 0x7f, 0x00, 0x99, 0x24, 0x7f, 0x00, 0x99,
  0x2a, 0x64, 0x00, 0x99, 0x3c, 0x53, 0x10, 0x85, 0x38, 0x7f, 0x08, 0x89,
  0x24, 0x7f, 0x00, 0x89, 0x2a, 0x64, 0x00, 0x89, 0x3c, 0x53, 0x48, 0x91,
  0x22, 0x7f, 0x00, 0x95, 0x38, 0x7f, 0x00, 0x99, 0x2a, 0x47, 0x10, 0x85,
  0x38, 0x7f, 0x08, 0x89, 0x2a, 0x47, 0x08, 0x81, 0x22, 0x7f, 0x10, 0x99,
  0x2a, 0x47, 0x00, 0x99, 0x3e, 0x53, 0x18, 0x89, 0x2a, 0x47, 0x00, 0x89,
  0x3e, 0x53, 0x18, 0x95, 0x38, 0x7f, 0x00, 0x99, 0x24, 0x7f, 0x00, 0x99,
  0x26, 0x70, 0x00, 0x99, 0x2a, 0x74, 0x00, 0x99, 0x3c, 0x53, 0x00, 0x99,
  0x27, 0x64, 0x10, 0x85, 0x38, 0x7f, 0x08, 0x89, 0x24, 0x7f, 0x00, 0x89,
  0x26, 0x70, 0x00, 0x89, 0x2a, 0x74, 0x00, 0x89, 0x3c, 0x53, 0x00, 0x89,
  0x27, 0x64, 0x18, 0x95, 0x3a, 0x7f, 0x10, 0x85, 0x3a, 0x7f, 0x20, 0x91,
  0x20, 0x7f, 0x00, 0x99, 0x2e, 0x44, 0x00, 0x99, 0x3d, 0x53, 0x14, 0x81,
  0x20, 0x7f, 0x04, 0x89, 0x2e, 0x44, 0x00, 0x89, 0x3d, 0x53, 0x18, 0x91,
  0x20, 0x7f, 0x1c, 0x81, 0x20, 0x7f, 0x14, 0x91, 0x22, 0x7f, 0x00, 0x99,
  0x24, 0x7f, 0x00, 0x99, 0x2a, 0x74, 0x00, 0x99, 0x3c, 0x53, 0x18, 0x89,
  0x24, 0x7f, 0x00, 0x89, 0x2a, 0x74, 0x00, 0x89, 0x3c, 0x53, 0x0e, 0x81,
  0x22, 0x7f, 0x0a, 0x95, 0x38, 0x7f, 0x10, 0x85, 0x38, 0x7f, 0x20, 0x91,
  0x22, 0x7f, 0x00, 0x99, 0x2a, 0x2c, 0x18, 0x89, 0x2a, 0x2c, 0x02, 0x81,
  0x22, 0x7f, 0x16, 0x91, 0x22, 0x7f, 0x00, 0x99, 0x2a, 0x64, 0x00, 0x99,
  0x3e, 0x53, 0x18, 0x89, 0x2a, 0x64, 0x00, 0x89, 0x3e, 0x53, 0x08, 0x81,
  0x22, 0x7f, 0x10, 0x95, 0x38, 0x7f, 0x00, 0x99, 0x24, 0x7f, 0x00, 0x99,
  0x26, 0x7c, 0x00, 0x99, 0x2a, 0x74, 0x00, 0x99, 0x3c, 0x53, 0x00, 0x99,
  0x27, 0x64, 0x10, 0x85, 0x38, 0x7f, 0x08, 0x89, 0x24, 0x7f, 0x00, 0x89,
  0x26, 0x7c, 0x00, 0x89, 0x2a, 0x74, 0x00, 0x89, 0x3c, 0x53, 0x00, 0x89,
  0x27, 0x64, 0x18, 0x91, 0x25, 0x7f, 0x20, 0x81, 0x25, 0x7f, 0x10, 0x91,
  0x24, 0x7f, 0x00, 0x99, 0x2a, 0x21, 0x00, 0x99, 0x3d, 0x53, 0x18, 0x89,
  0x2a, 0x21, 0x00, 0x89, 0x3d, 0x53, 0x04, 0x81, 0x24, 0x7f, 0x14, 0x95,
  0x35, 0x7f, 0x00, 0x99, 0x2a, 0x53, 0x10, 0x85, 0x35, 0x7f, 0x08, 0x89,
  0x2a, 0x53, 0x18, 0x91, 0x20, 0x7f, 0x00, 0x95, 0x38, 0x7f, 0x00, 0x99,
  0x24, 0x7f, 0x00, 0x99, 0x2a, 0x74, 0x00, 0x99, 0x3c, 0x53, 0x10, 0x85,
  0x38, 0x7f, 0x08, 0x89, 0x24, 0x7f, 0x00, 0x89, 0x2a, 0x74, 0x00, 0x89,
  0x3c, 0x53, 0x18, 0x81, 0x20, 0x7f, 0x30, 0x91, 0x22, 0x7f, 0x00, 0x95,
  0x38, 0x7f, 0x00, 0x99, 0x2a, 0x47, 0x10, 0x85, 0x38, 0x7f, 0x08, 0x89,
  0x2a, 0x47, 0x0a, 0x81, 0x22, 0x7f, 0x0e, 0x99, 0x2a, 0x53, 0x00, 0x99,
  0x3e, 0x53, 0x18, 0x89, 0x2a, 0x53, 0x00, 0x89, 0x3e, 0x53, 0x18, 0x99,
  0x24, 0x7f, 0x00, 0x99, 0x26, 0x70, 0x00, 0x99, 0x2a, 0x7f, 0x00, 0x99,
  0x3c, 0x53, 0x00, 0x99, 0x27, 0x74, 0x18, 0x89, 0x24, 0x7f, 0x00, 0x89,
  0x26, 0x70, 0x00, 0x89, 0x2a, 0x7f, 0x00, 0x89, 0x3c, 0x53, 0x00, 0x89,
  0x27, 0x74, 0x48, 0x91, 0x20, 0x7f, 0x00, 0x95, 0x33, 0x7f, 0x00, 0x99,
  0x2a, 0x30, 0x00, 0x99, 0x3d, 0x53, 0x10, 0x85, 0x33, 0x7f, 0x04, 0x81,
  0x20, 0x7f, 0x04, 0x89, 0x2a, 0x30, 0x00, 0x89, 0x3d, 0x53, 0x18, 0x91,
  0x20, 0x7f, 0x00, 0x95, 0x35, 0x7f, 0x00, 0x99, 0x2a, 0x3d, 0x10, 0x85,
  0x35, 0x7f, 0x04, 0x81, 0x20, 0x7f, 0x04, 0x89, 0x2a, 0x3d, 0x18, 0x90,
  0x49, 0x7f, 0x00, 0x90, 0x44, 0x7f, 0x00, 0x90, 0x41, 0x7f, 0x00, 0x91,
  0x1b, 0x7f, 0x00, 0x99, 0x24, 0x7f, 0x00, 0x99, 0x2a, 0x74, 0x00, 0x99,
  0x3c, 0x53, 0x18, 0x89, 0x24, 0x7f, 0x00, 0x89, 0x2a, 0x74, 0x00, 0x89,
  0x3c, 0x53, 0x18, 0x81, 0x1b, 0x7f, 0x00, 0x95, 0x38, 0x7f, 0x10, 0x85,
  0x38, 0x7f, 0x20, 0x80, 0x49, 0x7f, 0x00, 0x80, 0x44, 0x7f, 0x00, 0x80,
  0x41, 0x7f, 0x00, 0x91, 0x1b, 0x63, 0x00, 0x99, 0x2a, 0x47, 0x18, 0x89,
  0x2a, 0x47, 0x04, 0x81, 0x1b, 0x63, 0x14, 0x90, 0x49, 0x7f, 0x00, 0x90,
  0x44, 0x7f, 0x00, 0x90, 0x41, 0x7f, 0x00, 0x91, 0x20, 0x73, 0x00, 0x99,
  0x2a, 0x47, 0x00, 0x99, 0x3e, 0x53, 0x18, 0x89, 0x2a, 0x47, 0x00, 0x89,
  0x3e, 0x53, 0x16, 0x81, 0x20, 0x73, 0x02, 0x95, 0x38, 0x7f, 0x00, 0x99,
  0x24, 0x7f, 0x00, 0x99, 0x26, 0x7c, 0x00, 0x99, 0x2a, 0x74, 0x00, 0x99,
  0x3c, 0x53, 0x00, 0x99, 0x27, 0x64, 0x10, 0x85, 0x38, 0x7f, 0x08, 0x89,
  0x24, 0x7f, 0x00, 0x89, 0x26, 0x7c, 0x00, 0x89, 0x2a, 0x74, 0x00, 0x89,
  0x3c, 0x53, 0x00, 0x89, 0x27, 0x64, 0x18, 0x91, 0x20, 0x47, 0x10, 0x81,
  0x20, 0x47, 0x20, 0x80, 0x49, 0x7f, 0x00, 0x80, 0x44, 0x7f, 0x00, 0x80,
  0x41, 0x7f, 0x00, 0x90, 0x48, 0x7f, 0x00, 0x90, 0x44, 0x7f, 0x00, 0x90,
  0x3f, 0x7f, 0x00, 0x91, 0x20, 0x7f, 0x00, 0x99, 0x2e, 0x44, 0x00, 0x99,
  0x3d, 0x53, 0x18, 0x89, 0x2e, 0x44, 0x00, 0x89, 0x3d, 0x53, 0x06, 0x81,
  0x20, 0x7f, 0x12, 0x80, 0x48, 0x7f, 0x00, 0x80, 0x44, 0x7f, 0x00, 0x80,
  0x3f, 0x7f, 0x00, 0x95, 0x35, 0x7f, 0x10, 0x85, 0x35, 0x7f, 0x20, 0x95,
  0x38, 0x7f, 0x00, 0x99, 0x24, 0x7f, 0x00, 0x99, 0x2a, 0x74, 0x00, 0x99,
  0x3c, 0x53, 0x10, 0x85, 0x38, 0x7f, 0x08, 0x89, 0x24, 0x7f, 0x00, 0x89,
  0x2a, 0x74, 0x00, 0x89, 0x3c, 0x53, 0x48, 0x91, 0x20, 0x7f, 0x00, 0x95,
  0x38, 0x7f, 0x00, 0x99, 0x2a, 0x3d, 0x10, 0x85, 0x38, 0x7f, 0x04, 0x81,
  0x20, 0x7f, 0x04, 0x89, 0x2a, 0x3d, 0x18, 0x91, 0x20, 0x7f, 0x00, 0x99,
  0x2a, 0x64, 0x00, 0x99, 0x3e, 0x53, 0x18, 0x89, 0x2a, 0x64, 0x00, 0x89,
  0x3e, 0x53, 0x0c, 0x81, 0x20, 0x7f, 0x0c, 0x99, 0x24, 0x7f, 0x00, 0x99,
  0x26, 0x7d, 0x00, 0x99, 0x2a, 0x74, 0x00, 0x99, 0x3c, 0x53, 0x00, 0x99,
  0x27, 0x7d, 0x18, 0x89, 0x24, 0x7f, 0x00, 0x89, 0x26, 0x7d, 0x00, 0x89,
  0x2a, 0x74, 0x00, 0x89, 0x3c, 0x53, 0x00, 0x89, 0x27, 0x7d, 0x18, 0x91,
  0x20, 0x63, 0x00, 0x95, 0x38, 0x7f, 0x00, 0x99, 0x27, 0x69, 0x10, 0x85,
  0x38, 0x7f, 0x08, 0x81, 0x20, 0x63, 0x00, 0x89, 0x27, 0x69, 0x18, 0x91,
  0x22, 0x63, 0x00, 0x99, 0x2e, 0x5f, 0x00, 0x99, 0x3d, 0x53, 0x00, 0x99,
  0x27, 0x55, 0x10, 0x81, 0x22, 0x63, 0x08, 0x89, 0x2e, 0x5f, 0x00, 0x89,
  0x3d, 0x53, 0x00, 0x89, 0x27, 0x55, 0x18, 0x91, 0x22, 0x7f, 0x00, 0x95,
  0x38, 0x7f, 0x00, 0x99, 0x27, 0x41, 0x10, 0x85, 0x38, 0x7f, 0x06, 0x81,
  0x22, 0x7f, 0x02, 0x89, 0x27, 0x41, 0x18, 0x91, 0x22, 0x7f, 0x00, 0x99,
  0x24, 0x7f, 0x00, 0x99, 0x2a, 0x70, 0x00, 0x99, 0x3c, 0x53, 0x18, 0x89,
  0x24, 0x7f, 0x00, 0x89, 0x2a, 0x70, 0x00, 0x89, 0x3c, 0x53, 0x02, 0x81,
  0x22, 0x7f, 0x16, 0x95, 0x38, 0x7f, 0x10, 0x85, 0x38, 0x7f, 0x20, 0x91,
  0x22, 0x7f, 0x00, 0x99, 0x2a, 0x36, 0x18, 0x81, 0x22, 0x7f, 0x00, 0x89,
  0x2a, 0x36, 0x18, 0x91, 0x22, 0x7f, 0x00, 0x99, 0x2a, 0x64, 0x00, 0x99,
  0x3e, 0x53, 0x18, 0x89, 0x2a, 0x64, 0x00, 0x89, 0x3e, 0x53, 0x0a, 0x81,
  0x22, 0x7f, 0x0e, 0x95, 0x38, 0x7f, 0x00, 0x99, 0x24, 0x7f, 0x00, 0x99,
  0x2a, 0x74, 0x00, 0x99, 0x3c, 0x53, 0x00, 0x99, 0x27, 0x64, 0x10, 0x85,
  0x38, 0x7f, 0x08, 0x89, 0x24, 0x7f, 0x00, 0x89, 0x2a, 0x74, 0x00, 0x89,
  0x3c, 0x53, 0x00, 0x89, 0x27, 0x64, 0x18, 0x91, 0x25, 0x7f, 0x2a, 0x81,
  0x25, 0x7f, 0x06, 0x91, 0x24, 0x7f, 0x00, 0x99, 0x2a, 0x28, 0x00, 0x99,
  0x3d, 0x53, 0x18, 0x89, 0x2a, 0x28, 0x00, 0x89, 0x3d, 0x53, 0x0a, 0x81,
  0x24, 0x7f, 0x0e, 0x95, 0x35, 0x7f, 0x00, 0x99, 0x2a, 0x53, 0x10, 0x85,
  0x35, 0x7f, 0x08, 0x89, 0x2a, 0x53, 0x18, 0x91, 0x20, 0x7f, 0x00, 0x95,
  0x38, 0x7f, 0x00, 0x99, 0x24, 0x7f, 0x00, 0x99, 0x2a, 0x74, 0x00, 0x99,
  0x3c, 0x53, 0x10, 0x85, 0x38, 0x7f, 0x08, 0x89, 0x24, 0x7f, 0x00, 0x89,
  0x2a, 0x74, 0x00, 0x89, 0x3c, 0x53, 0x1a, 0x81, 0x20, 0x7f, 0x2e, 0x91,
  0x22, 0x7f, 0x00, 0x99, 0x2a, 0x30, 0x18, 0x89, 0x2a, 0x30, 0x0a, 0x81,
  0x22, 0x7f, 0x0e, 0x95, 0x38, 0x7f, 0x00, 0x99, 0x2a, 0x47, 0x00, 0x99,
  0x3e, 0x53, 0x10, 0x85, 0x38, 0x7f, 0x08, 0x89, 0x2a, 0x47, 0x00, 0x89,
  0x3e, 0x53, 0x18, 0x99, 0x24, 0x7f, 0x00, 0x99, 0x2a, 0x74, 0x00, 0x99,
  0x3c, 0x53, 0x00, 0x99, 0x27, 0x74, 0x18, 0x89, 0x24, 0x7f, 0x00, 0x89,
  0x2a, 0x74, 0x00, 0x89, 0x3c, 0x53, 0x00, 0x89, 0x27, 0x74, 0x48, 0x91,
  0x1d, 0x7f, 0x00, 0x95, 0x35, 0x7f, 0x00, 0x99, 0x2a, 0x0d, 0x00, 0x99,
  0x3d, 0x53, 0x10, 0x85, 0x35, 0x7f, 0x08, 0x89, 0x2a, 0x0d, 0x00, 0x89,
  0x3d, 0x53, 0x0a, 0x81, 0x1d, 0x7f, 0x0e, 0x91, 0x22, 0x7f, 0x00, 0x95,
  0x38, 0x7f, 0x00, 0x99, 0x2a, 0x47, 0x10, 0x85, 0x38, 0x7f, 0x08, 0x81,
  0x22, 0x7f, 0x00, 0x89, 0x2a, 0x47, 0x18, 0x90, 0x49, 0x7f, 0x00, 0x90,
  0x44, 0x7f, 0x00, 0x90, 0x41, 0x7f, 0x00, 0x99, 0x24, 0x7f, 0x00, 0x99,
  0x2a, 0x64, 0x00, 0x99, 0x3c, 0x53, 0x18, 0x89, 0x24, 0x7f, 0x00, 0x89,
  0x2a, 0x64, 0x00, 0x89, 0x3c, 0x53, 0x18, 0x95, 0x38, 0x7f, 0x10, 0x85,
  0x38, 0x7f, 0x20, 0x80, 0x49, 0x7f, 0x00, 0x80, 0x44, 0x7f, 0x00, 0x80,
  0x41, 0x7f, 0x00, 0x91, 0x20, 0x7f, 0x00, 0x99, 0x2a, 0x36, 0x18, 0x81,
  0x20, 0x7f, 0x00, 0x89, 0x2a, 0x36, 0x18, 0x90, 0x49, 0x7f, 0x00, 0x90,
  0x44, 0x7f, 0x00, 0x90, 0x41, 0x7f, 0x00, 0x91, 0x22, 0x7f, 0x00, 0x99,
  0x2a, 0x53, 0x00, 0x99, 0x3e, 0x53, 0x18, 0x89, 0x2a, 0x53, 0x00, 0x89,
  0x3e, 0x53, 0x06, 0x81, 0x22, 0x7f, 0x12, 0x95, 0x38, 0x7f, 0x00, 0x99,
  0x24, 0x7f, 0x00, 0x99, 0x2a, 0x74, 0x00, 0x99, 0x3c, 0x53, 0x00, 0x99,
  0x27, 0x74, 0x10, 0x85, 0x38, 0x7f, 0x08, 0x89, 0x24, 0x7f, 0x00, 0x89,
  0x2a, 0x74, 0x00, 0x89, 0x3c, 0x53, 0x00, 0x89, 0x27, 0x74, 0x18, 0x91,
  0x25, 0x7f, 0x1e, 0x81, 0x25, 0x7f, 0x12, 0x80, 0x49, 0x7f, 0x00, 0x80,
  0x44, 0x7f, 0x00, 0x80, 0x41, 0x7f, 0x00, 0x90, 0x48, 0x7f, 0x00, 0x90,
  0x44, 0x7f, 0x00, 0x90, 0x3f, 0x7f, 0x00, 0x91, 0x24, 0x7f, 0x00, 0x99,
  0x2a, 0x36, 0x00, 0x99, 0x3d, 0x53, 0x18, 0x89, 0x2a, 0x36, 0x00, 0x89,
  0x3d, 0x53, 0x04, 0x81, 0x24, 0x7f, 0x14, 0x80, 0x48, 0x7f, 0x00, 0x80,
  0x44, 0x7f, 0x00, 0x80, 0x3f, 0x7f, 0x00, 0x95, 0x35, 0x7f, 0x00, 0x99,
  0x2a, 0x47, 0x10, 0x85, 0x35, 0x7f, 0x08, 0x89, 0x2a, 0x47, 0x18, 0x95,
  0x38, 0x7f, 0x00, 0x99, 0x24, 0x7f, 0x00, 0x99, 0x2a, 0x64, 0x00, 0x99,
  0x3c, 0x53, 0x10, 0x85, 0x38, 0x7f, 0x08, 0x89, 0x24, 0x7f, 0x00, 0x89,
  0x2a, 0x64, 0x00, 0x89, 0x3c, 0x53, 0x48, 0x91, 0x22, 0x7f, 0x00, 0x95,
  0x38, 0x7f, 0x00, 0x99, 0x2a, 0x47, 0x10, 0x85, 0x38, 0x7f, 0x08, 0x89,
  0x2a, 0x47, 0x08, 0x81, 0x22, 0x7f, 0x10, 0x99, 0x2a, 0x47, 0x00, 0x99,
  0x3e, 0x53, 0x18, 0x89, 0x2a, 0x47, 0x00, 0x89, 0x3e, 0x53, 0x18, 0x95,
  0x38, 0x7f, 0x00, 0x99, 0x24, 0x7f, 0x00, 0x99, 0x2a, 0x74, 0x00, 0x99,
  0x3c, 0x53, 0x00, 0x99, 0x27, 0x64, 0x10, 0x85, 0x38, 0x7f, 0x08, 0x89,
  0x24, 0x7f, 0x00, 0x89, 0x2a, 0x74, 0x00, 0x89, 0x3c, 0x53, 0x00, 0x89,
  0x27, 0x64, 0x18, 0x95, 0x3a, 0x7f, 0x10, 0x85, 0x3a, 0x7f, 0x20, 0x91,
  0x20, 0x7f, 0x00, 0x99, 0x2e, 0x44, 0x00, 0x99, 0x3d, 0x53, 0x14, 0x81,
  0x20, 0x7f, 0x04, 0x89, 0x2e, 0x44, 0x00, 0x89, 0x3d, 0x53, 0x18, 0x91,
  0x20, 0x7f, 0x1c, 0x81, 0x20, 0x7f, 0x14, 0x91, 0x22, 0x7f, 0x00, 0x99,
  0x24, 0x7f, 0x00, 0x99, 0x2a, 0x74, 0x00, 0x99, 0x3c, 0x53, 0x18, 0x89,
  0x24, 0x7f, 0x00, 0x89, 0x2a, 0x74, 0x00, 0x89, 0x3c, 0x53, 0x0e, 0x81,
  0x22, 0x7f, 0x0a, 0x95, 0x38, 0x7f, 0x10, 0x85, 0x38, 0x7f, 0x20, 0x91,
  0x22, 0x7f, 0x00, 0x99, 0x2a, 0x2c, 0x18, 0x89, 0x2a, 0x2c, 0x02, 0x81,
  0x22, 0x7f, 0x16, 0x91, 0x22, 0x7f, 0x00, 0x99, 0x2a, 0x64, 0x00, 0x99,
  0x3e, 0x53, 0x18, 0x89, 0x2a, 0x64, 0x00, 0x89, 0x3e, 0x53, 0x08, 0x81,
  0x22, 0x7f, 0x10, 0x95, 0x38, 0x7f, 0x00, 0x99, 0x24, 0x7f, 0x00, 0x99,
  0x2a, 0x74, 0x00, 0x99, 0x3c, 0x53, 0x00, 0x99, 0x27, 0x64, 0x10, 0x85,
  0x38, 0x7f, 0x08, 0x89, 0x24, 0x7f, 0x00, 0x89, 0x2a, 0x74, 0x00, 0x89,
  0x3c, 0x53, 0x00, 0x89, 0x27, 0x64, 0x18, 0x91, 0x25, 0x7f, 0x20, 0x81,
  0x25, 0x7f, 0x10, 0x91, 0x24, 0x7f, 0x00, 0x99, 0x2a, 0x21, 0x00, 0x99,
  0x3d, 0x53, 0x18, 0x89, 0x2a, 0x21, 0x00, 0x89, 0x3d, 0x53, 0x04, 0x81,
  0x24, 0x7f, 0x14, 0x95, 0x35, 0x7f, 0x00, 0x99, 0x2a, 0x53, 0x10, 0x85,
  0x35, 0x7f, 0x08, 0x89, 0x2a, 0x53, 0x18, 0x91, 0x20, 0x7f, 0x00, 0x95,
  0x38, 0x7f, 0x00, 0x99, 0x24, 0x7f, 0x00, 0x99, 0x2a, 0x74, 0x00, 0x99,
  0x3c, 0x53, 0x10, 0x85, 0x38, 0x7f, 0x08, 0x89, 0x24, 0x7f, 0x00, 0x89,
  0x2a, 0x74, 0x00, 0x89, 0x3c, 0x53, 0x18, 0x81, 0x20, 0x7f, 0x30, 0x91,
  0x22, 0x7f, 0x00, 0x95, 0x38, 0x7f, 0x00, 0x99, 0x2a, 0x47, 0x10, 0x85,
  0x38, 0x7f, 0x08, 0x89, 0x2a, 0x47, 0x0a, 0x81, 0x22, 0x7f, 0x0e, 0x99,
  0x2a, 0x53, 0x00, 0x99, 0x3e, 0x53, 0x18, 0x89, 0x2a, 0x53, 0x00, 0x89,
  0x3e, 0x53, 0x18, 0x99, 0x24, 0x7f, 0x00, 0x99, 0x2a, 0x7f, 0x00, 0x99,
  0x3c, 0x53, 0x00, 0x99, 0x27, 0x74, 0x18, 0x89, 0x24, 0x7f, 0x00, 0x89,
  0x2a, 0x7f, 0x00, 0x89, 0x3c, 0x53, 0x00, 0x89, 0x27, 0x74, 0x48, 0x91,
  0x20, 0x7f, 0x00, 0x95, 0x33, 0x7f, 0x00, 0x99, 0x2a, 0x30, 0x00, 0x99,
  0x3d, 0x53, 0x10, 0x85, 0x33, 0x7f, 0x04, 0x81, 0x20, 0x7f, 0x04, 0x89,
  0x2a, 0x30, 0x00, 0x89, 0x3d, 0x53, 0x18, 0x91, 0x20, 0x7f, 0x00, 0x95,
  0x35, 0x7f, 0x00, 0x99, 0x2a, 0x3d, 0x10, 0x85, 0x35, 0x7f, 0x04, 0x81,
  0x20, 0x7f, 0x04, 0x89, 0x2a, 0x3d, 0x18, 0x90, 0x49, 0x7f, 0x00, 0x90,
  0x44, 0x7f, 0x00, 0x90, 0x41, 0x7f, 0x00, 0x91, 0x1b, 0x7f, 0x00, 0x99,
  0x24, 0x7f, 0x00, 0x99, 0x2a, 0x74, 0x00, 0x99, 0x3c, 0x53, 0x18, 0x89,
  0x24, 0x7f, 0x00, 0x89, 0x2a, 0x74, 0x00, 0x89, 0x3c, 0x53, 0x18, 0x81,
  0x1b, 0x7f, 0x00, 0x95, 0x38, 0x7f, 0x10, 0x85, 0x38, 0x7f, 0x20, 0x80,
  0x49, 0x7f, 0x00, 0x80, 0x44, 0x7f, 0x00, 0x80, 0x41, 0x7f, 0x00, 0x91,
  0x1b, 0x63, 0x00, 0x99, 0x2a, 0x47, 0x18, 0x89, 0x2a, 0x47, 0x04, 0x81,
  0x1b, 0x63, 0x14, 0x90, 0x49, 0x7f, 0x00, 0x90, 0x44, 0x7f, 0x00, 0x90,
  0x41, 0x7f, 0x00, 0x91, 0x20, 0x73, 0x00, 0x99, 0x2a, 0x47, 0x00, 0x99,
  0x3e, 0x53, 0x18, 0x89, 0x2a, 0x47, 0x00, 0x89, 0x3e, 0x53, 0x16, 0x81,
  0x20, 0x73, 0x02, 0x95, 0x38, 0x7f, 0x00, 0x99, 0x24, 0x7f, 0x00, 0x99,
  0x2a, 0x74, 0x00, 0x99, 0x3c, 0x53, 0x00, 0x99, 0x27, 0x64, 0x10, 0x85,
  0x38, 0x7f, 0x08, 0x89, 0x24, 0x7f, 0x00, 0x89, 0x2a, 0x74, 0x00, 0x89,
  0x3c, 0x53, 0x00, 0x89, 0x27, 0x64, 0x18, 0x91, 0x20, 0x47, 0x10, 0x81,
  0x20, 0x47, 0x20, 0x80, 0x49, 0x7f, 0x00, 0x80, 0x44, 0x7f, 0x00, 0x80,
  0x41, 0x7f, 0x00, 0x90, 0x48, 0x7f, 0x00, 0x90, 0x44, 0x7f, 0x00, 0x90,
  0x3f, 0x7f, 0x00, 0x91, 0x20, 0x7f, 0x00, 0x99, 0x2e, 0x44, 0x00, 0x99,
  0x3d, 0x53, 0x18, 0x89, 0x2e, 0x44, 0x00, 0x89, 0x3d, 0x53, 0x06, 0x81,
  0x20, 0x7f, 0x12, 0x80, 0x48, 0x7f, 0x00, 0x80, 0x44, 0x7f, 0x00, 0x80,
  0x3f, 0x7f, 0x00, 0x95, 0x35, 0x7f, 0x10, 0x85, 0x35, 0x7f, 0x20, 0x95,
  0x38, 0x7f, 0x00, 0x99, 0x24, 0x7f, 0x00, 0x99, 0x2a, 0x74, 0x00, 0x99,
  0x3c, 0x53, 0x10, 0x85, 0x38, 0x7f, 0x08, 0x89, 0x24, 0x7f, 0x00, 0x89,
  0x2a, 0x74, 0x00, 0x89, 0x3c, 0x53, 0x48, 0x91, 0x20, 0x7f, 0x00, 0x95,
  0x38, 0x7f, 0x00, 0x99, 0x2a, 0x3d, 0x10, 0x85, 0x38, 0x7f, 0x04, 0x81,
  0x20, 0x7f, 0x04, 0x89, 0x2a, 0x3d, 0x18, 0x91, 0x20, 0x7f, 0x00, 0x99,
  0x2a, 0x64, 0x00, 0x99, 0x3e, 0x53, 0x18, 0x89, 0x2a, 0x64, 0x00, 0x89,
  0x3e, 0x53, 0x0c, 0x81, 0x20, 0x7f, 0x0c, 0x99, 0x24, 0x7f, 0x00, 0x99,
  0x2a, 0x74, 0x00, 0x99, 0x3c, 0x53, 0x00, 0x99, 0x27, 0x7d, 0x18, 0x89,
  0x24, 0x7f, 0x00, 0x89, 0x2a, 0x74, 0x00, 0x89, 0x3c, 0x53, 0x00, 0x89,
  0x27, 0x7d, 0x18, 0x91, 0x20, 0x63, 0x00, 0x95, 0x38, 0x7f, 0x00, 0x99,
  0x27, 0x69, 0x10, 0x85, 0x38, 0x7f, 0x08, 0x81, 0x20, 0x63, 0x00, 0x89,
  0x27, 0x69, 0x18, 0x91, 0x22, 0x63, 0x00, 0x99, 0x2e, 0x5f, 0x00, 0x99,
  0x3d, 0x53, 0x00, 0x99, 0x27, 0x55, 0x10, 0x81, 0x22, 0x63, 0x08, 0x89,
  0x2e, 0x5f, 0x00, 0x89, 0x3d, 0x53, 0x00, 0x89, 0x27, 0x55, 0x18, 0x91,
  0x22, 0x73, 0x00, 0x95, 0x38, 0x7f, 0x00, 0x99, 0x27, 0x41, 0x10, 0x85,
  0x38, 0x7f, 0x06, 0x81, 0x22, 0x73, 0x02, 0x89, 0x27, 0x41, 0x18, 0x99,
  0x2a, 0x70, 0x00, 0x99, 0x3c, 0x53, 0x18, 0x89, 0x2a, 0x70, 0x00, 0x89,
  0x3c, 0x53, 0x18, 0x95, 0x38, 0x7f, 0x10, 0x85, 0x38, 0x7f, 0x20, 0x99,
  0x2a, 0x36, 0x18, 0x89, 0x2a, 0x36, 0x18, 0x99, 0x2a, 0x64, 0x00, 0x99,
  0x3e, 0x53, 0x18, 0x89, 0x2a, 0x64, 0x00, 0x89, 0x3e, 0x53, 0x18, 0x95,
  0x38, 0x7f, 0x00, 0x99, 0x2a, 0x74, 0x00, 0x99, 0x3c, 0x53, 0x00, 0x99,
  0x27, 0x64, 0x10, 0x85, 0x38, 0x7f, 0x08, 0x89, 0x2a, 0x74, 0x00, 0x89,
  0x3c, 0x53, 0x00, 0x89, 0x27, 0x64, 0x48, 0x99, 0x2a, 0x28, 0x00, 0x99,
  0x3d, 0x53, 0x18, 0x89, 0x2a, 0x28, 0x00, 0x89, 0x3d, 0x53, 0x18, 0x95,
  0x35, 0x7f, 0x00, 0x99, 0x2a, 0x53, 0x10, 0x85, 0x35, 0x7f, 0x08, 0x89,
  0x2a, 0x53, 0x18, 0x95, 0x38, 0x7f, 0x00, 0x99, 0x2a, 0x74, 0x00, 0x99,
  0x3c, 0x53, 0x10, 0x85, 0x38, 0x7f, 0x08, 0x89, 0x2a, 0x74, 0x00, 0x89,
  0x3c, 0x53, 0x48, 0x99, 0x2a, 0x30, 0x18, 0x89, 0x2a, 0x30, 0x18, 0x95,
  0x38, 0x7f, 0x00, 0x99, 0x2a, 0x47, 0x00, 0x99, 0x3e, 0x53, 0x10, 0x85,
  0x38, 0x7f, 0x08, 0x89, 0x2a, 0x47, 0x00, 0x89, 0x3e, 0x53, 0x18, 0x99,
  0x2a, 0x74, 0x00, 0x99, 0x3c, 0x53, 0x00, 0x99, 0x27, 0x74, 0x18, 0x89,
  0x2a, 0x74, 0x00, 0x89, 0x3c, 0x53, 0x00, 0x89, 0x27, 0x74, 0x48, 0x95,
  0x35, 0x7f, 0x00, 0x99, 0x2a, 0x0d, 0x00, 0x99, 0x3d, 0x53, 0x10, 0x85,
  0x35, 0x7f, 0x08, 0x89, 0x2a, 0x0d, 0x00, 0x89, 0x3d, 0x53, 0x18, 0x95,
  0x38, 0x7f, 0x00, 0x99, 0x2a, 0x47, 0x10, 0x85, 0x38, 0x7f, 0x08, 0x89,
  0x2a, 0x47, 0x18, 0x90, 0x49, 0x7f, 0x00, 0x90, 0x44, 0x7f, 0x00, 0x90,
  0x41, 0x7f, 0x00, 0x99, 0x2a, 0x64, 0x00, 0x99, 0x3c, 0x53, 0x18, 0x89,
  0x2a, 0x64, 0x00, 0x89, 0x3c, 0x53, 0x18, 0x95, 0x38, 0x7f, 0x10, 0x85,
  0x38, 0x7f, 0x20, 0x80, 0x49, 0x7f, 0x00, 0x80, 0x44, 0x7f, 0x00, 0x80,
  0x41, 0x7f, 0x00, 0x99, 0x2a, 0x36, 0x18, 0x89, 0x2a, 0x36, 0x18, 0x90,
  0x49, 0x7f, 0x00, 0x90, 0x44, 0x7f, 0x00, 0x90, 0x41, 0x7f, 0x00, 0x99,
  0x2a, 0x53, 0x00, 0x99, 0x3e, 0x53, 0x18, 0x89, 0x2a, 0x53, 0x00, 0x89,
  0x3e, 0x53, 0x18, 0x95, 0x38, 0x7f, 0x00, 0x99, 0x2a, 0x74, 0x00, 0x99,
  0x3c, 0x53, 0x00, 0x99, 0x27, 0x74, 0x10, 0x85, 0x38, 0x7f, 0x08, 0x89,
  0x2a, 0x74, 0x00, 0x89, 0x3c, 0x53, 0x00, 0x89, 0x27, 0x74, 0x48, 0x80,
  0x49, 0x7f, 0x00, 0x80, 0x44, 0x7f, 0x00, 0x80, 0x41, 0x7f, 0x00, 0x90,
  0x48, 0x7f, 0x00, 0x90, 0x44, 0x7f, 0x00, 0x90, 0x3f, 0x7f, 0x00, 0x99,
  0x2a, 0x36, 0x00, 0x99, 0x3d, 0x53, 0x18, 0x89, 0x2a, 0x36, 0x00, 0x89,
  0x3d, 0x53, 0x18, 0x80, 0x48, 0x7f, 0x00, 0x80, 0x44, 0x7f, 0x00, 0x80,
  0x3f, 0x7f, 0x00, 0x95, 0x35, 0x7f, 0x00, 0x99, 0x2a, 0x47, 0x10, 0x85,
  0x35, 0x7f, 0x08, 0x89, 0x2a, 0x47, 0x18, 0x95, 0x38, 0x7f, 0x00, 0x99,
  0x2a, 0x64, 0x00, 0x99, 0x3c, 0x53, 0x10, 0x85, 0x38, 0x7f, 0x08, 0x89,
  0x2a, 0x64, 0x00, 0x89, 0x3c, 0x53, 0x48, 0x95, 0x38, 0x7f, 0x00, 0x99,
  0x2a, 0x47, 0x10, 0x85, 0x38, 0x7f, 0x08, 0x89, 0x2a, 0x47, 0x18, 0x99,
  0x2a, 0x47, 0x00, 0x99, 0x3e, 0x53, 0x18, 0x89, 0x2a, 0x47, 0x00, 0x89,
  0x3e, 0x53, 0x18, 0x95, 0x38, 0x7f, 0x00, 0x99, 0x2a, 0x74, 0x00, 0x99,
  0x3c, 0x53, 0x00, 0x99, 0x27, 0x64, 0x10, 0x85, 0x38, 0x7f, 0x08, 0x89,
  0x2a, 0x74, 0x00, 0x89, 0x3c, 0x53, 0x00, 0x89, 0x27, 0x64, 0x18, 0x95,
  0x3a, 0x7f, 0x10, 0x85, 0x3a, 0x7f, 0x20, 0x99, 0x2e, 0x44, 0x00, 0x99,
  0x3d, 0x53, 0x18, 0x89, 0x2e, 0x44, 0x00, 0x89, 0x3d, 0x53, 0x48, 0x99,
  0x2a, 0x74, 0x00, 0x99, 0x3c, 0x53, 0x18, 0x89, 0x2a, 0x74, 0x00, 0x89,
  0x3c, 0x53, 0x18, 0x95, 0x38, 0x7f, 0x10, 0x85, 0x38, 0x7f, 0x20, 0x99,
  0x2a, 0x2c, 0x18, 0x89, 0x2a, 0x2c, 0x18, 0x99, 0x2a, 0x64, 0x00, 0x99,
  0x3e, 0x53, 0x18, 0x89, 0x2a, 0x64, 0x00, 0x89, 0x3e, 0x53, 0x18, 0x95,
  0x38, 0x7f, 0x00, 0x99, 0x2a, 0x74, 0x00, 0x99, 0x3c, 0x53, 0x00, 0x99,
  0x27, 0x64, 0x10, 0x85, 0x38, 0x7f, 0x08, 0x89, 0x2a, 0x74, 0x00, 0x89,
  0x3c, 0x53, 0x00, 0x89, 0x27, 0x64, 0x48, 0x99, 0x2a, 0x21, 0x00, 0x99,
  0x3d, 0x53, 0x18, 0x89, 0x2a, 0x21, 0x00, 0x89, 0x3d, 0x53, 0x18, 0x95,
  0x35, 0x7f, 0x00, 0x99, 0x2a, 0x53, 0x10, 0x85, 0x35, 0x7f, 0x08, 0x89,
  0x2a, 0x53, 0x18, 0x95, 0x38, 0x7f, 0x00, 0x99, 0x2a, 0x74, 0x00, 0x99,
  0x3c, 0x53, 0x10, 0x85, 0x38, 0x7f, 0x08, 0x89, 0x2a, 0x74, 0x00, 0x89,
  0x3c, 0x53, 0x48, 0x95, 0x38, 0x7f, 0x00, 0x99, 0x2a, 0x47, 0x10, 0x85,
  0x38, 0x7f, 0x08, 0x89, 0x2a, 0x47, 0x18, 0x99, 0x2a, 0x53, 0x00, 0x99,
  0x3e, 0x53, 0x18, 0x89, 0x2a, 0x53, 0x00, 0x89, 0x3e, 0x53, 0x18, 0x99,
  0x2a, 0x7f, 0x00, 0x99, 0x3c, 0x53, 0x00, 0x99, 0x27, 0x74, 0x18, 0x89,
  0x2a, 0x7f, 0x00, 0x89, 0x3c, 0x53, 0x00, 0x89, 0x27, 0x74, 0x48, 0x95,
  0x33, 0x7f, 0x00, 0x99, 0x2a, 0x30, 0x00, 0x99, 0x3d, 0x53, 0x10, 0x85,
  0x33, 0x7f, 0x08, 0x89, 0x2a, 0x30, 0x00, 0x89, 0x3d, 0x53, 0x18, 0x95,
  0x35, 0x7f, 0x00, 0x99, 0x2a, 0x3d, 0x10, 0x85, 0x35, 0x7f, 0x08, 0x89,
  0x2a, 0x3d, 0x18, 0x90, 0x49, 0x7f, 0x00, 0x90, 0x44, 0x7f, 0x00, 0x90,
  0x41, 0x7f, 0x00, 0x99, 0x2a, 0x74, 0x00, 0x99, 0x3c, 0x53, 0x18, 0x89,
  0x2a, 0x74, 0x00, 0x89, 0x3c, 0x53, 0x18, 0x95, 0x38, 0x7f, 0x10, 0x85,
  0x38, 0x7f, 0x20, 0x80, 0x49, 0x7f, 0x00, 0x80, 0x44, 0x7f, 0x00, 0x80,
  0x41, 0x7f, 0x00, 0x99, 0x2a, 0x47, 0x18, 0x89, 0x2a, 0x47, 0x18, 0x90,
  0x49, 0x7f, 0x00, 0x90, 0x44, 0x7f, 0x00, 0x90, 0x41, 0x7f, 0x00, 0x99,
  0x2a, 0x47, 0x00, 0x99, 0x3e, 0x53, 0x18, 0x89, 0x2a, 0x47, 0x00, 0x89,
  0x3e, 0x53, 0x18, 0x95, 0x38, 0x7f, 0x00, 0x99, 0x2a, 0x74, 0x00, 0x99,
  0x3c, 0x53, 0x00, 0x99, 0x27, 0x64, 0x10, 0x85, 0x38, 0x7f, 0x08, 0x89,
  0x2a, 0x74, 0x00, 0x89, 0x3c, 0x53, 0x00, 0x89, 0x27, 0x64, 0x48, 0x80,
  0x49, 0x7f, 0x00, 0x80, 0x44, 0x7f, 0x00, 0x80, 0x41, 0x7f, 0x00, 0x90,
  0x48, 0x7f, 0x00, 0x90, 0x44, 0x7f, 0x00, 0x90, 0x3f, 0x7f, 0x00, 0x99,
  0x2e, 0x44, 0x00, 0x99, 0x3d, 0x53, 0x18, 0x89, 0x2e, 0x44, 0x00, 0x89,
  0x3d, 0x53, 0x18, 0x80, 0x48, 0x7f, 0x00, 0x80, 0x44, 0x7f, 0x00, 0x80,
  0x3f, 0x7f, 0x00, 0x95, 0x35, 0x7f, 0x10, 0x85, 0x35, 0x7f, 0x20, 0x95,
  0x38, 0x7f, 0x00, 0x99, 0x2a, 0x74, 0x00, 0x99, 0x3c, 0x53, 0x10, 0x85,
  0x38, 0x7f, 0x08, 0x89, 0x2a, 0x74, 0x00, 0x89, 0x3c, 0x53, 0x48, 0x95,
  0x38, 0x7f, 0x00, 0x99, 0x2a, 0x3d, 0x10, 0x85, 0x38, 0x7f, 0x08, 0x89,
  0x2a, 0x3d, 0x18, 0x99, 0x2a, 0x64, 0x00, 0x99, 0x3e, 0x53, 0x18, 0x89,
  0x2a, 0x64, 0x00, 0x89, 0x3e, 0x53, 0x18, 0x99, 0x3c, 0x53, 0x00, 0x99,
  0x27, 0x7d, 0x18, 0x89, 0x3c, 0x53, 0x00, 0x89, 0x27, 0x7d, 0x18, 0x95,
  0x38, 0x7f, 0x00, 0x99, 0x27, 0x69, 0x10, 0x85, 0x38, 0x7f, 0x20, 0x94,
  0x3a, 0x7f, 0x00, 0x99, 0x3d, 0x53, 0x04, 0x94, 0x52, 0x7f, 0x02, 0x91,
  0x22, 0x7f, 0x00, 0x94, 0x46, 0x7f, 0x06, 0x89, 0x3d, 0x53, 0x0c, 0x89,
  0x27, 0x69, 0x18, 0x95, 0x38, 0x7f, 0x10, 0x85, 0x38, 0x7f, 0x02, 0x81,
  0x22, 0x7f, 0x04, 0x84, 0x46, 0x7f, 0x06, 0x84, 0x3a, 0x7f, 0x02, 0x84,
  0x52, 0x7f, 0x00, 0xb0, 0x7b, 0x00, 0x00, 0xb0, 0x78, 0x00, 0x00, 0xb1,
  0x7b, 0x00, 0x00, 0xb1, 0x78, 0x00, 0x00, 0xb2, 0x7b, 0x00, 0x00, 0xb2,
  0x78, 0x00, 0x00, 0xb3, 0x7b, 0x00, 0x00, 0xb3, 0x78, 0x00, 0x00, 0xb4,
  0x7b, 0x00, 0x00, 0xb4, 0x78, 0x00, 0x00, 0xb5, 0x7b, 0x00, 0x00, 0xb5,
  0x78, 0x00, 0x00, 0xb6, 0x7b, 0x00, 0x00, 0xb6, 0x78, 0x00, 0x00, 0xb9,
  0x7b, 0x00, 0x00, 0xb9, 0x78, 0x00, 0x00, 0xb9, 0x7b, 0x00, 0x00, 0xb9,
  0x78, 0x00, 0x00, 0xb9, 0x7b, 0x00, 0x00, 0xb9, 0x78, 0x00, 0x00, 0xb9,
  0x7b, 0x00, 0x00, 0xb9, 0x78, 0x00, 0x00, 0xb9, 0x7b, 0x00, 0x00, 0xb9,
  0x78, 0x00, 0x00, 0xb9, 0x7b, 0x00, 0x00, 0xb9, 0x78, 0x00, 0x00, 0xb9,
  0x7b, 0x00, 0x00, 0xb9, 0x78, 0x00, 0x00, 0xb9, 0x7b, 0x00, 0x00, 0xb9,
  0x78, 0x00, 0x00, 0xb9, 0x7b, 0x00, 0x00, 0xb9, 0x78, 0x00, 0x00, 0xb9,
  0x7b, 0x00, 0x00, 0xb9, 0x78, 0x00, 0x00, 0xb9, 0x7b, 0x00, 0x00, 0xb9,
  0x78, 0x00, 0x00, 0xb9, 0x7b, 0x00, 0x00, 0xb9, 0x78, 0x00, 0x00, 0xb9,
  0x7b, 0x00, 0x00, 0xb9, 0x78, 0x00, 0x00, 0xb9, 0x7b, 0x00, 0x00, 0xb9,
  0x78, 0x00, 0x00, 0xff, 0x2f, 0x00
};
unsigned int _Users_tofer_Downloads_Rick_Astley___Never_Gonna_Give_You_Up_mid_len = 56922;
